<?xml version="1.0" encoding="UTF-8"?>
<svg width="20px" height="20px" viewBox="0 0 20 20" version="1.1" xmlns="http://www.w3.org/2000/svg" xmlns:xlink="http://www.w3.org/1999/xlink">
    <!-- Generator: Sketch 47.1 (45422) - http://www.bohemiancoding.com/sketch -->
    <title>Glyph / Basic / Search</title>
    <desc>Created with Sketch.</desc>
    <defs></defs>
    <g id="Symbols" stroke="none" stroke-width="1" fill="none" fill-rule="evenodd">
        <g id="Glyph-/-Basic-/-Search" fill="#3E3D40">
            <path d="M13.7574052,11.6360848 L18.834282,16.7129617 C19.4225829,17.3012625 19.4287052,18.2489643 18.8388348,18.8388348 C18.2530483,19.4246212 17.3033237,19.424644 16.7129617,18.834282 L11.6360848,13.7574052 C10.4504353,14.5426849 9.0286235,15 7.5,15 C3.35786438,15 0,11.6421356 0,7.5 C0,3.35786438 3.35786438,0 7.5,0 C11.6421356,0 15,3.35786438 15,7.5 C15,9.0286235 14.5426849,10.4504353 13.7574052,11.6360848 Z M7.5,12.5 C10.2614237,12.5 12.5,10.2614237 12.5,7.5 C12.5,4.73857625 10.2614237,2.5 7.5,2.5 C4.73857625,2.5 2.5,4.73857625 2.5,7.5 C2.5,10.2614237 4.73857625,12.5 7.5,12.5 Z" id="Combined-Shape"></path>
        </g>
    </g>
</svg>