<?xml version="1.0" encoding="utf-8"?>
<!-- Generator: Adobe Illustrator 21.1.0, SVG Export Plug-In . SVG Version: 6.00 Build 0)  -->
<svg version="1.1" id="Layer_1" xmlns="http://www.w3.org/2000/svg" xmlns:xlink="http://www.w3.org/1999/xlink" x="0px" y="0px"
	 viewBox="0 0 200 200" style="enable-background:new 0 0 200 200;" xml:space="preserve">
<style type="text/css">
	.st0{opacity:0.2;clip-path:url(#SVGID_2_);fill:#A0A0A0;enable-background:new    ;}
	.st1{opacity:0.2;clip-path:url(#SVGID_4_);fill:#A0A0A0;enable-background:new    ;}
	.st2{opacity:0.2;clip-path:url(#SVGID_6_);fill:#A0A0A0;enable-background:new    ;}
	.st3{opacity:0.2;clip-path:url(#SVGID_8_);fill:#A0A0A0;enable-background:new    ;}
	.st4{opacity:0.2;clip-path:url(#SVGID_10_);fill:#A0A0A0;enable-background:new    ;}
	.st5{opacity:0.2;clip-path:url(#SVGID_12_);fill:#A0A0A0;enable-background:new    ;}
	.st6{opacity:0.2;clip-path:url(#SVGID_14_);fill:#A0A0A0;enable-background:new    ;}
	.st7{opacity:0.2;clip-path:url(#SVGID_16_);fill:#A0A0A0;enable-background:new    ;}
	.st8{opacity:0.2;clip-path:url(#SVGID_18_);fill:#E8E8E8;enable-background:new    ;}
	.st9{opacity:0.2;clip-path:url(#SVGID_20_);fill:#E8E8E8;enable-background:new    ;}
	.st10{opacity:0.2;clip-path:url(#SVGID_22_);fill:#E8E8E8;enable-background:new    ;}
	.st11{opacity:0.2;clip-path:url(#SVGID_24_);fill:#E8E8E8;enable-background:new    ;}
	.st12{opacity:0.2;clip-path:url(#SVGID_26_);fill:#E8E8E8;enable-background:new    ;}
	.st13{opacity:0.2;clip-path:url(#SVGID_28_);fill:#E8E8E8;enable-background:new    ;}
	.st14{opacity:0.2;clip-path:url(#SVGID_30_);fill:#E8E8E8;enable-background:new    ;}
	.st15{opacity:0.2;clip-path:url(#SVGID_32_);fill:#E8E8E8;enable-background:new    ;}
	.st16{opacity:0.2;clip-path:url(#SVGID_34_);}
	.st17{fill:#5E5E5E;}
	.st18{opacity:0.2;clip-path:url(#SVGID_36_);}
	.st19{opacity:0.2;clip-path:url(#SVGID_38_);}
	.st20{opacity:0.2;clip-path:url(#SVGID_40_);}
	.st21{opacity:0.2;clip-path:url(#SVGID_42_);}
	.st22{opacity:0.2;clip-path:url(#SVGID_44_);fill:#A0A0A0;enable-background:new    ;}
	.st23{opacity:0.2;clip-path:url(#SVGID_46_);fill:#A0A0A0;enable-background:new    ;}
	.st24{opacity:0.2;clip-path:url(#SVGID_48_);fill:#A0A0A0;enable-background:new    ;}
	.st25{opacity:0.2;clip-path:url(#SVGID_50_);fill:#A0A0A0;enable-background:new    ;}
	.st26{opacity:0.2;clip-path:url(#SVGID_52_);fill:#E8E8E8;enable-background:new    ;}
	.st27{opacity:0.2;clip-path:url(#SVGID_54_);fill:#E8E8E8;enable-background:new    ;}
	.st28{opacity:0.2;clip-path:url(#SVGID_56_);fill:#E8E8E8;enable-background:new    ;}
	.st29{opacity:0.2;clip-path:url(#SVGID_58_);fill:#E8E8E8;enable-background:new    ;}
	.st30{opacity:0.2;clip-path:url(#SVGID_60_);}
	.st31{opacity:0.2;clip-path:url(#SVGID_62_);}
	.st32{opacity:0.2;clip-path:url(#SVGID_64_);}
	.st33{opacity:0.2;clip-path:url(#SVGID_66_);}
	.st34{opacity:0.2;clip-path:url(#SVGID_68_);}
</style>
<g>
	<defs>
		<rect id="SVGID_1_" width="200" height="200"/>
	</defs>
	<clipPath id="SVGID_2_">
		<use xlink:href="#SVGID_1_"  style="overflow:visible;"/>
	</clipPath>
	<polygon class="st0" points="25,181 50,162 50,100 25,81 	"/>
</g>
<g>
	<defs>
		<rect id="SVGID_3_" width="200" height="200"/>
	</defs>
	<clipPath id="SVGID_4_">
		<use xlink:href="#SVGID_3_"  style="overflow:visible;"/>
	</clipPath>
	<polygon class="st1" points="75,181 100,162 100,100 75,81 	"/>
</g>
<g>
	<defs>
		<rect id="SVGID_5_" width="200" height="200"/>
	</defs>
	<clipPath id="SVGID_6_">
		<use xlink:href="#SVGID_5_"  style="overflow:visible;"/>
	</clipPath>
	<polygon class="st2" points="125,181 150,162 150,100 125,81 	"/>
</g>
<g>
	<defs>
		<rect id="SVGID_7_" width="200" height="200"/>
	</defs>
	<clipPath id="SVGID_8_">
		<use xlink:href="#SVGID_7_"  style="overflow:visible;"/>
	</clipPath>
	<polygon class="st3" points="175,181 200,162 200,100 175,81 	"/>
</g>
<g>
	<defs>
		<rect id="SVGID_9_" width="200" height="200"/>
	</defs>
	<clipPath id="SVGID_10_">
		<use xlink:href="#SVGID_9_"  style="overflow:visible;"/>
	</clipPath>
	<polygon class="st4" points="25,81 50,62 50,0 25,-19 	"/>
</g>
<g>
	<defs>
		<rect id="SVGID_11_" width="200" height="200"/>
	</defs>
	<clipPath id="SVGID_12_">
		<use xlink:href="#SVGID_11_"  style="overflow:visible;"/>
	</clipPath>
	<polygon class="st5" points="75,81 100,62 100,0 75,-19 	"/>
</g>
<g>
	<defs>
		<rect id="SVGID_13_" width="200" height="200"/>
	</defs>
	<clipPath id="SVGID_14_">
		<use xlink:href="#SVGID_13_"  style="overflow:visible;"/>
	</clipPath>
	<polygon class="st6" points="125,81 150,62 150,0 125,-19 	"/>
</g>
<g>
	<defs>
		<rect id="SVGID_15_" width="200" height="200"/>
	</defs>
	<clipPath id="SVGID_16_">
		<use xlink:href="#SVGID_15_"  style="overflow:visible;"/>
	</clipPath>
	<polygon class="st7" points="175,81 200,62 200,0 175,-19 	"/>
</g>
<g>
	<defs>
		<rect id="SVGID_17_" width="200" height="200"/>
	</defs>
	<clipPath id="SVGID_18_">
		<use xlink:href="#SVGID_17_"  style="overflow:visible;"/>
	</clipPath>
	<polygon class="st8" points="25,181 0,162 0,100 25,81 	"/>
</g>
<g>
	<defs>
		<rect id="SVGID_19_" width="200" height="200"/>
	</defs>
	<clipPath id="SVGID_20_">
		<use xlink:href="#SVGID_19_"  style="overflow:visible;"/>
	</clipPath>
	<polygon class="st9" points="75,181 50,162 50,100 75,81 	"/>
</g>
<g>
	<defs>
		<rect id="SVGID_21_" width="200" height="200"/>
	</defs>
	<clipPath id="SVGID_22_">
		<use xlink:href="#SVGID_21_"  style="overflow:visible;"/>
	</clipPath>
	<polygon class="st10" points="125,181 100,162 100,100 125,81 	"/>
</g>
<g>
	<defs>
		<rect id="SVGID_23_" width="200" height="200"/>
	</defs>
	<clipPath id="SVGID_24_">
		<use xlink:href="#SVGID_23_"  style="overflow:visible;"/>
	</clipPath>
	<polygon class="st11" points="175,181 150,162 150,100 175,81 	"/>
</g>
<g>
	<defs>
		<rect id="SVGID_25_" width="200" height="200"/>
	</defs>
	<clipPath id="SVGID_26_">
		<use xlink:href="#SVGID_25_"  style="overflow:visible;"/>
	</clipPath>
	<polygon class="st12" points="25,81 0,62 0,0 25,-19 	"/>
</g>
<g>
	<defs>
		<rect id="SVGID_27_" width="200" height="200"/>
	</defs>
	<clipPath id="SVGID_28_">
		<use xlink:href="#SVGID_27_"  style="overflow:visible;"/>
	</clipPath>
	<polygon class="st13" points="75,81 50,62 50,0 75,-19 	"/>
</g>
<g>
	<defs>
		<rect id="SVGID_29_" width="200" height="200"/>
	</defs>
	<clipPath id="SVGID_30_">
		<use xlink:href="#SVGID_29_"  style="overflow:visible;"/>
	</clipPath>
	<polygon class="st14" points="125,81 100,62 100,0 125,-19 	"/>
</g>
<g>
	<defs>
		<rect id="SVGID_31_" width="200" height="200"/>
	</defs>
	<clipPath id="SVGID_32_">
		<use xlink:href="#SVGID_31_"  style="overflow:visible;"/>
	</clipPath>
	<polygon class="st15" points="175,81 150,62 150,0 175,-19 	"/>
</g>
<g>
	<defs>
		<rect id="SVGID_33_" width="200" height="200"/>
	</defs>
	<clipPath id="SVGID_34_">
		<use xlink:href="#SVGID_33_"  style="overflow:visible;"/>
	</clipPath>
	<g class="st16">
		<polygon class="st17" points="25,81 50,100 75,81 50,62 		"/>
	</g>
</g>
<g>
	<defs>
		<rect id="SVGID_35_" width="200" height="200"/>
	</defs>
	<clipPath id="SVGID_36_">
		<use xlink:href="#SVGID_35_"  style="overflow:visible;"/>
	</clipPath>
	<g class="st18">
		<polygon class="st17" points="75,81 100,100 125,81 100,62 		"/>
	</g>
</g>
<g>
	<defs>
		<rect id="SVGID_37_" width="200" height="200"/>
	</defs>
	<clipPath id="SVGID_38_">
		<use xlink:href="#SVGID_37_"  style="overflow:visible;"/>
	</clipPath>
	<g class="st19">
		<polygon class="st17" points="125,81 150,100 175,81 150,62 		"/>
	</g>
</g>
<g>
	<defs>
		<rect id="SVGID_39_" width="200" height="200"/>
	</defs>
	<clipPath id="SVGID_40_">
		<use xlink:href="#SVGID_39_"  style="overflow:visible;"/>
	</clipPath>
	<g class="st20">
		<polygon class="st17" points="-25,81 0,100 25,81 0,62 		"/>
	</g>
</g>
<g>
	<defs>
		<rect id="SVGID_41_" width="200" height="200"/>
	</defs>
	<clipPath id="SVGID_42_">
		<use xlink:href="#SVGID_41_"  style="overflow:visible;"/>
	</clipPath>
	<g class="st21">
		<polygon class="st17" points="175,81 200,100 225,81 200,62 		"/>
	</g>
</g>
<g>
	<defs>
		<rect id="SVGID_43_" width="200" height="200"/>
	</defs>
	<clipPath id="SVGID_44_">
		<use xlink:href="#SVGID_43_"  style="overflow:visible;"/>
	</clipPath>
	<polygon class="st22" points="25,281 50,262 50,200 25,181 	"/>
</g>
<g>
	<defs>
		<rect id="SVGID_45_" width="200" height="200"/>
	</defs>
	<clipPath id="SVGID_46_">
		<use xlink:href="#SVGID_45_"  style="overflow:visible;"/>
	</clipPath>
	<polygon class="st23" points="75,281 100,262 100,200 75,181 	"/>
</g>
<g>
	<defs>
		<rect id="SVGID_47_" width="200" height="200"/>
	</defs>
	<clipPath id="SVGID_48_">
		<use xlink:href="#SVGID_47_"  style="overflow:visible;"/>
	</clipPath>
	<polygon class="st24" points="125,281 150,262 150,200 125,181 	"/>
</g>
<g>
	<defs>
		<rect id="SVGID_49_" width="200" height="200"/>
	</defs>
	<clipPath id="SVGID_50_">
		<use xlink:href="#SVGID_49_"  style="overflow:visible;"/>
	</clipPath>
	<polygon class="st25" points="175,281 200,262 200,200 175,181 	"/>
</g>
<g>
	<defs>
		<rect id="SVGID_51_" width="200" height="200"/>
	</defs>
	<clipPath id="SVGID_52_">
		<use xlink:href="#SVGID_51_"  style="overflow:visible;"/>
	</clipPath>
	<polygon class="st26" points="25,281 0,262 0,200 25,181 	"/>
</g>
<g>
	<defs>
		<rect id="SVGID_53_" width="200" height="200"/>
	</defs>
	<clipPath id="SVGID_54_">
		<use xlink:href="#SVGID_53_"  style="overflow:visible;"/>
	</clipPath>
	<polygon class="st27" points="75,281 50,262 50,200 75,181 	"/>
</g>
<g>
	<defs>
		<rect id="SVGID_55_" width="200" height="200"/>
	</defs>
	<clipPath id="SVGID_56_">
		<use xlink:href="#SVGID_55_"  style="overflow:visible;"/>
	</clipPath>
	<polygon class="st28" points="125,281 100,262 100,200 125,181 	"/>
</g>
<g>
	<defs>
		<rect id="SVGID_57_" width="200" height="200"/>
	</defs>
	<clipPath id="SVGID_58_">
		<use xlink:href="#SVGID_57_"  style="overflow:visible;"/>
	</clipPath>
	<polygon class="st29" points="175,281 150,262 150,200 175,181 	"/>
</g>
<g>
	<defs>
		<rect id="SVGID_59_" width="200" height="200"/>
	</defs>
	<clipPath id="SVGID_60_">
		<use xlink:href="#SVGID_59_"  style="overflow:visible;"/>
	</clipPath>
	<g class="st30">
		<polygon class="st17" points="25,181 50,200 75,181 50,162 		"/>
	</g>
</g>
<g>
	<defs>
		<rect id="SVGID_61_" width="200" height="200"/>
	</defs>
	<clipPath id="SVGID_62_">
		<use xlink:href="#SVGID_61_"  style="overflow:visible;"/>
	</clipPath>
	<g class="st31">
		<polygon class="st17" points="75,181 100,200 125,181 100,162 		"/>
	</g>
</g>
<g>
	<defs>
		<rect id="SVGID_63_" width="200" height="200"/>
	</defs>
	<clipPath id="SVGID_64_">
		<use xlink:href="#SVGID_63_"  style="overflow:visible;"/>
	</clipPath>
	<g class="st32">
		<polygon class="st17" points="125,181 150,200 175,181 150,162 		"/>
	</g>
</g>
<g>
	<defs>
		<rect id="SVGID_65_" width="200" height="200"/>
	</defs>
	<clipPath id="SVGID_66_">
		<use xlink:href="#SVGID_65_"  style="overflow:visible;"/>
	</clipPath>
	<g class="st33">
		<polygon class="st17" points="-25,181 0,200 25,181 0,162 		"/>
	</g>
</g>
<g>
	<defs>
		<rect id="SVGID_67_" width="200" height="200"/>
	</defs>
	<clipPath id="SVGID_68_">
		<use xlink:href="#SVGID_67_"  style="overflow:visible;"/>
	</clipPath>
	<g class="st34">
		<polygon class="st17" points="175,181 200,200 225,181 200,162 		"/>
	</g>
</g>
</svg>
