<?xml version="1.0" encoding="utf-8"?>
<!-- Generator: Adobe Illustrator 21.1.0, SVG Export Plug-In . SVG Version: 6.00 Build 0)  -->
<svg version="1.1" id="Layer_1" xmlns="http://www.w3.org/2000/svg" xmlns:xlink="http://www.w3.org/1999/xlink" x="0px" y="0px"
	 viewBox="0 0 200 200" style="enable-background:new 0 0 200 200;" xml:space="preserve">
<style type="text/css">
	.st0{opacity:0.2;fill:#FFFFFF;enable-background:new    ;}
</style>
<g id="Layer_2">
</g>
<g id="Layer_1_1_">
	<rect x="30.7" y="46.9" transform="matrix(0.6599 -0.7513 0.7513 0.6599 -24.7061 48.0057)" class="st0" width="20" height="8.7"/>
	
		<rect x="98.1" y="113.6" transform="matrix(0.6599 -0.7513 0.7513 0.6599 -51.8793 121.3602)" class="st0" width="20" height="8.7"/>
	
		<rect x="174.5" y="177.9" transform="matrix(0.6599 -0.7513 0.7513 0.6599 -74.2211 200.5907)" class="st0" width="20" height="8.7"/>
	
		<rect x="14.7" y="116.7" transform="matrix(0.6599 -0.7513 0.7513 0.6599 -82.5191 59.6903)" class="st0" width="20" height="8.7"/>
	<rect x="16.1" y="177" transform="matrix(0.6599 -0.7513 0.7513 0.6599 -127.3792 81.251)" class="st0" width="20" height="8.7"/>
	<rect x="67.9" y="60.4" transform="matrix(0.7071 -0.7071 0.7071 0.7071 -28.626 71.7165)" class="st0" width="8.7" height="20"/>
	
		<rect x="163.7" y="23.3" transform="matrix(0.7071 -0.7071 0.7071 0.7071 25.6799 128.6006)" class="st0" width="8.7" height="20"/>
	<rect x="157" y="155.3" transform="matrix(0.7071 -0.7071 0.7071 0.7071 -69.634 162.4846)" class="st0" width="8.7" height="20"/>
	
		<rect x="137.9" y="75.3" transform="matrix(0.7071 -0.7071 0.7071 0.7071 -18.6469 125.5352)" class="st0" width="8.7" height="20"/>
	
		<rect x="128.6" y="173.5" transform="matrix(0.7071 -0.7071 0.7071 0.7071 -90.8119 147.7257)" class="st0" width="8.7" height="20"/>
	
		<rect x="49.6" y="149.4" transform="matrix(0.7071 -0.7071 0.7071 0.7071 -96.9058 84.8296)" class="st0" width="8.7" height="20"/>
	<rect x="86.8" y="34.4" transform="matrix(0.5 -0.866 0.866 0.5 14.884 103.2159)" class="st0" width="20" height="8.7"/>
	<rect x="154.5" y="106.7" transform="matrix(0.5 -0.866 0.866 0.5 -13.9103 197.9258)" class="st0" width="20" height="8.7"/>
	<rect x="32.4" y="79.8" transform="matrix(0.3286 -0.9445 0.9445 0.3286 -60.158 94.9797)" class="st0" width="8.7" height="20"/>
	
		<rect x="16.5" y="142.3" transform="matrix(0.3286 -0.9445 0.9445 0.3286 -129.8714 121.9559)" class="st0" width="8.7" height="20"/>
	
		<rect x="90.9" y="141.8" transform="matrix(0.3286 -0.9445 0.9445 0.3286 -79.4502 191.9002)" class="st0" width="8.7" height="20"/>
	<rect x="180" y="127.6" transform="matrix(0.3286 -0.9445 0.9445 0.3286 -6.2025 266.4986)" class="st0" width="8.7" height="20"/>
	
		<rect x="98.9" y="70.2" transform="matrix(6.675769e-02 -0.9978 0.9978 6.675769e-02 27.2513 178.144)" class="st0" width="20" height="8.7"/>
	
		<rect x="117.9" y="-1.4" transform="matrix(0.1515 -0.9885 0.9885 0.1515 95.1895 128.1338)" class="st0" width="8.7" height="20"/>
	
		<rect x="-0.7" y="63.7" transform="matrix(6.675769e-02 -0.9978 0.9978 6.675769e-02 -59.1254 72.7929)" class="st0" width="20" height="8.7"/>
	
		<rect x="62.6" y="110.3" transform="matrix(6.675769e-02 -0.9978 0.9978 6.675769e-02 -46.6399 179.3459)" class="st0" width="20" height="8.7"/>
	
		<rect x="10.1" y="19.7" transform="matrix(6.675769e-02 -0.9978 0.9978 6.675769e-02 -5.2385 42.4074)" class="st0" width="20" height="8.7"/>
	
		<rect x="124.5" y="140.3" transform="matrix(6.675769e-02 -0.9978 0.9978 6.675769e-02 -18.8032 269.1049)" class="st0" width="20" height="8.7"/>
	<rect x="78.9" y="177.8" transform="matrix(0.5 -0.866 0.866 0.5 -113.2853 168.0079)" class="st0" width="20" height="8.7"/>
	
		<rect x="57.7" y="8" transform="matrix(6.675769e-02 -0.9978 0.9978 6.675769e-02 39.9337 78.7542)" class="st0" width="8.7" height="20"/>
	
		<rect x="172.4" y="56.5" transform="matrix(6.675769e-02 -0.9978 0.9978 6.675769e-02 98.6123 238.4974)" class="st0" width="8.7" height="20"/>
	
		<rect x="133.1" y="36.7" transform="matrix(6.675769e-02 -0.9978 0.9978 6.675769e-02 81.7063 180.7542)" class="st0" width="8.7" height="20"/>
	
		<rect x="181.6" y="1.9" transform="matrix(6.675769e-02 -0.9978 0.9978 6.675769e-02 161.6778 196.6597)" class="st0" width="8.7" height="20"/>
</g>
</svg>
