<?xml version="1.0" encoding="utf-8"?>
<!-- Generator: Adobe Illustrator 21.1.0, SVG Export Plug-In . SVG Version: 6.00 Build 0)  -->
<svg version="1.1" id="Layer_1" xmlns="http://www.w3.org/2000/svg" xmlns:xlink="http://www.w3.org/1999/xlink" x="0px" y="0px"
	 viewBox="0 0 200 200" style="enable-background:new 0 0 200 200;" xml:space="preserve">
<style type="text/css">
	.st0{opacity:0.2;fill:#FFFFFF;enable-background:new    ;}
</style>
<path class="st0" d="M58.3,59.6c-0.5,1.4-1.3,3.2-1,5.9c0.3,3.5,2.3,5.7,3.9,7.5c1.7,1.9,2.5,3,2.3,4.8c-0.1,1.4,0.9,2.7,2.3,2.9
	c0.2,0,0.4,0,0.6,0c1.2-0.2,2.1-1.1,2.2-2.3c0.4-4.2-1.8-6.7-3.6-8.8c-1.4-1.5-2.4-2.8-2.6-4.6c-0.1-1.4,0.2-2.3,0.7-3.5
	c1.2-3.1,1.8-6-3.4-10.3c-1.1-0.9-2.8-0.8-3.7,0.3s-0.8,2.8,0.3,3.7C59.2,57.4,59,57.9,58.3,59.6z"/>
<path class="st0" d="M64.5,40.9c0,2.6-0.1,5.8,2.2,8.7c2.2,2.7,4.9,3.6,7.2,4.4c3,1,3.9,1.3,3.6,4.7c-0.1,1.4,0.9,2.6,2.3,2.8h0.1
	c1.4,0.1,2.7-1,2.8-2.4c0.5-7.5-4-8.9-7.2-10c-1.9-0.6-3.5-1.2-4.7-2.6c-1.1-1.3-1.1-2.9-1.1-5.3c0-2.4,0.1-5.1-1.6-7.7
	c-0.8-1.2-2.4-1.5-3.6-0.7c-1.2,0.8-1.5,2.4-0.7,3.6C64.6,37.4,64.5,39,64.5,40.9z"/>
<path class="st0" d="M114.6,62c-2.1,0.1-3-1.2-4.9-4.6c-2.2-4-5.3-9.5-13.8-9c-1.4,0.1-2.6,1.3-2.5,2.8c0.1,1.4,1.3,2.6,2.8,2.5
	c5-0.3,6.6,2.2,8.9,6.3c1.8,3.3,4,7.3,9.3,7.3c0.1,0,0.3,0,0.4,0c1.4-0.1,2.6-1.3,2.5-2.7C117.2,63.1,116,61.9,114.6,62z"/>
<path class="st0" d="M136.8,136.8c-2.1,0.1-3-1.2-4.9-4.6c-2.2-4-5.3-9.5-13.8-9c-1.4,0.1-2.6,1.3-2.5,2.8c0.1,1.4,1.3,2.6,2.8,2.5
	c5-0.3,6.6,2.2,8.9,6.3c1.8,3.3,4,7.3,9.3,7.3c0.1,0,0.3,0,0.4,0c1.4-0.1,2.6-1.3,2.5-2.7C139.5,137.9,138.3,136.7,136.8,136.8z"/>
<path class="st0" d="M23.3,43.4c-1.4,0.1-2.6,1.3-2.5,2.8c0.1,1.4,1.3,2.6,2.8,2.5c5-0.3,6.6,2.2,8.9,6.3c1.8,3.3,4,7.3,9.3,7.3
	c0.1,0,0.3,0,0.4,0c1.4-0.1,2.6-1.3,2.5-2.7S43.4,57,42,57.1c-2.1,0.1-3-1.2-4.9-4.6C34.8,48.4,31.8,42.9,23.3,43.4z"/>
<path class="st0" d="M126.5,177.4c-2-0.4-3.6-0.8-4.8-2.2c-0.9-1-1.2-2-1.5-3.2c-0.8-3.2-2.1-5.9-8.8-6.4c-1.4-0.1-2.7,1-2.8,2.4
	c-0.1,1.4,1,2.7,2.4,2.8c3.5,0.3,3.6,0.7,4.1,2.5c0.4,1.4,0.9,3.4,2.6,5.4c2.3,2.6,5.2,3.3,7.6,3.8c2.5,0.5,3.8,0.9,4.7,2.5
	c0.6,1,1.8,1.5,2.9,1.2c0.2-0.1,0.5-0.2,0.7-0.3c1.3-0.7,1.7-2.3,0.9-3.6C132.4,178.7,129.1,178,126.5,177.4z"/>
<path class="st0" d="M157.2,160.1c-1.9-0.4-3.6-0.8-4.9-2.2c-1.2-1.2-1.4-2.8-1.6-5.2c-0.2-2.4-0.4-5.1-2.4-7.5
	c-0.9-1.1-2.6-1.3-3.7-0.4c-1.1,0.9-1.3,2.6-0.4,3.7c0.9,1.1,1.1,2.8,1.2,4.6c0.2,2.6,0.5,5.8,3.1,8.4c2.4,2.5,5.3,3.1,7.6,3.6
	c3.1,0.7,4,0.9,4.1,4.3c0.1,1.4,1.2,2.5,2.6,2.5h0.1c1.4-0.1,2.6-1.3,2.5-2.7C165.2,161.8,160.6,160.8,157.2,160.1z"/>
<path class="st0" d="M74.8,23.3c5.6-1.8,6.7,0.3,8.7,5.5c1.4,3.8,3.5,9.3,9.9,9.3c0.8,0,1.7-0.1,2.6-0.3c1.4-0.3,2.3-1.7,2-3.1
	c-0.3-1.4-1.7-2.3-3.1-2c-3.7,0.8-4.7-0.8-6.6-5.7c-1.8-4.8-4.6-12-15.1-8.7c-1.4,0.4-2.1,1.9-1.7,3.3C72,23,73.5,23.8,74.8,23.3z"
	/>
<path class="st0" d="M86.2,112.1c-0.3-1.4-1.7-2.3-3.1-2.1c-1.8,0.4-3.1,0.2-3.9-0.4c-2-1.5-2.2-6.3-2.5-10.5
	c-0.2-2.7-0.3-5.3-0.8-7.5c-0.3-1.4-1.8-2.3-3.2-1.9l0,0c-1.4,0.3-2.3,1.8-1.9,3.2c0.4,1.7,0.6,4.1,0.7,6.5
	c0.3,5.6,0.6,11.4,4.5,14.3c2.1,1.6,4.8,2.1,8.1,1.4h0.1C85.6,114.8,86.4,113.5,86.2,112.1z"/>
<path class="st0" d="M182.3,81.1c-1.2-1.2-1.4-2.8-1.6-5.2c-0.2-2.4-0.4-5.1-2.4-7.5c-0.9-1.1-2.6-1.3-3.7-0.4
	c-1.1,0.9-1.3,2.6-0.4,3.7c0.9,1.1,1.1,2.8,1.2,4.6c0.2,2.6,0.5,5.8,3.1,8.4c2.4,2.5,5.3,3.1,7.6,3.6c3.1,0.7,4,0.9,4.1,4.3
	c0.1,1.4,1.2,2.5,2.6,2.5h0.1c1.4-0.1,2.6-1.3,2.5-2.7c-0.3-7.5-4.9-8.5-8.2-9.2C185.3,82.8,183.6,82.4,182.3,81.1z"/>
<path class="st0" d="M161.9,18.2c5-0.3,6.6,2.2,8.9,6.3c1.8,3.3,4,7.3,9.3,7.3c0.1,0,0.3,0,0.4,0c1.4-0.1,2.6-1.3,2.5-2.7
	c-0.1-1.4-1.3-2.6-2.7-2.5c-2.1,0.1-3-1.2-4.9-4.6c-2.2-4-5.3-9.5-13.8-9c-1.4,0.1-2.6,1.3-2.5,2.8
	C159.2,17.1,160.5,18.2,161.9,18.2z"/>
<path class="st0" d="M177,121.8c1.1,0.5,2.2,0.8,3.5,0.8c1.5,0,3.1-0.4,4.8-1.1c1.3-0.6,1.9-2.1,1.4-3.4c-0.6-1.3-2.1-1.9-3.4-1.4
	c-1.7,0.7-3,0.8-3.9,0.4c-2.2-1.1-3.5-5.7-4.6-9.7c-0.7-2.6-1.4-5.1-2.4-7.1c-0.6-1.3-2.2-1.9-3.5-1.2c-1.3,0.6-1.9,2.2-1.2,3.5
	c0.8,1.6,1.4,3.9,2,6.2C171.1,114.1,172.6,119.7,177,121.8z"/>
<path class="st0" d="M132.7,72.1c0.1,0.6,0.4,1.2,0.8,1.6c0.6,0.5,1.3,0.8,2.1,0.6c1.4-0.2,2.4-1.5,2.2-3c-0.6-3.9-2.7-7.1-4.5-9.9
	c-3.2-4.9-4.8-7.7-1.4-12.2c0.9-1.2,0.6-2.8-0.5-3.7c-1.2-0.9-2.8-0.6-3.7,0.5c-5.7,7.6-1.8,13.5,1.2,18.2
	C130.7,66.9,132.3,69.3,132.7,72.1z"/>
<path class="st0" d="M156.3,102.5c-5.9-1.3-9.4-3.8-11.3-7.9c-0.3-0.6-0.3-1.3-0.2-2.3c0.1-2.1,0.1-5.2-4.1-7.9
	c-1.2-0.8-2.8-0.4-3.6,0.8c-0.8,1.2-0.4,2.8,0.8,3.6c1.7,1,1.6,1.5,1.6,3.3c0,1.3-0.1,2.8,0.7,4.6c2.5,5.7,7.4,9.2,14.9,10.9
	c0.3,0.1,0.6,0.1,0.8,0c1.1-0.1,2-0.9,2.3-2C158.6,104.2,157.7,102.8,156.3,102.5z"/>
<path class="st0" d="M100.4,15.2c0.7,1.6,1.4,3.2,2.5,4.2c1.4,1.3,3.2,1.7,4.7,2c0.7,0.2,1.7,0.4,2,0.6c2.3,2.1,1.9,3.5,0.4,7.9
	c-0.3,0.7-0.5,1.5-0.8,2.3c-0.4,1.4,0.3,2.9,1.7,3.3l0,0c1.4,0.4,2.9-0.3,3.3-1.7c0.2-0.8,0.5-1.5,0.7-2.2c1.5-4.4,3.1-8.9-1.7-13.5
	c-1.3-1.3-3-1.6-4.5-1.9c-0.9-0.2-1.9-0.4-2.3-0.8c-0.3-0.3-0.9-1.6-1.2-2.4c-0.6-1.5-1.3-3-2.4-4.2c-1-1.1-2.7-1.1-3.7-0.1
	c-1.1,1-1.1,2.7-0.1,3.7C99.4,13,100,14.2,100.4,15.2z"/>
<path class="st0" d="M5.2,34.8c0.5,1.4,2,2,3.4,1.5C8.8,36.2,9,36.1,9.2,36c1-0.7,1.4-1.9,0.9-3.1C8.6,29,5.5,27.8,3,26.7
	c-1.1-0.5-2.1-0.9-3-1.4v5.9c0.3,0.1,0.7,0.3,1,0.4C3.3,32.6,4.6,33.1,5.2,34.8z"/>
<path class="st0" d="M5.1,143.1c1.4,3.8,3.5,9.3,9.9,9.3c0.8,0,1.7-0.1,2.6-0.3c1.4-0.3,2.3-1.7,2-3.1c-0.3-1.4-1.7-2.3-3.1-2
	c-3.7,0.8-4.7-0.8-6.6-5.7c-1.5-3.9-3.6-9.4-10-9.5v5.2C2.6,137.1,3.6,139.2,5.1,143.1z"/>
<path class="st0" d="M9.2,95c0.3,0.1,0.5,0.1,0.8,0.1c1.1,0,2.1-0.7,2.5-1.8c0.4-1.4-0.3-2.9-1.7-3.3c-5.2-1.6-5.2-3.3-5.3-6.7
	c0-2.8-0.1-6.6-3.8-9.9C1.2,73,0.6,72.7,0,72.7v7.6c0.2,0.9,0.2,1.9,0.2,3.1C0.3,87.1,0.4,92.2,9.2,95z"/>
<path class="st0" d="M3.4,112.5c0.5,0.8,0.8,2.3,1.2,4.4c0.1,0.6,0.2,1.3,0.4,2c0.2,1.3,1.3,2.1,2.6,2.1c0.2,0,0.3,0,0.5,0
	c1.4-0.3,2.4-1.6,2.1-3.1c-0.1-0.7-0.2-1.3-0.3-1.9c-0.9-5.2-1.6-8.7-8.9-10.2c-0.3-0.1-0.6-0.1-0.8-0.1v5.3
	C2.4,111.5,3,112.1,3.4,112.5z"/>
<path class="st0" d="M10.2,60.9c0.3,0.1,0.7,0.1,1,0c1-0.2,1.9-1,2.1-2.1c0.3-1.4-0.7-2.8-2.1-3.1c-4.4-0.8-7-3.3-7.7-7.4
	c0-0.2,0-0.9,0-1.4c0.1-2.2,0.4-6.7-3.5-9.3v16.5C2,57.7,5.5,60.1,10.2,60.9z"/>
<path class="st0" d="M25.6,78.2c1.8,2.7,0,7.7-1.3,11.4l-0.2,0.7c-0.5,1.4,0.2,2.9,1.6,3.3c0.3,0.1,0.6,0.1,0.9,0.1
	c1.1,0,2.1-0.7,2.5-1.8l0.2-0.7c1.7-4.7,3.9-11.1,0.7-16c-1.5-2.3-3.8-3.5-6-4.7c-2.1-1.1-4.1-2.1-5.2-3.9c-0.8-1.2-2.4-1.6-3.6-0.8
	c-1.2,0.8-1.6,2.4-0.8,3.6c1.9,2.9,4.7,4.4,7.2,5.7C23.4,76.3,24.9,77.1,25.6,78.2z"/>
<path class="st0" d="M44.1,112c-0.3,2.3-0.6,4.7,0.9,6.9c1.2,1.9,3.2,2.7,4.7,3.4c1.6,0.7,2.5,1.1,2.9,2c0.5,1.2,1.7,1.8,2.9,1.6
	c0.2,0,0.4-0.1,0.5-0.2c1.3-0.5,2-2.1,1.4-3.4c-1.2-2.9-3.7-4-5.6-4.8c-1.1-0.5-2.1-0.9-2.5-1.5c-0.4-0.5-0.2-1.9,0-3.4
	c0.1-0.8,0.2-1.8,0.2-2.7c0.1-2.7-0.7-5.1-2.4-6.9c-1.9-2-4.7-3.2-8.1-3.2c-1.4,0-2.7,1.1-2.7,2.6s1.1,2.7,2.6,2.7
	c1.9,0,3.4,0.6,4.4,1.6c0.9,1,1.1,2.2,1,3.1C44.3,110.5,44.2,111.3,44.1,112z"/>
<path class="st0" d="M82.6,131.2c-7.6-1.8-11.4-2.9-15.6-9.6c-0.8-1.2-2.4-1.6-3.6-0.8c-1.2,0.8-1.6,2.4-0.8,3.6
	c5.1,8.2,10.5,10,18.8,11.9c0.2,0,0.4,0.1,0.6,0.1c1.2,0,2.3-0.8,2.6-2C84.8,133,84,131.5,82.6,131.2z"/>
<path class="st0" d="M107.5,124.8c2.1-2.8,4.4-5.7,3.7-9.3c-0.5-2.7-2.6-5.1-6.5-7.5c-1.2-0.7-2.8-0.3-3.6,0.9
	c-0.7,1.2-0.3,2.8,0.9,3.6c3.3,2,4,3.4,4.1,3.9c0.2,1.3-1.2,3.1-2.7,5.1c-2.3,3-5.2,6.7-5.1,11.8c0,0.9,0.5,1.6,1.1,2
	c0.5,0.4,1,0.5,1.6,0.5c1.5,0,2.6-1.2,2.6-2.7C103.5,130,105.5,127.4,107.5,124.8z"/>
<path class="st0" d="M142.4,113.7c-1.5-0.9-3.5-1.5-5.6-2.2c-4.8-1.6-8.4-2.9-8.1-5.2c0.2-1.4-0.8-2.8-2.3-2.9
	c-1.4-0.2-2.8,0.8-2.9,2.3c-0.9,6.7,6.4,9.1,11.7,10.9c1.8,0.6,3.6,1.2,4.6,1.8c0.4,0.2,0.9,0.4,1.3,0.4c0.9,0,1.8-0.5,2.3-1.3
	C144.1,116,143.7,114.4,142.4,113.7z"/>
<path class="st0" d="M132.8,33.8c1.4,0.4,2.8,0.8,3.6,1.3c1.4,1,2.5,2,3.5,3c1.6,1.5,3,2.8,4.8,3.5c2.3,0.9,5.2,0.7,9.5-1.5
	c1.3-0.7,1.8-2.2,1.2-3.5c-0.7-1.3-2.2-1.8-3.5-1.2c-4.7,2.4-5.5,1.7-8.3-1.1c-1.1-1-2.4-2.3-4.2-3.6c-1.5-1-3.4-1.6-5.2-2.1
	c-3.8-1.1-4.2-1.5-4-2.4c0.2-1.4-0.8-2.8-2.2-3c-1.4-0.2-2.8,0.8-3,2.2C124.2,31.4,129.6,32.9,132.8,33.8z"/>
<path class="st0" d="M110.3,71.5c-1.2-0.8-2.8-0.4-3.6,0.8c-0.8,1.2-0.4,2.8,0.8,3.6c2.5,1.6,3.3,5,4.2,8.6
	c1.1,4.8,2.6,10.7,9.1,11.9c0.2,0,0.3,0,0.5,0c1.2,0,2.3-0.9,2.6-2.1c0.3-1.4-0.7-2.8-2.1-3.1c-2.9-0.5-3.7-2.9-4.9-8
	C115.7,79.1,114.6,74.3,110.3,71.5z"/>
<path class="st0" d="M97.9,163.9c-1.7-0.8-2.5-3-3.4-5.5c-1.1-3-2.4-6.3-5.5-8.5c-2.1-1.4-4.4-2.3-6.6-3.1c-2.5-0.9-4.9-1.8-6.9-3.4
	c-1.1-0.9-2.8-0.8-3.7,0.4c-0.9,1.1-0.8,2.8,0.4,3.7c2.7,2.3,5.8,3.4,8.4,4.3c2,0.7,3.9,1.4,5.4,2.5c1.8,1.2,2.7,3.5,3.6,6
	c1.2,3.1,2.5,6.5,5.9,8.3c0.4,0.2,0.8,0.3,1.2,0.3c1,0,1.9-0.5,2.3-1.4C99.7,166.1,99.1,164.6,97.9,163.9z"/>
<path class="st0" d="M112.5,142.5l0.6,0.6c2.3,2,3.2,2.9,3.7,3.9c0.6,1,0.9,2.6,1.5,5.8v0.1c0.1,0.6,0.2,1.1,0.3,1.6
	c0.6,3.6,1.3,7.9,7.3,8.1c0.8,0,1.8,0,2.9-0.1c1.4-0.2,2.5-1.5,2.3-2.9s-1.5-2.5-2.9-2.3c-2.7,0.3-3.3-0.1-3.5-0.3
	c-0.4-0.5-0.7-1.9-0.9-3.4c-0.1-0.6-0.2-1.1-0.3-1.7v-0.1c-1.4-7.5-1.7-8-6.9-12.6l-0.6-0.5c-1.1-1-2.7-0.9-3.7,0.2
	C111.3,139.8,111.4,141.5,112.5,142.5z"/>
<path class="st0" d="M36.4,139.5c1.1-0.2,2-1.1,2.2-2.2c0.2-1.4-0.8-2.8-2.2-3c-1.3-0.2-2.2-5-2.5-7c-0.3-1.5-0.5-2.7-0.8-3.7
	c-1.3-3.8-3.7-10.7-12.5-10.3c-1.4,0.1-2.6,1.3-2.5,2.7c0.1,1.4,1.3,2.6,2.7,2.5c3.8-0.2,5.4,1.3,7.3,6.8c0.2,0.6,0.4,1.7,0.6,2.9
	c0.7,4.2,1.8,10.6,7,11.3C35.9,139.5,36.1,139.5,36.4,139.5z"/>
<path class="st0" d="M50.4,173.1c-2.7-0.7-5.1-1.4-5.6-2.9c-0.3-0.8-0.2-2.6-0.2-3.9c0-0.7,0-1.3,0-1.9c-0.1-3.6-1.1-8.6-8-10.3
	c-1.4-0.3-2.8,0.5-3.2,1.9c-0.3,1.4,0.5,2.8,1.9,3.2c3,0.7,3.9,1.9,4,5.4c0,0.4,0,1,0,1.6c0,1.9-0.1,4.1,0.5,5.7
	c1.5,4.3,6.2,5.5,9.3,6.3c0.2,0.1,0.4,0.1,0.6,0.1c1.2,0,2.2-0.8,2.5-2C52.6,174.9,51.8,173.5,50.4,173.1z"/>
<path class="st0" d="M95.7,182.3c-2.5,0-3.6-0.1-4.2-0.5c-0.7-0.4-1.4-1.7-2.6-3.6l-0.2-0.4c-1.7-2.9-5-5.3-8.8-6.5
	c-1.4-0.4-2.9,0.3-3.3,1.7s0.3,2.9,1.7,3.3c2.7,0.9,4.8,2.4,5.9,4.2l0.2,0.4c3.2,5.2,4.3,6.6,11.2,6.6l0,0c1.4,0,2.6-1.2,2.6-2.6
	C98.3,183.4,97.2,182.3,95.7,182.3z"/>
<path class="st0" d="M152.6,50.6c-1-1-2.7-1-3.7,0s-1,2.7,0,3.7c0.5,0.5,0.8,1,1.2,1.6c0.7,1.1,1.6,2.4,3.3,3.5
	c2.6,1.7,7.4,3,10.5,3c0.1,0,0.2,0,0.3,0c1.4,0,2.6-1.3,2.5-2.7c0-1.5-1.3-2.6-2.7-2.5c-2.1,0.1-6-1-7.8-2.2
	c-0.8-0.5-1.2-1.1-1.7-1.9C154,52.3,153.4,51.5,152.6,50.6z"/>
<path class="st0" d="M197.6,173.8c-1.9-1.1-4.1-1.4-6.2-1.7c-4.5-0.7-5.9-1.1-6.2-4.2c-0.1-1.4-1.4-2.5-2.8-2.4
	c-1.4,0.1-2.5,1.4-2.4,2.8c0.6,7.4,6.6,8.3,10.6,8.9c1.7,0.3,3.3,0.5,4.4,1.1c0.4,0.2,0.9,0.3,1.3,0.3c0.9,0,1.8-0.5,2.3-1.3
	C199.3,176.2,198.8,174.6,197.6,173.8z"/>
<path class="st0" d="M161,139.9L161,139.9c1.5,0,2.7-1.1,2.7-2.5c0.1-2.6-0.1-9.2-4.3-13.4c-2.2-2.2-5.1-3.3-8.4-3.2
	c-1.4,0-2.6,1.3-2.5,2.7c0,1.5,1.2,2.6,2.7,2.5c1.9-0.1,3.4,0.5,4.5,1.6c2.2,2.2,2.9,6.4,2.8,9.5C158.4,138.6,159.5,139.8,161,139.9
	z"/>
<path class="st0" d="M135.4,8.9c1.4,1.2,3.1,1.8,4.6,2.3c2.6,0.9,3.4,1.4,3.6,2.7c0.2,1.3,1.3,2.2,2.6,2.2c0.2,0,0.3,0,0.5,0
	c1.4-0.3,2.4-1.6,2.1-3.1c-0.8-4.5-4.4-5.8-7-6.7c-1.2-0.4-2.3-0.8-3-1.4c-1.7-1.4-1.9-2.4-1.9-4.8h-5.3
	C131.7,3,131.9,5.9,135.4,8.9z"/>
<path class="st0" d="M169.2,89.1c1.3-0.5,2-2.1,1.5-3.4c-2.1-5.5-7.6-6-12-6.4c-4.9-0.5-7.1-0.9-8-3.6c-0.5-1.4-2-2.1-3.4-1.6
	s-2.1,2-1.6,3.4c2.2,6,7.9,6.5,12.5,7c4.6,0.4,6.7,0.9,7.6,3.1c0.4,1,1.4,1.7,2.4,1.7C168.6,89.3,168.9,89.2,169.2,89.1z"/>
<path class="st0" d="M187.2,4.9c0.1,1.4,1.2,2.5,2.6,2.5h0.1c1.4-0.1,2.6-1.3,2.5-2.7c-0.1-2-0.5-3.6-1.1-4.8h-10.9
	c0.9,0.3,1.8,0.5,2.6,0.7C186.2,1.4,187.1,1.5,187.2,4.9z"/>
<path class="st0" d="M20.1,6.2c0.4,0.2,0.9,0.4,1.3,0.4c0.9,0,1.8-0.5,2.3-1.3C24.4,4,24,2.4,22.8,1.7c-1.1-0.7-2.5-1.2-4-1.7H6.2
	c2.4,2.2,6.2,3.4,9.2,4.4C17.3,5,19.1,5.6,20.1,6.2z"/>
<path class="st0" d="M114,5.8c1.4,0,2.6-1.2,2.6-2.6c0-1.1-0.1-2.2-0.2-3.2h-5.3c0.1,1,0.2,2,0.2,3.2C111.4,4.6,112.6,5.8,114,5.8z"
	/>
<path class="st0" d="M79.4,9c0.2,0,0.4,0.1,0.6,0.1c1.2,0,2.3-0.8,2.6-2.1c0.3-1.4-0.6-2.8-2-3.1C78.9,3.5,78.3,2.6,78,0h-5.3
	C73.1,3.5,74.1,7.8,79.4,9z"/>
<path class="st0" d="M53.4,6.5c1,0.3,1.9,0.6,2.4,1c0.5,0.5,0.6,1,0.6,2.5c0,1.1,0.1,2.5,0.6,4c0.4,1.1,1.4,1.8,2.5,1.8
	c0.3,0,0.6,0,0.8-0.1c1.4-0.5,2.1-2,1.6-3.3c-0.3-0.8-0.3-1.6-0.3-2.5c-0.1-1.8-0.1-4-2.1-6c-1.4-1.4-3.2-2-4.7-2.4
	c-1.1-0.3-2.1-0.6-2.5-1.1c-0.1-0.1-0.1-0.2-0.2-0.3h-5.6c0.3,1.1,0.7,2.2,1.5,3.3C49.5,5.3,51.6,6,53.4,6.5z"/>
<path class="st0" d="M198.6,23.8c-0.7-1.2-0.8-2.2-0.9-3.4c-0.3-3.3-1.1-6.1-7.7-7.7c-1.4-0.3-2.8,0.5-3.2,1.9
	c-0.3,1.4,0.5,2.8,1.9,3.2c3.4,0.8,3.5,1.3,3.7,3.1c0.1,1.5,0.3,3.5,1.7,5.7c1.6,2.5,3.9,3.7,5.9,4.6v-5.9
	C199.4,24.9,199,24.5,198.6,23.8z"/>
<path class="st0" d="M194.8,132.6c-1.4,0.4-2.1,1.9-1.7,3.3c0.4,1.4,1.9,2.1,3.3,1.7c1.5-0.5,2.6-0.7,3.6-0.6v-5.2
	C198.5,131.7,196.8,131.9,194.8,132.6z"/>
<path class="st0" d="M198,73.5c-1,1.1-0.9,2.7,0.2,3.7c1.1,1,1.6,2,1.8,3v-7.6C199.3,72.7,198.5,72.9,198,73.5z"/>
<path class="st0" d="M195.8,105.7c-1.3,0.1-3.7,0.3-4.2-0.1c0,0-0.2-0.3,0-1.2c0.2-1.4-0.8-2.8-2.3-2.9c-1.4-0.2-2.8,0.8-2.9,2.3
	c-0.3,2.3,0.2,4.2,1.4,5.5c2.1,2.2,5.5,2,8.5,1.7c1.4-0.1,2.8-0.2,3.6,0c0.1,0,0.2,0,0.2,0.1v-5.3
	C198.6,105.5,197.2,105.6,195.8,105.7z"/>
<path class="st0" d="M193.3,38.1c-0.3,1.4,0.5,2.8,1.9,3.2c3,0.7,3.3,2.1,3.1,5.4c-0.1,0.9-0.1,1.7,0,2.5c0.3,1.8,0.9,3.5,1.7,5
	V37.6c-0.9-0.6-2.1-1.2-3.6-1.5C195,35.8,193.6,36.7,193.3,38.1z"/>
<path class="st0" d="M184.2,195.5c-1.9-0.4-3.6-0.8-4.9-2.2c-1.2-1.2-1.4-2.8-1.6-5.2c-0.2-2.4-0.4-5.1-2.4-7.5
	c-0.9-1.1-2.6-1.3-3.7-0.4c-1.1,0.9-1.3,2.6-0.4,3.7c0.9,1.1,1.1,2.8,1.2,4.6c0.2,2.6,0.5,5.8,3.1,8.4c1.6,1.6,3.3,2.4,4.9,2.9h10.9
	C189.8,196.8,186.7,196.1,184.2,195.5z"/>
<path class="st0" d="M9,194.2c0.2-1.4-0.8-2.8-2.3-2.9c-1.4-0.2-2.8,0.8-2.9,2.3c-0.4,2.8,0.7,4.9,2.5,6.4h12.6
	c-0.6-0.2-1.1-0.4-1.7-0.6C12.3,197.9,8.7,196.5,9,194.2z"/>
<path class="st0" d="M105.2,185.4c-1.1,1-1.1,2.7-0.1,3.7c3.5,3.7,5.5,6.5,6.1,10.9h5.3c-0.7-6.1-3.3-10.1-7.6-14.5
	C108,184.4,106.3,184.4,105.2,185.4z"/>
<path class="st0" d="M158.1,197.3c-1.4-1.5-1.9-4.3-2.3-6.8l-0.1-0.8c-0.4-2.5-1.6-4.8-2.6-6.9c-0.9-1.8-1.7-3.4-1.9-4.7
	c-0.2-1.4-1.5-2.4-3-2.2c-1.4,0.2-2.4,1.5-2.2,3c0.3,2.2,1.4,4.3,2.4,6.4c0.9,1.8,1.8,3.7,2.1,5.4l0.1,0.8c0.4,2.8,1,6.1,3,8.7h5.1
	C159,199.1,158.9,198,158.1,197.3z"/>
<path class="st0" d="M68.2,187.1c-1.5-0.1-2.7,1-2.8,2.4c-0.1,1.4,1,2.7,2.4,2.8c3.9,0.3,4.3,2.1,4.7,6.4c0,0.4,0.1,0.8,0.1,1.2H78
	c-0.1-0.5-0.1-1.1-0.2-1.7C77.3,194.1,76.7,187.7,68.2,187.1z"/>
<path class="st0" d="M43.3,188.1c-1.5-0.1-2.7,1-2.8,2.5c-0.1,1.4,1,2.7,2.5,2.8c1.8,0.1,2.7,0.5,2.9,0.8c0.3,0.4,0.3,1.4,0.3,2.4
	s0.1,2.2,0.4,3.4h5.6c-0.6-1-0.6-2.2-0.7-3.6C51.4,193.5,51.2,188.6,43.3,188.1z"/>
<path class="st0" d="M27.5,181.3c-0.6-0.3-1.2-0.6-1.7-1c-1.5-1.3-1.5-1.3-1.7-3c-0.1-0.5-0.1-1.1-0.3-1.9v-0.2
	c-0.5-3.2-1.2-7.2-5.2-9.5c-1.7-1-3.6-1.1-5.3-1.2c-1.1-0.1-2.3-0.1-2.7-0.5c-1.1-1-2.7-0.9-3.7,0.2c-1,1.1-0.9,2.7,0.2,3.7
	c1.8,1.7,4.1,1.8,6,1.9c1.2,0.1,2.3,0.1,2.9,0.5c1.8,1,2.1,2.9,2.6,5.8v0.2c0.1,0.7,0.2,1.2,0.2,1.7c0.3,2.7,0.7,4,3.5,6.3
	c1,0.8,2,1.3,2.8,1.7c1.3,0.6,1.4,0.7,1.6,1.7c0.1,1.3,1.3,2.4,2.6,2.4c0.1,0,0.2,0,0.3,0c1.4-0.2,2.5-1.4,2.3-2.9
	C31.5,183.2,29.1,182,27.5,181.3z"/>
<path class="st0" d="M36.8,20.2c0.6,0.5,1,0.8,1.4,1.3c1.2,1.6,1.2,1.6,1,3.3c-0.1,0.5-0.1,1.1-0.2,1.9v0.2
	c-0.2,3.2-0.5,7.3,2.9,10.5c1.5,1.4,3.3,1.9,4.9,2.4c1,0.3,2.2,0.6,2.5,1.1c0.8,1.2,2.4,1.5,3.6,0.7c1.2-0.8,1.5-2.4,0.7-3.6
	c-1.4-2-3.6-2.7-5.4-3.2c-1.1-0.3-2.2-0.6-2.7-1.1c-1.5-1.4-1.4-3.3-1.2-6.3v-0.2c0-0.7,0.1-1.2,0.2-1.7c0.3-2.7,0.2-4-2-7
	c-0.8-1-1.6-1.7-2.3-2.3c-1.2-0.9-1.3-1-1.1-2c0.2-1.3-0.7-2.6-2-2.9c-0.1,0-0.2,0-0.3,0c-1.5-0.3-2.8,0.7-3,2.2
	C33.3,17.3,35.4,19.1,36.8,20.2z"/>
<path class="st0" d="M173,41.5c-1.9-0.5-4.6-1.3-4.7-2.2c-0.3-1.4-1.6-2.4-3.1-2.1c-1.4,0.3-2.4,1.6-2.1,3.1
	c0.8,4.1,5.1,5.3,8.5,6.3c1.8,0.5,4.1,1.2,4.8,2c0.9,1.2,1.6,2.8,2.3,4.6c1.5,3.7,3.2,8,7.7,9.7c0.3,0.1,0.6,0.2,0.9,0.2
	c1.1,0,2.1-0.6,2.5-1.7c0.5-1.4-0.2-2.9-1.5-3.4c-2.3-0.9-3.5-3.7-4.7-6.8c-0.8-2-1.7-4.1-2.9-5.8C178.9,43.1,175.9,42.3,173,41.5z"
	/>
<path class="st0" d="M189.2,158.1c1.2,0,2.4-0.9,2.6-2.2c0.3-1.4-0.7-2.8-2.1-3c-6.5-1.2-14.1-5.4-15.1-10.1c-0.3-1.4-1.7-2.3-3.1-2
	c-1.4,0.3-2.3,1.7-2,3.1c1.7,8.2,12.5,13,19.3,14.2C188.9,158.1,189.1,158.1,189.2,158.1z"/>
<path class="st0" d="M136.9,198.1c0-1.4-1.2-2.6-2.6-2.6l0,0c-1.5,0-2.6,1.2-2.6,2.7c0,0.4,0,0.8,0,1.2c0,0.2,0,0.5,0,0.7h5.3
	c0-0.2,0-0.4,0-0.7C136.9,198.9,136.9,198.5,136.9,198.1z"/>
<path class="st0" d="M156.2,1.7c0.7,0,1.3-0.2,1.8-0.7c0.3-0.3,0.5-0.6,0.6-1h-5.1c0.2,0.3,0.5,0.6,0.8,0.9
	C154.9,1.4,155.6,1.7,156.2,1.7z"/>
<circle class="st0" cx="88.6" cy="88" r="4"/>
<circle class="st0" cx="28.5" cy="27.5" r="4"/>
<circle class="st0" cx="161" cy="28.8" r="4"/>
<circle class="st0" cx="105.8" cy="150.7" r="4"/>
<circle class="st0" cx="181" cy="134" r="4"/>
<circle class="st0" cx="50.5" cy="151.5" r="4"/>
<circle class="st0" cx="161" cy="151.5" r="4"/>
<circle class="st0" cx="29" cy="167" r="4"/>
<circle class="st0" cx="140.2" cy="50" r="4"/>
<circle class="st0" cx="115.4" cy="50.5" r="4"/>
<circle class="st0" cx="59.4" cy="94" r="4"/>
</svg>
