<?xml version="1.0" encoding="utf-8"?>
<!-- Generator: Adobe Illustrator 21.1.0, SVG Export Plug-In . SVG Version: 6.00 Build 0)  -->
<svg version="1.1" xmlns="http://www.w3.org/2000/svg" xmlns:xlink="http://www.w3.org/1999/xlink" x="0px" y="0px"
	 viewBox="0 0 200 200" style="enable-background:new 0 0 200 200;" xml:space="preserve">
<style type="text/css">
	.st0{opacity:0.2;fill:#201F20;}
</style>
<g id="Layer_2">
</g>
<g id="Layer_1">
	<rect x="36.3" y="41.3" transform="matrix(0.7513 0.6599 -0.6599 0.7513 43.9894 -14.0719)" class="st0" width="8.7" height="20"/>
	
		<rect x="103.8" y="108" transform="matrix(0.7513 0.6599 -0.6599 0.7513 104.7371 -42.0326)" class="st0" width="8.7" height="20"/>
	
		<rect x="180.1" y="172.3" transform="matrix(0.7513 0.6599 -0.6599 0.7513 166.1961 -76.3962)" class="st0" width="8.7" height="20"/>
	<rect x="20.3" y="111" transform="matrix(0.7513 0.6599 -0.6599 0.7513 86.0062 13.8268)" class="st0" width="8.7" height="20"/>
	
		<rect x="21.7" y="171.3" transform="matrix(0.7513 0.6599 -0.6599 0.7513 126.1335 27.9349)" class="st0" width="8.7" height="20"/>
	<rect x="67.9" y="60.4" transform="matrix(0.7071 -0.7071 0.7071 0.7071 -28.6114 71.721)" class="st0" width="8.7" height="20"/>
	<rect x="163.7" y="23.3" transform="matrix(0.7071 -0.7071 0.7071 0.7071 25.7 128.5836)" class="st0" width="8.7" height="20"/>
	
		<rect x="157" y="155.3" transform="matrix(0.7071 -0.7071 0.7071 0.7071 -69.6549 162.5049)" class="st0" width="8.7" height="20"/>
	
		<rect x="137.9" y="75.3" transform="matrix(0.7071 -0.7071 0.7071 0.7071 -18.6897 125.5457)" class="st0" width="8.7" height="20"/>
	
		<rect x="128.6" y="173.5" transform="matrix(0.7071 -0.7071 0.7071 0.7071 -90.8471 147.7386)" class="st0" width="8.7" height="20"/>
	
		<rect x="49.6" y="149.4" transform="matrix(0.7071 -0.7071 0.7071 0.7071 -96.9143 84.8267)" class="st0" width="8.7" height="20"/>
	<rect x="92.5" y="28.7" transform="matrix(0.866 0.5 -0.5 0.866 32.3088 -43.2214)" class="st0" width="8.7" height="20"/>
	<rect x="160.1" y="101" transform="matrix(0.866 0.5 -0.5 0.866 77.5424 -67.3413)" class="st0" width="8.7" height="20"/>
	
		<rect x="32.4" y="79.8" transform="matrix(-0.3286 0.9445 -0.9445 -0.3286 133.6172 84.5999)" class="st0" width="8.7" height="20"/>
	
		<rect x="16.6" y="142.3" transform="matrix(-0.3286 0.9445 -0.9445 -0.3286 171.5736 182.5816)" class="st0" width="8.7" height="20"/>
	
		<rect x="90.9" y="141.8" transform="matrix(-0.3286 0.9445 -0.9445 -0.3286 269.9222 111.7493)" class="st0" width="8.7" height="20"/>
	
		<rect x="180" y="127.7" transform="matrix(-0.3286 0.9445 -0.9445 -0.3286 374.9757 8.7415)" class="st0" width="8.7" height="20"/>
	
		<rect x="104.5" y="64.5" transform="matrix(0.9978 6.675974e-02 -6.675974e-02 0.9978 5.2194 -7.0987)" class="st0" width="8.7" height="20"/>
	
		<rect x="117.9" y="-1.5" transform="matrix(-0.1515 0.9885 -0.9885 -0.1515 149.1519 -110.9345)" class="st0" width="8.7" height="20"/>
	
		<rect x="5" y="58" transform="matrix(0.9978 6.675974e-02 -6.675974e-02 0.9978 4.5605 -0.4714)" class="st0" width="8.7" height="20"/>
	
		<rect x="68.2" y="104.6" transform="matrix(0.9978 6.675974e-02 -6.675974e-02 0.9978 7.8135 -4.586)" class="st0" width="8.7" height="20"/>
	
		<rect x="15.7" y="14" transform="matrix(0.9978 6.675974e-02 -6.675974e-02 0.9978 1.6469 -1.2817)" class="st0" width="8.7" height="20"/>
	
		<rect x="130.1" y="134.6" transform="matrix(0.9978 6.675974e-02 -6.675974e-02 0.9978 9.9534 -8.6536)" class="st0" width="8.7" height="20"/>
	<rect x="84.5" y="172.1" transform="matrix(0.866 0.5 -0.5 0.866 102.9645 -20.0103)" class="st0" width="8.7" height="20"/>
	
		<rect x="57.7" y="8" transform="matrix(6.675974e-02 -0.9978 0.9978 6.675974e-02 39.9637 78.7415)" class="st0" width="8.7" height="20"/>
	
		<rect x="172.5" y="56.6" transform="matrix(6.675974e-02 -0.9978 0.9978 6.675974e-02 98.5401 238.5481)" class="st0" width="8.7" height="20"/>
	
		<rect x="133.1" y="36.7" transform="matrix(6.675974e-02 -0.9978 0.9978 6.675974e-02 81.7058 180.7292)" class="st0" width="8.7" height="20"/>
	
		<rect x="181.6" y="1.9" transform="matrix(6.675974e-02 -0.9978 0.9978 6.675974e-02 161.6797 196.648)" class="st0" width="8.7" height="20"/>
</g>
</svg>
