<?xml version="1.0" encoding="utf-8"?>
<!-- Generator: Adobe Illustrator 21.1.0, SVG Export Plug-In . SVG Version: 6.00 Build 0)  -->
<svg version="1.1" id="Layer_1" xmlns="http://www.w3.org/2000/svg" xmlns:xlink="http://www.w3.org/1999/xlink" x="0px" y="0px"
	 viewBox="0 0 200 200" style="enable-background:new 0 0 200 200;" xml:space="preserve">
<style type="text/css">
	.st0{opacity:0.2;fill:none;stroke:#FFFFFF;stroke-width:2;stroke-linejoin:round;stroke-miterlimit:10;enable-background:new    ;}
	.st1{opacity:0.2;fill:#FFFFFF;enable-background:new    ;}
</style>
<path class="st0" d="M32.6,103.9l-9.3,1.5L19,97.1l6.6-6.6l8.3,4.3L32.6,103.9z"/>
<path class="st0" d="M106.6,26.9l-9.3,1.5L93,20.1l6.6-6.6l8.3,4.3L106.6,26.9z"/>
<path class="st0" d="M155.6,69.4l-7.6-5.5l2.9-8.9h9.4l2.9,8.9L155.6,69.4z"/>
<path class="st0" d="M91.6,139.9l-9.3,1.5l-4.3-8.3l6.6-6.6l8.3,4.3L91.6,139.9z"/>
<path class="st0" d="M124,88.4c2.5,0,4.5,2,4.5,4.5s-2,4.5-4.5,4.5s-4.5-2-4.5-4.5C119.5,90.5,121.5,88.4,124,88.4z"/>
<path class="st0" d="M30,164.4c2.5,0,4.5,2,4.5,4.5s-2,4.5-4.5,4.5s-4.5-2-4.5-4.5C25.5,166.5,27.5,164.4,30,164.4z"/>
<path class="st1" d="M76.3,78.1l2.5,1.5l-7.4,8.6L68.6,87L76.3,78.1z"/>
<path class="st1" d="M180.3,11.1l2.5,1.5l-7.4,8.6l-2.8-1.2L180.3,11.1z"/>
<path class="st1" d="M179.3,173.1l2.5,1.5l-7.4,8.6l-2.8-1.2L179.3,173.1z"/>
<path class="st1" d="M65.5,170.4L68,169l3.9,10.6l-2.4,1.9L65.5,170.4z"/>
<path class="st1" d="M133.5,141.4l2.5-1.5l3.9,10.6l-2.4,1.9L133.5,141.4z"/>
<path class="st0" d="M173.5,125.4c2.2,0,4,1.8,4,4c0,2.2-1.8,4-4,4s-4-1.8-4-4S171.3,125.4,173.5,125.4z"/>
<path class="st0" d="M38.5,31.4c2.2,0,4,1.8,4,4s-1.8,4-4,4s-4-1.8-4-4S36.3,31.4,38.5,31.4z"/>
</svg>
