<?xml version="1.0" encoding="utf-8"?>
<!-- Generator: Adobe Illustrator 21.1.0, SVG Export Plug-In . SVG Version: 6.00 Build 0)  -->
<svg version="1.1" id="Layer_1" xmlns="http://www.w3.org/2000/svg" xmlns:xlink="http://www.w3.org/1999/xlink" x="0px" y="0px"
	 viewBox="0 0 200 200" style="enable-background:new 0 0 200 200;" xml:space="preserve">
<style type="text/css">
	.st0{opacity:0.2;}
</style>
<g class="st0">
	<path d="M72.7,129H10c-0.6,0-1,0.4-1,1v62.7c0,0.6,0.4,1,1,1h62.7c0.6,0,1-0.4,1-1V130C73.7,129.4,73.3,129,72.7,129z M69,188
		c0,0.6-0.4,1-1,1H14.7c-0.6,0-1-0.4-1-1v-53.3c0-0.6,0.4-1,1-1H68c0.6,0,1,0.4,1,1V188z"/>
	<path d="M52.7,149H30c-0.6,0-1,0.4-1,1v22.7c0,0.6,0.4,1,1,1h22.7c0.6,0,1-0.4,1-1V150C53.7,149.4,53.3,149,52.7,149z M49,168
		c0,0.6-0.4,1-1,1H34.7c-0.6,0-1-0.4-1-1v-13.3c0-0.6,0.4-1,1-1H48c0.6,0,1,0.4,1,1V168z"/>
	<path d="M112.7,169H90c-0.6,0-1,0.4-1,1v22.7c0,0.6,0.4,1,1,1h22.7c0.6,0,1-0.4,1-1V170C113.7,169.4,113.3,169,112.7,169z M109,188
		c0,0.6-0.4,1-1,1H94.7c-0.6,0-1-0.4-1-1v-13.3c0-0.6,0.4-1,1-1H108c0.6,0,1,0.4,1,1V188z"/>
	<path d="M62.7,139H20c-0.6,0-1,0.4-1,1v42.7c0,0.6,0.4,1,1,1h42.7c0.6,0,1-0.4,1-1V140C63.7,139.4,63.3,139,62.7,139z M59,178
		c0,0.6-0.4,1-1,1H24.7c-0.6,0-1-0.4-1-1v-33.3c0-0.6,0.4-1,1-1H58c0.6,0,1,0.4,1,1V178z"/>
	<path d="M140,23.7h42.7c0.6,0,1-0.4,1-1V0H179v18c0,0.6-0.4,1-1,1h-33.3c-0.6,0-1-0.4-1-1V0H139v22.7C139,23.3,139.4,23.7,140,23.7
		z"/>
	<path d="M130,33.7h62.7c0.6,0,1-0.4,1-1V0H189v28c0,0.6-0.4,1-1,1h-53.3c-0.6,0-1-0.4-1-1V0H129v32.7C129,33.3,129.4,33.7,130,33.7
		z"/>
	<path d="M162.7,39H160h-35.3c-0.6,0-1-0.4-1-1V0H0v43.7h38c0.6,0,1,0.4,1,1V80v2.7V118c0,0.6-0.4,1-1,1H0v81h3.7v-75.3
		c0-0.6,0.4-1,1-1H40h2.7H78c0.6,0,1,0.4,1,1V160v2.7V200h4.7v-35.3c0-0.6,0.4-1,1-1H118c0.6,0,1,0.4,1,1V200h4.7v-35.3
		c0-0.6,0.4-1,1-1H160h2.7H200V159h-35.3c-0.6,0-1-0.4-1-1v-33.3c0-0.6,0.4-1,1-1H200V119h-35.3c-0.6,0-1-0.4-1-1V82.7V80V44.7
		c0-0.6,0.4-1,1-1H200V39H162.7z M39,38c0,0.6-0.4,1-1,1H4.7c-0.6,0-1-0.4-1-1V4.7c0-0.6,0.4-1,1-1H38c0.6,0,1,0.4,1,1V38z M79,118
		c0,0.6-0.4,1-1,1H44.7c-0.6,0-1-0.4-1-1V84.7c0-0.6,0.4-1,1-1H78c0.6,0,1,0.4,1,1V118z M82.7,79H80H44.7c-0.6,0-1-0.4-1-1V42.7V40
		V4.7c0-0.6,0.4-1,1-1H118c0.6,0,1,0.4,1,1V40v2.7V78c0,0.6-0.4,1-1,1H82.7z M159,120v2.7V158c0,0.6-0.4,1-1,1h-35.3H120H84.7
		c-0.6,0-1-0.4-1-1v-35.3V120V84.7c0-0.6,0.4-1,1-1H120h2.7H158c0.6,0,1,0.4,1,1V120z M159,78c0,0.6-0.4,1-1,1h-33.3
		c-0.6,0-1-0.4-1-1V44.7c0-0.6,0.4-1,1-1H158c0.6,0,1,0.4,1,1V78z"/>
	<path d="M33.7,112.7V50c0-0.6-0.4-1-1-1H0v4.7h28c0.6,0,1,0.4,1,1V108c0,0.6-0.4,1-1,1H0v4.7h32.7
		C33.3,113.7,33.7,113.3,33.7,112.7z"/>
	<path d="M150,13.7h22.7c0.6,0,1-0.4,1-1V0H169v8c0,0.6-0.4,1-1,1h-13.3c-0.6,0-1-0.4-1-1V0H149v12.7C149,13.3,149.4,13.7,150,13.7z
		"/>
	<path d="M23.7,102.7V60c0-0.6-0.4-1-1-1H0v4.7h18c0.6,0,1,0.4,1,1V98c0,0.6-0.4,1-1,1H0v4.7h22.7C23.3,103.7,23.7,103.3,23.7,102.7
		z"/>
	<path d="M152.7,49H130c-0.6,0-1,0.4-1,1v22.7c0,0.6,0.4,1,1,1h22.7c0.6,0,1-0.4,1-1V50C153.7,49.4,153.3,49,152.7,49z M149,68
		c0,0.6-0.4,1-1,1h-13.3c-0.6,0-1-0.4-1-1V54.7c0-0.6,0.4-1,1-1H148c0.6,0,1,0.4,1,1V68z"/>
	<path d="M13.7,92.7V70c0-0.6-0.4-1-1-1H0v4.7h8c0.6,0,1,0.4,1,1V88c0,0.6-0.4,1-1,1H0v4.7h12.7C13.3,93.7,13.7,93.3,13.7,92.7z"/>
	<path d="M189,70v22.7c0,0.6,0.4,1,1,1h10V89h-5.3c-0.6,0-1-0.4-1-1V74.7c0-0.6,0.4-1,1-1h5.3V69h-10C189.4,69,189,69.4,189,70z"/>
	<path d="M32.7,9H10c-0.6,0-1,0.4-1,1v22.7c0,0.6,0.4,1,1,1h22.7c0.6,0,1-0.4,1-1V10C33.7,9.4,33.3,9,32.7,9z M29,28
		c0,0.6-0.4,1-1,1H14.7c-0.6,0-1-0.4-1-1V14.7c0-0.6,0.4-1,1-1H28c0.6,0,1,0.4,1,1V28z"/>
	<path d="M169,50v62.7c0,0.6,0.4,1,1,1h30V109h-25.3c-0.6,0-1-0.4-1-1V54.7c0-0.6,0.4-1,1-1H200V49h-30C169.4,49,169,49.4,169,50z"
		/>
	<path d="M179,60v42.7c0,0.6,0.4,1,1,1h20V99h-15.3c-0.6,0-1-0.4-1-1V64.7c0-0.6,0.4-1,1-1H200V59h-20C179.4,59,179,59.4,179,60z"/>
	<path d="M132.7,109H110c-0.6,0-1,0.4-1,1v22.7c0,0.6,0.4,1,1,1h22.7c0.6,0,1-0.4,1-1V110C133.7,109.4,133.3,109,132.7,109z
		 M129,128c0,0.6-0.4,1-1,1h-13.3c-0.6,0-1-0.4-1-1v-13.3c0-0.6,0.4-1,1-1H128c0.6,0,1,0.4,1,1V128z"/>
	<path d="M112.7,9H50c-0.6,0-1,0.4-1,1v62.7c0,0.6,0.4,1,1,1h62.7c0.6,0,1-0.4,1-1V10C113.7,9.4,113.3,9,112.7,9z M109,68
		c0,0.6-0.4,1-1,1H54.7c-0.6,0-1-0.4-1-1V14.7c0-0.6,0.4-1,1-1H108c0.6,0,1,0.4,1,1V68z"/>
	<path d="M142.7,99H100c-0.6,0-1,0.4-1,1v42.7c0,0.6,0.4,1,1,1h42.7c0.6,0,1-0.4,1-1V100C143.7,99.4,143.3,99,142.7,99z M139,138
		c0,0.6-0.4,1-1,1h-33.3c-0.6,0-1-0.4-1-1v-33.3c0-0.6,0.4-1,1-1H138c0.6,0,1,0.4,1,1V138z"/>
	<path d="M102.7,19H60c-0.6,0-1,0.4-1,1v42.7c0,0.6,0.4,1,1,1h42.7c0.6,0,1-0.4,1-1V20C103.7,19.4,103.3,19,102.7,19z M99,58
		c0,0.6-0.4,1-1,1H64.7c-0.6,0-1-0.4-1-1V24.7c0-0.6,0.4-1,1-1H98c0.6,0,1,0.4,1,1V58z"/>
	<path d="M72.7,89H50c-0.6,0-1,0.4-1,1v22.7c0,0.6,0.4,1,1,1h22.7c0.6,0,1-0.4,1-1V90C73.7,89.4,73.3,89,72.7,89z M69,108
		c0,0.6-0.4,1-1,1H54.7c-0.6,0-1-0.4-1-1V94.7c0-0.6,0.4-1,1-1H68c0.6,0,1,0.4,1,1V108z"/>
	<path d="M92.7,29H70c-0.6,0-1,0.4-1,1v22.7c0,0.6,0.4,1,1,1h22.7c0.6,0,1-0.4,1-1V30C93.7,29.4,93.3,29,92.7,29z M89,48
		c0,0.6-0.4,1-1,1H74.7c-0.6,0-1-0.4-1-1V34.7c0-0.6,0.4-1,1-1H88c0.6,0,1,0.4,1,1V48z"/>
	<path d="M170,153.7h22.7c0.6,0,1-0.4,1-1V130c0-0.6-0.4-1-1-1H170c-0.6,0-1,0.4-1,1v22.7C169,153.3,169.4,153.7,170,153.7z
		 M173.7,134.7c0-0.6,0.4-1,1-1H188c0.6,0,1,0.4,1,1V148c0,0.6-0.4,1-1,1h-13.3c-0.6,0-1-0.4-1-1V134.7z"/>
	<path d="M172.7,189H150c-0.6,0-1,0.4-1,1v10h4.7v-5.3c0-0.6,0.4-1,1-1H168c0.6,0,1,0.4,1,1v5.3h4.7v-10
		C173.7,189.4,173.3,189,172.7,189z"/>
	<path d="M152.7,89H90c-0.6,0-1,0.4-1,1v62.7c0,0.6,0.4,1,1,1h62.7c0.6,0,1-0.4,1-1V90C153.7,89.4,153.3,89,152.7,89z M149,148
		c0,0.6-0.4,1-1,1H94.7c-0.6,0-1-0.4-1-1V94.7c0-0.6,0.4-1,1-1H148c0.6,0,1,0.4,1,1V148z"/>
	<path d="M182.7,179H140c-0.6,0-1,0.4-1,1v20h4.7v-15.3c0-0.6,0.4-1,1-1H178c0.6,0,1,0.4,1,1V200h4.7v-20
		C183.7,179.4,183.3,179,182.7,179z"/>
	<path d="M192.7,169H130c-0.6,0-1,0.4-1,1v30h4.7v-25.3c0-0.6,0.4-1,1-1H188c0.6,0,1,0.4,1,1V200h4.7v-30
		C193.7,169.4,193.3,169,192.7,169z"/>
</g>
</svg>
