<?xml version="1.0" encoding="utf-8"?>
<!-- Generator: Adobe Illustrator 21.1.0, SVG Export Plug-In . SVG Version: 6.00 Build 0)  -->
<svg version="1.1" id="Layer_1" xmlns="http://www.w3.org/2000/svg" xmlns:xlink="http://www.w3.org/1999/xlink" x="0px" y="0px"
	 viewBox="0 0 200 200" style="enable-background:new 0 0 200 200;" xml:space="preserve">
<style type="text/css">
	.st0{opacity:0.2;}
	.st1{fill:#6A6A6A;}
</style>
<g>
	<g transform="translate(-1 -1)" class="st0">
		<path class="st1" d="M11.2,1h6.1c1.2,0.7,2.5,1.2,3.7,1.6c1.3-0.3,2.5-0.9,3.8-1.6h6.1c-2.9,2.6-6.2,4.5-9.5,5.2L21,6.3l-0.4-0.1
			C17.3,5.5,14.1,3.6,11.2,1z M51.2,1h6.1c1.2,0.7,2.5,1.2,3.7,1.6c1.3-0.3,2.5-0.9,3.8-1.6h6.1c-2.9,2.6-6.2,4.5-9.5,5.2L61,6.3
			l-0.4-0.1C57.3,5.5,54.1,3.6,51.2,1z M91.2,1h6.1c1.2,0.7,2.5,1.2,3.7,1.6c1.3-0.3,2.5-0.9,3.8-1.6h6.1c-2.9,2.6-6.2,4.5-9.5,5.2
			L101,6.3l-0.4-0.1C97.3,5.5,94.1,3.6,91.2,1z M131.2,1h6.1c1.2,0.7,2.5,1.2,3.7,1.6c1.3-0.3,2.5-0.9,3.8-1.6h6.1
			c-2.9,2.6-6.2,4.5-9.5,5.2L141,6.3l-0.4-0.1C137.3,5.5,134.1,3.6,131.2,1z M171.2,1h6.1c1.2,0.7,2.5,1.2,3.7,1.6
			c1.3-0.3,2.5-0.9,3.8-1.6h6.1c-2.9,2.6-6.2,4.5-9.5,5.2L181,6.3l-0.4-0.1C177.3,5.5,174.1,3.6,171.2,1z"/>
		<path class="st1" d="M1,10.2V6.5c0,0,0,0,0,0C3.2,5.8,5.4,3.7,6.8,1h4c-2,4.6-5.6,8.3-9.5,9.1L1,10.2z M1,39v-3.7c0,0,0,0,0,0
			c9.3-2.4,18.2-15.7,18.2-28.4c0-0.5,0-0.9,0-1.4c0.5,0.2,0.9,0.3,1.4,0.4L21,5.9l0.4-0.1c0.5-0.1,1-0.2,1.4-0.4c0,0.4,0,0.9,0,1.3
			c0,12.7,8.9,26,18.2,28.4c9.3-2.4,18.2-15.7,18.2-28.4c0-0.5,0-0.9,0-1.4c0.5,0.2,0.9,0.3,1.4,0.4L61,5.9l0.4-0.1
			c0.5-0.1,1-0.2,1.4-0.4c0,0.4,0,0.9,0,1.3c0,12.7,8.9,26,18.2,28.4c9.3-2.4,18.2-15.7,18.2-28.4c0-0.5,0-0.9,0-1.4
			c0.5,0.2,0.9,0.3,1.4,0.4l0.4,0.1l0.4-0.1c0.5-0.1,1-0.2,1.4-0.4c0,0.4,0,0.9,0,1.3c0,12.7,8.9,26,18.2,28.4
			c9.3-2.4,18.2-15.7,18.2-28.4c0-0.5,0-0.9,0-1.4c0.5,0.2,0.9,0.3,1.4,0.4l0.4,0.1l0.4-0.1c0.5-0.1,1-0.2,1.4-0.4
			c0,0.4,0,0.9,0,1.3c0,12.7,8.9,26,18.2,28.4c9.3-2.4,18.2-15.7,18.2-28.4c0-0.5,0-0.9,0-1.4c0.5,0.2,0.9,0.3,1.4,0.4l0.4,0.1
			l0.4-0.1c0.5-0.1,1-0.2,1.4-0.4c0,0.4,0,0.9,0,1.3c0,12.7,8.9,26,18.2,28.4V39l0,0l-0.4-0.1c-8.3-1.9-16.2-10.8-19.6-21.1
			c-3.4,10.4-11.2,19.3-19.6,21.2L161,39l-0.4-0.1c-8.3-1.9-16.2-10.8-19.6-21.1c-3.4,10.4-11.2,19.3-19.6,21.2L121,39l-0.4-0.1
			c-8.3-1.9-16.2-10.8-19.6-21.1C97.6,28.2,89.8,37,81.4,38.9L81,39l-0.4-0.1C72.3,37,64.4,28.1,61,17.7
			C57.6,28.2,49.8,37,41.4,38.9L41,39l-0.4-0.1C32.3,37,24.4,28.1,21,17.7C17.6,28.2,9.8,37,1.4,38.9L1,39z M1,27.2v-2.5
			c0,0,0,0,0,0c7.1-1.8,13.8-11.2,14.7-20.8C16.4,4.3,17.2,4.7,18,5C16.7,15.4,9.3,25.3,1.3,27.1L1,27.2z M31.1,1h4
			c1.5,2.7,3.6,4.8,5.8,5.5c2.2-0.7,4.4-2.8,5.8-5.5h4c-2,4.6-5.6,8.3-9.5,9.1L41,10.2l-0.4-0.1C36.7,9.3,33.1,5.6,31.1,1z M71.1,1
			h4c1.5,2.7,3.6,4.8,5.8,5.5c2.2-0.7,4.4-2.8,5.8-5.5h4c-2,4.6-5.6,8.3-9.5,9.1L81,10.2l-0.4-0.1C76.7,9.3,73.1,5.6,71.1,1z
			 M111.1,1h4c1.5,2.7,3.6,4.8,5.8,5.5c2.2-0.7,4.4-2.8,5.8-5.5h4c-2,4.6-5.6,8.3-9.5,9.1l-0.4,0.1l-0.4-0.1
			C116.7,9.3,113.1,5.6,111.1,1z M151.1,1h4c1.5,2.7,3.6,4.8,5.8,5.5c2.2-0.7,4.4-2.8,5.8-5.5h4c-2,4.6-5.6,8.3-9.5,9.1l-0.4,0.1
			l-0.4-0.1C156.7,9.3,153.1,5.6,151.1,1z M201,27.2L201,27.2l-0.3-0.1c-8-1.8-15.4-11.7-16.7-22.1c0.8-0.3,1.6-0.7,2.3-1.1
			c0.9,9.6,7.7,19,14.7,20.8V27.2z M191.1,1h4c1.5,2.7,3.6,4.8,5.8,5.5v3.8l0,0l-0.4-0.1C196.7,9.3,193.1,5.6,191.1,1z M24,5
			c0.8-0.3,1.6-0.7,2.3-1.1c0.9,9.6,7.7,19,14.7,20.8c7.1-1.8,13.8-11.2,14.7-20.8C56.4,4.3,57.2,4.7,58,5
			c-1.3,10.4-8.7,20.3-16.7,22.1L41,27.2l-0.3-0.1C32.8,25.3,25.4,15.4,24,5z M64,5c0.8-0.3,1.6-0.7,2.3-1.1
			c0.9,9.6,7.7,19,14.7,20.8c7.1-1.8,13.8-11.2,14.7-20.8C96.4,4.3,97.2,4.7,98,5c-1.3,10.4-8.7,20.3-16.7,22.1L81,27.2l-0.3-0.1
			C72.8,25.3,65.4,15.4,64,5z M104,5c0.8-0.3,1.6-0.7,2.3-1.1c0.9,9.6,7.7,19,14.7,20.8c7.1-1.8,13.8-11.2,14.7-20.8
			c0.8,0.4,1.5,0.8,2.3,1.1c-1.3,10.4-8.7,20.3-16.7,22.1l-0.3,0.1l-0.3-0.1C112.8,25.3,105.4,15.4,104,5z M144,5
			c0.8-0.3,1.6-0.7,2.3-1.1c0.9,9.6,7.7,19,14.7,20.8c7.1-1.8,13.8-11.2,14.7-20.8c0.8,0.4,1.5,0.8,2.3,1.1
			c-1.3,10.4-8.7,20.3-16.7,22.1l-0.3,0.1l-0.3-0.1C152.8,25.3,145.4,15.4,144,5z"/>
		<path class="st1" d="M1,50.6V38.5l0.4-0.1c0.5-0.1,0.9-0.2,1.4-0.4c0,0,0,0,0,0c0,0.5,0,1.1,0,1.6C2.8,52.3,11.7,65.6,21,68
			c9.3-2.4,18.2-15.6,18.2-28.3c0-0.6,0-1.1,0-1.6c0.5,0.2,0.9,0.3,1.4,0.4l0.4,0.1l0.4-0.1c0.5-0.1,0.9-0.2,1.4-0.4c0,0,0,0,0,0
			c0,0.5,0,1.1,0,1.6c0,12.6,8.9,25.9,18.2,28.3c9.3-2.4,18.2-15.6,18.2-28.3c0-0.6,0-1.1,0-1.6c0.5,0.2,0.9,0.3,1.4,0.4l0.4,0.1
			l0.4-0.1c0.5-0.1,0.9-0.2,1.4-0.4c0,0,0,0,0,0c0,0.5,0,1.1,0,1.6c0,12.6,8.9,25.9,18.2,28.3c9.3-2.4,18.2-15.6,18.2-28.3
			c0-0.6,0-1.1,0-1.6c0.5,0.2,0.9,0.3,1.4,0.4l0.4,0.1l0.4-0.1c0.5-0.1,0.9-0.2,1.4-0.4c0,0,0,0,0,0c0,0.5,0,1.1,0,1.6
			c0,12.6,8.9,25.9,18.2,28.3c9.3-2.4,18.2-15.6,18.2-28.3c0-0.6,0-1.1,0-1.6c0.5,0.2,0.9,0.3,1.4,0.4l0.4,0.1l0.4-0.1
			c0.5-0.1,0.9-0.2,1.4-0.4c0,0,0,0,0,0c0,0.5,0,1.1,0,1.6c0,12.6,8.9,25.9,18.2,28.3c9.3-2.4,18.2-15.6,18.2-28.3
			c0-0.6,0-1.1,0-1.6c0,0,0,0,0,0c0.5,0.2,0.9,0.3,1.4,0.4l0.4,0.1l0,0v12.1c-3.4,10.4-11.2,19.2-19.6,21l-0.4,0.1l-0.4-0.1
			c-8.3-1.9-16.2-10.7-19.6-21.1c-3.4,10.4-11.2,19.2-19.6,21.1l-0.4,0.1l-0.4-0.1c-8.3-1.9-16.2-10.7-19.6-21.1
			c-3.4,10.4-11.2,19.2-19.6,21.1l-0.4,0.1l-0.4-0.1C92.3,69.7,84.4,60.9,81,50.6c-3.4,10.4-11.2,19.2-19.6,21.1L61,71.7l-0.4-0.1
			C52.3,69.7,44.4,60.9,41,50.6c-3.4,10.4-11.2,19.2-19.6,21.1L21,71.7l-0.4-0.1C12.3,69.7,4.4,60.9,1,50.6C1,50.6,1,50.6,1,50.6z
			 M11,33.2c1-0.9,1.9-1.9,2.8-2.9c1.2,4.2,4.2,7.8,7.2,8.8c3.1-0.9,6-4.6,7.2-8.8c0.9,1.1,1.9,2,2.8,2.9c-1.9,4.8-5.6,8.7-9.7,9.6
			L21,42.8l-0.4-0.1C16.6,41.8,12.9,37.9,11,33.2z M51,33.2c1-0.9,1.9-1.9,2.8-2.9c1.2,4.2,4.2,7.8,7.2,8.8c3.1-0.9,6-4.6,7.2-8.8
			c0.9,1.1,1.9,2,2.8,2.9c-1.9,4.8-5.6,8.7-9.7,9.6L61,42.8l-0.4-0.1C56.6,41.8,52.9,37.9,51,33.2z M91,33.2c1-0.9,1.9-1.9,2.8-2.9
			c1.2,4.2,4.2,7.8,7.2,8.8c3.1-0.9,6-4.6,7.2-8.8c0.9,1.1,1.9,2,2.8,2.9c-1.9,4.8-5.6,8.7-9.7,9.6l-0.4,0.1l-0.4-0.1
			C96.6,41.8,92.9,37.9,91,33.2z M131,33.2c1-0.9,1.9-1.9,2.8-2.9c1.2,4.2,4.2,7.8,7.2,8.8c3.1-0.9,6-4.6,7.2-8.8
			c0.9,1.1,1.9,2,2.8,2.9c-1.9,4.8-5.6,8.7-9.7,9.6l-0.4,0.1l-0.4-0.1C136.6,41.8,132.9,37.9,131,33.2z M171,33.2
			c1-0.9,1.9-1.9,2.8-2.9c1.2,4.2,4.2,7.8,7.2,8.8c3.1-0.9,6-4.6,7.2-8.8c0.9,1.1,1.9,2,2.8,2.9c-1.9,4.8-5.6,8.7-9.7,9.6l-0.4,0.1
			l-0.4-0.1C176.6,41.8,172.9,37.9,171,33.2z M4,37.6c0.8-0.3,1.6-0.7,2.3-1.1c0.8,9.6,7.6,19.2,14.7,20.9
			c7.1-1.8,13.9-11.3,14.7-21c0.8,0.4,1.5,0.8,2.3,1.1c-1.2,10.5-8.6,20.5-16.8,22.3L21,60l-0.3-0.1C12.7,58.1,5.2,48.1,4,37.6z
			 M44,37.6c0.8-0.3,1.6-0.7,2.3-1.1c0.8,9.6,7.6,19.2,14.7,20.9c7.1-1.8,13.9-11.3,14.7-21c0.8,0.4,1.5,0.8,2.3,1.1
			c-1.2,10.5-8.6,20.5-16.8,22.3L61,60l-0.3-0.1C52.7,58.1,45.2,48.1,44,37.6z M84,37.6c0.8-0.3,1.6-0.7,2.3-1.1
			c0.8,9.6,7.6,19.2,14.7,20.9c7.1-1.8,13.9-11.3,14.7-21c0.8,0.4,1.5,0.8,2.3,1.1c-1.2,10.5-8.6,20.5-16.8,22.3L101,60l-0.3-0.1
			C92.7,58.1,85.2,48.1,84,37.6z M124,37.6c0.8-0.3,1.6-0.7,2.3-1.1c0.8,9.6,7.6,19.2,14.7,20.9c7.1-1.8,13.9-11.3,14.7-21
			c0.8,0.4,1.5,0.8,2.3,1.1c-1.2,10.5-8.6,20.5-16.8,22.3L141,60l-0.3-0.1C132.7,58.1,125.2,48.1,124,37.6z M164,37.6
			c0.8-0.3,1.6-0.7,2.3-1.1c0.8,9.6,7.6,19.2,14.7,20.9c7.1-1.8,13.9-11.3,14.7-21c0.8,0.4,1.5,0.8,2.3,1.1
			c-1.2,10.5-8.6,20.5-16.8,22.3L181,60l-0.3-0.1C172.7,58.1,165.2,48.1,164,37.6z"/>
		<path class="st1" d="M1,76.2v-4c0,0,0,0,0,0c3.1-1,6-4.9,7.2-9.4c0.9,1.1,1.9,2.2,2.8,3.1c-1.9,5-5.6,9.2-9.7,10.1L1,76.2z
			 M201,76.2L201,76.2l-0.4-0.1c-4-1-7.7-5.1-9.6-10.1c1-0.9,1.9-2,2.8-3.1c1.2,4.4,4.2,8.3,7.2,9.3V76.2z M1,94.4v-2.6c0,0,0,0,0,0
			c7.1-1.9,13.9-12,14.7-22.2c0.8,0.5,1.5,0.8,2.3,1.2C16.8,81.8,9.4,92.4,1.3,94.3L1,94.4z M201,94.4L201,94.4l-0.3-0.1
			c-8-1.9-15.5-12.6-16.8-23.6c0.8-0.3,1.6-0.7,2.3-1.2c0.8,10.2,7.6,20.3,14.7,22.2V94.4z M1,106.8v-4c0,0,0,0,0,0
			c9.3-2.5,18.2-16.6,18.2-30.1c0-0.6,0-1.2,0-1.7c0.5,0.2,0.9,0.3,1.4,0.4l0.4,0.1l0.4-0.1c0.5-0.1,0.9-0.2,1.4-0.4c0,0,0,0,0,0
			c0,0.6,0,1.1,0,1.7c0,13.4,8.9,27.5,18.2,30.1c9.3-2.5,18.2-16.6,18.2-30.1c0-0.6,0-1.2,0-1.7c0.5,0.2,0.9,0.3,1.4,0.4l0.4,0.1
			l0.4-0.1c0.5-0.1,0.9-0.2,1.4-0.4c0,0,0,0,0,0c0,0.6,0,1.1,0,1.7c0,13.4,8.9,27.5,18.2,30.1c9.3-2.5,18.2-16.6,18.2-30.1
			c0-0.6,0-1.2,0-1.7c0.5,0.2,0.9,0.3,1.4,0.4l0.4,0.1l0.4-0.1c0.5-0.1,0.9-0.2,1.4-0.4c0,0,0,0,0,0c0,0.6,0,1.1,0,1.7
			c0,13.4,8.9,27.5,18.2,30.1c9.3-2.5,18.2-16.6,18.2-30.1c0-0.6,0-1.2,0-1.7c0.5,0.2,0.9,0.3,1.4,0.4l0.4,0.1l0.4-0.1
			c0.5-0.1,0.9-0.2,1.4-0.4c0,0,0,0,0,0c0,0.6,0,1.1,0,1.7c0,13.4,8.9,27.5,18.2,30.1c9.3-2.5,18.2-16.6,18.2-30.1
			c0-0.6,0-1.2,0-1.7c0.5,0.2,0.9,0.3,1.4,0.4l0.4,0.1l0.4-0.1c0.5-0.1,0.9-0.2,1.4-0.4c0,0,0,0,0,0c0,0.6,0,1.1,0,1.7
			c0,13.4,8.9,27.5,18.2,30.1v4l0,0l-0.4-0.1c-8.3-2-16.2-11.4-19.6-22.4c-3.4,11-11.2,20.4-19.6,22.4l-0.4,0.1l-0.4-0.1
			c-8.3-2-16.2-11.4-19.6-22.4c-3.4,11-11.2,20.4-19.6,22.4l-0.4,0.1l-0.4-0.1c-8.3-2-16.2-11.4-19.6-22.4
			c-3.4,11-11.2,20.4-19.6,22.4l-0.4,0.1l-0.4-0.1c-8.3-2-16.2-11.4-19.6-22.4c-3.4,11-11.2,20.4-19.6,22.4l-0.4,0.1l-0.4-0.1
			c-8.3-2-16.2-11.4-19.6-22.4c-3.4,11-11.2,20.4-19.6,22.4L1,106.8z M31,66c1-0.9,1.9-2,2.8-3.1c1.2,4.4,4.2,8.3,7.2,9.3
			c3.1-1,6-4.9,7.2-9.4c0.9,1.1,1.9,2.2,2.8,3.1c-1.9,5-5.6,9.2-9.7,10.1L41,76.2l-0.4-0.1C36.6,75.1,32.9,71,31,66z M71,66
			c1-0.9,1.9-2,2.8-3.1c1.2,4.4,4.2,8.3,7.2,9.3c3.1-1,6-4.9,7.2-9.4c0.9,1.1,1.9,2.2,2.8,3.1c-1.9,5-5.6,9.2-9.7,10.1L81,76.2
			l-0.4-0.1C76.6,75.1,72.9,71,71,66z M111,66c1-0.9,1.9-2,2.8-3.1c1.2,4.4,4.2,8.3,7.2,9.3c3.1-1,6-4.9,7.2-9.4
			c0.9,1.1,1.9,2.2,2.8,3.1c-1.9,5-5.6,9.2-9.7,10.1l-0.4,0.1l-0.4-0.1C116.6,75.1,112.9,71,111,66z M151,66c1-0.9,1.9-2,2.8-3.1
			c1.2,4.4,4.2,8.3,7.2,9.3c3.1-1,6-4.9,7.2-9.4c0.9,1.1,1.9,2.2,2.8,3.1c-1.9,5-5.6,9.2-9.7,10.1l-0.4,0.1l-0.4-0.1
			C156.6,75.1,152.9,71,151,66z M24,70.7c0.8-0.3,1.6-0.7,2.3-1.2c0.8,10.2,7.6,20.3,14.7,22.2c7.1-1.9,13.9-12,14.7-22.2
			c0.8,0.5,1.5,0.8,2.3,1.2c-1.2,11.1-8.6,21.7-16.8,23.6L41,94.4l-0.3-0.1C32.7,92.4,25.2,81.7,24,70.7z M64,70.7
			c0.8-0.3,1.6-0.7,2.3-1.2c0.8,10.2,7.6,20.3,14.7,22.2c7.1-1.9,13.9-12,14.7-22.2c0.8,0.5,1.5,0.8,2.3,1.2
			c-1.2,11.1-8.6,21.7-16.8,23.6L81,94.4l-0.3-0.1C72.7,92.4,65.2,81.7,64,70.7z M104,70.7c0.8-0.3,1.6-0.7,2.3-1.2
			c0.8,10.2,7.6,20.3,14.7,22.2c7.1-1.9,13.9-12,14.7-22.2c0.8,0.5,1.5,0.8,2.3,1.2c-1.2,11.1-8.6,21.7-16.8,23.6l-0.3,0.1l-0.3-0.1
			C112.7,92.4,105.2,81.7,104,70.7z M144,70.7c0.8-0.3,1.6-0.7,2.3-1.2c0.8,10.2,7.6,20.3,14.7,22.2c7.1-1.9,13.9-12,14.7-22.2
			c0.8,0.5,1.5,0.8,2.3,1.2c-1.2,11.1-8.6,21.7-16.8,23.6l-0.3,0.1l-0.3-0.1C152.7,92.4,145.2,81.7,144,70.7z"/>
		<path class="st1" d="M1,119.2v-13l0.4-0.1c0.5-0.1,0.9-0.3,1.4-0.4c0,0,0,0,0,0c0,0.6,0,1.1,0,1.7c0,13.6,8.9,27.9,18.2,30.5
			c9.3-2.6,18.2-16.8,18.2-30.5c0-0.6,0-1.2,0-1.7c0.5,0.2,0.9,0.3,1.4,0.4l0.4,0.1l0.4-0.1c0.5-0.1,0.9-0.3,1.4-0.4c0,0,0,0,0,0
			c0,0.6,0,1.1,0,1.7c0,13.6,8.9,27.9,18.2,30.5c9.3-2.6,18.2-16.8,18.2-30.5c0-0.6,0-1.2,0-1.7c0.5,0.2,0.9,0.3,1.4,0.4l0.4,0.1
			l0.4-0.1c0.5-0.1,0.9-0.3,1.4-0.4c0,0,0,0,0,0c0,0.6,0,1.1,0,1.7c0,13.6,8.9,27.9,18.2,30.5c9.3-2.6,18.2-16.8,18.2-30.5
			c0-0.6,0-1.2,0-1.7c0.5,0.2,0.9,0.3,1.4,0.4l0.4,0.1l0.4-0.1c0.5-0.1,0.9-0.3,1.4-0.4c0,0,0,0,0,0c0,0.6,0,1.1,0,1.7
			c0,13.6,8.9,27.9,18.2,30.5c9.3-2.6,18.2-16.8,18.2-30.5c0-0.6,0-1.2,0-1.7c0.5,0.2,0.9,0.3,1.4,0.4l0.4,0.1l0.4-0.1
			c0.5-0.1,0.9-0.3,1.4-0.4c0,0,0,0,0,0c0,0.6,0,1.1,0,1.7c0,13.6,8.9,27.9,18.2,30.5c9.3-2.6,18.2-16.8,18.2-30.5
			c0-0.6,0-1.2,0-1.7c0,0,0,0,0,0c0.5,0.2,0.9,0.3,1.4,0.4l0.4,0.1l0,0v13c-3.4,11.2-11.2,20.6-19.6,22.7L181,142l-0.4-0.1
			c-8.3-2-16.2-11.6-19.6-22.7c-3.4,11.2-11.2,20.7-19.6,22.7L141,142l-0.4-0.1c-8.3-2-16.2-11.6-19.6-22.7
			c-3.4,11.2-11.2,20.7-19.6,22.7L101,142l-0.4-0.1c-8.3-2-16.2-11.6-19.6-22.7c-3.4,11.2-11.2,20.7-19.6,22.7L61,142l-0.4-0.1
			c-8.3-2-16.2-11.6-19.6-22.7c-3.4,11.2-11.2,20.7-19.6,22.7L21,142l-0.4-0.1C12.3,139.8,4.4,130.3,1,119.2
			C1,119.2,1,119.2,1,119.2z M11,100.5c1-1,1.9-2,2.8-3.1c1.2,4.5,4.2,8.5,7.2,9.4c3.1-1,6-5,7.2-9.5c0.9,1.1,1.9,2.2,2.8,3.1
			c-1.9,5.1-5.6,9.3-9.7,10.3l-0.4,0.1l-0.4-0.1C16.6,109.7,12.9,105.6,11,100.5z M51,100.5c1-1,1.9-2,2.8-3.1
			c1.2,4.5,4.2,8.5,7.2,9.4c3.1-1,6-5,7.2-9.5c0.9,1.1,1.9,2.2,2.8,3.1c-1.9,5.1-5.6,9.3-9.7,10.3l-0.4,0.1l-0.4-0.1
			C56.6,109.7,52.9,105.6,51,100.5z M91,100.5c1-1,1.9-2,2.8-3.1c1.2,4.5,4.2,8.5,7.2,9.4c3.1-1,6-5,7.2-9.5
			c0.9,1.1,1.9,2.2,2.8,3.1c-1.9,5.1-5.6,9.3-9.7,10.3l-0.4,0.1l-0.4-0.1C96.6,109.7,92.9,105.6,91,100.5z M131,100.5
			c1-1,1.9-2,2.8-3.1c1.2,4.5,4.2,8.5,7.2,9.4c3.1-1,6-5,7.2-9.5c0.9,1.1,1.9,2.2,2.8,3.1c-1.9,5.1-5.6,9.3-9.7,10.3l-0.4,0.1
			l-0.4-0.1C136.6,109.7,132.9,105.6,131,100.5z M171,100.5c1-1,1.9-2,2.8-3.1c1.2,4.5,4.2,8.5,7.2,9.4c3.1-1,6-5,7.2-9.5
			c0.9,1.1,1.9,2.2,2.8,3.1c-1.9,5.1-5.6,9.3-9.7,10.3l-0.4,0.1l-0.4-0.1C176.6,109.7,172.9,105.6,171,100.5z M4,105.3
			c0.8-0.3,1.6-0.7,2.3-1.2c0.8,10.4,7.6,20.6,14.7,22.6c7.1-1.9,13.9-12.2,14.7-22.6c0.8,0.5,1.5,0.9,2.3,1.2
			c-1.2,11.3-8.6,22.1-16.8,24l-0.3,0.1l-0.3-0.1C12.7,127.3,5.2,116.5,4,105.3z M44,105.3c0.8-0.3,1.6-0.7,2.3-1.2
			c0.8,10.4,7.6,20.6,14.7,22.6c7.1-1.9,13.9-12.2,14.7-22.6c0.8,0.5,1.5,0.9,2.3,1.2c-1.2,11.3-8.6,22.1-16.8,24l-0.3,0.1l-0.3-0.1
			C52.7,127.3,45.2,116.5,44,105.3z M84,105.3c0.8-0.3,1.6-0.7,2.3-1.2c0.8,10.4,7.6,20.6,14.7,22.6c7.1-1.9,13.9-12.2,14.7-22.6
			c0.8,0.5,1.5,0.9,2.3,1.2c-1.2,11.3-8.6,22.1-16.8,24l-0.3,0.1l-0.3-0.1C92.7,127.3,85.2,116.5,84,105.3z M124,105.3
			c0.8-0.3,1.6-0.7,2.3-1.2c0.8,10.4,7.6,20.6,14.7,22.6c7.1-1.9,13.9-12.2,14.7-22.6c0.8,0.5,1.5,0.9,2.3,1.2
			c-1.2,11.3-8.6,22.1-16.8,24l-0.3,0.1l-0.3-0.1C132.7,127.3,125.2,116.5,124,105.3z M164,105.3c0.8-0.3,1.6-0.7,2.3-1.2
			c0.8,10.4,7.6,20.6,14.7,22.6c7.1-1.9,13.9-12.2,14.7-22.6c0.8,0.5,1.5,0.9,2.3,1.2c-1.2,11.3-8.6,22.1-16.8,24l-0.3,0.1l-0.3-0.1
			C172.7,127.3,165.2,116.5,164,105.3z"/>
		<path class="st1" d="M1,145.2v-4c0,0,0,0,0,0c3.1-1,6-4.9,7.2-9.4c0.9,1.1,1.9,2.2,2.8,3.1c-1.9,5-5.6,9.2-9.7,10.1L1,145.2z
			 M201,145.2L201,145.2l-0.4-0.1c-4-1-7.7-5.1-9.6-10.1c1-0.9,1.9-2,2.8-3.1c1.2,4.4,4.2,8.3,7.2,9.3V145.2z M1,163.5v-2.6
			c0,0,0,0,0,0c7.1-1.9,13.9-12,14.7-22.2c0.8,0.5,1.5,0.8,2.3,1.2c-1.2,11.1-8.6,21.7-16.8,23.6L1,163.5z M201,163.5L201,163.5
			l-0.3-0.1c-8-1.9-15.5-12.6-16.8-23.6c0.8-0.3,1.6-0.7,2.3-1.2c0.8,10.2,7.6,20.3,14.7,22.2V163.5z M1,175.9v-4c0,0,0,0,0,0
			c9.3-2.5,18.2-16.6,18.2-30.1c0-0.6,0-1.2,0-1.7c0.5,0.2,0.9,0.3,1.4,0.4l0.4,0.1l0.4-0.1c0.5-0.1,0.9-0.2,1.4-0.4c0,0,0,0,0,0
			c0,0.6,0,1.1,0,1.7c0,13.4,8.9,27.5,18.2,30.1c9.3-2.5,18.2-16.6,18.2-30.1c0-0.6,0-1.2,0-1.7c0.5,0.2,0.9,0.3,1.4,0.4l0.4,0.1
			l0.4-0.1c0.5-0.1,0.9-0.2,1.4-0.4c0,0,0,0,0,0c0,0.6,0,1.1,0,1.7c0,13.4,8.9,27.5,18.2,30.1c9.3-2.5,18.2-16.6,18.2-30.1
			c0-0.6,0-1.2,0-1.7c0.5,0.2,0.9,0.3,1.4,0.4l0.4,0.1l0.4-0.1c0.5-0.1,0.9-0.2,1.4-0.4c0,0,0,0,0,0c0,0.6,0,1.1,0,1.7
			c0,13.4,8.9,27.5,18.2,30.1c9.3-2.5,18.2-16.6,18.2-30.1c0-0.6,0-1.2,0-1.7c0.5,0.2,0.9,0.3,1.4,0.4l0.4,0.1l0.4-0.1
			c0.5-0.1,0.9-0.2,1.4-0.4c0,0,0,0,0,0c0,0.6,0,1.1,0,1.7c0,13.4,8.9,27.5,18.2,30.1c9.3-2.5,18.2-16.6,18.2-30.1
			c0-0.6,0-1.2,0-1.7c0.5,0.2,0.9,0.3,1.4,0.4l0.4,0.1l0.4-0.1c0.5-0.1,0.9-0.2,1.4-0.4c0,0,0,0,0,0c0,0.6,0,1.1,0,1.7
			c0,13.4,8.9,27.5,18.2,30.1v4l0,0l-0.4-0.1c-8.3-2-16.2-11.4-19.6-22.4c-3.4,11-11.2,20.4-19.6,22.4l-0.4,0.1l-0.4-0.1
			c-8.3-2-16.2-11.4-19.6-22.4c-3.4,11-11.2,20.4-19.6,22.4l-0.4,0.1l-0.4-0.1c-8.3-2-16.2-11.4-19.6-22.4
			c-3.4,11-11.2,20.4-19.6,22.4l-0.4,0.1l-0.4-0.1c-8.3-2-16.2-11.4-19.6-22.4c-3.4,11-11.2,20.4-19.6,22.4l-0.4,0.1l-0.4-0.1
			c-8.3-2-16.2-11.4-19.6-22.4c-3.4,11-11.2,20.4-19.6,22.4L1,175.9z M31,135.1c1-0.9,1.9-2,2.8-3.1c1.2,4.4,4.2,8.3,7.2,9.3
			c3.1-1,6-4.9,7.2-9.4c0.9,1.1,1.9,2.2,2.8,3.1c-1.9,5-5.6,9.2-9.7,10.1l-0.4,0.1l-0.4-0.1C36.6,144.2,32.9,140.1,31,135.1z
			 M71,135.1c1-0.9,1.9-2,2.8-3.1c1.2,4.4,4.2,8.3,7.2,9.3c3.1-1,6-4.9,7.2-9.4c0.9,1.1,1.9,2.2,2.8,3.1c-1.9,5-5.6,9.2-9.7,10.1
			l-0.4,0.1l-0.4-0.1C76.6,144.2,72.9,140.1,71,135.1z M111,135.1c1-0.9,1.9-2,2.8-3.1c1.2,4.4,4.2,8.3,7.2,9.3c3.1-1,6-4.9,7.2-9.4
			c0.9,1.1,1.9,2.2,2.8,3.1c-1.9,5-5.6,9.2-9.7,10.1l-0.4,0.1l-0.4-0.1C116.6,144.2,112.9,140.1,111,135.1z M151,135.1
			c1-0.9,1.9-2,2.8-3.1c1.2,4.4,4.2,8.3,7.2,9.3c3.1-1,6-4.9,7.2-9.4c0.9,1.1,1.9,2.2,2.8,3.1c-1.9,5-5.6,9.2-9.7,10.1l-0.4,0.1
			l-0.4-0.1C156.6,144.2,152.9,140.1,151,135.1z M24,139.8c0.8-0.3,1.6-0.7,2.3-1.2c0.8,10.2,7.6,20.3,14.7,22.2
			c7.1-1.9,13.9-12,14.7-22.2c0.8,0.5,1.5,0.8,2.3,1.2c-1.2,11.1-8.6,21.7-16.8,23.6l-0.3,0.1l-0.3-0.1
			C32.7,161.5,25.2,150.8,24,139.8z M64,139.8c0.8-0.3,1.6-0.7,2.3-1.2c0.8,10.2,7.6,20.3,14.7,22.2c7.1-1.9,13.9-12,14.7-22.2
			c0.8,0.5,1.5,0.8,2.3,1.2c-1.2,11.1-8.6,21.7-16.8,23.6l-0.3,0.1l-0.3-0.1C72.7,161.5,65.2,150.8,64,139.8z M104,139.8
			c0.8-0.3,1.6-0.7,2.3-1.2c0.8,10.2,7.6,20.3,14.7,22.2c7.1-1.9,13.9-12,14.7-22.2c0.8,0.5,1.5,0.8,2.3,1.2
			c-1.2,11.1-8.6,21.7-16.8,23.6l-0.3,0.1l-0.3-0.1C112.7,161.5,105.2,150.8,104,139.8z M144,139.8c0.8-0.3,1.6-0.7,2.3-1.2
			c0.8,10.2,7.6,20.3,14.7,22.2c7.1-1.9,13.9-12,14.7-22.2c0.8,0.5,1.5,0.8,2.3,1.2c-1.2,11.1-8.6,21.7-16.8,23.6l-0.3,0.1l-0.3-0.1
			C152.7,161.5,145.2,150.8,144,139.8z"/>
		<path class="st1" d="M1,184.8v-12.3l0.4-0.1c0.5-0.1,0.9-0.2,1.4-0.4c0,0,0,0,0,0c0,0.5,0,1.1,0,1.6c0,11.2,6.7,22.9,14.6,27.3
			h-6.2C6.8,197,3.1,191.2,1,184.8C1,184.8,1,184.8,1,184.8z M30.9,201h-6.2c7.9-4.5,14.5-16.1,14.5-27.3c0-0.6,0-1.1,0-1.6
			c0.5,0.2,0.9,0.3,1.4,0.4l0.4,0.1l0.4-0.1c0.5-0.1,0.9-0.2,1.4-0.4c0,0,0,0,0,0c0,0.5,0,1.1,0,1.6c0,11.2,6.7,22.9,14.6,27.3h-6.2
			c-4.4-4-8.1-9.9-10.2-16.2C39,191.2,35.3,197,30.9,201z M70.9,201h-6.2c7.9-4.5,14.5-16.1,14.5-27.3c0-0.6,0-1.1,0-1.6
			c0.5,0.2,0.9,0.3,1.4,0.4l0.4,0.1l0.4-0.1c0.5-0.1,0.9-0.2,1.4-0.4c0,0,0,0,0,0c0,0.5,0,1.1,0,1.6c0,11.2,6.7,22.9,14.6,27.3h-6.2
			c-4.4-4-8.1-9.9-10.2-16.2C79,191.2,75.3,197,70.9,201z M110.9,201h-6.2c7.9-4.5,14.5-16.1,14.5-27.3c0-0.6,0-1.1,0-1.6
			c0.5,0.2,0.9,0.3,1.4,0.4l0.4,0.1l0.4-0.1c0.5-0.1,0.9-0.2,1.4-0.4c0,0,0,0,0,0c0,0.5,0,1.1,0,1.6c0,11.2,6.7,22.9,14.6,27.3h-6.2
			c-4.4-4-8.1-9.9-10.2-16.2C119,191.2,115.3,197,110.9,201z M150.9,201h-6.2c7.9-4.5,14.5-16.1,14.5-27.3c0-0.6,0-1.1,0-1.6
			c0.5,0.2,0.9,0.3,1.4,0.4l0.4,0.1l0.4-0.1c0.5-0.1,0.9-0.2,1.4-0.4c0,0,0,0,0,0c0,0.5,0,1.1,0,1.6c0,11.2,6.7,22.9,14.6,27.3h-6.2
			c-4.4-4-8.1-9.9-10.2-16.2C159,191.2,155.3,197,150.9,201z M190.9,201h-6.2c7.9-4.5,14.5-16.1,14.5-27.3c0-0.6,0-1.1,0-1.6
			c0,0,0,0,0,0c0.5,0.2,0.9,0.3,1.4,0.4l0.4,0.1l0,0v12.3C198.9,191.2,195.3,197,190.9,201z M11,167c1-0.9,1.9-1.9,2.8-3
			c1.2,4.3,4.2,8,7.2,8.9c3.1-0.9,6-4.7,7.2-9c0.9,1.1,1.9,2.1,2.8,3c-1.9,4.8-5.6,8.8-9.7,9.7l-0.4,0.1l-0.4-0.1
			C16.6,175.7,12.9,171.8,11,167z M51,167c1-0.9,1.9-1.9,2.8-3c1.2,4.3,4.2,8,7.2,8.9c3.1-0.9,6-4.7,7.2-9c0.9,1.1,1.9,2.1,2.8,3
			c-1.9,4.8-5.6,8.8-9.7,9.7l-0.4,0.1l-0.4-0.1C56.6,175.7,52.9,171.8,51,167z M91,167c1-0.9,1.9-1.9,2.8-3c1.2,4.3,4.2,8,7.2,8.9
			c3.1-0.9,6-4.7,7.2-9c0.9,1.1,1.9,2.1,2.8,3c-1.9,4.8-5.6,8.8-9.7,9.7l-0.4,0.1l-0.4-0.1C96.6,175.7,92.9,171.8,91,167z M131,167
			c1-0.9,1.9-1.9,2.8-3c1.2,4.3,4.2,8,7.2,8.9c3.1-0.9,6-4.7,7.2-9c0.9,1.1,1.9,2.1,2.8,3c-1.9,4.8-5.6,8.8-9.7,9.7l-0.4,0.1
			l-0.4-0.1C136.6,175.7,132.9,171.8,131,167z M171,167c1-0.9,1.9-1.9,2.8-3c1.2,4.3,4.2,8,7.2,8.9c3.1-0.9,6-4.7,7.2-9
			c0.9,1.1,1.9,2.1,2.8,3c-1.9,4.8-5.6,8.8-9.7,9.7l-0.4,0.1l-0.4-0.1C176.6,175.7,172.9,171.8,171,167z M4,171.5
			c0.8-0.3,1.6-0.7,2.3-1.1c0.8,9.8,7.6,19.5,14.7,21.3c7.1-1.8,13.9-11.5,14.7-21.4c0.8,0.4,1.5,0.8,2.3,1.1
			c-1.2,10.7-8.6,20.9-16.8,22.7l-0.3,0.1l-0.3-0.1C12.7,192.3,5.2,182.1,4,171.5z M44,171.5c0.8-0.3,1.6-0.7,2.3-1.1
			c0.8,9.8,7.6,19.5,14.7,21.3c7.1-1.8,13.9-11.5,14.7-21.4c0.8,0.4,1.5,0.8,2.3,1.1c-1.2,10.7-8.6,20.9-16.8,22.7l-0.3,0.1
			l-0.3-0.1C52.7,192.3,45.2,182.1,44,171.5z M84,171.5c0.8-0.3,1.6-0.7,2.3-1.1c0.8,9.8,7.6,19.5,14.7,21.3
			c7.1-1.8,13.9-11.5,14.7-21.4c0.8,0.4,1.5,0.8,2.3,1.1c-1.2,10.7-8.6,20.9-16.8,22.7l-0.3,0.1l-0.3-0.1
			C92.7,192.3,85.2,182.1,84,171.5z M124,171.5c0.8-0.3,1.6-0.7,2.3-1.1c0.8,9.8,7.6,19.5,14.7,21.3c7.1-1.8,13.9-11.5,14.7-21.4
			c0.8,0.4,1.5,0.8,2.3,1.1c-1.2,10.7-8.6,20.9-16.8,22.7l-0.3,0.1l-0.3-0.1C132.7,192.3,125.2,182.1,124,171.5z M164,171.5
			c0.8-0.3,1.6-0.7,2.3-1.1c0.8,9.8,7.6,19.5,14.7,21.3c7.1-1.8,13.9-11.5,14.7-21.4c0.8,0.4,1.5,0.8,2.3,1.1
			c-1.2,10.7-8.6,20.9-16.8,22.7l-0.3,0.1l-0.3-0.1C172.7,192.3,165.2,182.1,164,171.5z"/>
		<path class="st1" d="M10.9,201H6.8c0.6-1.1,1.1-2.4,1.4-3.6c0.9,1.1,1.9,2.2,2.8,3.1C11,200.7,10.9,200.8,10.9,201z M31.2,201
			c-0.1-0.2-0.1-0.3-0.2-0.5c1-0.9,1.9-2,2.8-3.1c0.3,1.3,0.8,2.5,1.4,3.6H31.2z M50.9,201h-4.1c0.6-1.1,1.1-2.4,1.4-3.6
			c0.9,1.1,1.9,2.2,2.8,3.1C51,200.7,50.9,200.8,50.9,201z M71.2,201c-0.1-0.2-0.1-0.3-0.2-0.5c1-0.9,1.9-2,2.8-3.1
			c0.3,1.3,0.8,2.5,1.4,3.6H71.2z M90.9,201h-4.1c0.6-1.1,1.1-2.4,1.4-3.6c0.9,1.1,1.9,2.2,2.8,3.1C91,200.7,90.9,200.8,90.9,201z
			 M111.2,201c-0.1-0.2-0.1-0.3-0.2-0.5c1-0.9,1.9-2,2.8-3.1c0.3,1.3,0.8,2.5,1.4,3.6H111.2z M130.9,201h-4.1
			c0.6-1.1,1.1-2.4,1.4-3.6c0.9,1.1,1.9,2.2,2.8,3.1C131,200.7,130.9,200.8,130.9,201z M151.2,201c-0.1-0.2-0.1-0.3-0.2-0.5
			c1-0.9,1.9-2,2.8-3.1c0.3,1.3,0.8,2.5,1.4,3.6H151.2z M170.9,201h-4.1c0.6-1.1,1.1-2.4,1.4-3.6c0.9,1.1,1.9,2.2,2.8,3.1
			C171,200.7,170.9,200.8,170.9,201z M191.2,201c-0.1-0.2-0.1-0.3-0.2-0.5c1-0.9,1.9-2,2.8-3.1c0.3,1.3,0.8,2.5,1.4,3.6H191.2z"/>
	</g>
</g>
</svg>
