<?xml version="1.0" encoding="utf-8"?>
<!-- Generator: Adobe Illustrator 21.1.0, SVG Export Plug-In . SVG Version: 6.00 Build 0)  -->
<svg version="1.1" id="Layer_1" xmlns="http://www.w3.org/2000/svg" xmlns:xlink="http://www.w3.org/1999/xlink" x="0px" y="0px"
	 viewBox="0 0 20 20" style="enable-background:new 0 0 20 20;" xml:space="preserve">
<style type="text/css">
	.st0{fill:#F4C61E;}
	.st1{fill:#3E3D40;}
</style>
<rect id="Rectangle-8" x="13" class="st0" width="6.6" height="3"/>
<path id="Fill-1" class="st1" d="M14.6,14H5v-0.4c0-1.2,0.7-2.2,1.8-2.7c0.4-0.2,0.6-0.5,0.6-0.9V8.2c0-1.3,1.1-2.4,2.4-2.4
	c1.3,0,2.4,1.1,2.4,2.4v1.8c0,0.4,0.2,0.7,0.6,0.9c1.1,0.5,1.8,1.6,1.8,2.7V14z M14.6,18L5,18l0-3h9.6L14.6,18z M14.2,7.7v0.9
	c0-1.8-1-3.4-2.4-4.1V0.2c0-0.1-0.1-0.2-0.2-0.2L8,1.3c-0.1,0-0.2,0.1-0.2,0.2v2.9C6.3,5.2,5.3,6.8,5.3,8.6v1.2
	c-1.4,1-2.3,2.7-2.3,4.5v4.6c0,0.3,0.1,0.5,0.3,0.7C3.5,19.8,3.7,20,4,20l11.6,0c0.6,0,1-0.5,1-1.1v-4.6c0-1.8-0.9-3.5-2.3-4.5V7.7z
	"/>
</svg>
