<?xml version="1.0" encoding="utf-8"?>
<!-- Generator: Adobe Illustrator 21.1.0, SVG Export Plug-In . SVG Version: 6.00 Build 0)  -->
<svg version="1.1" id="Layer_1" xmlns="http://www.w3.org/2000/svg" xmlns:xlink="http://www.w3.org/1999/xlink" x="0px" y="0px"
	 viewBox="0 0 20 20" style="enable-background:new 0 0 20 20;" xml:space="preserve">
<style type="text/css">
	.st0{fill-rule:evenodd;clip-rule:evenodd;fill:#3E3D40;}
</style>
<path class="st0" d="M18.5,1.4c-0.8-0.8-1.9-1.3-3.1-1.3s-2.3,0.5-3.1,1.3L2.2,11.6l0.7,0.7c0,0,0,0.1-0.1,0.1L0.2,16L1,16.8
	l-0.6,0.6c-0.5,0.5-0.5,1.4,0,1.9l0.3,0.3c0.5,0.5,1.4,0.5,1.9,0L3.2,19L4,19.8l3.6-2.7c0,0,0.1,0,0.1-0.1l0.7,0.7L18.5,7.6
	C20.2,5.9,20.2,3.1,18.5,1.4z M4.1,17.2l-1.3-1.3l1.5-1.9l1.8,1.8L4.1,17.2z M17.1,6.2l-8.8,8.8L5,11.6l8.8-8.8
	c0.9-0.9,2.4-0.9,3.3,0C18,3.8,18,5.2,17.1,6.2z"/>
</svg>
