<?xml version="1.0" encoding="utf-8"?>
<!-- Generator: Adobe Illustrator 21.1.0, SVG Export Plug-In . SVG Version: 6.00 Build 0)  -->
<svg version="1.1" id="Layer_1" xmlns="http://www.w3.org/2000/svg" xmlns:xlink="http://www.w3.org/1999/xlink" x="0px" y="0px"
	 viewBox="0 0 20 20" style="enable-background:new 0 0 20 20;" xml:space="preserve">
<style type="text/css">
	.st0{fill:#F4C61E;}
	.st1{fill:#3E3D40;}
</style>
<rect id="Rectangle-8" x="13" y="1.2" class="st0" width="6.6" height="3"/>
<path class="st1" d="M3,14.3v4.6C3,19.5,3.4,20,4,20h11.6c0.3,0,0.6-0.1,0.7-0.4c0.2-0.2,0.3-0.4,0.3-0.7v-4.6
	c0-1.8-0.9-3.5-2.3-4.5V8.6c0-1.8-1-3.4-2.4-4.1v-3c0-0.1-0.1-0.2-0.2-0.2L8,0C7.9,0,7.8,0.1,7.8,0.2v4.2C6.4,5.2,5.4,6.8,5.4,8.6
	v1.3C4,10.8,3.1,12.5,3,14.3z M5.1,15.8h9.6v2.1H5.1V15.8z M5,14.7v-0.3c0-1.2,0.7-2.4,1.8-2.9c0.4-0.2,0.6-0.6,0.6-1l0-1.9
	C7.4,7.2,8.5,6,9.8,6c1.4,0,2.5,1.2,2.4,2.6v1.8c0,0.5,0.2,0.8,0.6,1c1.1,0.5,1.8,1.7,1.8,2.9v0.4H5.1H5z"/>
</svg>
