<svg xmlns="http://www.w3.org/2000/svg" width="24" height="24" viewBox="0 0 24 24">
  <defs>
    <radialGradient id="firefox_svg-a" cx="82.859%" cy="18.698%" r="181.023%" fx="82.859%" fy="18.698%" gradientTransform="matrix(1 0 0 .36288 0 .12)">
      <stop offset="0%" stop-color="#FFDE00"/>
      <stop offset="28%" stop-color="#FFBF00"/>
      <stop offset="42.9%" stop-color="#FF8E00"/>
      <stop offset="76.9%" stop-color="#FF272D"/>
      <stop offset="87.2%" stop-color="#E0255A"/>
      <stop offset="95.3%" stop-color="#CC2477"/>
      <stop offset="100%" stop-color="#C42482"/>
    </radialGradient>
    <radialGradient id="firefox_svg-b" cx="70.449%" cy="13.007%" r="109.56%" fx="70.449%" fy="13.007%" gradientTransform="matrix(.99993 -.01161 .01167 .99463 -.001 .009)">
      <stop offset="0%" stop-color="#00CCDA"/>
      <stop offset="22%" stop-color="#0083FF"/>
      <stop offset="26.1%" stop-color="#007AF9"/>
      <stop offset="33%" stop-color="#0060E8"/>
      <stop offset="33.3%" stop-color="#005FE7"/>
      <stop offset="43.8%" stop-color="#2639AD"/>
      <stop offset="52.2%" stop-color="#401E84"/>
      <stop offset="100%" stop-color="#4A1475"/>
    </radialGradient>
    <linearGradient id="firefox_svg-c" x1="57.339%" x2="35.146%" y1="75.22%" y2="6.805%">
      <stop offset="0%" stop-color="#000F43" stop-opacity=".4"/>
      <stop offset="48.5%" stop-color="#001962" stop-opacity=".173"/>
      <stop offset="100%" stop-color="#002079" stop-opacity="0"/>
    </linearGradient>
    <radialGradient id="firefox_svg-d" cx="130.293%" cy="-15.673%" r="139.815%" fx="130.293%" fy="-15.673%" gradientTransform="matrix(.92332 0 0 1 .1 0)">
      <stop offset="0%" stop-color="#FFEA00"/>
      <stop offset="49.7%" stop-color="#FF272D"/>
      <stop offset="100%" stop-color="#C42482"/>
    </radialGradient>
    <linearGradient id="firefox_svg-e" x1="109.638%" x2="58.396%" y1="-16.193%" y2="74.642%">
      <stop offset="0%" stop-color="#FF9714"/>
      <stop offset="100%" stop-color="#FF2530"/>
    </linearGradient>
    <radialGradient id="firefox_svg-f" cx="100%" cy="16.872%" r="198.414%" fx="100%" fy="16.872%" gradientTransform="matrix(-.504 .32778 -.17486 -.94475 1.534 0)">
      <stop offset="0%" stop-color="#C6237F"/>
      <stop offset="100%" stop-color="#620500"/>
    </radialGradient>
    <radialGradient id="firefox_svg-g" cx="79.667%" cy="34.895%" r="89.668%" fx="79.667%" fy="34.895%" gradientTransform="matrix(1 0 0 .95947 0 .014)">
      <stop offset="0%" stop-color="#FFEA00"/>
      <stop offset="23.1%" stop-color="#FFDE00"/>
      <stop offset="36.5%" stop-color="#FFBF00"/>
      <stop offset="54.1%" stop-color="#FF8E00"/>
      <stop offset="76.3%" stop-color="#FF272D"/>
      <stop offset="79.6%" stop-color="#F92433"/>
      <stop offset="84.1%" stop-color="#E91C45"/>
      <stop offset="89.3%" stop-color="#CF0E62"/>
      <stop offset="100%" stop-color="#B5007F"/>
    </radialGradient>
    <linearGradient id="firefox_svg-h" x1="20.213%" x2="33.813%" y1="3.248%" y2="97.268%">
      <stop offset="0%" stop-color="#FFEA00"/>
      <stop offset="38.164%" stop-color="#FD0"/>
      <stop offset="64.693%" stop-color="#FFBA00"/>
      <stop offset="88.066%" stop-color="#FF9100"/>
      <stop offset="100%" stop-color="#FF4A1D"/>
    </linearGradient>
    <linearGradient id="firefox_svg-i" x1="-121.603%" x2="143.041%" y1="64.455%" y2="27.48%">
      <stop offset="0%" stop-color="#C42482" stop-opacity=".5"/>
      <stop offset="47.4%" stop-color="#FF272D" stop-opacity=".5"/>
      <stop offset="48.6%" stop-color="#FF2C2C" stop-opacity=".513"/>
      <stop offset="67.5%" stop-color="#FF7A1A" stop-opacity=".72"/>
      <stop offset="82.9%" stop-color="#FFB20D" stop-opacity=".871"/>
      <stop offset="94.2%" stop-color="#FFD605" stop-opacity=".964"/>
      <stop offset="100%" stop-color="#FFE302"/>
    </linearGradient>
    <linearGradient id="firefox_svg-j" x1="56.498%" x2="19.49%" y1="94.893%" y2="5.478%">
      <stop offset="0%" stop-color="#891551" stop-opacity=".6"/>
      <stop offset="100%" stop-color="#C42482" stop-opacity="0"/>
    </linearGradient>
    <linearGradient id="firefox_svg-k" x1="8.239%" x2="47.914%" y1="6.892%" y2="47.886%">
      <stop offset="0%" stop-color="#891551" stop-opacity=".5"/>
      <stop offset="48.4%" stop-color="#FF272D" stop-opacity=".5"/>
      <stop offset="100%" stop-color="#FF272D" stop-opacity="0"/>
    </linearGradient>
    <linearGradient id="firefox_svg-l" x1="47.509%" x2="50%" y1="102.675%" y2="32.97%">
      <stop offset="0%" stop-color="#C42482"/>
      <stop offset="8.3%" stop-color="#C42482" stop-opacity=".81"/>
      <stop offset="20.6%" stop-color="#C42482" stop-opacity=".565"/>
      <stop offset="32.8%" stop-color="#C42482" stop-opacity=".362"/>
      <stop offset="44.7%" stop-color="#C42482" stop-opacity=".204"/>
      <stop offset="56.2%" stop-color="#C42482" stop-opacity=".091"/>
      <stop offset="67.3%" stop-color="#C42482" stop-opacity=".023"/>
      <stop offset="100%" stop-color="#C42482" stop-opacity="0"/>
    </linearGradient>
    <linearGradient id="firefox_svg-m" x1="6.334%" x2="58.667%" y1="1.647%" y2="101.667%">
      <stop offset="0%" stop-color="#FFF14F"/>
      <stop offset="26.8%" stop-color="#FFEE4C"/>
      <stop offset="47.997%" stop-color="#FFE421"/>
      <stop offset="64.365%" stop-color="#FD0"/>
      <stop offset="100%" stop-color="#FF9100"/>
    </linearGradient>
    <linearGradient id="firefox_svg-n" x1="71.789%" x2="42.746%" y1="7.159%" y2="81.948%">
      <stop offset="0%" stop-color="#FF8E00"/>
      <stop offset="4%" stop-color="#FF8E00" stop-opacity=".858"/>
      <stop offset="8.4%" stop-color="#FF8E00" stop-opacity=".729"/>
      <stop offset="13%" stop-color="#FF8E00" stop-opacity=".628"/>
      <stop offset="17.8%" stop-color="#FF8E00" stop-opacity=".557"/>
      <stop offset="22.7%" stop-color="#FF8E00" stop-opacity=".514"/>
      <stop offset="28.2%" stop-color="#FF8E00" stop-opacity=".5"/>
      <stop offset="38.9%" stop-color="#FF8E00" stop-opacity=".478"/>
      <stop offset="52.4%" stop-color="#FF8E00" stop-opacity=".416"/>
      <stop offset="67.6%" stop-color="#FF8E00" stop-opacity=".314"/>
      <stop offset="83.8%" stop-color="#FF8E00" stop-opacity=".172"/>
      <stop offset="100%" stop-color="#FF8E00" stop-opacity="0"/>
    </linearGradient>
  </defs>
  <g fill="none" transform="translate(.365)">
    <path fill="url(#firefox_svg-a)" d="M18.787439,2.23312195 C18.2033659,2.91321951 17.9313415,4.44382927 18.5235854,5.99546341 C19.1158293,7.54709756 20.0235854,7.21009756 20.589439,8.79236585 C21.3363415,10.8801707 20.9886829,13.6847805 20.9886829,13.6847805 C20.9886829,13.6847805 21.8865854,16.285 22.5122927,13.523 C23.8972439,8.33512195 18.787439,3.51065854 18.787439,2.23312195 Z"/>
    <path fill="url(#firefox_svg-b)" d="M11.6602927,23.7716585 C17.6416585,23.7716585 22.487122,18.8999756 22.487122,12.8929268 C22.487122,6.88587805 17.6416585,2.01421951 11.6660976,2.01421951 C5.69053659,2.01421951 0.845121951,6.88590244 0.845121951,12.8929268 C0.833536585,18.9057805 5.68470732,23.7716585 11.6602927,23.7716585 Z"/>
    <path fill="url(#firefox_svg-c)" d="M19.772561,19.600878 C19.5385176,19.7659926 19.2929918,19.9141982 19.0378537,20.0443659 C19.3758325,19.5491479 19.6876417,19.0365677 19.972,18.5087317 C20.2027317,18.2533659 20.4140976,18.005122 20.5863415,17.7367073 C20.6701707,17.6048293 20.7647073,17.4420976 20.8647805,17.2533171 C21.4726098,16.1581951 22.1428293,14.3859268 22.1618293,12.5655122 L22.1618293,12.561122 C22.1622683,12.5163171 22.1625366,12.4714878 22.1621707,12.4266098 C22.1653164,11.9696563 22.118601,11.5137233 22.0228537,11.0669024 C22.0277317,11.1018049 22.0320244,11.1366829 22.0364146,11.171561 C22.0310244,11.1447317 22.0264878,11.1176098 22.0207073,11.0907317 C22.0296341,11.1403415 22.0368049,11.1882927 22.0445122,11.2366585 C22.1687561,12.2907317 22.0802683,13.3189024 21.6376341,14.0769024 C21.6306585,14.0879756 21.6234878,14.0983415 21.616439,14.1091707 C21.8459512,12.957122 21.9227317,11.6850976 21.6673659,10.4116098 C21.6673659,10.4116098 21.5652439,9.7925122 20.8045366,7.91304878 C20.3666829,6.83126829 19.5890976,5.94436585 18.9020976,5.2982439 C18.2999024,4.55321951 17.7529756,4.0532439 17.4514878,3.73580488 C16.8217073,3.07265854 16.5577561,2.57558537 16.4493659,2.2512439 C16.3553902,2.20412195 15.1533902,1.03643902 15.0579024,0.99195122 C14.5332439,1.80541463 12.8832195,4.34987805 13.668122,6.72721951 C14.0238293,7.80458537 14.9234146,8.9227561 15.864878,9.55004878 C15.9062195,9.59726829 16.4250976,10.1608293 16.6718537,11.4319268 C16.9266341,12.7451463 16.7926829,13.7698537 16.2682927,15.2851707 C15.651561,16.614561 14.0715366,17.9287805 12.5920976,18.0632195 C9.42926829,18.350561 8.27139024,16.4752195 8.27139024,16.4752195 C9.40153659,16.9270488 10.6510976,16.8325366 11.411,16.3640976 C12.1768537,15.8903171 12.640122,15.5390488 13.016122,15.677561 C13.3868537,15.815439 13.6819756,15.4152195 13.4171463,15.0003171 C12.9990698,14.3563825 12.2367702,14.0244557 11.480561,14.1570732 C10.7139024,14.2816829 10.0116341,14.889 9.00709756,14.3008293 C8.94208159,14.2631013 8.8791524,14.2218867 8.81858537,14.1773659 C8.75236585,14.1338293 9.03385366,14.2436341 8.96817073,14.1941463 C8.77268293,14.0879512 8.42670732,13.8565366 8.33695122,13.7742195 C8.322,13.7605122 8.48863415,13.8273659 8.47368293,13.8136341 C7.53441463,13.0401707 7.65173171,12.5176829 7.6812439,12.1899756 C7.70487805,11.9278049 7.8754878,11.5918537 8.16297561,11.4555854 C8.30182927,11.5313659 8.38834146,11.5892195 8.38834146,11.5892195 C8.38834146,11.5892195 8.32912195,11.4682195 8.29709756,11.404439 C8.30831707,11.399561 8.31904878,11.4008537 8.33021951,11.3960976 C8.44397561,11.451 8.6955122,11.5936585 8.82795122,11.6806585 C9.00043902,11.8023171 9.05541463,11.9108049 9.05541463,11.9108049 C9.05541463,11.9108049 9.10082927,11.8858049 9.0672439,11.7797073 C9.05504878,11.7361951 9.00268293,11.5979268 8.83182927,11.4583902 L8.8425122,11.4595854 C8.94477267,11.517852 9.04163567,11.5851182 9.13195122,11.6605854 C9.18012195,11.485439 9.2667561,11.302561 9.24770732,10.9754146 C9.23607317,10.7453902 9.24143902,10.6858293 9.20090244,10.597 C9.16460976,10.5207073 9.2212439,10.4909512 9.28426829,10.5701707 C9.27348094,10.5080988 9.25540467,10.4475171 9.23041463,10.3896829 L9.23095122,10.3837317 C9.30960976,10.1096829 10.8955366,9.39687805 11.0109756,9.31356098 C11.200646,9.17935695 11.3596911,9.00644572 11.4776098,8.8062439 C11.5658293,8.66568293 11.6321707,8.4684878 11.6483415,8.16936585 C11.657,7.95365854 11.5566585,7.81 9.95304878,7.64209756 C9.5144878,7.59890244 9.25717073,7.28112195 9.11095122,6.98787805 C9.08426829,6.92470732 9.05707317,6.86746341 9.02985366,6.81026829 C9.0038733,6.74340457 8.9830164,6.67466157 8.96746341,6.60463415 C9.22963415,5.85163415 9.67014634,5.21495122 10.317878,4.73390244 C10.3531707,4.7017561 10.1768537,4.74214634 10.212122,4.71 C10.2532683,4.6724878 10.5220244,4.56421951 10.5727805,4.53982927 C10.6347805,4.51056098 10.3073659,4.37153659 10.0183415,4.40539024 C9.72397561,4.43856098 9.66146341,4.47368293 9.50436585,4.54029268 C9.56956098,4.47539024 9.77687805,4.39031707 9.72826829,4.39087805 C9.41092683,4.43953659 9.01658537,4.624 8.6794878,4.83292683 C8.67883098,4.79654588 8.6857672,4.76042766 8.69985366,4.72687805 C8.5427561,4.7935122 8.15692683,5.06317073 8.04460976,5.29131707 C8.0494501,5.24758753 8.05161673,5.20360331 8.05109756,5.15960976 C7.93142217,5.25942028 7.82345549,5.37248459 7.72926829,5.49663415 L7.72339024,5.50197561 C6.81221951,5.13490244 6.01039024,5.11114634 5.33185366,5.27573171 C5.18341463,5.12665854 5.11090244,5.23563415 4.77314634,4.49356098 C4.75019512,4.44887805 4.7907561,4.53768293 4.77314634,4.49356098 C4.71758537,4.34965854 4.80702439,4.68556098 4.77314634,4.49356098 C4.2052439,4.94165854 3.45802439,5.4494878 3.09934146,5.80795122 C3.09490244,5.8222439 3.51778049,5.68843902 3.09934146,5.80795122 C2.95280488,5.84980488 2.9627561,5.9367561 2.9404878,6.72258537 C2.93512195,6.78217073 2.93987805,6.84890244 2.93504878,6.90253659 C2.6485122,7.26760976 2.45336585,7.5767561 2.37956098,7.73695122 C2.009,8.3754878 1.60087805,9.37090244 1.20526829,10.9455122 C1.37976503,10.5187063 1.59014495,10.1074684 1.83414634,9.71621951 C1.50517073,10.552 1.18714634,11.8644634 1.12356098,13.8856098 C1.20314217,13.4685383 1.30518501,13.056068 1.4292439,12.65 C1.35157899,14.3268176 1.64074398,16.0003871 2.27656098,17.5539268 C2.50409756,18.1105366 2.88046341,18.9552683 3.52117073,19.8807561 C5.53417073,21.9987805 8.3734878,23.3173415 11.517561,23.3173415 C14.7998049,23.3173659 17.7471951,21.8812927 19.772561,19.600878 Z"/>
    <path fill="url(#firefox_svg-d)" d="M17.3439024,21.1392195 C21.3163415,20.6792195 23.0748537,16.585561 20.8166098,16.5050732 C18.7767805,16.439878 15.4622927,21.3562927 17.3439024,21.1392195 Z"/>
    <path fill="url(#firefox_svg-e)" d="M21.1026098,15.668878 C23.8356829,14.0782927 23.1230732,10.6425366 23.1230732,10.6425366 C23.1230732,10.6425366 22.0682927,11.8678537 21.3517317,13.8210732 C20.6439024,15.7551951 19.459439,16.629561 21.1026098,15.668878 Z"/>
    <path fill="url(#firefox_svg-f)" d="M12.4261951,23.1722439 C16.2366098,24.388122 19.511561,21.3863902 17.4928537,20.3839512 C15.6574634,19.4799024 10.6176585,22.5973171 12.4261951,23.1722439 Z"/>
    <path fill="url(#firefox_svg-g)" d="M21.386561,17.1276585 C21.4792439,16.9968537 21.6046098,16.5780244 21.7153415,16.3908049 C22.3880732,15.304878 22.3928293,14.4390244 22.3928293,14.4191951 C22.7991463,12.3894634 22.7622927,11.5606585 22.5123415,10.0279024 C22.3110976,8.7937561 21.4313171,7.02565854 20.6691707,6.1742439 C19.8838049,5.29704878 20.437122,5.58285366 19.6766829,4.94209756 C19.0101707,4.2032439 18.3639268,3.47158537 18.0119756,3.17734146 C15.4686585,1.05107317 15.526122,0.599439024 15.5750976,0.522439024 C15.5668293,0.531487805 15.5546829,0.544926829 15.5391951,0.562512195 C15.5090732,0.442439024 15.4878049,0.341463415 15.4878049,0.341463415 C15.4878049,0.341463415 14.097561,1.73170732 13.804878,4.04878049 C13.6138049,5.5614878 14.1800732,7.13843902 15,8.14634146 C15.4269552,8.66867567 15.9094686,9.14301092 16.4390244,9.56097561 L16.4390244,9.56034146 C17.0585366,10.4500244 17.3995122,11.547878 17.3995122,12.7288537 C17.3995122,15.6860244 15.0009512,18.0832683 12.0421463,18.0832683 C11.6388991,18.0834773 11.2369082,18.0383235 10.8437561,17.9486585 C9.4477561,17.6826098 8.64160976,16.9783902 8.23956098,16.5003171 C8.00914634,16.2263171 7.91117073,16.0265854 7.91117073,16.0265854 C9.16197561,16.4746585 10.5449756,16.3809268 11.386,15.9163902 C12.2335366,15.4465122 12.7463415,15.0981951 13.1625122,15.2355366 C13.5727561,15.3722683 13.8993659,14.9753659 13.6064146,14.5639268 C13.3193171,14.1530732 12.5722683,13.5646585 11.4630488,13.7276829 C10.6145366,13.8512683 9.83726829,14.4535366 8.7254878,13.8702439 C8.65388641,13.8330412 8.58424938,13.792174 8.51685366,13.7478049 C8.44356098,13.7046098 8.75509756,13.8135366 8.68239024,13.764439 C8.46604878,13.659122 8.08304878,13.4296098 7.98378049,13.348 C7.96721951,13.3344146 8.15165854,13.4007073 8.135,13.3870244 C7.09546341,12.6199756 7.2252439,12.1018293 7.25795122,11.7768293 C7.28412195,11.5168293 7.47292683,11.1836585 7.79109756,11.0485366 C7.9447561,11.1236829 8.0405122,11.1810488 8.0405122,11.1810488 C8.0405122,11.1810488 7.97495122,11.0610488 7.9395122,10.9978049 C7.95192683,10.9930732 7.9637561,10.9942683 7.97609756,10.9895366 C8.102,11.0439756 8.38039024,11.1853659 8.52697561,11.2717317 C8.71787805,11.3923902 8.77873171,11.4999756 8.77873171,11.4999756 C8.77873171,11.4999756 8.829,11.4751951 8.79180488,11.3699756 C8.77821951,11.3268293 8.72036585,11.1897073 8.53126829,11.0513171 L8.54309756,11.0525122 C8.65535117,11.1097311 8.76252004,11.17642 8.86343902,11.2518537 C8.9167561,11.0781707 9.01265854,10.8968049 8.99156098,10.5723659 C8.97868293,10.3442683 8.98463415,10.2851707 8.9397561,10.1970976 C8.89958537,10.1214878 8.96229268,10.0919268 9.032,10.170561 C9.01993588,10.1085412 8.99989971,10.0483425 8.97239024,9.99146341 L8.973,9.98556098 C9.06007317,9.71378049 10.8153171,9.00690244 10.9430732,8.92426829 C11.1489419,8.79504185 11.3249873,8.62352747 11.4595366,8.42109756 C11.5570976,8.28170732 11.6306098,8.08614634 11.6485122,7.7895122 C11.6545122,7.65585366 11.6133659,7.55007317 11.1485122,7.44890244 C10.8695122,7.38817073 10.437878,7.32907317 9.77209756,7.26660976 C9.28673171,7.22378049 9.00192683,6.90865854 8.84009756,6.61782927 C8.81056098,6.55517073 8.78046341,6.49831707 8.75034146,6.44168293 C8.72170733,6.37574911 8.69861133,6.30754614 8.68129268,6.23778049 C8.97173313,5.47743827 9.49479075,4.82818923 10.1759024,4.38258537 C10.2149268,4.35068293 10.0198049,4.3907561 10.0588293,4.35887805 C10.1043902,4.32168293 10.4018293,4.21431707 10.4580244,4.19012195 C10.5266341,4.16119512 10.1642683,4.02329268 9.84439024,4.05680488 C9.51860976,4.08970732 9.44941463,4.1245122 9.27553659,4.19060976 C9.34770732,4.1262439 9.57714634,4.04182927 9.52336585,4.04243902 C9.17214634,4.09068293 8.73556098,4.27363415 8.36239024,4.48080488 C8.36170712,4.44448061 8.36941959,4.40848905 8.38492683,4.37563415 C8.21104878,4.44170732 7.78402439,4.70914634 7.65970732,4.93539024 C7.66505357,4.89207454 7.66744934,4.84844553 7.66687805,4.80480488 C7.53594551,4.90238727 7.41648514,5.01448364 7.31078049,5.13895122 L7.30426829,5.14426829 C6.29580488,4.7802439 5.40836585,4.75668293 4.65739024,4.91987805 C4.49309756,4.77204878 4.22895122,4.5485122 3.85514634,3.81256098 C3.8297561,3.7682439 3.81612195,3.90414634 3.79660976,3.86039024 C3.65136585,3.5234878 3.56360976,2.9715122 3.57802439,2.59097561 C3.57802439,2.59097561 3.27758537,2.72790244 3.02892683,3.2997561 C2.9827561,3.40256098 2.95314634,3.45926829 2.92356098,3.51597561 C2.90995122,3.5325122 2.95441463,3.32817073 2.94731707,3.33929268 C2.90409756,3.41246341 2.79229268,3.51470732 2.74314634,3.64704878 C2.70939024,3.74512195 2.66204878,3.80004878 2.63182927,3.92236585 L2.62473171,3.93358537 C2.62229268,3.89753659 2.63368293,3.78526829 2.62539024,3.80829268 C2.50883816,4.04376988 2.40853876,4.28694784 2.32519512,4.53612195 C2.19131707,4.97626829 2.03546341,5.57539024 2.0107561,6.35478049 C2.00480488,6.41387805 2.01009756,6.48004878 2.00473171,6.5332439 C1.68765854,6.89529268 1.47160976,7.20185366 1.38992683,7.3607561 C0.98,7.99419512 0.528292683,8.98136585 0.0904146341,10.5429024 C0.285231441,10.1163513 0.518195011,9.70827726 0.786463415,9.32365854 C0.422341463,10.1525122 0.0703658537,11.4540976 0,13.4585366 C0.0883860619,13.0437344 0.201366047,12.6345566 0.338341463,12.2331707 C0.275463415,13.5697561 0.431146341,15.2268293 1.27612195,17.0964146 C1.77782927,18.1960976 2.93273171,20.4293171 5.75465854,22.1720244 L5.75441463,22.1721951 C5.75441463,22.1721951 6.71441463,22.8868293 8.36458537,23.4224146 C8.48653659,23.4666585 8.61007317,23.5102195 8.73614634,23.5524878 C8.69658537,23.5365122 8.65831707,23.5197073 8.62114634,23.502439 C9.71951489,23.8315268 10.8599035,23.9991344 12.0065122,24 C16.2791951,24.0036341 17.5393415,22.2878049 17.5393415,22.2878049 C17.5393415,22.2878049 17.5349024,22.2911463 17.5268293,22.297 C17.587122,22.2402358 17.6451951,22.1812358 17.7010488,22.12 C17.0269268,22.7565854 15.4884878,22.7988293 14.9132439,22.7529024 C15.8942927,22.4647805 16.5398537,22.2210488 17.795561,21.7402439 C17.9425041,21.6857724 18.0927642,21.6236585 18.2463415,21.5539024 C18.2629512,21.5465854 18.2797073,21.5386585 18.2963902,21.5310732 C18.3268537,21.516878 18.3570244,21.5034634 18.3877805,21.4885366 C18.9995868,21.2002283 19.5748748,20.8400735 20.1014878,20.4156829 C21.3624634,19.4083659 21.6368293,18.4264878 21.7802439,17.7790976 C21.7602439,17.8411463 21.6979268,17.9858049 21.6541463,18.0794878 C21.3293902,18.7741707 20.6092439,19.200439 19.827122,19.5660244 C20.1992996,19.0776987 20.544435,18.569343 20.8609756,18.0432439 C21.1162683,17.79 21.1959268,17.3938537 21.386561,17.1276585 Z"/>
    <path fill="url(#firefox_svg-h)" d="M19.8517317,19.5361463 C20.365878,18.9692927 20.8275854,18.3209268 21.1773171,17.5857073 C22.0773171,15.6934634 23.4688293,12.5471707 22.372878,9.26117073 C21.5067073,6.66402439 20.3174634,5.24390244 18.8074878,3.85663415 C16.3551951,1.60380488 15.6702927,0.598073171 15.6702927,0 C15.6702927,0 12.8388537,3.15631707 14.0668293,6.44831707 C15.2948049,9.74031707 17.8097561,9.61963415 19.4736341,13.055 C21.431561,17.097561 17.8895122,21.509 14.9603659,22.7437317 C15.1397073,22.7039024 21.4718293,21.2709756 21.8046098,17.6490488 C21.7970732,17.7156585 21.6543902,18.7174146 19.8517317,19.5361463 Z"/>
    <path fill="url(#firefox_svg-i)" d="M11.6485854,7.78958537 C11.6581707,7.57568293 11.5472195,7.43202439 9.77829268,7.26609756 C9.0505122,7.19890244 8.77182927,6.5262439 8.68687805,6.24314634 C8.42809756,6.91546341 8.3212439,7.62095122 8.37868293,8.47429268 C8.41795122,9.03331707 8.79353659,9.63334146 8.97307317,9.98563415 C8.97307317,9.98563415 9.01297561,9.93378049 9.03139024,9.91460976 C9.36946341,9.56263415 10.7859268,9.02634146 10.919,8.95019512 C11.0656829,8.85753659 11.6239512,8.44963415 11.6485854,7.78958537 Z"/>
    <path fill="url(#firefox_svg-j)" d="M3.86131707,3.81636585 C3.83592683,3.77202439 3.82229268,3.90792683 3.80278049,3.86419512 C3.65753659,3.52729268 3.56917073,2.98126829 3.59009756,2.59536585 C3.59009756,2.59536585 3.28965854,2.73229268 3.041,3.30414634 C2.99482927,3.40695122 2.96521951,3.46365854 2.93563415,3.52036585 C2.92202439,3.53690244 2.9664878,3.33256098 2.95939024,3.34368293 C2.91619512,3.41685366 2.80439024,3.51909756 2.75582927,3.6455122 C2.71556098,3.74890244 2.67414634,3.80441463 2.64331707,3.93263415 C2.63382927,3.9674878 2.65287805,3.77841463 2.64458537,3.80143902 C2.06626829,4.91912195 1.95587805,6.60909756 2.01682927,6.53763415 C3.248,5.223 4.65890244,4.91121951 4.65890244,4.91121951 C4.50878049,4.80063415 4.18260976,4.48134146 3.86134146,3.81636585 L3.86131707,3.81636585 Z"/>
    <path fill="url(#firefox_svg-k)" d="M8.53278049,17.5634146 C6.83219512,16.8373415 4.89882927,15.8132927 4.97180488,13.486878 C5.07119512,10.423 7.829,11.028561 7.829,11.028561 C7.72492683,11.0539024 7.44668293,11.2520244 7.34807317,11.4631951 C7.24385366,11.7272683 7.05370732,12.3235854 7.62980488,12.948561 C8.53441463,13.9288537 5.77126829,15.2743171 10.0362195,17.8160488 C10.1437805,17.8745854 9.03643902,17.7811707 8.53282927,17.5634146 L8.53278049,17.5634146 Z"/>
    <path fill="url(#firefox_svg-l)" d="M7.92863415,16.0365854 C9.13453659,16.4562683 10.5393659,16.3826585 11.3804146,15.9180976 C11.9434634,15.6046585 12.6657805,15.1026341 13.1102195,15.226561 C12.7254146,15.0744634 12.4339756,15.0033902 12.0833902,14.9860244 C12.0236829,14.9860244 11.952122,14.9847561 11.8870976,14.9782195 C11.7586928,14.9778038 11.6303718,14.9848318 11.5027805,14.9992683 C11.2857073,15.0192195 11.0450732,15.1561707 10.8263171,15.1341951 C10.8144878,15.133 11.0385122,15.0421463 11.0202927,15.0462683 C10.9043902,15.070439 10.7784634,15.0756585 10.6454146,15.0921463 C10.5608537,15.101561 10.488122,15.1121463 10.4041707,15.1156341 C7.89241463,15.3286341 5.76960976,13.7543415 5.76960976,13.7543415 C5.58892683,14.362878 6.57853659,15.5665366 7.92865854,16.0365854 L7.92863415,16.0365854 Z"/>
    <path fill="url(#firefox_svg-m)" d="M19.8472683,19.5523415 C22.3878049,17.0579512 23.6731707,14.025878 23.1297805,10.6250488 C23.1297805,10.6250488 23.3468537,12.3689512 22.5237317,14.152561 C22.9191707,12.4112683 22.9651951,10.2473415 21.9145854,8.0065122 C20.5123171,5.0155122 18.2060976,3.44168293 17.3256341,2.78509756 C15.9916098,1.7902439 15.4386098,0.777317073 15.4286341,0.568292683 C15.030122,1.38480488 13.8245854,4.18292683 15.299122,6.59268293 C16.6805854,8.85034146 18.8568049,9.52046341 20.3802927,11.5913902 C23.187,15.4065122 19.8472683,19.5523415 19.8472683,19.5523415 Z"/>
    <path fill="url(#firefox_svg-n)" d="M19.4832683,13.0622195 C18.5954146,11.2280488 17.4872683,10.4280488 16.4390244,9.56097561 C16.5609756,9.73170732 16.5910244,9.79202439 16.6585366,9.90243902 C17.5811463,10.8857561 18.9416341,13.2842927 17.9539024,16.2952927 C16.0946585,21.9629756 8.65773171,19.2940732 7.87804878,18.5443659 C8.19346341,21.8245854 13.6838049,23.3942439 17.2585366,21.2670488 C19.2926829,19.3414634 20.9382439,16.068 19.4832683,13.0622195 Z"/>
  </g>
</svg>
