<?xml version="1.0" encoding="UTF-8"?>
<svg width="16px" height="16px" viewBox="0 0 16 16" version="1.1" xmlns="http://www.w3.org/2000/svg" xmlns:xlink="http://www.w3.org/1999/xlink">
    <!-- Generator: Sketch 47.1 (45422) - http://www.bohemiancoding.com/sketch -->
    <title>Glyph / Add - on / Page shot</title>
    <desc>Created with Sketch.</desc>
    <defs></defs>
    <g id="Symbols" stroke="none" stroke-width="1" fill="none" fill-rule="evenodd">
        <g id="Glyph-/-Add---on-/-Page-shot" fill-rule="nonzero" fill="#3E3D40">
            <g id="screenshot-16" transform="translate(0.000000, 0.500000)">
                <path d="M5,2 L7,2 L7,0 L5,0 L5,2 Z M2,2 L4,2 L4,0 C2.8954305,-1.11022302e-16 2,0.8954305 2,2 L2,2 Z M8,2 L10,2 L10,0 L8,0 L8,2 Z M11,2 L13,2 L13,0 L11,0 L11,2 Z M14,0 L14,2 L16,2 C16,0.8954305 15.1045695,0 14,0 Z M14,5 L16,5 L16,3 L14,3 L14,5 Z M14,8 L16,8 L16,6 L14,6 L14,8 Z M14,11 C15.1045695,11 16,10.1045695 16,9 L14,9 L14,11 Z M2,5 L4,5 L4,3 L2,3 L2,5 Z" id="Shape"></path>
                <path d="M2.5,4 C1.11928813,4 1.69088438e-16,5.11928813 0,6.5 C-1.69088438e-16,7.88071187 1.11928813,9 2.5,9 C3.88071187,9 5,7.88071187 5,6.5 C5,5.83695878 4.7366079,5.20107399 4.26776695,4.73223305 C3.79892601,4.2633921 3.16304122,4 2.5,4 Z M2.5,7.75 C1.80964406,7.75 1.25,7.19035594 1.25,6.5 C1.25,5.80964406 1.80964406,5.25 2.5,5.25 C3.19035594,5.25 3.75,5.80964406 3.75,6.5 C3.75,7.19035594 3.19035594,7.75 2.5,7.75 Z" id="Shape"></path>
                <path d="M2.5,10 C1.11928813,10 1.69088438e-16,11.1192881 0,12.5 C-1.69088438e-16,13.8807119 1.11928813,15 2.5,15 C3.88071187,15 5,13.8807119 5,12.5 C5,11.1192881 3.88071187,10 2.5,10 Z M2.5,13.75 C1.80964406,13.75 1.25,13.1903559 1.25,12.5 C1.25,11.8096441 1.80964406,11.25 2.5,11.25 C3.19035594,11.25 3.75,11.8096441 3.75,12.5 C3.75,13.1903559 3.19035594,13.75 2.5,13.75 Z" id="Shape"></path>
                <path d="M7.9,11.321 L10.917,13.621 C11.8219462,14.2540697 13.0687368,14.0338108 13.702,13.129 L9.64,10.1 L7.9,11.321 Z M4.71,12.183 L13.563,5.833 C12.9297368,4.92818923 11.6829462,4.70793035 10.778,5.341 L6.939,8.172 L4.78,6.658 L3.765,8.389 L5.195,9.389 L3.552,10.55 L4.71,12.183 Z" id="Shape"></path>
            </g>
        </g>
    </g>
</svg>