<?xml version="1.0" encoding="UTF-8" standalone="no"?>
<svg width="283px" height="196px" viewBox="0 0 283 196" version="1.1" xmlns="http://www.w3.org/2000/svg" xmlns:xlink="http://www.w3.org/1999/xlink">
    <!-- Generator: Sketch 45.1 (43504) - http://www.bohemiancoding.com/sketch -->
    <title>Group</title>
    <desc>Created with Sketch.</desc>
    <defs>
        <path d="M74.144063,22.0231401 L58.7315074,22.0231401 C56.5426767,22.0231401 54.7682789,20.197944 54.7682789,17.9464505 L54.7682789,2.09265731 L74.144063,22.0231401 Z" id="path-1"></path>
    </defs>
    <g id="Page-1" stroke="none" stroke-width="1" fill="none" fill-rule="evenodd">
        <g id="Download-File" transform="translate(-580.000000, -429.000000)">
            <g id="Group" transform="translate(580.000000, 404.000000)">
                <g id="image">
                    <g id="Group-2" transform="translate(0.000000, 25.000000)">
                        <g id="about-rights">
                            <path d="M103.11,83.26 L103.35,87.87 C103.771032,89.8845503 104.608992,91.7886951 105.81,93.46 C107.17,93.06 108.61,92.71 110.09,92.46 L110.9,91.94 C111.082353,91.3817437 111.296025,90.8342088 111.54,90.3 C111.542624,85.1623117 112.81721,80.1051939 115.25,75.58 C113.197879,63.1189543 113.363763,50.3933203 115.74,37.99 L106.4,44.81 C106.3,46.69 106.4,51.46 106.4,55.41 C106.56,67.8 106.47,70.41 105.87,71.58 C104.086186,74.0336341 102.117096,76.3470643 99.98,78.5 C101.79545,79.4172945 102.987206,81.229677 103.11,83.26 L103.11,83.26 Z" id="Shape"></path>
                            <path d="M124.06,16 L108.82,26.8 L108.82,36.59 C111.01,34.97 113.9,32.86 117.73,30.1 C118.906911,26.2397914 120.377884,22.4754392 122.13,18.84 C122.634583,17.8061251 123.284502,16.8497672 124.06,16 L124.06,16 Z" id="Shape"></path>
                            <path d="M71.08,8.85 C71,8.52 67.94,1 60.38,2 C58.09,2.31 56.51,3.21 55.7,4.67 C55.4778296,5.07528611 55.3129262,5.50941959 55.21,5.96 C56.3788804,4.56297127 58.0717525,3.70930074 59.89,3.6 C67.94,2.5 71.13,10.78 71.13,10.78 C71.2753564,10.185708 71.507876,9.61620348 71.82,9.09 C71.7533065,9.14272144 71.6740435,9.17718362 71.59,9.19 C71.3613492,9.21010634 71.1493829,9.06879551 71.08,8.85 Z" id="Shape"></path>
                            <path d="M221.83,112.58 C222.382285,112.58 222.83,112.132285 222.83,111.58 C222.83,111.027715 222.382285,110.58 221.83,110.58 L194.39,110.58 C194.083333,111.246667 193.75,111.913333 193.39,112.58 L221.83,112.58 Z" id="Shape" fill="#D9EBFF" fill-rule="nonzero"></path>
                            <path d="M212.37,106.15 C212.646142,106.15 212.87,105.926142 212.87,105.65 C212.87,105.373858 212.646142,105.15 212.37,105.15 L196.3,105.15 C196.22,105.48 196.12,105.82 196.02,106.15 L212.37,106.15 Z" id="Shape" fill="#D9EBFF" fill-rule="nonzero"></path>
                            <path d="M239.81,117 L191.2,117 C191.2,117.09 191.2,117.18 191.13,117.27 L191.43,118 L239.81,118 C240.086142,118 240.31,117.776142 240.31,117.5 C240.31,117.223858 240.086142,117 239.81,117 Z" id="Shape" fill="#D9EBFF" fill-rule="nonzero"></path>
                            <path d="M139.19,151.47 L78.48,151.47 C77.9277153,151.47 77.48,151.917715 77.48,152.47 C77.48,153.022285 77.9277153,153.47 78.48,153.47 L138.92,153.47 C139.09,153.12 139.25,152.76 139.41,152.38 C139.32,152.08 139.26,151.77 139.19,151.47 Z" id="Shape" fill="#D9EBFF" fill-rule="nonzero"></path>
                            <path d="M226.77,153.47 C227.322285,153.47 227.77,153.022285 227.77,152.47 C227.77,151.917715 227.322285,151.47 226.77,151.47 L162.61,151.47 C162.456222,152.154279 162.242049,152.823568 161.97,153.47 L226.77,153.47 Z" id="Shape" fill="#D9EBFF" fill-rule="nonzero"></path>
                            <path d="M115.82,93.8 C115.82,93.93 115.74,94.05 115.71,94.18 L115.86,94.08 L115.82,93.8 Z" id="Shape" fill="#FFFFFF" fill-rule="nonzero"></path>
                            <path d="M55.72,152.47 C55.72,151.917715 55.2722847,151.47 54.72,151.47 L27.06,151.47 C26.5077153,151.47 26.06,151.917715 26.06,152.47 C26.06,153.022285 26.5077153,153.47 27.06,153.47 L54.72,153.47 C55.2722847,153.47 55.72,153.022285 55.72,152.47 Z" id="Shape" fill="#D9EBFF" fill-rule="nonzero"></path>
                            <path d="M31.14,68.27 L81.06,68.27 C81.6122847,68.27 82.06,67.8222847 82.06,67.27 C82.06,66.7177153 81.6122847,66.27 81.06,66.27 L31.14,66.27 C30.5877153,66.27 30.14,66.7177153 30.14,67.27 C30.14,67.8222847 30.5877153,68.27 31.14,68.27 Z" id="Shape" fill="#D9EBFF" fill-rule="nonzero"></path>
                            <path d="M48.94,62 C48.6638576,62 48.44,62.2238576 48.44,62.5 C48.44,62.7761424 48.6638576,63 48.94,63 L72.94,63 C73.2161424,63 73.44,62.7761424 73.44,62.5 C73.44,62.2238576 73.2161424,62 72.94,62 L48.94,62 Z" id="Shape" fill="#D9EBFF" fill-rule="nonzero"></path>
                            <polygon id="Shape" fill="#F9F9FA" fill-rule="nonzero" points="116.63 103.8 117.13 103.7 117.13 103.7"></polygon>
                            <path d="M173.15,33.64 C173.035402,35.5619567 173.210699,37.490216 173.67,39.36 L174.58,39.36 C173.877118,37.517124 173.397046,35.596835 173.15,33.64 L173.15,33.64 Z" id="Shape" fill="#FFFFFF" fill-rule="nonzero"></path>
                            <path d="M205.75,40.13 C205.831821,39.9804604 205.831821,39.7995396 205.75,39.65 C205.75,39.59 203.51,34.54 204.11,29.71 C204.250277,28.4093634 204.644388,27.1488878 205.27,26 C206.79,23.26 209.72,21.58 213.98,21 C227.9,19.1 233.6,33.45 233.65,33.59 C233.723656,33.8032789 233.935918,33.9364628 234.16,33.91 C234.382463,33.8920442 234.566086,33.7288236 234.61,33.51 C234.68,33.18 236.32,25.43 244.36,26.96 C252.4,28.49 258.71,40.59 258.77,40.72 C258.85692,40.8878112 259.031028,40.9922761 259.22,40.99 L280.5,40.99 C280.776142,40.99 281,40.7661424 281,40.49 C281,40.2138576 280.776142,39.99 280.5,39.99 L259.5,39.99 C258.5,38.09 252.55,27.51 244.5,25.99 C237.63,24.68 234.9,29.59 233.99,31.99 C232.2,28.42 225.99,18.32 213.81,19.99 C209.23,20.61 206.05,22.47 204.36,25.5 C203.109828,27.9967286 202.672717,30.8222171 203.11,33.58 C203.357046,35.536835 203.837118,37.457124 204.54,39.3 L180.84,39.3 C180.563858,39.3 180.34,39.5238576 180.34,39.8 C180.34,40.0761424 180.563858,40.3 180.84,40.3 L205.28,40.3 C205.455782,40.3313167 205.634925,40.2665206 205.75,40.13 Z" id="Shape" fill="#D9EBFF" fill-rule="nonzero"></path>
                            <path d="M281.2,43.32 L257.86,43.32 C255.86,39.55 250.59,31.12 244.03,29.87 C235.42,28.23 233.7,36.81 233.7,36.81 C233.7,36.81 228,21.93 213.5,23.9 C208.2,24.62 205.5,26.9 204.15,29.72 C203.55,34.55 205.76,39.59 205.79,39.66 C205.857589,39.8148619 205.84239,39.9933839 205.749596,40.134592 C205.656803,40.2758 205.498968,40.3605893 205.33,40.36 L203.93,40.36 C204.199289,41.3280142 204.533377,42.2768218 204.93,43.2 L180.46,43.2 L186.39,43.32 L180.46,43.32 C179.907715,43.32 179.46,43.7677153 179.46,44.32 C179.46,44.8722847 179.907715,45.32 180.46,45.32 L281.2,45.32 C281.752285,45.32 282.2,44.8722847 282.2,44.32 C282.2,43.7677153 281.752285,43.32 281.2,43.32 L281.2,43.32 Z" id="Shape" fill="#FFFFFF" fill-rule="nonzero"></path>
                            <path d="M54.15,9 C54.0900028,9.91772147 54.1539108,10.8393429 54.34,11.74 L54.81,11.74 C54.4999358,10.8507384 54.2788533,9.93291092 54.15,9 Z" id="Shape" fill="#FFFFFF" fill-rule="nonzero"></path>
                            <path d="M16,12.49 C16.0855184,12.3378606 16.0855184,12.1521394 16,12 C15.1786315,10.0855824 14.9084761,7.97975582 15.22,5.92 C15.3229262,5.46941959 15.4878296,5.03528611 15.71,4.63 C16.52,3.17 18.09,2.27 20.39,1.96 C27.95,0.96 30.97,8.5 31.09,8.82 C31.1666911,9.03084676 31.3767874,9.16267189 31.6,9.14 C31.8118635,9.09899471 31.9844383,8.9455949 32.05,8.74 L32.05,8.67 C32.2585193,7.52561461 32.9248903,6.51583154 33.8950709,5.87407783 C34.8652515,5.23232412 36.0552573,5.01415368 37.19,5.27 C41.62,6.12 45.02,12.2 45.05,12.27 C45.1379486,12.4307402 45.306773,12.5305001 45.49,12.53 L57.33,12.53 C57.6061424,12.53 57.83,12.3061424 57.83,12.03 C57.83,11.7538576 57.6061424,11.53 57.33,11.53 L45.79,11.53 C45.06,10.29 41.79,5.14 37.39,4.3 C34.9314092,3.66920336 32.3902751,4.98061774 31.48,7.35 C30.23,5.05 26.74,0.09 20.25,0.97 C17.63,1.33 15.8,2.4 14.83,4.14 C14.0835794,5.64379051 13.8449773,7.34909397 14.15,9 C14.2788533,9.93291092 14.4999358,10.8507384 14.81,11.74 L1.95,11.74 C1.67385763,11.74 1.45,11.9638576 1.45,12.24 C1.45,12.5161424 1.67385763,12.74 1.95,12.74 L15.54,12.74 C15.7281951,12.7500186 15.9060357,12.6533661 16,12.49 Z" id="Shape" fill="#D9EBFF" fill-rule="nonzero"></path>
                            <path d="M1.78,16.45 L57.78,16.45 C58.3322847,16.45 58.78,16.0022847 58.78,15.45 C58.78,14.8977153 58.3322847,14.45 57.78,14.45 L44.61,14.45 C43.51,12.4 40.61,7.6 36.88,6.89 C35.0536857,6.39669206 33.1159121,7.12034198 32.06,8.69 L32.06,8.76 C32.0299761,8.88550791 31.9506796,8.99363959 31.84,9.06 C31.527876,9.58620348 31.2953564,10.155708 31.15,10.75 C31.15,10.75 28,2.48 19.9,3.58 C18.0817525,3.68930074 16.3888804,4.54297127 15.22,5.94 C14.912273,7.99323987 15.1823601,10.0916093 16,12 C16.0675885,12.1548619 16.0523904,12.3333839 15.9595965,12.474592 C15.8668026,12.6158 15.7089677,12.7005893 15.54,12.7 L14.54,12.7 C14.6873881,13.2417594 14.8711382,13.7729642 15.09,14.29 L1.53,14.29 L8.71,14.43 L1.78,14.43 C1.22771525,14.43 0.78,14.8777153 0.78,15.43 C0.78,15.9822847 1.22771525,16.43 1.78,16.43 L1.78,16.45 Z" id="Shape" fill="#FFFFFF" fill-rule="nonzero"></path>
                            <path d="M113.81,102.61 C114.058635,101.928189 114.435407,101.300236 114.92,100.76 L114.84,100.76 L114.12,101.67 C113.912572,101.938855 113.803201,102.270496 113.81,102.61 L113.81,102.61 Z" id="Shape" fill="#D9EBFF" fill-rule="nonzero"></path>
                            <ellipse id="Oval" fill="#D9EBFF" fill-rule="nonzero" cx="144.33" cy="186.27" rx="50.33" ry="9.27"></ellipse>
                        </g>
                    </g>
                    <g id="Group-4" transform="translate(152.620968, 102.287769) rotate(-44.000000) translate(-152.620968, -102.287769) translate(73.120968, 37.287769)">
                        <g id="Group-3" transform="translate(19.920167, 37.320851) rotate(72.000000) translate(-19.920167, -37.320851) translate(-5.079833, 25.320851)">
                            <path d="M49.4003361,9.59649256 C47.9638062,1.40702843 40.6936811,-1.08699388 27.5899606,2.11442561 C7.93437991,6.91655485 3.25374001,-0.164428045 1.05459463,0.974998784 C-1.14455074,2.11442561 3.9859979,8.37837202 5.87113212,9.30915778 C7.75626633,10.2399435 3.4039216,8.76283936 5.21157932,12.2247905 C6.41668446,14.532758 8.88374693,16.243276 12.6127667,17.3563447 C11.1448515,18.7800036 13.5286326,20.4094831 19.76411,22.2447831 C25.9995874,24.0800831 30.638367,24.0800831 33.6804489,22.2447831 C33.2084835,23.4874426 34.2733703,23.9258386 36.8751093,23.5599713 C39.4768483,23.194104 41.8061201,22.3099381 43.8629249,20.9074737 C45.8839171,19.5530393 47.3471285,17.8894713 48.252559,15.9167696 C49.1579894,13.9440679 49.5405818,11.8373089 49.4003361,9.59649256 Z" id="Path-12" fill="#59ACFF"></path>
                            <path d="M47.6966352,10.7457567 C47.2754014,6.00986714 44.7877837,3.20798567 40.2337821,2.34011231 C37.0770092,1.73851413 33.3143679,2.18619633 22.6798796,4.44612024 C8.07223384,7.55037568 0.933865046,-1.85351624 3.49195256,4.44612024 C6.05004007,10.7457567 14.0031903,9.54123375 15.7627012,9.87204223 C17.5222121,10.2028507 12.3634878,10.4818733 11.0489625,10.4818733 C7.64306471,10.4818733 7.44406564,10.406473 7.065472,11.2433335 C6.68687835,12.080194 9.35877835,15.6164761 15.9458981,16.2783753 C17.7004981,16.4546843 20.4949905,16.8418062 23.2170119,16.8418062 C27.5402872,16.8418062 32.1291092,14.9118316 32.2933508,15.2418283 C32.4466738,15.5498869 27.3704597,17.1545546 23.2170119,17.5856592 C20.0671656,17.9125956 16.8778623,17.4677314 15.4455206,17.5856592 C12.1244658,17.8590889 19.1057409,21.6989116 26.0174489,22.1564127 C32.929157,22.6139138 34.0420916,20.2977739 34.9883815,20.1666697 C35.9346715,20.0355654 32.9845131,21.7358669 34.4254188,22.1564127 C35.8663246,22.5769585 40.6157604,21.7690981 44.1832892,18.4980082 C46.5616418,16.3172816 47.7327571,13.7331978 47.6966352,10.7457567 Z" id="Path-13" fill="#FFFFFF"></path>
                            <path d="M8.53415868,11.8902082 C11.2608969,14.0199742 15.3904324,15.1257472 20.9227653,15.2075271 C26.201904,15.2855642 30.5956305,14.3767963 34.103945,12.4812235" id="Line" stroke="#D9EBFF" stroke-width="3.3" stroke-linecap="round" stroke-linejoin="round"></path>
                        </g>
                        <g id="illustration" transform="translate(72.390826, 65.171900) rotate(19.000000) translate(-72.390826, -65.171900) translate(24.890826, 13.171900)">
                            <path d="M52.057157,4.10735338 L9.21553971,2.97365866 L9.21553971,2.97365866 C7.91156262,2.93915221 6.70962859,3.6759974 6.14880684,4.85371805 L6.14880677,4.85371801 C-0.15586315,18.0934685 -1.2634258,34.0808987 2.82611883,52.8160086 C7.02817604,72.0665636 13.2651492,86.129378 21.5370382,95.0044518 C21.9123128,95.4070913 22.382338,95.7094701 22.9043227,95.8840596 L22.9043227,95.8840596 C26.0024717,96.9203049 32.4387544,97.6886366 42.2131709,98.1890546 C52.197489,98.7002188 68.5129768,97.7549969 91.1596346,95.3533886 C91.6712786,95.2991303 92.1631478,95.1259875 92.595962,94.8477871 C94.1291032,93.8623283 94.5730875,91.8205996 93.5876288,90.2874584 L93.5876287,90.2874584 C86.7479539,79.646539 81.2176382,67.6769083 76.9966818,54.3785664 C73.5271633,43.447669 73.4579584,31.8469982 76.7890669,19.576554 L52.057157,4.10735338 Z" id="Combined-Shape" stroke="#59ACFF" stroke-width="2" fill="#F9F9FA" stroke-linecap="round" stroke-linejoin="round"></path>
                            <path d="M5.77397186,7.90897516 C6.04325645,7.16577331 6.32566374,6.42974506 6.62119375,5.70089042 L6.62119379,5.70089043 C7.14088651,4.41919164 8.40468289,3.59753652 9.78699882,3.64264756 L9.78699882,3.64264756 L51.5030706,5.00402619 L75.606165,20.0799182 C72.4822788,30.0241214 72.6887618,41.1662936 76.2256138,53.5064347 C80.8525635,69.6499466 86.374544,81.9502201 92.7915552,90.4072552 L92.7915413,90.4072657 C93.6582312,91.5494838 93.4348714,93.1780254 92.2926533,94.0447153 C91.911923,94.3336049 91.4588364,94.511792 90.9833126,94.5596445 C90.9833126,94.5596445 90.9833126,94.5596445 90.9833126,94.5596445 C90.4801933,94.610274 89.9789023,94.6602185 89.4795064,94.7094754 C89.4460688,94.6388922 89.4099083,94.5689855 89.3709894,94.4998823 L89.3709895,94.4998823 C89.3167835,94.4036356 89.2616114,94.3062399 89.2054733,94.2076953 C83.8918171,84.880118 77.9389227,74.0514155 73.4988629,60.7069112 C71.4153495,54.4449563 68.8022969,43.4720285 69.0727385,34.0093092 C69.3431801,24.54659 65.6891819,26.1951501 57.7547122,27.7430046 C54.5553319,28.3671389 51.9088077,22.8717339 49.8151395,11.2567896 C49.535305,9.70436492 48.1959197,8.56706542 46.6186654,8.54259802 L46.6186654,8.54259803 L5.7739671,7.9089883 Z" id="Combined-Shape" fill="#D9EBFF"></path>
                            <g id="face" transform="translate(33.107799, 45.482876) rotate(5.000000) translate(-33.107799, -45.482876) translate(10.607799, 34.982876)" stroke-linecap="round" stroke-linejoin="round">
                                <path d="M5.49019608,8.63157895 L6.17508165,11.8749105" id="Line" stroke="#535A80" stroke-width="3.3"></path>
                                <path d="M39.5294118,7.52631579 L40.2142973,10.7696473" id="Line-Copy-3" stroke="#535A80" stroke-width="3.3"></path>
                                <path d="M36.4300513,1.58873869 C38.9463912,3.79009046 41.4627311,3.80448191 43.9790709,1.63191303" id="Path-5-Copy" stroke="#C8C8CC" stroke-width="2.2" transform="translate(40.204561, 2.419678) rotate(-175.000000) translate(-40.204561, -2.419678) "></path>
                                <path d="M0.812615574,2.85775396 C2.71166582,0.543609221 5.2487369,0.225198448 8.42382881,1.90252164" id="Path-6" stroke="#C8C8CC" stroke-width="2.2"></path>
                                <path d="M13.0700344,21.2543575 C18.3217219,16.1539764 25.0084143,15.9203114 33.1301116,20.5533627" id="Path-6" stroke="#C8C8CC" stroke-width="2" transform="translate(23.100073, 19.249883) rotate(177.000000) translate(-23.100073, -19.249883) "></path>
                            </g>
                            <mask id="mask-2" fill="white">
                                <use xlink:href="#path-1"></use>
                            </mask>
                            <use id="Path" stroke="#5CAEFF" stroke-width="1.1" fill="#F9F9FA" transform="translate(64.456171, 12.057899) rotate(-14.000000) translate(-64.456171, -12.057899) " xlink:href="#path-1"></use>
                        </g>
                        <g id="Group-3" transform="translate(124.343514, 67.259611) scale(-1, 1) rotate(22.000000) translate(-124.343514, -67.259611) translate(93.343514, 52.259611)">
                            <path d="M61.9164016,11.7427781 C60.1005576,1.39089533 50.9107641,-1.76167073 34.3470213,2.28507992 C9.50140698,8.3552059 3.58484946,-0.595502437 0.805022267,0.844788744 C-1.97480493,2.28507992 4.51045922,10.2030142 6.89336097,11.3795729 C9.27626271,12.5561316 3.77468633,10.6889997 6.059654,15.0650751 C7.58296578,17.9824588 10.7014533,20.1446371 15.4151165,21.5516103 C13.5595999,23.3511848 16.5728157,25.4109265 24.4547638,27.7308353 C32.3367118,30.0507442 38.2003559,30.0507442 42.0456961,27.7308353 C41.4491088,29.3016176 42.7951777,29.8557716 46.0839029,29.3932974 C49.3726281,28.9308233 52.3169415,27.8131944 54.9168431,26.0404108 C57.4714761,24.3283397 59.3210468,22.2255084 60.4655551,19.7319171 C61.6100634,17.2383258 62.0936789,14.5752794 61.9164016,11.7427781 Z" id="Path-12" fill="#59ACFF"></path>
                            <path d="M59.9989596,13.2555895 C59.4583241,7.17727775 56.2655731,3.58118268 50.4207067,2.46730433 C46.3691236,1.69517878 41.5399344,2.26975975 27.8910234,5.17027546 C9.14273461,9.1544546 -0.0190565461,-2.91503862 3.2641394,5.17027546 C6.54733535,13.2555895 16.7548636,11.7096358 19.0131206,12.1342144 C21.2713776,12.5587929 14.6503756,12.9169064 12.9632386,12.9169064 C8.59191437,12.9169064 8.33650758,12.8201334 7.85059882,13.8942081 C7.36469006,14.9682828 10.7939595,19.5069496 19.248246,20.356469 C21.5002001,20.5827541 25.0868116,21.0796084 28.5804098,21.0796084 C34.1291487,21.0796084 40.0187056,18.6025686 40.2295027,19.0261052 C40.4262862,19.4214853 33.9111824,21.4810076 28.5804098,22.034312 C24.5377167,22.4539209 20.4443822,21.8829567 18.6060329,22.034312 C14.343601,22.3852473 23.3037692,27.3134955 32.1746509,27.9006786 C41.0455327,28.4878617 42.4739367,25.5151953 43.6884594,25.3469285 C44.9029821,25.1786618 41.1165799,27.3609261 42.9659208,27.9006786 C44.8152617,28.4404312 50.9109595,27.4035769 55.4897303,23.2052729 C58.5422441,20.4064036 60.0453206,17.0898425 59.9989596,13.2555895 Z" id="Path-13" fill="#FFFFFF"></path>
                            <path d="M9.35863838,14.43014 C13.0476745,17.7308148 18.3583009,19.4323887 25.2905173,19.5348619 C31.9054722,19.6326453 37.1880914,18.686127 41.1383752,16.6953069" id="Line" stroke="#D9EBFF" stroke-width="3.3" stroke-linecap="round" stroke-linejoin="round"></path>
                        </g>
                    </g>
                </g>
            </g>
        </g>
    </g>
</svg>