<?xml version="1.0" encoding="UTF-8" standalone="no"?>
<svg width="64px" height="60px" viewBox="0 0 64 60" version="1.1" xmlns="http://www.w3.org/2000/svg" xmlns:xlink="http://www.w3.org/1999/xlink">
    <!-- Generator: Sketch 47.1 (45422) - http://www.bohemiancoding.com/sketch -->
    <title>Group Copy</title>
    <desc>Created with Sketch.</desc>
    <defs>
        <linearGradient x1="0%" y1="100%" x2="100%" y2="-5.55111512e-15%" id="linearGradient-1">
            <stop stop-color="#00FEFF" offset="0%"></stop>
            <stop stop-color="#0A88FF" offset="100%"></stop>
        </linearGradient>
        <linearGradient x1="-102.538416%" y1="-45.8996857%" x2="210.768393%" y2="0%" id="linearGradient-2">
            <stop stop-color="#00FEFF" offset="0%"></stop>
            <stop stop-color="#0A88FF" offset="100%"></stop>
        </linearGradient>
        <linearGradient x1="-90.4057641%" y1="-16.3577836%" x2="194.86113%" y2="-5.13263296%" id="linearGradient-3">
            <stop stop-color="#00FEFF" offset="0%"></stop>
            <stop stop-color="#0A88FF" offset="100%"></stop>
        </linearGradient>
        <linearGradient x1="-91.89263%" y1="-13.7881495%" x2="194.733333%" y2="-5.45759012%" id="linearGradient-4">
            <stop stop-color="#00FEFF" offset="0%"></stop>
            <stop stop-color="#0A88FF" offset="100%"></stop>
        </linearGradient>
        <path d="M17.1914682,25.8339286 C17.1106947,27.3903534 17.4250803,29.1766084 18.134625,31.1926935 C18.6239565,31.85121 18.9527319,32.6324665 19.0642876,33.480727 C19.0782282,33.5112631 19.0922462,33.5418442 19.1063415,33.5724702 L19.0754742,33.5724702 C19.0958705,33.7539578 19.1063415,33.9383877 19.1063415,34.1252232 C19.1063415,36.8727166 16.8419943,39.1 14.0487805,39.1 C11.2555667,39.1 8.99121951,36.8727166 8.99121951,34.1252232 C8.99121951,33.9383877 9.00169052,33.7539578 9.02208681,33.5724702 L8.99121951,33.5724702 C9.00573489,33.5387896 9.02015639,33.5051621 9.03448403,33.4715878 C9.13633436,32.7082407 9.41412752,31.9993784 9.82649942,31.3856879 C10.5136322,29.2985829 10.783238,27.4479965 10.6353168,25.8339286 L3.37170732,25.8339286 C1.50956478,25.8339286 -3.50770455e-14,24.3243638 -3.53050922e-14,22.4622213 L-3.57491814e-14,15.9395645 L-3.53050922e-14,15.9395645 C-3.55331389e-14,14.0774219 1.50956478,12.5678571 3.37170732,12.5678571 L24.7258537,12.5678571 C26.5879962,12.5678571 28.097561,14.0774219 28.097561,15.9395645 L28.097561,22.4622213 L28.097561,22.4622213 C28.097561,24.3243638 26.5879962,25.8339286 24.7258537,25.8339286 L17.1914682,25.8339286 Z M26.6926829,8.30844485 L26.6926829,2.8097561 C26.6926829,1.25797065 25.4347123,1.59030848e-16 23.8829268,4.4408921e-16 L23.8829268,0 L4.21463415,0 C2.6628487,2.85058361e-16 1.40487805,1.25797065 1.40487805,2.8097561 L1.40487805,2.8097561 L1.40487805,9.32435644 C1.46906629,9.32675322 1.5357433,9.32699419 1.60501143,9.32497907 C3.77303735,9.26190796 2.87329459,0.762478638 6.35170541,4.46475307 C9.83011623,8.1670275 10.0198742,5.03188171 12.6658537,5.03188171 C15.3118331,5.03188171 15.3217797,7.14084342 17.1226372,6.67496948 C18.9234947,6.20909555 18.3512195,3.62854941 21.9993236,3.63085066 C24.3562365,3.63233741 25.4682383,6.54596637 26.6926829,8.30844485 Z M14.0487805,34.9107143 C14.8246732,34.9107143 15.4536585,34.2855119 15.4536585,33.5142857 C15.4536585,32.7430595 14.8246732,32.1178571 14.0487805,32.1178571 C13.2728878,32.1178571 12.6439024,32.7430595 12.6439024,33.5142857 C12.6439024,34.2855119 13.2728878,34.9107143 14.0487805,34.9107143 Z" id="path-5"></path>
        <linearGradient x1="-86.9110148%" y1="-15.7608514%" x2="196.657657%" y2="-3.47075965%" id="linearGradient-6">
            <stop stop-color="#00FEFF" offset="0%"></stop>
            <stop stop-color="#0A88FF" offset="100%"></stop>
        </linearGradient>
        <linearGradient x1="-89.550509%" y1="-17.283205%" x2="193.175196%" y2="0%" id="linearGradient-7">
            <stop stop-color="#00FEFF" offset="0%"></stop>
            <stop stop-color="#0A88FF" offset="100%"></stop>
        </linearGradient>
        <path d="M17.1914682,25.8339286 C17.1106947,27.3903534 17.4250803,29.1766084 18.134625,31.1926935 C18.6239565,31.85121 18.9527319,32.6324665 19.0642876,33.480727 C19.0782282,33.5112631 19.0922462,33.5418442 19.1063415,33.5724702 L19.0754742,33.5724702 C19.0958705,33.7539578 19.1063415,33.9383877 19.1063415,34.1252232 C19.1063415,36.8727166 16.8419943,39.1 14.0487805,39.1 C11.2555667,39.1 8.99121951,36.8727166 8.99121951,34.1252232 C8.99121951,33.9383877 9.00169052,33.7539578 9.02208681,33.5724702 L8.99121951,33.5724702 C9.00573489,33.5387896 9.02015639,33.5051621 9.03448403,33.4715878 C9.13633436,32.7082407 9.41412752,31.9993784 9.82649942,31.3856879 C10.5136322,29.2985829 10.783238,27.4479965 10.6353168,25.8339286 L3.37170732,25.8339286 C1.50956478,25.8339286 -3.66313577e-14,24.3243638 -3.68594044e-14,22.4622213 L-3.73034936e-14,15.9395645 L-3.68594044e-14,15.9395645 C-3.70874511e-14,14.0774219 1.50956478,12.5678571 3.37170732,12.5678571 L24.7258537,12.5678571 C26.5879962,12.5678571 28.097561,14.0774219 28.097561,15.9395645 L28.097561,22.4622213 L28.097561,22.4622213 C28.097561,24.3243638 26.5879962,25.8339286 24.7258537,25.8339286 L17.1914682,25.8339286 Z M26.6926829,8.30844485 L26.6926829,2.8097561 C26.6926829,1.25797065 25.4347123,1.96989561e-14 23.8829268,1.99840144e-14 L23.8829268,1.95399252e-14 L4.21463415,1.95399252e-14 L4.21463415,1.99840144e-14 C2.6628487,2.02690728e-14 1.40487805,1.25797065 1.40487805,2.8097561 L1.40487805,2.8097561 L1.40487805,9.32435644 C1.46906629,9.32675322 1.5357433,9.32699419 1.60501143,9.32497907 C3.77303735,9.26190796 2.87329459,0.762478638 6.35170541,4.46475307 C9.83011623,8.1670275 10.0198742,5.03188171 12.6658537,5.03188171 C15.3118331,5.03188171 15.3217797,7.14084342 17.1226372,6.67496948 C18.9234947,6.20909555 18.3512195,3.62854941 21.9993236,3.63085066 C24.3562365,3.63233741 25.4682383,6.54596637 26.6926829,8.30844485 Z M14.0487805,34.9107143 C14.8246732,34.9107143 15.4536585,34.2855119 15.4536585,33.5142857 C15.4536585,32.7430595 14.8246732,32.1178571 14.0487805,32.1178571 C13.2728878,32.1178571 12.6439024,32.7430595 12.6439024,33.5142857 C12.6439024,34.2855119 13.2728878,34.9107143 14.0487805,34.9107143 Z" id="path-8"></path>
    </defs>
    <g id="Final" stroke="none" stroke-width="1" fill="none" fill-rule="evenodd">
        <g id="mobile" transform="translate(-148.000000, -216.000000)">
            <g id="Group-Copy" transform="translate(148.000000, 216.000000)">
                <path d="M64,28 C64,29.6568542 62.6568542,31 61,31 C59.3431458,31 58,29.6568542 58,28 L58,21 L6,21 L6,48 C6,49.1045695 6.8954305,50 8,50 L28,50 C29.6568542,50 31,51.3431458 31,53 C31,54.6568542 29.6568542,56 28,56 L4,56 C1.790861,56 2.705415e-16,54.209139 0,52 L0,4 L0,4 C-2.705415e-16,1.790861 1.790861,4.05812251e-16 4,0 L4,0 L60,0 C62.209139,-4.05812251e-16 64,1.790861 64,4 L64,28 Z M8,6 L8,6 C6.8954305,6 6,6.8954305 6,8 L6,17 L58,17 L58,8 C58,6.8954305 57.1045695,6 56,6 L8,6 Z" id="Combined-Shape" fill="url(#linearGradient-1)"></path>
                <g id="Group-6-Copy" transform="translate(48.395184, 44.395184) rotate(-45.000000) translate(-48.395184, -44.395184) translate(33.895184, 24.395184)">
                    <rect id="Rectangle-15" stroke="url(#linearGradient-2)" stroke-width="2.8097561" x="2.8097561" y="1.40487805" width="22.4780488" height="12.5509582" rx="2.8097561"></rect>
                    <g id="Combined-Shape">
                        <use fill="url(#linearGradient-3)" fill-rule="evenodd" xlink:href="#path-5"></use>
                        <path stroke="url(#linearGradient-4)" stroke-width="2.25" d="M17.9535332,33.6627073 L17.9708745,33.7945694 L18.0408916,33.9479376 C18.06256,33.9953365 18.06256,33.9953365 18.0843821,34.0428148 L19.1063415,33.5724702 L19.1063415,32.4474702 L17.8169601,32.4474702 L17.9535332,33.6627073 Z M10.1444247,33.6591753 L10.2806009,32.4474702 L8.99121951,32.4474702 L8.99121951,33.5724702 L10.024358,34.0177228 C10.0468753,33.9653896 10.0468753,33.9653896 10.0692055,33.9131492 L10.1293395,33.7722358 L10.1444247,33.6591753 Z M17.9535332,33.6627073 L17.957512,33.6981112 C17.9733512,33.8390497 17.9813415,33.9815386 17.9813415,34.1252232 C17.9813415,36.2472024 16.2247919,37.975 14.0487805,37.975 C11.872769,37.975 10.1162195,36.2472024 10.1162195,34.1252232 C10.1162195,33.9815386 10.1242097,33.8390497 10.1400489,33.6981112 L10.1444247,33.6591753 L10.1496019,33.6203735 C10.2266847,33.0426539 10.4361077,32.4955584 10.760271,32.0131397 L10.8466469,31.8845953 L10.895077,31.7374933 C11.6273064,29.5134113 11.9188441,27.5122835 11.755622,25.7312582 L11.6619307,24.7089286 L3.37170732,24.7089286 C2.13088513,24.7089286 1.125,23.7030434 1.125,22.4622213 L1.125,15.9395645 C1.125,14.6987423 2.13088513,13.6928571 3.37170732,13.6928571 L24.7258537,13.6928571 C25.9666758,13.6928571 26.972561,14.6987423 26.972561,15.9395645 L26.972561,22.4622213 C26.972561,23.7030434 25.9666758,24.7089286 24.7258537,24.7089286 L16.1233381,24.7089286 L16.0679801,25.7756231 C15.9789017,27.4920747 16.318343,29.4206894 17.0734284,31.5661729 L17.1299994,31.7269126 L17.2316352,31.8636886 C17.6170445,32.3823521 17.8645352,32.985974 17.9488917,33.627414 L17.9535332,33.6627073 Z M25.5676829,4.49846162 L25.5676829,8.30844485 L27.616601,7.66657229 C27.5307948,7.54306197 27.4404364,7.40569256 27.3412947,7.24860716 C27.1832738,6.99823041 26.5746857,5.98399697 26.6095301,6.04131557 C26.250596,5.45087293 25.9085689,4.93731456 25.5676829,4.49846162 Z M2.52987805,4.75447157 C2.41513278,5.12127861 2.29540527,5.5635588 2.15376131,6.11370008 C2.1493787,6.13072236 2.1493787,6.13072236 2.14500249,6.14771953 C1.88938512,7.14050603 1.76182942,7.56655144 1.59234726,7.93310549 C1.51341706,8.10381478 1.44323113,8.21213901 1.39781521,8.25623786 C1.40633569,8.24796447 1.42321932,8.23756075 1.44581669,8.2279775 L1.40487805,9.32435644 L2.52987805,9.32435644 L2.52987805,4.75447157 Z M14.0487805,36.0357143 C12.6530816,36.0357143 11.5189024,34.9083565 11.5189024,33.5142857 C11.5189024,32.1202149 12.6530816,30.9928571 14.0487805,30.9928571 C15.4444794,30.9928571 16.5786585,32.1202149 16.5786585,33.5142857 C16.5786585,34.9083565 15.4444794,36.0357143 14.0487805,36.0357143 Z"></path>
                    </g>
                    <g id="Combined-Shape">
                        <use fill="url(#linearGradient-6)" fill-rule="evenodd" xlink:href="#path-8"></use>
                        <path stroke="url(#linearGradient-7)" stroke-width="2.25" d="M17.9535332,33.6627073 L17.9708745,33.7945694 L18.0408916,33.9479376 C18.06256,33.9953365 18.06256,33.9953365 18.0843821,34.0428148 L19.1063415,33.5724702 L19.1063415,32.4474702 L17.8169601,32.4474702 L17.9535332,33.6627073 Z M10.1444247,33.6591753 L10.2806009,32.4474702 L8.99121951,32.4474702 L8.99121951,33.5724702 L10.024358,34.0177228 C10.0468753,33.9653896 10.0468753,33.9653896 10.0692055,33.9131492 L10.1293395,33.7722358 L10.1444247,33.6591753 Z M17.9535332,33.6627073 L17.957512,33.6981112 C17.9733512,33.8390497 17.9813415,33.9815386 17.9813415,34.1252232 C17.9813415,36.2472024 16.2247919,37.975 14.0487805,37.975 C11.872769,37.975 10.1162195,36.2472024 10.1162195,34.1252232 C10.1162195,33.9815386 10.1242097,33.8390497 10.1400489,33.6981112 L10.1444247,33.6591753 L10.1496019,33.6203735 C10.2266847,33.0426539 10.4361077,32.4955584 10.760271,32.0131397 L10.8466469,31.8845953 L10.895077,31.7374933 C11.6273064,29.5134113 11.9188441,27.5122835 11.755622,25.7312582 L11.6619307,24.7089286 L3.37170732,24.7089286 C2.13088513,24.7089286 1.125,23.7030434 1.125,22.4622213 L1.125,15.9395645 C1.125,14.6987423 2.13088513,13.6928571 3.37170732,13.6928571 L24.7258537,13.6928571 C25.9666758,13.6928571 26.972561,14.6987423 26.972561,15.9395645 L26.972561,22.4622213 C26.972561,23.7030434 25.9666758,24.7089286 24.7258537,24.7089286 L16.1233381,24.7089286 L16.0679801,25.7756231 C15.9789017,27.4920747 16.318343,29.4206894 17.0734284,31.5661729 L17.1299994,31.7269126 L17.2316352,31.8636886 C17.6170445,32.3823521 17.8645352,32.985974 17.9488917,33.627414 L17.9535332,33.6627073 Z M25.5676829,4.49846162 L25.5676829,8.30844485 L27.616601,7.66657229 C27.5307948,7.54306197 27.4404364,7.40569256 27.3412947,7.24860716 C27.1832738,6.99823041 26.5746857,5.98399697 26.6095301,6.04131557 C26.250596,5.45087293 25.9085689,4.93731456 25.5676829,4.49846162 Z M2.52987805,4.75447157 C2.41513278,5.12127861 2.29540527,5.5635588 2.15376131,6.11370008 C2.1493787,6.13072236 2.1493787,6.13072236 2.14500249,6.14771953 C1.88938512,7.14050603 1.76182942,7.56655144 1.59234726,7.93310549 C1.51341706,8.10381478 1.44323113,8.21213901 1.39781521,8.25623786 C1.40633569,8.24796447 1.42321932,8.23756075 1.44581669,8.2279775 L1.40487805,9.32435644 L2.52987805,9.32435644 L2.52987805,4.75447157 Z M14.0487805,36.0357143 C12.6530816,36.0357143 11.5189024,34.9083565 11.5189024,33.5142857 C11.5189024,32.1202149 12.6530816,30.9928571 14.0487805,30.9928571 C15.4444794,30.9928571 16.5786585,32.1202149 16.5786585,33.5142857 C16.5786585,34.9083565 15.4444794,36.0357143 14.0487805,36.0357143 Z"></path>
                    </g>
                </g>
            </g>
        </g>
    </g>
</svg>