<?xml version="1.0" encoding="utf-8"?>
<!-- Generator: Adobe Illustrator 21.1.0, SVG Export Plug-In . SVG Version: 6.00 Build 0)  -->
<svg version="1.1" id="Layer_1" xmlns="http://www.w3.org/2000/svg" xmlns:xlink="http://www.w3.org/1999/xlink" x="0px" y="0px"
	 viewBox="0 0 20 20" style="enable-background:new 0 0 20 20;" xml:space="preserve">
<style type="text/css">
	.st0{fill:none;stroke:#3E3D40;stroke-width:2;}
	.st1{fill:#3E3D40;}
</style>
<g id="Page-1" transform="translate(0.000000, 1.000000)">
	<path id="Stroke-1" class="st0" d="M8.3,15.2l-4.7-4.7L13.1,1c1.3-1.3,3.4-1.3,4.7,0c1.3,1.3,1.3,3.4,0,4.7L8.3,15.2z"/>
	<path id="Stroke-3" class="st0" d="M3.7,17l-1.9-1.9c-0.2-0.2-0.3-0.3-0.3-0.3l2.3-3c0.1-0.3,0.5-0.4,0.8-0.2l2.7,2.7
		C7.5,14.5,7.4,15,7,15.1l-3,2.3C4,17.3,3.9,17.2,3.7,17z"/>
	<path id="Fill-5" class="st1" d="M0.7,18.5l-0.3-0.3c-0.5-0.5-0.5-1.4,0-1.9l1-1l2.2,2.2l-1,1C2,19,1.2,19,0.7,18.5"/>
</g>
</svg>
