<?xml version="1.0" encoding="UTF-8"?>
<svg width="18px" height="17px" viewBox="0 0 18 17" version="1.1" xmlns="http://www.w3.org/2000/svg" xmlns:xlink="http://www.w3.org/1999/xlink">
    <!-- Generator: Sketch 47.1 (45422) - http://www.bohemiancoding.com/sketch -->
    <title>Glyph/tools/refresh</title>
    <desc>Created with Sketch.</desc>
    <defs>
        <polygon id="path-1" points="0.000271809734 0.0005 17.429 0.0005 17.429 16.2655 0.000271809734 16.2655"></polygon>
    </defs>
    <g id="Annotation" stroke="none" stroke-width="1" fill="none" fill-rule="evenodd">
        <g id="Annotation-Full-List-Copy-3" transform="translate(-226.000000, -120.000000)">
            <g id="Glyph/tools/refresh" transform="translate(225.000000, 118.000000)">
                <g id="Page-1" transform="translate(1.000000, 2.000000)">
                    <mask id="mask-2" fill="white">
                        <use xlink:href="#path-1"></use>
                    </mask>
                    <g id="Clip-2"></g>
                    <path d="M16.2672,-0.0001 C15.6252,-0.0001 15.1052,0.5199 15.1052,1.1619 L15.1052,3.9709 C12.8042,0.1179 7.8142,-1.1401 3.9602,1.1619 C0.1072,3.4629 -1.1498,8.4529 1.1512,12.3059 C2.6192,14.7639 5.2712,16.2679 8.1342,16.2659 C10.2922,16.2709 12.3632,15.4139 13.8852,13.8839 C14.3312,13.4219 14.3182,12.6869 13.8572,12.2409 C13.4062,11.8059 12.6932,11.8059 12.2422,12.2409 C9.9862,14.5389 6.2942,14.5729 3.9962,12.3169 C1.6982,10.0609 1.6642,6.3689 3.9202,4.0709 C6.1762,1.7729 9.8682,1.7389 12.1662,3.9949 C12.6962,4.5149 13.1212,5.1299 13.4192,5.8089 L10.4582,5.8089 C9.8162,5.8089 9.2962,6.3289 9.2962,6.9709 C9.2962,7.6129 9.8162,8.1329 10.4582,8.1329 L16.2672,8.1329 C16.9092,8.1329 17.4292,7.6129 17.4292,6.9709 L17.4292,1.1619 C17.4292,0.5199 16.9092,-0.0001 16.2672,-0.0001" id="Fill-1" fill="#3E3D40" mask="url(#mask-2)"></path>
                </g>
            </g>
        </g>
    </g>
</svg>