<?xml version="1.0" encoding="UTF-8"?>
<svg width="16px" height="16px" viewBox="0 0 16 16" version="1.1" xmlns="http://www.w3.org/2000/svg" xmlns:xlink="http://www.w3.org/1999/xlink">
    <!-- Generator: Sketch 49.3 (51167) - http://www.bohemiancoding.com/sketch -->
    <title>Glyph / Add - on / Page shot</title>
    <desc>Created with Sketch.</desc>
    <defs></defs>
    <g id="Glyph-/-Add---on-/-Page-shot" stroke="none" stroke-width="1" fill="none" fill-rule="evenodd">
        <g id="Pageshot-2" fill="#3E3D40">
            <path d="M3,14.5005 C2.172,14.5005 1.5,13.8285 1.5,13.0005 C1.5,12.1715 2.172,11.5005 3,11.5005 C3.828,11.5005 4.5,12.1715 4.5,13.0005 C4.5,13.8285 3.828,14.5005 3,14.5005 M5.92319947,6.65228921 L8.21206888,8.26424383 L12.4996,5.2457 C12.9506,4.9297 13.5776,5.0407 13.8926,5.4907 C14.2076,5.9417 14.0976,6.5677 13.6476,6.8837 L9.94918304,9.48762039 L9.951,9.4889 L8.28056182,10.6624357 L5.92303446,12.3222846 C5.97338808,12.540221 6,12.7672495 6,13.0005 C6,14.6565 4.657,16.0005 3,16.0005 C1.343,16.0005 0,14.6565 0,13.0005 C0,11.3435 1.343,10.0005 3,10.0005 C3.69578197,10.0005 4.33619949,10.2372976 4.84506794,10.6347082 L6.47538622,9.4869178 L4.84582985,8.33998949 C4.33683881,8.73788943 3.69612927,8.9751 3,8.9751 C1.343,8.9751 0,7.6311 0,5.9751 C0,4.3181 1.343,2.9751 3,2.9751 C4.657,2.9751 6,4.3181 6,5.9751 C6,6.20795499 5.97344622,6.43464111 5.92319947,6.65228921 Z M13.6475,12.0913 C14.0975,12.4063 14.2085,13.0323 13.8925,13.4843 C13.5775,13.9343 12.9505,14.0443 12.5005,13.7293 L9.2195,11.4193 L10.9565,10.1953 L13.6475,12.0913 Z M15,12 L15,10 L16,10 L16,12 L15,12 Z M4.5,5.9751 C4.5,5.1461 3.828,4.4751 3,4.4751 C2.172,4.4751 1.5,5.1461 1.5,5.9751 C1.5,6.8031 2.172,7.4751 3,7.4751 C3.828,7.4751 4.5,6.8031 4.5,5.9751 Z M10,1 L10,0 L12,0 L12,1 L10,1 Z M15,6 L15,4 L16,4 L16,6 L15,6 Z M15,9 L15,7 L16,7 L16,9 L15,9 Z M15,14.4966 L15,13.0006 L16,13.0006 L16,15.0006 C16,15.5526 15.553,16.0006 15,16.0006 L13,16.0006 L13,15.0006 L14.497,15.0006 C14.774,15.0006 15,14.7746 15,14.4966 Z M1,1.5014 L1,3.0004 L0,3.0004 L0,1.0004 C0,0.4474 0.447,0.0004 1,0.0004 L3,0.0004 L3,1.0004 L1.501,1.0004 C1.225,1.0004 1,1.2244 1,1.5014 Z M7,16 L7,15 L9,15 L9,16 L7,16 Z M15,0.0005 C15.553,0.0005 16,0.4475 16,1.0005 L16,3.0005 L15,3.0005 L15,1.4975 C15,1.2235 14.777,1.0005 14.503,1.0005 L13,1.0005 L13,0.0005 L15,0.0005 Z M7,1 L7,0 L9,0 L9,1 L7,1 Z M10,16 L10,15 L12,15 L12,16 L10,16 Z M4,1 L4,0 L6,0 L6,1 L4,1 Z" id="Combined-Shape"></path>
        </g>
    </g>
</svg>