<?xml version="1.0" encoding="utf-8"?>
<!-- Generator: Adobe Illustrator 21.1.0, SVG Export Plug-In . SVG Version: 6.00 Build 0)  -->
<svg version="1.1" id="Layer_2" xmlns="http://www.w3.org/2000/svg" xmlns:xlink="http://www.w3.org/1999/xlink" x="0px" y="0px"
	 viewBox="0 0 200 52" style="enable-background:new 0 0 200 52;" xml:space="preserve">
<style type="text/css">
	.st0{fill:#F5F5F5;}
	.st1{fill:#F7F7F7;}
	.st2{fill:#D7C27B;}
	.st3{fill:#444444;}
	.st4{fill:#01244A;}
	.st5{fill:#FFFFFF;}
	.st6{fill:#3E3E3E;}
</style>
<path class="st0" d="M197,52H3c-1.7,0-3-1.3-3-3V16h200v33C200,50.7,198.7,52,197,52z"/>
<path class="st1" d="M200,39H0V3c0-1.7,1.3-3,3-3h194c1.7,0,3,1.3,3,3V39z"/>
<polygon class="st2" points="69,16 69,0 15,0 15,16 0,16 0,43 200,43 200,16 "/>
<path class="st3" d="M59,10H25c-1.1,0-2-0.9-2-2l0,0c0-1.1,0.9-2,2-2h34c1.1,0,2,0.9,2,2l0,0C61,9.1,60.1,10,59,10z"/>
<path class="st4" d="M113,10H79c-1.1,0-2-0.9-2-2l0,0c0-1.1,0.9-2,2-2h34c1.1,0,2,0.9,2,2l0,0C115,9.1,114.1,10,113,10z"/>
<circle class="st1" cx="10" cy="30" r="4"/>
<circle class="st1" cx="26" cy="30" r="4"/>
<circle class="st1" cx="187.2" cy="29.8" r="4"/>
<path class="st5" d="M172.2,36.8H41.8c-1,0-1.8-0.8-1.8-1.8V24.7c0-1,0.8-1.8,1.8-1.8h130.3c1,0,1.8,0.8,1.8,1.8V35
	C174,36,173.2,36.8,172.2,36.8z"/>
<path class="st6" d="M49,28.2h90c0.9,0,1.7,0.8,1.7,1.7c0,0.9-0.8,1.7-1.7,1.7H49c-0.9,0-1.7-0.8-1.7-1.7
	C47.3,28.9,48.1,28.2,49,28.2z"/>
</svg>
