<svg width="128" height="148" xmlns="http://www.w3.org/2000/svg" xmlns:xlink="http://www.w3.org/1999/xlink"><defs><path d="M96 10c0-5.523 4.477-10 10-10s10 4.477 10 10h8a4 4 0 0 1 4 4v130a4 4 0 0 1-4 4H4a4 4 0 0 1-4-4V14a4 4 0 0 1 4-4h8c0-5.523 4.477-10 10-10s10 4.477 10 10h64z" id="b"/><filter x="-.8%" y="-.7%" width="101.6%" height="102.7%" filterUnits="objectBoundingBox" id="a"><feOffset dy="2" in="SourceAlpha" result="shadowOffsetOuter1"/><feColorMatrix values="0 0 0 0 0 0 0 0 0 0 0 0 0 0 0 0 0 0 0.1 0" in="shadowOffsetOuter1"/></filter><rect id="c" x="22" y="40" width="84" height="12" rx="6"/><filter x="-1.2%" y="-8.3%" width="102.4%" height="116.7%" filterUnits="objectBoundingBox" id="d"><feOffset dy="2" in="SourceAlpha" result="shadowOffsetInner1"/><feComposite in="shadowOffsetInner1" in2="SourceAlpha" operator="arithmetic" k2="-1" k3="1" result="shadowInnerInner1"/><feColorMatrix values="0 0 0 0 0 0 0 0 0 0 0 0 0 0 0 0 0 0 0.1 0" in="shadowInnerInner1"/></filter><rect id="e" x="22" y="62" width="84" height="12" rx="6"/><filter x="-1.2%" y="-8.3%" width="102.4%" height="116.7%" filterUnits="objectBoundingBox" id="f"><feOffset dy="2" in="SourceAlpha" result="shadowOffsetInner1"/><feComposite in="shadowOffsetInner1" in2="SourceAlpha" operator="arithmetic" k2="-1" k3="1" result="shadowInnerInner1"/><feColorMatrix values="0 0 0 0 0 0 0 0 0 0 0 0 0 0 0 0 0 0 0.1 0" in="shadowInnerInner1"/></filter><rect id="g" x="22" y="84" width="84" height="12" rx="6"/><filter x="-1.2%" y="-8.3%" width="102.4%" height="116.7%" filterUnits="objectBoundingBox" id="h"><feOffset dy="2" in="SourceAlpha" result="shadowOffsetInner1"/><feComposite in="shadowOffsetInner1" in2="SourceAlpha" operator="arithmetic" k2="-1" k3="1" result="shadowInnerInner1"/><feColorMatrix values="0 0 0 0 0 0 0 0 0 0 0 0 0 0 0 0 0 0 0.1 0" in="shadowInnerInner1"/></filter><rect id="i" x="22" y="106" width="84" height="12" rx="6"/><filter x="-1.2%" y="-8.3%" width="102.4%" height="116.7%" filterUnits="objectBoundingBox" id="j"><feOffset dy="2" in="SourceAlpha" result="shadowOffsetInner1"/><feComposite in="shadowOffsetInner1" in2="SourceAlpha" operator="arithmetic" k2="-1" k3="1" result="shadowInnerInner1"/><feColorMatrix values="0 0 0 0 0 0 0 0 0 0 0 0 0 0 0 0 0 0 0.1 0" in="shadowInnerInner1"/></filter></defs><g fill="none" fill-rule="evenodd"><use fill="#000" filter="url(#a)" xlink:href="#b"/><use fill="#4173CE" xlink:href="#b"/><path d="M64 148V10h32c0-5.523 4.477-10 10-10s10 4.477 10 10h8a4 4 0 0 1 4 4v130a4 4 0 0 1-4 4H64z" fill-opacity=".02" fill="#000"/><use fill="#ECF1FA" xlink:href="#c"/><use fill="#000" filter="url(#d)" xlink:href="#c"/><use fill="#ECF1FA" xlink:href="#e"/><use fill="#000" filter="url(#f)" xlink:href="#e"/><g><use fill="#ECF1FA" xlink:href="#g"/><use fill="#000" filter="url(#h)" xlink:href="#g"/></g><g><use fill="#ECF1FA" xlink:href="#i"/><use fill="#000" filter="url(#j)" xlink:href="#i"/></g></g></svg>