<?xml version="1.0" encoding="UTF-8" standalone="no"?>
<svg width="38px" height="35px" viewBox="0 0 38 35" version="1.1" xmlns="http://www.w3.org/2000/svg" xmlns:xlink="http://www.w3.org/1999/xlink">
    <!-- Generator: Sketch 45.2 (43514) - http://www.bohemiancoding.com/sketch -->
    <title>icon copy</title>
    <desc>Created with Sketch.</desc>
    <defs></defs>
    <g id="logo" stroke="none" stroke-width="1" fill="none" fill-rule="evenodd">
        <g id="Send_logo_Final" transform="translate(-32.000000, -115.000000)" fill-rule="nonzero" fill="#3E3D40">
            <g id="Group" transform="translate(32.000000, 114.000000)">
                <g id="icon-copy">
                    <path d="M28.2562689,27.0089022 L27.9732967,27.2986118 C28.8435659,28.1486422 28.8435659,29.5226057 27.9732967,30.3726361 L24.2148378,34.043689 C23.3383456,34.8989195 21.9150462,34.8989195 21.0405006,34.0438343 L18.2193867,31.2883276 C17.5530349,30.6374723 17.3962181,29.6701902 17.7703518,28.8649797 L21.8594724,32.8580532 C22.3010924,33.289403 23.013014,33.289403 23.4535604,32.8574902 L26.6833429,29.70282 C27.1304117,29.2677784 27.1304117,28.5557394 26.682801,28.1201696 L22.5967515,24.1281939 C23.4372827,23.7292212 24.4668697,23.8737296 25.1523315,24.5432504 L27.9732967,27.2986118 L28.2562689,27.0089022 L28.539241,26.7191926 C29.7348516,27.8869983 29.7348516,29.7842495 28.539241,30.9520552 L24.7806335,34.6232533 C23.5892735,35.7857137 21.6634721,35.7857137 20.4744076,34.6231081 L17.6534424,31.8677468 C16.5780877,30.8174004 16.4665026,29.1603204 17.366806,27.9748766 L17.6441594,27.6096809 L17.9722526,27.9300677 L20.1988174,30.104334 L22.4253822,32.2786003 C22.5521628,32.4024325 22.7607667,32.4024325 22.8870752,32.2786003 L26.1179404,29.1228725 C26.2387648,29.0052983 26.2387648,28.8182195 26.1173641,28.7000834 L21.32553,24.0185737 L21.6967658,23.7342014 C22.9040675,22.8093901 24.6267659,22.8977052 25.7182758,23.9638312 L28.539241,26.7191926 L28.2562689,27.0089022 Z M10.7268606,20.8521374 L15.5234561,25.5371842 L15.1348096,25.8191677 C13.9289718,26.6940668 12.2460887,26.5860004 11.174767,25.5407741 L8.35365316,22.7852675 C7.15824067,21.6164565 7.15824067,19.7204704 8.35380173,18.5515142 L12.1125582,14.880171 C13.3038812,13.71894 15.2294587,13.71894 16.4186352,14.8804613 L19.2396004,17.6358227 C20.3359796,18.7067046 20.4271954,20.404189 19.4749675,21.5901358 L19.195518,21.9381746 L18.8762141,21.6262964 L14.4194188,17.2731465 C14.2924134,17.1495576 14.0836475,17.1495576 13.957184,17.2726182 L10.7271856,20.4275003 C10.606194,20.5463436 10.6062656,20.7339048 10.7268606,20.8521374 Z M23.1278662,27.2937787 C23.7051975,27.8576837 23.7051975,28.7739849 23.1278662,29.33789 C22.5558588,29.8965948 21.6343635,29.8965948 21.0623561,29.33789 L13.7239756,22.1701689 C13.1462113,21.6072843 13.1462113,20.6896611 13.7236045,20.1256957 C14.2956118,19.5669908 15.2171072,19.5669908 15.7891145,20.1256957 L23.1278662,27.2937787 Z" id="Fill-1"></path>
                    <path d="M19.1440228,1.20498337 C13.6848895,1.20498337 10.6692488,4.15262187 8.93375921,9.52526276 C3.94271401,9.5764236 0.101538928,14.4236201 0.101538928,19.3429597 C0.101538928,23.7712971 1.9714758,26.9255532 6.14683806,29.198729 C6.90954981,29.6139691 7.86446847,29.3322877 8.27970859,28.5695759 C8.6949487,27.8068642 8.41326728,26.8519455 7.65055553,26.4367054 C4.48777659,24.7148063 3.24636651,22.6207648 3.24636651,19.3429597 C3.24636651,15.9340895 5.99741282,12.549646 9.1941033,12.6731786 C9.28387845,12.6766479 9.35260655,12.6763764 9.65722474,12.6736279 C9.88091115,12.6716397 10.0115954,12.6715779 10.0116062,12.6715786 C10.7537416,12.7157105 11.425371,12.2340497 11.6215995,11.5169674 C12.9612882,6.62131253 15.0104213,4.34981095 19.1440228,4.34981095 C23.944744,4.34981095 27.0957734,8.15262559 26.4325219,12.7539129 C26.2904826,13.7393065 27.0883685,14.6069893 28.0821909,14.5478905 C27.9665053,14.5547698 27.8660489,14.5467667 27.9153499,14.5489424 C27.9781335,14.5562414 27.9781335,14.5562414 28.0805824,14.5695377 C28.2203577,14.5880059 28.408665,14.6145386 28.6208436,14.6455264 C28.9578284,14.6947415 29.379914,14.7597646 29.3863344,14.7611001 C32.372394,15.382248 34.5741009,17.9363697 34.5741009,20.0095848 C34.5741009,22.6508468 34.2842512,23.4764871 32.3822077,25.3810025 C31.7685408,25.9954669 31.7691873,26.9910641 32.3836517,27.604731 C32.9981161,28.2183979 33.9937133,28.2177514 34.6073802,27.6032869 C37.1472653,25.060101 37.7189285,23.4317116 37.7189285,20.0095848 C37.7189285,16.4074993 34.4362874,12.5994242 30.0267987,11.6821805 C29.9586546,11.6680054 29.8288283,11.6457624 29.6651284,11.6199291 C29.7040386,5.85965626 25.3350599,1.20498337 19.1440228,1.20498337 Z" id="Stroke-4"></path>
                </g>
            </g>
        </g>
    </g>
</svg>