<?xml version="1.0" encoding="UTF-8"?>
<svg width="20px" height="20px" viewBox="0 0 20 20" version="1.1" xmlns="http://www.w3.org/2000/svg" xmlns:xlink="http://www.w3.org/1999/xlink">
    <!-- Generator: Sketch 46.2 (44496) - http://www.bohemiancoding.com/sketch -->
    <title>Glyph / Basic / Clear</title>
    <desc>Created with Sketch.</desc>
    <defs></defs>
    <g id="Symbols" stroke="none" stroke-width="1" fill="none" fill-rule="evenodd">
        <g id="Glyph-/-Basic-/-Clear" fill="#3E3D40">
            <path d="M10.5,8.68837629 L5.16091066,3.34928694 C4.67622002,2.86459631 3.88414429,2.86460373 3.39560225,3.35314577 L3.35314577,3.39560225 C2.87062017,3.87812785 2.86287607,4.67449979 3.34928694,5.16091066 L8.68837629,10.5 L3.34928694,15.8390893 C2.86459631,16.32378 2.86460373,17.1158557 3.35314577,17.6043978 L3.39560225,17.6468542 C3.87812785,18.1293798 4.67449979,18.1371239 5.16091066,17.6507131 L10.5,12.3116237 L15.8390893,17.6507131 C16.32378,18.1354037 17.1158557,18.1353963 17.6043978,17.6468542 L17.6468542,17.6043978 C18.1293798,17.1218722 18.1371239,16.3255002 17.6507131,15.8390893 L12.3116237,10.5 L17.6507131,5.16091066 C18.1354037,4.67622002 18.1353963,3.88414429 17.6468542,3.39560225 L17.6043978,3.35314577 C17.1218722,2.87062017 16.3255002,2.86287607 15.8390893,3.34928694 L10.5,8.68837629 Z" id="Combined-Shape"></path>
        </g>
    </g>
</svg>