<?xml version="1.0" encoding="UTF-8"?>
<svg width="20px" height="20px" viewBox="0 0 20 20" version="1.1" xmlns="http://www.w3.org/2000/svg" xmlns:xlink="http://www.w3.org/1999/xlink">
    <!-- Generator: Sketch 46.2 (44496) - http://www.bohemiancoding.com/sketch -->
    <title>Glyph / Basic / Downloads - Dark gray</title>
    <desc>Created with Sketch.</desc>
    <defs></defs>
    <g id="Symbols" stroke="none" stroke-width="1" fill="none" fill-rule="evenodd">
        <g id="Glyph-/-Basic-/-Downloads---Dark-gray" fill-rule="nonzero" fill="#3E3D40">
            <path d="M9.04999995,11.982233 L4.93388343,7.86611652 C4.44572806,7.37796116 3.65427184,7.37796116 3.16611648,7.86611652 C2.67796111,8.35427189 2.67796111,9.14572811 3.16611648,9.63388348 L9.41611648,15.8838835 C9.90427184,16.3720388 10.6957281,16.3720388 11.1838834,15.8838835 L17.4338834,9.63388348 C17.9220388,9.14572811 17.9220388,8.35427189 17.4338834,7.86611652 C16.9457281,7.37796116 16.1542718,7.37796116 15.6661165,7.86611652 L11.55,11.982233 L11.55,1.25 C11.55,0.559644063 10.9903559,8.8817842e-16 10.3,8.8817842e-16 C9.60964402,8.8817842e-16 9.04999995,0.559644063 9.04999995,1.25 L9.04999995,11.982233 Z M4.04999995,20 C3.35964402,20 2.79999995,19.4403559 2.79999995,18.75 C2.79999995,18.0596441 3.35964402,17.5 4.04999995,17.5 L16.55,17.5 C17.2403559,17.5 17.8,18.0596441 17.8,18.75 C17.8,19.4403559 17.2403559,20 16.55,20 L4.04999995,20 Z" id="Combined-Shape"></path>
        </g>
    </g>
</svg>