<?xml version="1.0" encoding="UTF-8"?>
<svg width="46px" height="46px" viewBox="0 0 46 46" version="1.1" xmlns="http://www.w3.org/2000/svg" xmlns:xlink="http://www.w3.org/1999/xlink">
    <!-- Generator: Sketch 46.2 (44496) - http://www.bohemiancoding.com/sketch -->
    <title>Page shot / Menu / Visible</title>
    <desc>Created with Sketch.</desc>
    <defs></defs>
    <g id="Symbols" stroke="none" stroke-width="1" fill="none" fill-rule="evenodd">
        <g id="Page-shot-/-Menu-/-Visible">
            <g id="Page-1" transform="translate(7.000000, 10.000000)">
                <polygon id="bg" fill="#00FDFF" points="2 24.053 30 24.053 30 2.053 2 2.053"></polygon>
                <g id="frame">
                    <path d="M31.1111111,0 C31.6,0 32,0.45 32,1 L32,25 C32,25.55 31.6,26 31.1111111,26 L0.888888889,26 C0.4,26 0,25.55 0,25 L0,1 C0,0.45 0.4,0 0.888888889,0 L31.1111111,0 Z M2,24 L30,24 L30,2 L2,2 L2,24 Z" fill="#3E3D40"></path>
                    <polygon id="Fill-6" fill="#004C66" points="2 26 30 26 30 24 2 24"></polygon>
                </g>
                <path d="M5,24 L7,24 L7,23 L5,23 L5,24 Z M2,24 L3,24 L3,22 L2,22 L2,24 Z M29,24 L30,24 L30,22 L29,22 L29,24 Z M3,23 L3,24 L4,24 L4,23 L3,23 Z M28,23 L28,24 L29,24 L29,23 L28,23 Z M2,21 L3,21 L3,18 L2,18 L2,21 Z M2,17 L3,17 L3,14 L2,14 L2,17 Z M2,9 L3,9 L3,6 L2,6 L2,9 Z M2,13 L3,13 L3,10 L2,10 L2,13 Z M29,21 L30,21 L30,18 L29,18 L29,21 Z M29,17 L30,17 L30,14 L29,14 L29,17 Z M29,9 L30,9 L30,6 L29,6 L29,9 Z M29,13 L30,13 L30,10 L29,10 L29,13 Z M4,2 L2,2 L2,3 L2,5 L3,5 L3,3 L4,3 L4,2 Z M5,3 L7,3 L7,2 L5,2 L5,3 Z M8,3 L11,3 L11,2 L8,2 L8,3 Z M16,3 L19,3 L19,2 L16,2 L16,3 Z M12,3 L15,3 L15,2 L12,2 L12,3 Z M24,3 L27,3 L27,2 L24,2 L24,3 Z M20,3 L23,3 L23,2 L20,2 L20,3 Z M8,24 L11,24 L11,23 L8,23 L8,24 Z M16,24 L19,24 L19,23 L16,23 L16,24 Z M12,24 L15,24 L15,23 L12,23 L12,24 Z M24,24 L27,24 L27,23 L24,23 L24,24 Z M20,24 L23,24 L23,23 L20,23 L20,24 Z M30,2 L28,2 L28,3 L29,3 L29,5 L30,5 L30,2 Z" id="dash" fill="#00D1E6"></path>
            </g>
        </g>
    </g>
</svg>