<?xml version="1.0" encoding="UTF-8"?>
<svg width="46px" height="46px" viewBox="0 0 46 46" version="1.1" xmlns="http://www.w3.org/2000/svg" xmlns:xlink="http://www.w3.org/1999/xlink">
    <!-- Generator: Sketch 46.2 (44496) - http://www.bohemiancoding.com/sketch -->
    <title>Page shot / Menu / Full page</title>
    <desc>Created with Sketch.</desc>
    <defs></defs>
    <g id="Symbols" stroke="none" stroke-width="1" fill="none" fill-rule="evenodd">
        <g id="Page-shot-/-Menu-/-Full-page">
            <g id="Page-1" transform="translate(7.000000, 5.000000)">
                <polygon id="bg" fill="#00FDFF" points="2 36.053 30 36.053 30 0.053 2 0.053"></polygon>
                <g id="frame" transform="translate(0.000000, 5.000000)">
                    <path d="M31.1111111,0 C31.6,0 32,0.45 32,1 L32,25 C32,25.55 31.6,26 31.1111111,26 L0.888888889,26 C0.4,26 0,25.55 0,25 L0,1 C0,0.45 0.4,0 0.888888889,0 L31.1111111,0 Z M2,24 L30,24 L30,2 L2,2 L2,24 Z" fill="#3E3D40"></path>
                    <polygon id="Fill-4" fill="#004C66" points="2 2 30 2 30 0 2 0"></polygon>
                    <polygon id="Fill-6" fill="#004C66" points="2 26 30 26 30 24 2 24"></polygon>
                </g>
                <path d="M5,36 L7,36 L7,35 L5,35 L5,36 Z M3,33 L2,33 L2,35 L2,36 L4,36 L4,35 L3,35 L3,33 Z M29,33 L30,33 L30,35 L30,36 L28,36 L28,35 L29,35 L29,33 Z M2,32 L3,32 L3,29 L2,29 L2,32 Z M2,28 L3,28 L3,25 L2,25 L2,28 Z M2,24 L3,24 L3,21 L2,21 L2,24 Z M2,20 L3,20 L3,17 L2,17 L2,20 Z M2,16 L3,16 L3,13 L2,13 L2,16 Z M2,7 L3,7 L3,4 L2,4 L2,7 Z M2,12 L3,12 L3,9 L2,9 L2,12 Z M29,32 L30,32 L30,29 L29,29 L29,32 Z M29,28 L30,28 L30,25 L29,25 L29,28 Z M29,24 L30,24 L30,21 L29,21 L29,24 Z M29,20 L30,20 L30,17 L29,17 L29,20 Z M29,16 L30,16 L30,13 L29,13 L29,16 Z M29,7 L30,7 L30,4 L29,4 L29,7 Z M29,12 L30,12 L30,9 L29,9 L29,12 Z M4,0 L2,0 L2,1 L2,3 L3,3 L3,1 L4,1 L4,0 Z M5,1 L7,1 L7,0 L5,0 L5,1 Z M8,1 L11,1 L11,0 L8,0 L8,1 Z M16,1 L19,1 L19,0 L16,0 L16,1 Z M12,1 L15,1 L15,0 L12,0 L12,1 Z M24,1 L27,1 L27,0 L24,0 L24,1 Z M20,1 L23,1 L23,0 L20,0 L20,1 Z M8,36 L11,36 L11,35 L8,35 L8,36 Z M16,36 L19,36 L19,35 L16,35 L16,36 Z M12,36 L15,36 L15,35 L12,35 L12,36 Z M24,36 L27,36 L27,35 L24,35 L24,36 Z M20,36 L23,36 L23,35 L20,35 L20,36 Z M30,0 L28,0 L28,1 L29,1 L29,3 L30,3 L30,0 Z" id="dash" fill="#00D1E6"></path>
            </g>
        </g>
    </g>
</svg>