<?xml version="1.0" encoding="UTF-8"?>
<svg width="1200px" height="100px" viewBox="0 0 1200 100" version="1.1" xmlns="http://www.w3.org/2000/svg" xmlns:xlink="http://www.w3.org/1999/xlink">
    <!-- Generator: Sketch 49.3 (51167) - http://www.bohemiancoding.com/sketch -->
    <title>Tools/undo</title>
    <desc>Created with Sketch.</desc>
    <defs>
        <filter x="-0.3%" y="-2.0%" width="100.7%" height="108.0%" filterUnits="objectBoundingBox" id="filter-1">
            <feOffset dx="0" dy="2" in="SourceAlpha" result="shadowOffsetOuter1"></feOffset>
            <feGaussianBlur stdDeviation="1" in="shadowOffsetOuter1" result="shadowBlurOuter1"></feGaussianBlur>
            <feColorMatrix values="0 0 0 0 0   0 0 0 0 0   0 0 0 0 0  0 0 0 0.1 0" type="matrix" in="shadowBlurOuter1" result="shadowMatrixOuter1"></feColorMatrix>
            <feMerge>
                <feMergeNode in="shadowMatrixOuter1"></feMergeNode>
                <feMergeNode in="SourceGraphic"></feMergeNode>
            </feMerge>
        </filter>
        <rect id="path-2" x="1080" y="30" width="90" height="40" rx="1"></rect>
    </defs>
    <g id="Tools/undo" stroke="none" stroke-width="1" fill="none" fill-rule="evenodd">
        <g id="Group">
            <g id="Header" filter="url(#filter-1)" fill="#F5F5F7">
                <rect id="Header-BG" x="0" y="0" width="1200" height="100"></rect>
            </g>
            <rect id="Rectangle-94" fill="#009EC0" x="975" y="30" width="90" height="40" rx="1"></rect>
            <text id="Save" font-family="SFUIText-Semibold, SF UI Text" font-size="16" font-weight="500" letter-spacing="-0.300000012" fill="#FFFFFF">
                <tspan x="1001.78359" y="55">Save</tspan>
            </text>
            <g id="Rectangle-94">
                <use fill="#EBEBEB" fill-rule="evenodd" xlink:href="#path-2"></use>
                <rect stroke="#9B9B9B" stroke-width="1" x="1080.5" y="30.5" width="89" height="39" rx="1"></rect>
            </g>
            <text id="Cancel" font-family="SFUIText-Semibold, SF UI Text" font-size="16" font-weight="500" letter-spacing="-0.300000012" fill="#4D4D4D">
                <tspan x="1098.89219" y="55">Cancel</tspan>
            </text>
        </g>
        <circle id="Oval-5" fill="#DDDDDD" opacity="0" cx="469" cy="50" r="16"></circle>
        <circle id="Oval-5" fill="#DDDDDD" opacity="0" cx="642" cy="50" r="16"></circle>
        <circle id="Oval-5" fill="#DDDDDD" opacity="0" cx="341" cy="50" r="16"></circle>
        <circle id="Oval-5" fill="#DDDDDD" opacity="0" cx="514" cy="50" r="16"></circle>
        <circle id="Oval-5" fill="#DDDDDD" opacity="0" cx="687" cy="50" r="16"></circle>
        <circle id="Oval-5" fill="#DDDDDD" opacity="0" cx="815" cy="50" r="16"></circle>
        <circle id="Oval-5" fill="#DDDDDD" opacity="0" cx="386" cy="50" r="16"></circle>
        <circle id="Oval-5" fill="#DDDDDD" opacity="0" cx="559" cy="50" r="16"></circle>
        <circle id="Oval-5" fill="#DDDDDD" opacity="0" cx="732" cy="50" r="16"></circle>
        <circle id="Oval-5" fill="#DDDDDD" opacity="0" cx="860" cy="50" r="16"></circle>
        <g id="Group-2" transform="translate(94.000000, 32.000000)">
            <rect id="Rectangle-15-Copy-2" fill="#6B6B6B" opacity="0.599999964" x="0" y="0" width="1" height="36" rx="0.5"></rect>
            <path d="M137.508554,10.4914464 L119,29" id="Line" stroke="#3E3D40" stroke-width="2" stroke-linecap="square"></path>
            <rect id="Rectangle-12" stroke="#3E3D40" stroke-width="2" x="163" y="9" width="19" height="19"></rect>
            <rect id="Rectangle-12" stroke="#3E3D40" stroke-width="2" x="208" y="8" width="21.2802074" height="21.2802074" rx="10.6401037"></rect>
            <g id="1497944856_text" transform="translate(250.000000, 4.000000)">
                <g id="background">
                    <rect id="Rectangle-path" x="0" y="0" width="27" height="27"></rect>
                </g>
                <g id="text" transform="translate(3.375000, 1.687500)" fill="#3E3D40" fill-rule="nonzero">
                    <polygon id="Shape" points="0 3.375 0 6.75 6.75 6.75 6.75 21.9375 10.125 21.9375 10.125 6.75 16.875 6.75 16.875 3.375"></polygon>
                    <polygon id="Shape" points="21.9375 1.6875 21.9375 0 16.875 0 16.875 1.6875 18.5625 1.6875 18.5625 21.9375 16.875 21.9375 16.875 23.625 21.9375 23.625 21.9375 21.9375 20.25 21.9375 20.25 1.6875"></polygon>
                </g>
            </g>
            <g id="Group-4" transform="translate(299.000000, 5.000000)">
                <rect id="Rectangle" fill="#DDDDDD" opacity="0" x="0" y="0" width="28" height="28"></rect>
                <path d="M13.9873574,1.3159535 C19.7105253,8.14155172 22.5721092,13.2665797 22.5721092,16.6910373 C22.5721092,21.8301527 18.8905068,25.5216212 13.979237,25.5216212 L13.979237,25.5190806 C9.07203009,25.5150137 5.39448528,21.8247824 5.39448528,16.6884998 C5.39448528,13.2640422 8.2560692,8.13901423 13.979237,1.31341601 L13.979237,1.30627005 C13.9802359,1.307461 13.9812346,1.30865191 13.9822333,1.30984276 C13.9839411,1.30780618 13.9856491,1.30576944 13.9873574,1.30373256 L13.9873574,1.3159535 Z" id="Combined-Shape" fill="#3E3D40"></path>
            </g>
            <g id="Pencil" transform="translate(25.000000, 7.000000)" fill="#3E3D40" fill-rule="nonzero">
                <polygon id="Shape" points="1.29411765 16.5454545 0 21 4.52941176 19.7272727"></polygon>
                <rect id="Rectangle-path" transform="translate(18.693047, 2.657725) rotate(135.000000) translate(-18.693047, -2.657725) " x="17.1724737" y="0.430473632" width="3.04114731" height="4.45450274"></rect>
                <rect id="Rectangle-path" transform="translate(10.285712, 10.880876) rotate(-45.000000) translate(-10.285712, -10.880876) " x="1.22697511" y="8.653625" width="18.1174733" height="4.45450274"></rect>
            </g>
            <g id="04a5706e6815a1b26f7bbe69c3d2c85c" transform="translate(71.000000, 5.000000)" fill="#3E3D40" fill-rule="nonzero">
                <g id="Group" transform="translate(11.960568, 13.040499) scale(-1, 1) rotate(-180.000000) translate(-11.960568, -13.040499) translate(0.023726, 0.093131)">
                    <path d="M19.0117995,25.8061907 C18.5148675,25.7194582 18.1563384,25.4998591 17.4340076,24.8526613 C17.0525431,24.511795 15.5440844,23.1304032 14.0817599,21.7951457 C12.6194355,20.4540885 10.544448,18.5586292 9.47545113,17.5758375 C8.4003909,16.5933094 7.52199447,15.7784465 7.52199447,15.7552475 C7.52199447,15.7378483 7.78219173,15.4605155 8.09985911,15.1425844 L8.67772375,14.5705195 L8.86278807,14.7439844 C8.9669197,14.8423163 10.5908459,16.2985774 12.4633699,17.9805009 C14.3416936,19.6624245 16.5263488,21.6216809 17.3182765,22.3326758 C18.1157402,23.0494705 18.8615336,23.7198673 18.9828008,23.8237353 C19.1504659,23.9740012 19.2487978,24.0143357 19.4393982,24.0143357 C19.6763966,24.0143357 19.7051316,23.9911368 20.8265897,22.8699423 C21.953584,21.7487478 21.9709832,21.7255489 21.9709832,21.4827508 C21.9709832,21.2918868 21.930385,21.1938185 21.7803827,21.0261534 C21.6704514,20.9048862 20.664988,19.7778919 19.5379938,18.5235671 C18.4107359,17.269506 16.43988,15.0732512 15.1568202,13.6399255 C13.8737603,12.2123995 12.7583655,10.9696741 12.6716331,10.8774056 L12.527167,10.72134 L13.0992319,10.1434753 C13.4171629,9.82554431 13.6944957,9.56561067 13.7118949,9.56561067 C13.7466934,9.56561067 14.82149,10.7274033 17.2953411,13.4379892 C17.6594064,13.8368529 19.0407982,15.3511113 20.3644562,16.8018363 C23.4971047,20.2292169 23.3929731,20.107686 23.5548385,20.448816 C23.7512386,20.8592792 23.8263716,21.3794101 23.7570384,21.8302077 C23.647107,22.5238035 23.5026408,22.7202037 22.1792464,24.0612609 C21.5088496,24.7374574 20.8384528,25.3733194 20.6881869,25.4658516 C20.2255261,25.7658561 19.5551293,25.8987228 19.0117995,25.8061907 Z" id="Shape"></path>
                    <path d="M5.82847144,14.2525885 C4.52801237,13.0562611 4.38354621,12.761529 4.62634426,11.7616018 C4.950075,10.455343 4.81720832,9.68661426 4.12941231,8.79081861 L3.86367893,8.4554884 L5.14093906,7.18402801 L6.41239945,5.90676788 L6.74772966,6.17250126 C7.64352531,6.86029727 8.37191947,6.98736422 9.68951413,6.67523295 C10.7181765,6.4324349 11.0073724,6.56530159 12.1747012,7.8370256 C12.6370983,8.3397573 13.0185628,8.7734194 13.0243625,8.79635472 C13.035962,8.82535341 11.6313713,10.2586792 9.90911324,11.9809372 L6.77620109,15.1138494 L5.82847144,14.2525885 Z" id="Shape"></path>
                    <path d="M1.64396164,6.25369757 C0.817499206,5.4214354 0.10650425,4.68170538 0.071969456,4.61237217 C-0.089895914,4.3002409 0.0429707741,3.79170947 0.33216672,3.58370984 C0.395700196,3.54311168 0.910031364,3.36411073 1.47076042,3.18484615 C3.16428345,2.65311577 3.21041771,2.66471524 4.70174084,4.17317395 L5.73040317,5.20183629 L4.44154357,6.49069589 L3.15822009,7.77375575 L1.64396164,6.25369757 Z" id="Shape"></path>
                    <path d="M3.96728331,1.76865597 C3.66095178,1.69352302 3.45875188,1.54905686 3.01955366,1.10405891 C2.64388892,0.728394165 2.58615518,0.641661744 2.58615518,0.462660789 C2.58615518,0.329794101 2.63228945,0.214062997 2.71322213,0.1275942 L2.84608882,0.000527248762 L11.7294396,0.000527248762 L20.6127904,0.000527248762 L20.8439889,0.1275942 C20.9713195,0.196927413 21.2718513,0.445525204 21.508586,0.688323259 C21.878451,1.063988 21.9364484,1.15072042 21.9364484,1.32972138 C21.9364484,1.46258807 21.8900505,1.57831917 21.8093814,1.66478797 L21.6765147,1.79185492 L12.9086314,1.80345439 C8.08825964,1.80319077 4.06561521,1.79159129 3.96728331,1.76865597 Z" id="Shape"></path>
                </g>
            </g>
            <rect id="Rectangle-15-Copy-2" fill="#6B6B6B" opacity="0.599999964" x="348" y="0" width="1" height="36" rx="0.5"></rect>
            <rect id="Rectangle-15-Copy-2" fill="#6B6B6B" opacity="0.599999964" x="581" y="0" width="1" height="36" rx="0.5"></rect>
            <g id="ic_undo_48px" transform="translate(606.000000, 14.000000)" fill="#000000" fill-rule="nonzero">
                <path d="M10.7560976,1 C8.04658537,1 5.57780488,1.985 3.68780488,3.6 L0,0 L0,9 L9.2195122,9 L5.51634146,5.385 C6.93512195,4.22 8.75341463,3.5 10.7560976,3.5 C14.387561,3.5 17.4607317,5.805 18.5363415,9 L20.9590244,8.22 C19.5504878,4.03 15.5195122,1 10.7560976,1 Z" id="Shape"></path>
            </g>
            <g id="ic_redo_48px" opacity="0.3" transform="translate(651.000000, 14.000000)" fill="#000000" fill-rule="nonzero">
                <path d="M17.3070732,3.68780488 C15.4221951,2.03341463 12.9534146,1.02439024 10.2439024,1.02439024 C5.4804878,1.02439024 1.4495122,4.12829268 0.0409756098,8.4204878 L2.46365854,9.2195122 C3.53926829,5.94658537 6.61243902,3.58536585 10.2439024,3.58536585 C12.2465854,3.58536585 14.064878,4.32292683 15.4836585,5.51634146 L11.7804878,9.2195122 L21,9.2195122 L21,0 L17.3070732,3.68780488 Z" id="Shape"></path>
            </g>
            <g id="Icon-/-Refresh-/-Web" transform="translate(707.500000, 18.500000) scale(-1, 1) translate(-707.500000, -18.500000) translate(696.000000, 7.000000)" fill="#0C0C0D" fill-opacity="0.8" fill-rule="nonzero">
                <path d="M20.125092,1.4375 C19.3312335,1.4375 18.6876841,2.08109067 18.6876841,2.875 L18.6876841,6.350875 C16.1946502,2.17682206 11.072434,0.384509063 6.52107362,2.09366031 C1.96971326,3.80281156 -0.706911112,8.52378698 0.163386875,13.3072184 C1.03368486,18.0906498 5.201581,21.566173 10.0632362,21.5625 C12.7333304,21.5700135 15.2954433,20.5088685 17.1784057,18.615625 C17.7231434,18.0515803 17.7153529,17.1550031 17.160896,16.6005108 C16.6064392,16.0460185 15.7099194,16.0382274 15.1459108,16.583 C12.9254851,18.8449518 9.48886969,19.3926351 6.67540869,17.932919 C3.86194769,16.4732028 2.33069019,13.3480236 2.90119534,10.2300387 C3.47170049,7.11205377 6.0103283,4.73164653 9.15835522,4.36285775 C12.3063821,3.99406896 15.3263875,5.72328686 16.6020051,8.625 L12.9380522,8.625 C12.1441937,8.625 11.5006442,9.26859067 11.5006442,10.0625 C11.5006442,10.8564093 12.1441937,11.5 12.9380522,11.5 L20.125092,11.5 C20.9189505,11.5 21.5625,10.8564093 21.5625,10.0625 L21.5625,2.875 C21.5625,2.08109067 20.9189505,1.4375 20.125092,1.4375 Z" id="Shape"></path>
            </g>
        </g>
        <g id="Group-3" transform="translate(46.000000, 38.000000)" fill="#3E3D40">
            <rect id="Rectangle-2" x="4" y="1" width="3.3684607" height="19"></rect>
            <rect id="Rectangle-2" x="16" y="4" width="3.69792264" height="11.3410372"></rect>
            <rect id="Rectangle-2" x="16" y="19.9725765" width="3.69792264" height="3.3684607"></rect>
            <rect id="Rectangle-2" transform="translate(13.500000, 18.684230) rotate(-270.000000) translate(-13.500000, -18.684230) " x="11.8157697" y="9.18423035" width="3.3684607" height="19"></rect>
            <rect id="Rectangle-2" transform="translate(3.399734, 5.684230) rotate(-270.000000) translate(-3.399734, -5.684230) " x="1.71550327" y="3.05236489" width="3.3684607" height="5.26373093"></rect>
            <rect id="Rectangle-2" transform="translate(14.134897, 5.684230) rotate(-270.000000) translate(-14.134897, -5.684230) " x="12.4506666" y="0.121204678" width="3.3684607" height="11.1260513"></rect>
            <rect id="Rectangle-4" transform="translate(13.764096, 10.327787) rotate(-315.000000) translate(-13.764096, -10.327787) " x="12.7640959" y="-2.15034914" width="2" height="24.9562727"></rect>
        </g>
        <g id="Group-5" transform="translate(463.000000, 32.000000)">
            <g id="Group-7" transform="translate(160.000000, 2.000000)" fill="#F8E71C">
                <g id="Group-12">
                    <rect id="Rectangle-24" x="0" y="0" width="32.8675152" height="32.8675152" rx="2"></rect>
                </g>
            </g>
            <rect id="Rectangle-25" fill="#FFFFFF" x="0" y="0" width="143.24408" height="36"></rect>
            <polygon id="Shape" fill="#000000" fill-rule="nonzero" points="126 18 129 21 132 18"></polygon>
            <g id="Group-17" transform="translate(12.000000, 8.000000)">
                <text id="4px" font-family="SFUIText-Semibold, SF UI Text" font-size="15" font-weight="500" fill="#3E3D40">
                    <tspan x="80" y="14">4px</tspan>
                </text>
                <path d="M0,10.3333333 L67.5569415,10.3333333" id="Line-2" stroke="#3E3D40" stroke-width="4"></path>
            </g>
        </g>
    </g>
</svg>