<?xml version="1.0" encoding="UTF-8" standalone="no"?>
<svg width="16px" height="15px" viewBox="0 0 16 15" version="1.1" xmlns="http://www.w3.org/2000/svg" xmlns:xlink="http://www.w3.org/1999/xlink">
    <!-- Generator: Sketch 47.1 (45422) - http://www.bohemiancoding.com/sketch -->
    <title>notification-16</title>
    <desc>Created with Sketch.</desc>
    <defs></defs>
    <g id="Final" stroke="none" stroke-width="1" fill="none" fill-rule="evenodd">
        <g id="Tab-Split_Main" transform="translate(-1006.000000, -94.000000)" fill-rule="nonzero" fill="#0C0C0D">
            <g id="Feedback-icon-Copy-3" transform="translate(1000.000000, 87.000000)">
                <g id="Group">
                    <g id="notification-16" transform="translate(6.000000, 7.000000)">
                        <path d="M13.112846,0.441424242 L2.70244601,0.441424242 C1.45411204,0.442986269 0.442522083,1.4672211 0.440979341,2.73115924 L0.440979341,8.54668924 C0.442522083,9.81062739 1.45411204,10.8348622 2.70244601,10.8364242 L8.15031267,10.8364242 L10.9185793,14.2696092 C11.1683544,14.5787484 11.5831119,14.6955126 11.9546422,14.5612858 C12.3261725,14.4270589 12.5742395,14.0708288 12.5743127,13.6714242 L12.5743127,10.8364242 L13.112846,10.8364242 C14.36118,10.8348622 15.3727699,9.81062739 15.3743127,8.54668924 L15.3743127,2.73115924 C15.3727699,1.4672211 14.36118,0.442986269 13.112846,0.441424242 Z M13.507646,8.54668924 C13.507646,8.65270556 13.4660511,8.75437972 13.3920118,8.82934457 C13.3179724,8.90430943 13.2175535,8.94642424 13.112846,8.94642424 L11.6409793,8.94642424 C11.1255136,8.94642424 10.707646,9.36951515 10.707646,9.89142424 L10.707646,11.0197542 L9.31604601,9.29323924 C9.13860651,9.07351997 8.87302789,8.94618359 8.59271267,8.94642424 L2.70244601,8.94642424 C2.59773854,8.94642424 2.49731961,8.90430943 2.42328025,8.82934457 C2.34924089,8.75437972 2.30764601,8.65270556 2.30764601,8.54668924 L2.30764601,2.73115924 C2.30764601,2.5103917 2.48440399,2.33142424 2.70244601,2.33142424 L13.112846,2.33142424 C13.330888,2.33142424 13.507646,2.5103917 13.507646,2.73115924 L13.507646,8.54668924 Z" id="Shape"></path>
                        <path d="M10.6863,4.04955892 L4.45001787,4.04955892 C4.20400334,4.04955892 4.00456915,4.25148604 4.00456915,4.50057576 C4.00456915,4.74966548 4.20400334,4.95159259 4.45001787,4.95159259 L10.6863,4.95159259 C10.9323146,4.95159259 11.1317488,4.74966548 11.1317488,4.50057576 C11.1317488,4.25148604 10.9323146,4.04955892 10.6863,4.04955892 Z M10.6863,5.85362626 L4.45001787,5.85362626 C4.20400334,5.85362626 4.00456915,6.05555338 4.00456915,6.3046431 C4.00456915,6.55373282 4.20400334,6.75565993 4.45001787,6.75565993 L10.6863,6.75565993 C10.9323146,6.75565993 11.1317488,6.55373282 11.1317488,6.3046431 C11.1317488,6.05555338 10.9323146,5.85362626 10.6863,5.85362626 Z" id="Shape"></path>
                    </g>
                </g>
            </g>
        </g>
    </g>
</svg>