<?xml version="1.0" encoding="UTF-8" standalone="no"?>
<svg width="36px" height="36px" viewBox="0 0 36 36" version="1.1" xmlns="http://www.w3.org/2000/svg" xmlns:xlink="http://www.w3.org/1999/xlink">
    <!-- Generator: Sketch 47.1 (45422) - http://www.bohemiancoding.com/sketch -->
    <title>layout 04</title>
    <desc>Created with Sketch.</desc>
    <defs>
        <path d="M12.5,0 L2,0 L2,0 C0.8954305,2.02906125e-16 -1.3527075e-16,0.8954305 0,2 L0,2 L0,34 C1.3527075e-16,35.1045695 0.8954305,36 2,36 L2,36 L12.5,36 L12.5,7.54951657e-15 Z" id="path-1"></path>
        <filter x="-8.0%" y="-2.8%" width="116.0%" height="105.6%" filterUnits="objectBoundingBox" id="filter-2">
            <feMorphology radius="2" operator="erode" in="SourceAlpha" result="shadowSpreadInner1"></feMorphology>
            <feOffset dx="0" dy="0" in="shadowSpreadInner1" result="shadowOffsetInner1"></feOffset>
            <feComposite in="shadowOffsetInner1" in2="SourceAlpha" operator="arithmetic" k2="-1" k3="1" result="shadowInnerInner1"></feComposite>
            <feColorMatrix values="0 0 0 0 1   0 0 0 0 1   0 0 0 0 1  0 0 0 1 0" type="matrix" in="shadowInnerInner1"></feColorMatrix>
        </filter>
        <path d="M36,0 L13.5,0 L13.5,0 C12.3954305,2.02906125e-16 11.5,0.8954305 11.5,2 L11.5,2 L11.5,34 C11.5,35.1045695 12.3954305,36 13.5,36 L36,36 L36,1.11022302e-14 Z" id="path-3"></path>
        <filter x="-4.1%" y="-2.8%" width="108.2%" height="105.6%" filterUnits="objectBoundingBox" id="filter-4">
            <feMorphology radius="2" operator="erode" in="SourceAlpha" result="shadowSpreadInner1"></feMorphology>
            <feOffset dx="0" dy="0" in="shadowSpreadInner1" result="shadowOffsetInner1"></feOffset>
            <feComposite in="shadowOffsetInner1" in2="SourceAlpha" operator="arithmetic" k2="-1" k3="1" result="shadowInnerInner1"></feComposite>
            <feColorMatrix values="0 0 0 0 1   0 0 0 0 1   0 0 0 0 1  0 0 0 1 0" type="matrix" in="shadowInnerInner1"></feColorMatrix>
        </filter>
    </defs>
    <g id="Symbols" stroke="none" stroke-width="1" fill="none" fill-rule="evenodd">
        <g id="layout-04">
            <g transform="translate(18.000000, 18.000000) rotate(-90.000000) translate(-18.000000, -18.000000) ">
                <g id="Combined-Shape">
                    <use fill="#EDEDF0" fill-rule="evenodd" xlink:href="#path-1"></use>
                    <use fill="black" fill-opacity="1" filter="url(#filter-2)" xlink:href="#path-1"></use>
                    <path stroke="#B1B1B3" stroke-width="1" d="M12,0.5 L2,0.5 C1.17157288,0.5 0.5,1.17157288 0.5,2 L0.5,34 C0.5,34.8284271 1.17157288,35.5 2,35.5 L12,35.5 L12,0.5 Z"></path>
                </g>
                <g id="Combined-Shape-Copy-2" transform="translate(23.750000, 18.000000) scale(-1, 1) translate(-23.750000, -18.000000) ">
                    <use fill="#EDEDF0" fill-rule="evenodd" xlink:href="#path-3"></use>
                    <use fill="black" fill-opacity="1" filter="url(#filter-4)" xlink:href="#path-3"></use>
                    <path stroke="#B1B1B3" stroke-width="1" d="M35.5,0.5 L13.5,0.5 C12.6715729,0.5 12,1.17157288 12,2 L12,34 C12,34.8284271 12.6715729,35.5 13.5,35.5 L35.5,35.5 L35.5,0.5 Z"></path>
                </g>
            </g>
        </g>
    </g>
</svg>