<?xml version="1.0" encoding="UTF-8"?>
<svg width="20px" height="20px" viewBox="0 0 20 20" version="1.1" xmlns="http://www.w3.org/2000/svg" xmlns:xlink="http://www.w3.org/1999/xlink">
    <!-- Generator: Sketch 47.1 (45422) - http://www.bohemiancoding.com/sketch -->
    <title>Artboard Copy 5</title>
    <desc>Created with Sketch.</desc>
    <defs></defs>
    <g id="#3500" stroke="none" stroke-width="1" fill="none" fill-rule="evenodd">
        <g id="Artboard-Copy-5" fill="#9E9E9E">
            <g id="Page-1" transform="translate(1.000000, 6.000000)">
                <path d="M13.383,0 C12.211,0 11.111,0.456 10.3,1.265 L8.883,2.625 L7.487,1.286 C6.659,0.457 5.557,0 4.385,0 C3.214,0 2.113,0.458 1.286,1.286 C0.457,2.114 0,3.214 0,4.387 C0,5.557 0.456,6.659 1.285,7.486 C2.112,8.314 3.213,8.771 4.385,8.771 C5.556,8.771 6.659,8.315 7.468,7.505 L8.884,6.146 L10.28,7.486 C11.109,8.314 12.211,8.771 13.383,8.771 C14.553,8.771 15.654,8.315 16.482,7.486 C17.311,6.66 17.768,5.558 17.768,4.385 C17.768,3.212 17.312,2.113 16.482,1.284 C15.653,0.456 14.552,0 13.383,0 L13.383,0 Z M5.971,6.101 C5.055,7.016 3.462,7.016 2.546,6.101 C2.088,5.643 1.836,5.034 1.836,4.389 C1.836,3.741 2.088,3.135 2.549,2.675 C3.004,2.217 3.612,1.965 4.258,1.965 C4.904,1.965 5.513,2.217 5.996,2.698 L7.755,4.39 L5.971,6.101 Z M15.232,6.105 C14.312,7.024 12.735,7.047 11.767,6.08 L10,4.382 L11.792,2.664 C12.711,1.743 14.312,1.743 15.232,2.661 C15.692,3.123 15.944,3.732 15.944,4.382 C15.944,5.031 15.691,5.645 15.232,6.105 L15.232,6.105 Z" id="Fill-1"></path>
            </g>
        </g>
    </g>
</svg>