<?xml version="1.0" encoding="UTF-8"?>
<svg width="476px" height="476px" viewBox="0 0 476 476" version="1.1" xmlns="http://www.w3.org/2000/svg" xmlns:xlink="http://www.w3.org/1999/xlink">
    <!-- Generator: Sketch 51.3 (57544) - http://www.bohemiancoding.com/sketch -->
    <title>Group 2</title>
    <desc>Created with Sketch.</desc>
    <defs>
        <rect id="path-1" x="0" y="0" width="300.365614" height="178.07531"></rect>
        <linearGradient x1="86.8464298%" y1="2.89381378%" x2="86.8464291%" y2="100%" id="linearGradient-3">
            <stop stop-color="#79BFEF" offset="0%"></stop>
            <stop stop-color="#89CBF9" offset="15.9759477%"></stop>
            <stop stop-color="#85C8F6" offset="77.2416842%"></stop>
            <stop stop-color="#BCD8EF" offset="100%"></stop>
        </linearGradient>
        <rect id="path-4" x="0" y="0" width="114.062892" height="76.6815007"></rect>
        <linearGradient x1="50%" y1="50%" x2="50%" y2="100%" id="linearGradient-6">
            <stop stop-color="#F9FAF7" offset="0%"></stop>
            <stop stop-color="#F1F4EC" offset="100%"></stop>
        </linearGradient>
        <path d="M38.4229797,31.1975604 L3.7565623,31.1975604 C3.7565623,31.1975604 7.76891059,30.3561544 15.324895,28.8483948 C22.8808794,27.3406352 25.424413,22.9920534 28.34497,23.5294104 C31.265527,24.0667673 35.8580946,26.4992292 38.4229797,31.1975604 Z" id="path-7"></path>
        <filter x="-1.4%" y="-6.5%" width="102.9%" height="125.9%" filterUnits="objectBoundingBox" id="filter-8">
            <feOffset dx="0" dy="1" in="SourceAlpha" result="shadowOffsetOuter1"></feOffset>
            <feColorMatrix values="0 0 0 0 0   0 0 0 0 0   0 0 0 0 0  0 0 0 0.05 0" type="matrix" in="shadowOffsetOuter1"></feColorMatrix>
        </filter>
        <path d="M137.118116,17.4043888 L97.6706197,17.4043888 C97.6706197,17.4043888 102.236338,16.4469388 110.834419,14.7312339 C119.4325,13.0155291 122.32683,8.06720507 125.65018,8.6786725 C128.973531,9.29013994 134.199491,12.058079 137.118116,17.4043888 Z" id="path-9"></path>
        <filter x="-1.3%" y="-5.7%" width="102.5%" height="122.8%" filterUnits="objectBoundingBox" id="filter-10">
            <feOffset dx="0" dy="1" in="SourceAlpha" result="shadowOffsetOuter1"></feOffset>
            <feColorMatrix values="0 0 0 0 0   0 0 0 0 0   0 0 0 0 0  0 0 0 0.05 0" type="matrix" in="shadowOffsetOuter1"></feColorMatrix>
        </filter>
        <path d="M102.183631,11.6532763 L92.8895404,11.6532763 C92.8895404,11.6532763 93.9652537,11.4276947 95.9910183,11.0234634 C98.0167829,10.619232 98.698706,9.45337424 99.4817093,9.59744 C100.264713,9.74150576 101.495983,10.3936505 102.183631,11.6532763 Z" id="path-11"></path>
        <filter x="-5.4%" y="-24.2%" width="110.8%" height="196.7%" filterUnits="objectBoundingBox" id="filter-12">
            <feOffset dx="0" dy="1" in="SourceAlpha" result="shadowOffsetOuter1"></feOffset>
            <feColorMatrix values="0 0 0 0 0   0 0 0 0 0   0 0 0 0 0  0 0 0 0.05 0" type="matrix" in="shadowOffsetOuter1"></feColorMatrix>
        </filter>
        <linearGradient x1="54.8815012%" y1="194.922623%" x2="54.8815012%" y2="13.706377%" id="linearGradient-13">
            <stop stop-color="#000000" stop-opacity="0" offset="0%"></stop>
            <stop stop-color="#9CD0F5" offset="14.3295599%"></stop>
            <stop stop-color="#FFFFFF" offset="100%"></stop>
        </linearGradient>
        <path d="M70.008661,79.0777976 C60.5940727,69.6902055 40.8812726,49.6794465 29.7109927,41.2163067 C25.4839847,38.0137227 24.9299134,38.3407503 20.4903398,35.9444535 C12.1411091,31.4378866 -6.14710194,61.8244596 -6.14710194,61.8244596 L-4.43957362,83.8703911 C-4.43957362,83.8703911 82.9858762,92.0178009 70.008661,79.0777976 Z" id="path-14"></path>
        <filter x="-2.0%" y="-2.9%" width="103.5%" height="102.4%" filterUnits="objectBoundingBox" id="filter-15">
            <feMorphology radius="0.5" operator="dilate" in="SourceAlpha" result="shadowSpreadOuter1"></feMorphology>
            <feOffset dx="0" dy="0" in="shadowSpreadOuter1" result="shadowOffsetOuter1"></feOffset>
            <feComposite in="shadowOffsetOuter1" in2="SourceAlpha" operator="out" result="shadowOffsetOuter1"></feComposite>
            <feColorMatrix values="0 0 0 0 0   0 0 0 0 0   0 0 0 0 0  0 0 0 0.05 0" type="matrix" in="shadowOffsetOuter1"></feColorMatrix>
        </filter>
        <path d="M56.0199502,55.3263668 L8.87914724,55.3263668 C8.87914724,55.3263668 27.9711986,52.2870427 34.8400887,50.0545136 C41.7089789,47.8219846 45.0262428,43.5767571 51.5803773,44.7826605 C58.1345119,45.9885638 56.0199502,55.3263668 56.0199502,55.3263668 Z" id="path-16"></path>
        <filter x="-1.1%" y="-4.6%" width="102.1%" height="118.6%" filterUnits="objectBoundingBox" id="filter-17">
            <feOffset dx="0" dy="1" in="SourceAlpha" result="shadowOffsetOuter1"></feOffset>
            <feColorMatrix values="0 0 0 0 0   0 0 0 0 0   0 0 0 0 0  0 0 0 0.05 0" type="matrix" in="shadowOffsetOuter1"></feColorMatrix>
        </filter>
        <path d="M33.882498,42.3258766 L24.5884077,42.3258766 C24.5884077,42.3258766 25.6641211,42.100295 27.6898857,41.6960637 C29.7156503,41.2918323 30.3975734,40.1259745 31.1805767,40.2700403 C31.96358,40.414106 33.1948505,41.0662507 33.882498,42.3258766 Z" id="path-18"></path>
        <filter x="-5.4%" y="-24.2%" width="110.8%" height="196.7%" filterUnits="objectBoundingBox" id="filter-19">
            <feOffset dx="0" dy="1" in="SourceAlpha" result="shadowOffsetOuter1"></feOffset>
            <feColorMatrix values="0 0 0 0 0   0 0 0 0 0   0 0 0 0 0  0 0 0 0.05 0" type="matrix" in="shadowOffsetOuter1"></feColorMatrix>
        </filter>
        <path d="M71.788936,14.1071496 C73.258442,10.6612733 81.9613592,15.5312438 90.1574951,19.82249 C98.353631,24.1137363 139.675816,76.6815007 139.675816,76.6815007 L19.4658228,76.6815007 C19.4658228,76.6815007 63.861559,32.6962274 71.788936,14.1071496 Z" id="path-20"></path>
        <filter x="-2.5%" y="-2.3%" width="104.6%" height="104.7%" filterUnits="objectBoundingBox" id="filter-21">
            <feMorphology radius="0.5" operator="dilate" in="SourceAlpha" result="shadowSpreadOuter1"></feMorphology>
            <feOffset dx="0" dy="0" in="shadowSpreadOuter1" result="shadowOffsetOuter1"></feOffset>
            <feColorMatrix values="0 0 0 0 0   0 0 0 0 0   0 0 0 0 0  0 0 0 0.05 0" type="matrix" in="shadowOffsetOuter1"></feColorMatrix>
        </filter>
        <rect id="path-22" x="0.330747412" y="0.733745505" width="239.217313" height="141.822815"></rect>
        <rect id="path-24" x="0.330747412" y="0.733745505" width="239.217313" height="141.822815"></rect>
        <rect id="path-26" x="0" y="0" width="114.062892" height="76.6815007"></rect>
        <path d="M38.4229797,31.1975604 L3.7565623,31.1975604 C3.7565623,31.1975604 7.76891059,30.3561544 15.324895,28.8483948 C22.8808794,27.3406352 25.424413,22.9920534 28.34497,23.5294104 C31.265527,24.0667673 35.8580946,26.4992292 38.4229797,31.1975604 Z" id="path-28"></path>
        <filter x="-1.4%" y="-6.5%" width="102.9%" height="125.9%" filterUnits="objectBoundingBox" id="filter-29">
            <feOffset dx="0" dy="1" in="SourceAlpha" result="shadowOffsetOuter1"></feOffset>
            <feColorMatrix values="0 0 0 0 0   0 0 0 0 0   0 0 0 0 0  0 0 0 0.05 0" type="matrix" in="shadowOffsetOuter1"></feColorMatrix>
        </filter>
        <path d="M137.118116,17.4043888 L97.6706197,17.4043888 C97.6706197,17.4043888 102.236338,16.4469388 110.834419,14.7312339 C119.4325,13.0155291 122.32683,8.06720507 125.65018,8.6786725 C128.973531,9.29013994 134.199491,12.058079 137.118116,17.4043888 Z" id="path-30"></path>
        <filter x="-1.3%" y="-5.7%" width="102.5%" height="122.8%" filterUnits="objectBoundingBox" id="filter-31">
            <feOffset dx="0" dy="1" in="SourceAlpha" result="shadowOffsetOuter1"></feOffset>
            <feColorMatrix values="0 0 0 0 0   0 0 0 0 0   0 0 0 0 0  0 0 0 0.05 0" type="matrix" in="shadowOffsetOuter1"></feColorMatrix>
        </filter>
        <path d="M102.183631,11.6532763 L92.8895404,11.6532763 C92.8895404,11.6532763 93.9652537,11.4276947 95.9910183,11.0234634 C98.0167829,10.619232 98.698706,9.45337424 99.4817093,9.59744 C100.264713,9.74150576 101.495983,10.3936505 102.183631,11.6532763 Z" id="path-32"></path>
        <filter x="-5.4%" y="-24.2%" width="110.8%" height="196.7%" filterUnits="objectBoundingBox" id="filter-33">
            <feOffset dx="0" dy="1" in="SourceAlpha" result="shadowOffsetOuter1"></feOffset>
            <feColorMatrix values="0 0 0 0 0   0 0 0 0 0   0 0 0 0 0  0 0 0 0.05 0" type="matrix" in="shadowOffsetOuter1"></feColorMatrix>
        </filter>
        <path d="M70.008661,79.0777976 C60.5940727,69.6902055 40.8812726,49.6794465 29.7109927,41.2163067 C25.4839847,38.0137227 24.9299134,38.3407503 20.4903398,35.9444535 C12.1411091,31.4378866 -6.14710194,61.8244596 -6.14710194,61.8244596 L-4.43957362,83.8703911 C-4.43957362,83.8703911 82.9858762,92.0178009 70.008661,79.0777976 Z" id="path-34"></path>
        <filter x="-2.0%" y="-2.9%" width="103.5%" height="102.4%" filterUnits="objectBoundingBox" id="filter-35">
            <feMorphology radius="0.5" operator="dilate" in="SourceAlpha" result="shadowSpreadOuter1"></feMorphology>
            <feOffset dx="0" dy="0" in="shadowSpreadOuter1" result="shadowOffsetOuter1"></feOffset>
            <feComposite in="shadowOffsetOuter1" in2="SourceAlpha" operator="out" result="shadowOffsetOuter1"></feComposite>
            <feColorMatrix values="0 0 0 0 0   0 0 0 0 0   0 0 0 0 0  0 0 0 0.05 0" type="matrix" in="shadowOffsetOuter1"></feColorMatrix>
        </filter>
        <path d="M56.0199502,55.3263668 L8.87914724,55.3263668 C8.87914724,55.3263668 27.9711986,52.2870427 34.8400887,50.0545136 C41.7089789,47.8219846 45.0262428,43.5767571 51.5803773,44.7826605 C58.1345119,45.9885638 56.0199502,55.3263668 56.0199502,55.3263668 Z" id="path-36"></path>
        <filter x="-1.1%" y="-4.6%" width="102.1%" height="118.6%" filterUnits="objectBoundingBox" id="filter-37">
            <feOffset dx="0" dy="1" in="SourceAlpha" result="shadowOffsetOuter1"></feOffset>
            <feColorMatrix values="0 0 0 0 0   0 0 0 0 0   0 0 0 0 0  0 0 0 0.05 0" type="matrix" in="shadowOffsetOuter1"></feColorMatrix>
        </filter>
        <path d="M33.882498,42.3258766 L24.5884077,42.3258766 C24.5884077,42.3258766 25.6641211,42.100295 27.6898857,41.6960637 C29.7156503,41.2918323 30.3975734,40.1259745 31.1805767,40.2700403 C31.96358,40.414106 33.1948505,41.0662507 33.882498,42.3258766 Z" id="path-38"></path>
        <filter x="-5.4%" y="-24.2%" width="110.8%" height="196.7%" filterUnits="objectBoundingBox" id="filter-39">
            <feOffset dx="0" dy="1" in="SourceAlpha" result="shadowOffsetOuter1"></feOffset>
            <feColorMatrix values="0 0 0 0 0   0 0 0 0 0   0 0 0 0 0  0 0 0 0.05 0" type="matrix" in="shadowOffsetOuter1"></feColorMatrix>
        </filter>
        <path d="M71.788936,14.1071496 C73.258442,10.6612733 81.9613592,15.5312438 90.1574951,19.82249 C98.353631,24.1137363 139.675816,76.6815007 139.675816,76.6815007 L19.4658228,76.6815007 C19.4658228,76.6815007 63.861559,32.6962274 71.788936,14.1071496 Z" id="path-40"></path>
        <filter x="-2.5%" y="-2.3%" width="104.6%" height="104.7%" filterUnits="objectBoundingBox" id="filter-41">
            <feMorphology radius="0.5" operator="dilate" in="SourceAlpha" result="shadowSpreadOuter1"></feMorphology>
            <feOffset dx="0" dy="0" in="shadowSpreadOuter1" result="shadowOffsetOuter1"></feOffset>
            <feColorMatrix values="0 0 0 0 0   0 0 0 0 0   0 0 0 0 0  0 0 0 0.05 0" type="matrix" in="shadowOffsetOuter1"></feColorMatrix>
        </filter>
    </defs>
    <g id="FxA" stroke="none" stroke-width="1" fill="none" fill-rule="evenodd">
        <g id="#4792" transform="translate(-232.000000, -274.000000)">
            <g id="Group-2" transform="translate(232.000000, 274.000000)">
                <circle id="path-1" fill="#A1F6FF" cx="238" cy="238" r="238"></circle>
                <g id="Group-23" transform="translate(1.000000, 99.000000)">
                    <g id="Group-25" transform="translate(8.364612, 13.031250)">
                        <mask id="mask-2" fill="white">
                            <use xlink:href="#path-1"></use>
                        </mask>
                        <rect stroke="#3E3D40" stroke-width="9.24" x="-4.62" y="-4.62" width="309.605614" height="187.31531"></rect>
                        <g id="Group-21" mask="url(#mask-2)">
                            <g transform="translate(-35.739706, -102.495075)">
                                <g id="Group-26" transform="translate(0.000000, 71.366941)">
                                    <rect id="Rectangle-20" fill="#80C4CC" fill-rule="nonzero" x="0" y="0" width="114.062892" height="112.364971"></rect>
                                    <rect id="Rectangle-20" fill="#90DCE5" fill-rule="nonzero" x="0" y="77.4407235" width="114.062892" height="34.9242479"></rect>
                                </g>
                                <g id="Group-26-Copy-7" transform="translate(258.542554, 71.366941)">
                                    <rect id="Rectangle-20" fill="#80C4CC" fill-rule="nonzero" x="0" y="0" width="114.062892" height="112.364971"></rect>
                                    <rect id="Rectangle-20" fill="#90DCE5" fill-rule="nonzero" x="0" y="77.4407235" width="114.062892" height="34.9242479"></rect>
                                </g>
                                <g id="Group-26-Copy-4" transform="translate(0.000000, 198.916368)">
                                    <rect id="Rectangle-20" fill="#80C4CC" fill-rule="nonzero" x="0" y="0" width="114.062892" height="112.364971"></rect>
                                    <rect id="Rectangle-20" fill="#5E5E5E" fill-rule="nonzero" x="0" y="77.4407235" width="114.062892" height="34.9242479"></rect>
                                </g>
                                <g id="Group-26-Copy-8" transform="translate(258.542554, 198.916368)">
                                    <rect id="Rectangle-20" fill="#545454" fill-rule="nonzero" x="0" y="0" width="114.062892" height="112.364971"></rect>
                                    <rect id="Rectangle-20" fill="#5E5E5E" fill-rule="nonzero" x="0" y="77.4407235" width="114.062892" height="34.9242479"></rect>
                                </g>
                                <g id="Group-26-Copy-5" transform="translate(129.271277, 255.098854)">
                                    <rect id="Rectangle-20" fill="#80C4CC" fill-rule="nonzero" x="0" y="0" width="114.062892" height="112.364971"></rect>
                                    <rect id="Rectangle-20" fill="#5E5E5E" fill-rule="nonzero" x="0" y="77.4407235" width="114.062892" height="34.9242479"></rect>
                                </g>
                                <g id="Group-26-Copy-6" transform="translate(129.271277, 0.000000)">
                                    <rect id="Rectangle-20" fill="#545454" fill-rule="nonzero" x="0" y="0" width="114.062892" height="112.364971"></rect>
                                    <rect id="Rectangle-20" fill="#90DCE5" fill-rule="nonzero" x="0" y="77.4407235" width="114.062892" height="34.9242479"></rect>
                                </g>
                                <g id="Group-24" transform="translate(129.271277, 127.549427)">
                                    <g id="Group-15">
                                        <g id="Group-3" transform="translate(0.000000, 72.126164)" fill="#FFFFFF">
                                            <rect id="Rectangle-7" x="0" y="0" width="114.062892" height="40.2388073" rx="1.68"></rect>
                                        </g>
                                        <g id="Group" transform="translate(18.250063, 84.273729)" fill="#3E3D40">
                                            <g id="Glyph-/-Basic-/-Downloads-" fill-rule="nonzero">
                                                <path d="M9.39070583,11.2492023 L9.39070583,1.17352941 C9.39070583,0.525407014 9.97141885,8.8817842e-16 10.6877647,8.8817842e-16 C11.4041105,8.8817842e-16 11.9848235,0.525407014 11.9848235,1.17352941 L11.9848235,11.2492023 L16.2558997,7.38489528 C16.7624327,6.92660353 17.5836849,6.92660353 18.0902179,7.38489528 C18.5967508,7.84318702 18.5967508,8.58622474 18.0902179,9.04451649 L11.6049237,14.9121635 C11.0983908,15.3704553 10.2771385,15.3704553 9.77060557,14.9121635 L3.28531145,9.04451649 C2.77877847,8.58622474 2.77877847,7.84318702 3.28531145,7.38489528 C3.79184443,6.92660353 4.61309665,6.92660353 5.11962963,7.38489528 L9.39070583,11.2492023 Z M4.20247054,18.7764706 C3.48612473,18.7764706 2.90541172,18.2510636 2.90541172,17.6029412 C2.90541172,16.9548188 3.48612473,16.4294118 4.20247054,16.4294118 L17.1730588,16.4294118 C17.8894046,16.4294118 18.4701176,16.9548188 18.4701176,17.6029412 C18.4701176,18.2510636 17.8894046,18.7764706 17.1730588,18.7764706 L4.20247054,18.7764706 Z" id="Combined-Shape"></path>
                                            </g>
                                            <path d="M59.3127036,11.5992369 C59.3127036,10.9577991 59.8468438,10.4393132 60.5076482,10.4393132 C61.1684525,10.4393132 61.7025927,10.9577991 61.7025927,11.5992369 L61.7025927,15.079008 C61.7025927,15.7204458 62.236733,16.2389317 62.8975373,16.2389317 L72.4570939,16.2389317 C73.1178983,16.2389317 73.6520385,15.7204458 73.6520385,15.079008 L73.6520385,11.5992369 C73.6520385,10.9577991 74.1861787,10.4393132 74.8469831,10.4393132 C75.5077874,10.4393132 76.0419277,10.9577991 76.0419277,11.5992369 L76.0419277,16.2389317 C76.0419277,17.5194874 74.9712573,18.5587791 73.6520385,18.5587791 L61.7025927,18.5587791 C60.3833739,18.5587791 59.3127036,17.5194874 59.3127036,16.2389317 L59.3127036,11.5992369 Z M68.8722602,3.96901117 L68.8722602,12.7913908 C68.8722602,13.4319989 68.3372653,13.9513145 67.6773156,13.9513145 C67.017366,13.9513145 66.482371,13.4319989 66.482371,12.7913908 L66.482371,3.96147167 L63.7339985,6.62929616 C63.2674141,7.08236625 62.5107976,7.08249606 62.0440482,6.6295861 C61.5772988,6.17667614 61.577165,5.44223419 62.0437494,4.98916406 L66.8336848,0.339609944 C67.3003104,-0.113203315 68.0567107,-0.113203315 68.5233364,0.339609944 C68.5346884,0.350629219 68.5406631,0.364548303 68.5514176,0.37614754 L73.3216363,5.00656291 C73.7883856,5.45963306 73.7883855,6.19420476 73.3216362,6.64727482 C72.8548868,7.10034489 72.0981367,7.10034496 71.6313872,6.64727497 L68.8722602,3.96901117 Z" id="Combined-Shape"></path>
                                        </g>
                                        <g id="Group">
                                            <mask id="mask-5" fill="white">
                                                <use xlink:href="#path-4"></use>
                                            </mask>
                                            <use id="Rectangle-2" fill="url(#linearGradient-3)" xlink:href="#path-4"></use>
                                            <g id="Path-7-Copy" mask="url(#mask-5)">
                                                <use fill="black" fill-opacity="1" filter="url(#filter-8)" xlink:href="#path-7"></use>
                                                <use fill="url(#linearGradient-6)" fill-rule="evenodd" xlink:href="#path-7"></use>
                                            </g>
                                            <g id="Path-7-Copy-2" mask="url(#mask-5)">
                                                <use fill="black" fill-opacity="1" filter="url(#filter-10)" xlink:href="#path-9"></use>
                                                <use fill="url(#linearGradient-6)" fill-rule="evenodd" xlink:href="#path-9"></use>
                                            </g>
                                            <g id="Path-7-Copy-4" mask="url(#mask-5)">
                                                <use fill="black" fill-opacity="1" filter="url(#filter-12)" xlink:href="#path-11"></use>
                                                <use fill="url(#linearGradient-6)" fill-rule="evenodd" xlink:href="#path-11"></use>
                                            </g>
                                            <g id="Path-8" mask="url(#mask-5)">
                                                <use fill="black" fill-opacity="1" filter="url(#filter-15)" xlink:href="#path-14"></use>
                                                <use fill-opacity="0.540000021" fill="url(#linearGradient-13)" fill-rule="evenodd" xlink:href="#path-14"></use>
                                            </g>
                                            <g id="Path-7" mask="url(#mask-5)">
                                                <use fill="black" fill-opacity="1" filter="url(#filter-17)" xlink:href="#path-16"></use>
                                                <use fill="url(#linearGradient-6)" fill-rule="evenodd" xlink:href="#path-16"></use>
                                            </g>
                                            <g id="Path-7-Copy-3" mask="url(#mask-5)">
                                                <use fill="black" fill-opacity="1" filter="url(#filter-19)" xlink:href="#path-18"></use>
                                                <use fill="url(#linearGradient-6)" fill-rule="evenodd" xlink:href="#path-18"></use>
                                            </g>
                                            <g id="Path-5" mask="url(#mask-5)">
                                                <use fill="black" fill-opacity="1" filter="url(#filter-21)" xlink:href="#path-20"></use>
                                                <use fill="url(#linearGradient-13)" fill-rule="evenodd" xlink:href="#path-20"></use>
                                            </g>
                                        </g>
                                    </g>
                                    <g id="Group-18" transform="translate(71.479412, 6.073782)" fill-rule="nonzero">
                                        <ellipse id="Oval" fill="#FFFFFF" cx="18.2500626" cy="18.2213467" rx="18.2500626" ry="18.2213467"></ellipse>
                                        <path d="M25.6470036,11.6650843 C23.7787142,10.0857656 21.0001452,10.3698401 19.2852737,12.1250143 L18.6136441,12.8115276 L17.9420145,12.1250143 C16.2305524,10.3698401 13.448574,10.0857656 11.5802846,11.6650843 C9.43925226,13.4777498 9.32674578,16.7310786 11.2427652,18.6959269 L17.8397359,25.4528405 C18.2658968,25.8890977 18.9579821,25.8890977 19.384143,25.4528405 L25.9811138,18.6959269 C27.9005425,16.7310786 27.788036,13.4777498 25.6470036,11.6650843 Z" id="Shape-Copy" fill="#B5007F"></path>
                                    </g>
                                </g>
                            </g>
                        </g>
                    </g>
                    <g id="Group-11" transform="translate(312.140331, 78.032969) scale(-1, 1) rotate(17.000000) translate(-312.140331, -78.032969) translate(258.392435, 12.876719)" fill-rule="nonzero">
                        <path d="M29.1584618,33.5530164 C28.0306635,33.5530164 27.0438401,33.4141249 25.9160418,32.9974505 L10.4088162,26.7473349 C6.038598,24.9417459 4.0649511,20.0805448 5.75664845,15.9138011 C7.58932057,11.6081658 12.5234378,9.66368541 16.7526812,11.3303829 L32.2599069,17.5804986 C36.630125,19.3860875 38.603772,24.2472886 36.9120746,28.4140324 C35.6433016,31.608536 32.5418565,33.5530164 29.1584618,33.5530164 Z" id="Shape" fill="#009EC0"></path>
                        <ellipse id="Oval" fill-opacity="0.184584466" fill="#000000" cx="40.9184525" cy="124.012942" rx="40.8826859" ry="6.1112242"></ellipse>
                        <path d="M61.9165228,32.2879831 C59.0970272,32.2879831 56.2775316,30.8990685 54.726809,28.3990222 L44.8585745,12.8431788 C42.3210285,8.95421794 43.5898015,3.81523395 47.5370953,1.31518769 C51.4843891,-1.18485858 56.7004559,0.0651645548 59.238002,3.95412541 L69.1062365,19.5099688 C71.6437825,23.3989297 70.3750095,28.5379137 66.4277157,31.0379599 C65.0179679,31.8713087 63.4672453,32.2879831 61.9165228,32.2879831 Z" id="Shape" fill="#009EC0"></path>
                        <path d="M21.3545302,13.6774132 C19.2399086,14.510762 9.08972447,23.5387068 10.7814218,48.8169524 C12.4731192,73.5396321 -9.94187069,69.5117798 7.11607757,99.3734435 C10.7814218,105.901342 55.329452,116.17931 63.3650144,111.318109 C65.7615856,109.929194 93.6745919,59.7893777 81.6917357,26.4554275 C77.7444419,15.4830022 54.3426285,-0.211732669 21.3545302,13.6774132 Z" id="Shape" fill="#009EC0"></path>
                        <path d="M7.57290271,77.5573855 C7.57290271,77.5573855 5.03535669,94.3632521 6.02218015,102.69674 C7.0090036,111.030227 9.26460006,115.613645 10.8153226,114.780297 C12.50702,113.946948 16.8772381,89.502051 16.8772381,89.502051 L7.57290271,77.5573855 Z" id="Shape" fill="#009EC0"></path>
                        <path d="M71.079138,92.68651 C71.079138,92.68651 65.8630711,108.936811 61.2109034,116.020275 C56.6997105,123.10374 52.4704671,126.159352 51.3426689,124.770437 C50.2148707,123.381522 57.4045844,99.4921915 57.4045844,99.4921915 L71.079138,92.68651 Z" id="Shape" fill="#009EC0"></path>
                        <path d="M26.2690284,12.8766318 C33.7406917,9.12656237 53.9000851,10.3765855 63.2044205,8.98767091 C68.1385378,8.29321361 81.5311418,10.3765855 81.5311418,10.3765855 L75.7511758,13.2933061 L83.6457635,14.5433293 L79.2755453,18.1545072 L80.9672427,25.0990802 L79.6984697,24.4046229 L35.2914143,12.3210659 L26.2690284,12.8766318 Z" id="Shape" fill="#009EC0"></path>
                        <path d="M27.9249847,23.0338752 C19.8894223,28.3117507 24.8235395,91.6462561 30.4625307,98.590829 C39.6258913,109.702146 60.913083,107.340991 63.7325785,101.50755 C64.719402,99.2852863 88.6851144,55.9511511 77.4071321,26.0894873 C74.5876365,18.3115656 55.8379909,4.70020264 27.9249847,23.0338752 Z" id="Shape" fill="#00C6DB"></path>
                        <path d="M41.7709771,36.6089932 C42.6168258,36.7478847 43.0397501,37.5812334 42.8987753,38.4145822 L42.0529267,41.7479772 C41.9119519,42.581326 41.0661032,42.9980003 40.2202545,42.8591089 L40.2202545,42.8591089 C39.3744059,42.7202174 38.9514815,41.8868687 39.0924563,41.0535199 L39.938305,37.7201249 C40.2202545,36.8867761 41.0661032,36.4701018 41.7709771,36.6089932 L41.7709771,36.6089932 Z" id="Shape" fill="#363959"></path>
                        <path d="M71.8432529,37.285313 C72.6891016,37.4242044 73.1120259,38.2575532 72.9710511,39.0909019 L72.1252025,42.424297 C71.9842277,43.2576457 71.138379,43.6743201 70.2925303,43.5354286 L70.2925303,43.5354286 C69.4466817,43.3965372 69.0237573,42.5631884 69.1647321,41.7298397 L70.0105808,38.3964446 C70.1515555,37.5630959 70.9974042,37.0075301 71.8432529,37.285313 L71.8432529,37.285313 Z" id="Shape" fill="#363959"></path>
                        <path d="M40.596148,49.4373068 C40.1732237,49.4373068 39.6093246,49.4373068 39.1864002,49.2984154 C35.8030055,48.4650666 34.6752073,45.548346 34.6752073,45.4094545 C34.3932577,44.7149972 34.8161821,43.8816485 35.521056,43.6038656 C36.2259299,43.3260826 37.0717785,43.742757 37.3537281,44.4372143 C37.3537281,44.5761058 38.058602,46.1039118 39.8912741,46.5205862 C41.7239463,46.9372606 42.9927193,45.8261289 43.133694,45.6872374 C43.6975932,45.1316716 44.5434418,45.1316716 45.1073409,45.6872374 C45.6712401,46.2428033 45.6712401,47.076152 45.1073409,47.6317179 C44.8253914,47.9095008 43.2746688,49.4373068 40.596148,49.4373068 Z" id="Shape" fill="#009EC0"></path>
                        <path d="M71.3082595,45.6550257 C70.8853351,45.6550257 70.321436,45.6550257 69.8985117,45.5161343 C66.515117,44.6827855 65.3873188,41.7660649 65.3873188,41.6271734 C65.1053692,40.9327161 65.5282935,40.0993673 66.2331674,39.8215844 C66.9380413,39.5438015 67.78389,39.9604759 68.0658396,40.6549332 C68.0658396,40.7938246 68.7707135,42.3216307 70.6033856,42.7383051 C72.4360577,43.1549794 73.8458055,42.0438478 73.8458055,42.0438478 C74.4097046,41.4882819 75.2555533,41.4882819 75.8194524,42.0438478 C76.3833515,42.5994136 76.3833515,43.4327624 75.8194524,43.9883282 C75.5375028,44.1272197 73.8458055,45.6550257 71.3082595,45.6550257 Z" id="Shape" fill="#009EC0"></path>
                        <path d="M48.1535172,60.7182681 C47.4486433,60.7182681 46.7437694,60.1627023 46.7437694,59.468245 C46.7437694,58.6348962 47.3076685,58.0793304 48.0125424,57.9404389 C56.4710291,57.2459816 64.5065915,55.5792841 65.3524402,54.329261 C66.3392637,52.8014549 66.4802384,50.5791916 66.4802384,50.4403001 C66.4802384,49.7458428 67.1851123,49.190277 67.8899862,49.190277 C68.5948601,49.190277 69.299734,49.7458428 69.299734,50.4403001 C69.4407088,51.6903233 69.8636331,53.6348037 70.4275323,54.329261 C71.4143557,55.5792841 72.6831287,55.5792841 72.6831287,55.5792841 C73.5289774,55.5792841 74.0928765,56.13485 74.2338513,56.8293073 C74.2338513,57.662656 73.6699522,58.2182219 72.9650783,58.3571133 C71.9782548,58.3571133 69.8636331,58.0793304 68.3129106,56.13485 C68.1719358,55.9959585 68.030961,55.7181756 67.8899862,55.5792841 C67.8899862,55.7181756 67.7490115,55.7181756 67.7490115,55.857067 C65.7753645,58.9126791 53.5105588,60.3015937 48.1535172,60.7182681 L48.1535172,60.7182681 Z" id="Shape" fill="#009EC0"></path>
                        <g id="Group" transform="translate(61.459989, 44.777616)" fill="#363959">
                            <path d="M1.69169735,3.39747213 C0.563899116,4.09192942 6.76678939,7.14754152 7.61263807,7.14754152 C8.88141108,7.14754152 15.0843014,4.5086038 14.8023518,2.42523191 C14.661377,1.31410024 5.92094072,0.619642944 1.69169735,3.39747213 Z" id="Shape"></path>
                            <path d="M7.61263807,8.53645612 L7.61263807,8.53645612 C6.48483983,8.53645612 0.845848674,6.03640985 0.281949558,4.09192942 C0.140974779,3.39747213 0.281949558,2.70301483 0.986823453,2.28634045 L0.986823453,2.28634045 C4.93411727,-0.35259727 12.6877301,-0.213705811 15.0843014,0.758534403 C16.0711248,1.17520878 16.2120996,1.73077462 16.3530744,2.28634045 C16.4940491,3.11968921 16.0711248,3.95303796 15.3662509,4.78638672 C13.5335788,6.59197569 9.16336064,8.53645612 7.61263807,8.53645612 Z M3.80631903,3.8141465 C5.07509204,4.5086038 7.04873895,5.48084401 7.61263807,5.61973547 C8.7404363,5.48084401 11.8418814,4.09192942 12.9696797,2.98079775 C11.1370075,2.70301483 6.90776417,2.56412337 3.80631903,3.8141465 Z" id="Shape"></path>
                        </g>
                        <g id="SVGID_1_-link" transform="translate(48.663276, 58.015600)">
                            <path d="M1.54132425,2.22226335 L0.413526018,5.69454983 C-0.573297435,8.61127047 1.11839991,11.805774 4.07887027,12.6391228 C7.03934063,13.611363 10.2817605,11.9446655 11.1276092,9.02794484 L13.9471048,0.277782918 L1.54132425,2.22226335 Z" id="SVGID_1_" fill="#FF1AD9"></path>
                            <path d="M13.2338864,2.49122026 L0.807384886,4.48192971 L1.54132425,2.22226335 L13.9471048,0.277782918 L13.2338864,2.49122026 Z" id="Combined-Shape" fill="#E100BB"></path>
                        </g>
                        <path d="M53.8998654,67.5978548 L53.6179158,67.5978548 C53.1949915,67.4589633 53.0540167,67.0422889 53.1949915,66.764506 L55.3096132,60.3754989 C55.4505879,59.9588245 55.8735123,59.8199331 56.1554618,59.9588245 C56.5783862,60.097716 56.719361,60.5143903 56.5783862,60.7921733 L54.4637645,67.1811804 C54.4637645,67.4589633 54.1818149,67.5978548 53.8998654,67.5978548 Z" id="Shape" fill="#E100BB"></path>
                        <path d="M101.847052,87.7401932 C101.847052,87.7401932 94.2344139,90.7958053 94.0934391,93.2958515 C93.9524644,95.9347892 101.988027,98.9904014 105.371421,93.9903088 C108.754816,88.9902163 103.115825,87.1846273 101.847052,87.7401932 Z" id="Shape" fill="#009EC0"></path>
                        <path d="M23.0771182,56.7548393 C23.0771182,56.7548393 23.7819921,62.3104976 27.3063616,65.3661097 C30.830731,68.4217218 22.7951686,73.00514 23.0771182,79.9497129 C23.5000425,87.0331774 23.0771182,56.7548393 23.0771182,56.7548393 Z" id="Shape" fill="#009EC0"></path>
                    </g>
                    <path d="M163.449511,265.322476 C209.209991,265.322476 246.306189,260.944187 246.306189,252.192182 C246.306189,243.440178 209.209991,233.628664 163.449511,233.628664 C117.689032,233.628664 80.5928339,243.440178 80.5928339,252.192182 C80.5928339,260.944187 117.689032,265.322476 163.449511,265.322476 Z" id="Oval-5" fill-opacity="0.09" fill="#000000" fill-rule="nonzero"></path>
                    <path d="M135.922037,185.695312 L181.608599,185.695312 C183.988473,185.695312 186.143396,187.101902 187.101212,189.280522 L209.993576,241.350835 C211.327228,244.384321 209.94924,247.924585 206.915754,249.258237 C206.15467,249.592842 205.332353,249.765625 204.500964,249.765625 L113.029673,249.765625 C109.715965,249.765625 107.029673,247.079333 107.029673,243.765625 C107.029673,242.934235 107.202456,242.111918 107.537061,241.350835 L130.429425,189.280522 C131.387241,187.101902 133.542164,185.695312 135.922037,185.695312 Z" id="Rectangle-19" fill="#D8D8D8" fill-rule="nonzero"></path>
                    <path d="M0,180.201954 L317.094838,180.201954 L317.094838,206.887757 C317.094838,210.59911 314.086192,213.607757 310.374838,213.607757 L6.72,213.607757 C3.00864648,213.607757 -4.33668699e-16,210.59911 -8.8817842e-16,206.887757 L0,180.201954 Z" id="Rectangle-21" fill="#EBEBEB" fill-rule="nonzero"></path>
                    <rect id="Rectangle-22" fill="#3E3D40" fill-rule="nonzero" x="0" y="173.227256" width="200.750689" height="7.59222779"></rect>
                    <g id="Group-21-Copy" transform="translate(173.706343, 110.186288)">
                        <rect id="Rectangle-17" stroke="#3E3D40" stroke-width="9.24" fill="#E9FDFF" fill-rule="nonzero" stroke-linecap="round" stroke-linejoin="round" x="25.4890061" y="-3.86077722" width="248.457313" height="158.954656"></rect>
                        <g id="Group-25" transform="translate(30.086024, 0.025477)">
                            <mask id="mask-23" fill="white">
                                <use xlink:href="#path-22"></use>
                            </mask>
                            <rect stroke="#3E3D40" stroke-width="9.24" x="-4.28925259" y="-3.8862545" width="248.457313" height="151.062815"></rect>
                            <mask id="mask-25" fill="white">
                                <use xlink:href="#path-24"></use>
                            </mask>
                            <rect stroke="#3E3D40" stroke-width="9.24" x="-4.28925259" y="-3.8862545" width="248.457313" height="151.062815"></rect>
                            <g id="Group-26" mask="url(#mask-25)" fill-rule="nonzero">
                                <g transform="translate(-6.083354, -40.998030)" id="Rectangle-20">
                                    <rect fill="#80C4CC" x="0" y="0" width="53.2293494" height="77.4407235"></rect>
                                    <rect fill="#90DCE5" x="0" y="77.4407235" width="53.2293494" height="34.9242479"></rect>
                                </g>
                            </g>
                            <g id="Group-26-Copy-2" mask="url(#mask-25)">
                                <g transform="translate(191.625658, -40.998030)">
                                    <rect id="Rectangle-20" fill="#80C4CC" fill-rule="nonzero" x="0" y="0" width="53.2293494" height="112.364971"></rect>
                                    <path d="M37.8816504,59.8253523 L35.0292074,59.8253523 C34.8540674,58.9750703 34.5164604,58.1665888 34.0349273,57.4442415 L36.0588035,55.4203653 C36.5735608,54.8873931 36.5661852,54.0402176 36.0422457,53.5162781 C35.5183063,52.9923387 34.6711307,52.9849631 34.1381585,53.4997204 L32.1142823,55.5235966 C31.3916227,55.0414522 30.5826549,54.7033834 29.7318132,54.5279581 L29.7318132,51.6755151 C29.7318132,50.9253498 29.1236792,50.317209 28.3735071,50.317209 C27.6233349,50.317209 27.0152009,50.9253498 27.0152009,51.6755151 L27.0152009,54.5279581 C26.1649311,54.7031389 25.3564496,55.0407323 24.6340901,55.5222383 L22.6102139,53.498362 C22.0793919,52.9684325 21.2195474,52.9689486 20.6893584,53.4995166 C20.1591708,54.030071 20.1592645,54.8899196 20.6895689,55.4203653 L22.7134452,57.4442415 C22.2314326,58.1664801 21.8933678,58.9749738 21.7178067,59.8253523 L18.8653637,59.8253523 C18.1151919,59.8253523 17.5070575,60.4334863 17.5070575,61.1836585 C17.5070575,61.9338306 18.115192,62.5419647 18.8653637,62.5419647 L21.7178067,62.5419647 C21.893395,63.3974544 22.2333736,64.2107267 22.7188784,64.9366585 C22.6998621,64.9543164 22.6754126,64.959751 22.6577546,64.9774076 L20.6882106,66.9469516 C20.335104,67.2879856 20.1934884,67.7930107 20.3177938,68.267918 C20.4420991,68.7428266 20.8129806,69.1137081 21.2878879,69.2380135 C21.7627952,69.3623175 22.2678202,69.2207019 22.6088556,68.8675966 L24.5783996,66.8980526 C24.5960575,66.8803946 24.6028491,66.8559451 24.6191488,66.8369288 C25.3453875,67.3230761 26.1591406,67.6635233 27.0152009,67.8393601 L27.0152009,70.6918018 C27.0152009,71.4419742 27.6233349,72.050108 28.3735071,72.050108 C29.1236792,72.050108 29.7318132,71.4419728 29.7318132,70.6918018 L29.7318132,67.8393588 C30.5820844,67.6641808 31.3905632,67.3265819 32.112924,66.8450773 L34.1368002,68.8689535 C34.6697724,69.3836986 35.516948,69.3763284 36.0408874,68.8523903 C36.5648133,68.3284536 36.5721889,67.4812821 36.0574452,66.9483086 L34.0335689,64.9244337 C34.5157405,64.2017863 34.8538093,63.3928172 35.0292074,62.5419647 L37.8816504,62.5419647 C38.6318157,62.5419647 39.2399566,61.9338306 39.2399566,61.1836585 C39.2399566,60.4334863 38.6318293,59.8253523 37.8816504,59.8253523 Z M24.2985885,61.1836585 C24.2985885,58.9331434 26.1229907,57.1087399 28.3735071,57.1087399 C30.6240235,57.1087399 32.4484256,58.9331448 32.4484256,61.1836585 C32.4484256,63.4341749 30.6240221,65.258577 28.3735071,65.258577 C26.122992,65.258577 24.2985885,63.4341749 24.2985885,61.1836585 Z" id="Fill-1" fill="#3E3D40" fill-rule="evenodd"></path>
                                    <rect id="Rectangle-20" fill="#90DCE5" fill-rule="nonzero" x="0" y="77.4407235" width="53.2293494" height="34.9242479"></rect>
                                </g>
                            </g>
                            <g id="Group-26-Copy" mask="url(#mask-25)" fill-rule="nonzero">
                                <g transform="translate(-6.083354, 86.551397)" id="Rectangle-20">
                                    <rect fill="#80C4CC" x="0" y="0" width="53.2293494" height="112.364971"></rect>
                                    <rect fill="#5E5E5E" x="0" y="77.4407235" width="53.2293494" height="34.9242479"></rect>
                                </g>
                            </g>
                            <g id="Group-26-Copy-3" mask="url(#mask-25)" fill-rule="nonzero">
                                <g transform="translate(191.625658, 86.551397)" id="Rectangle-20">
                                    <rect fill="#80C4CC" x="0" y="0" width="53.2293494" height="112.364971"></rect>
                                    <rect fill="#5E5E5E" x="0" y="77.4407235" width="53.2293494" height="34.9242479"></rect>
                                </g>
                            </g>
                            <g id="Group-24" mask="url(#mask-25)">
                                <g transform="translate(62.354381, 15.184456)">
                                    <g id="Group-15">
                                        <g id="Group-3" transform="translate(0.000000, 72.126164)" fill="#FFFFFF">
                                            <rect id="Rectangle-7" x="0" y="0" width="114.062892" height="40.2388073" rx="1.68"></rect>
                                        </g>
                                        <g id="Group" transform="translate(18.250063, 84.273729)" fill="#3E3D40">
                                            <g id="Glyph-/-Basic-/-Downloads-" fill-rule="nonzero">
                                                <path d="M9.39070583,11.2492023 L9.39070583,1.17352941 C9.39070583,0.525407014 9.97141885,8.8817842e-16 10.6877647,8.8817842e-16 C11.4041105,8.8817842e-16 11.9848235,0.525407014 11.9848235,1.17352941 L11.9848235,11.2492023 L16.2558997,7.38489528 C16.7624327,6.92660353 17.5836849,6.92660353 18.0902179,7.38489528 C18.5967508,7.84318702 18.5967508,8.58622474 18.0902179,9.04451649 L11.6049237,14.9121635 C11.0983908,15.3704553 10.2771385,15.3704553 9.77060557,14.9121635 L3.28531145,9.04451649 C2.77877847,8.58622474 2.77877847,7.84318702 3.28531145,7.38489528 C3.79184443,6.92660353 4.61309665,6.92660353 5.11962963,7.38489528 L9.39070583,11.2492023 Z M4.20247054,18.7764706 C3.48612473,18.7764706 2.90541172,18.2510636 2.90541172,17.6029412 C2.90541172,16.9548188 3.48612473,16.4294118 4.20247054,16.4294118 L17.1730588,16.4294118 C17.8894046,16.4294118 18.4701176,16.9548188 18.4701176,17.6029412 C18.4701176,18.2510636 17.8894046,18.7764706 17.1730588,18.7764706 L4.20247054,18.7764706 Z" id="Combined-Shape"></path>
                                            </g>
                                            <path d="M59.3127036,11.5992369 C59.3127036,10.9577991 59.8468438,10.4393132 60.5076482,10.4393132 C61.1684525,10.4393132 61.7025927,10.9577991 61.7025927,11.5992369 L61.7025927,15.079008 C61.7025927,15.7204458 62.236733,16.2389317 62.8975373,16.2389317 L72.4570939,16.2389317 C73.1178983,16.2389317 73.6520385,15.7204458 73.6520385,15.079008 L73.6520385,11.5992369 C73.6520385,10.9577991 74.1861787,10.4393132 74.8469831,10.4393132 C75.5077874,10.4393132 76.0419277,10.9577991 76.0419277,11.5992369 L76.0419277,16.2389317 C76.0419277,17.5194874 74.9712573,18.5587791 73.6520385,18.5587791 L61.7025927,18.5587791 C60.3833739,18.5587791 59.3127036,17.5194874 59.3127036,16.2389317 L59.3127036,11.5992369 Z M68.8722602,3.96901117 L68.8722602,12.7913908 C68.8722602,13.4319989 68.3372653,13.9513145 67.6773156,13.9513145 C67.017366,13.9513145 66.482371,13.4319989 66.482371,12.7913908 L66.482371,3.96147167 L63.7339985,6.62929616 C63.2674141,7.08236625 62.5107976,7.08249606 62.0440482,6.6295861 C61.5772988,6.17667614 61.577165,5.44223419 62.0437494,4.98916406 L66.8336848,0.339609944 C67.3003104,-0.113203315 68.0567107,-0.113203315 68.5233364,0.339609944 C68.5346884,0.350629219 68.5406631,0.364548303 68.5514176,0.37614754 L73.3216363,5.00656291 C73.7883856,5.45963306 73.7883855,6.19420476 73.3216362,6.64727482 C72.8548868,7.10034489 72.0981367,7.10034496 71.6313872,6.64727497 L68.8722602,3.96901117 Z" id="Combined-Shape"></path>
                                        </g>
                                        <g id="Group">
                                            <mask id="mask-27" fill="white">
                                                <use xlink:href="#path-26"></use>
                                            </mask>
                                            <use id="Rectangle-2" fill="url(#linearGradient-3)" xlink:href="#path-26"></use>
                                            <g id="Path-7-Copy" mask="url(#mask-27)">
                                                <use fill="black" fill-opacity="1" filter="url(#filter-29)" xlink:href="#path-28"></use>
                                                <use fill="url(#linearGradient-6)" fill-rule="evenodd" xlink:href="#path-28"></use>
                                            </g>
                                            <g id="Path-7-Copy-2" mask="url(#mask-27)">
                                                <use fill="black" fill-opacity="1" filter="url(#filter-31)" xlink:href="#path-30"></use>
                                                <use fill="url(#linearGradient-6)" fill-rule="evenodd" xlink:href="#path-30"></use>
                                            </g>
                                            <g id="Path-7-Copy-4" mask="url(#mask-27)">
                                                <use fill="black" fill-opacity="1" filter="url(#filter-33)" xlink:href="#path-32"></use>
                                                <use fill="url(#linearGradient-6)" fill-rule="evenodd" xlink:href="#path-32"></use>
                                            </g>
                                            <g id="Path-8" mask="url(#mask-27)">
                                                <use fill="black" fill-opacity="1" filter="url(#filter-35)" xlink:href="#path-34"></use>
                                                <use fill-opacity="0.540000021" fill="url(#linearGradient-13)" fill-rule="evenodd" xlink:href="#path-34"></use>
                                            </g>
                                            <g id="Path-7" mask="url(#mask-27)">
                                                <use fill="black" fill-opacity="1" filter="url(#filter-37)" xlink:href="#path-36"></use>
                                                <use fill="url(#linearGradient-6)" fill-rule="evenodd" xlink:href="#path-36"></use>
                                            </g>
                                            <g id="Path-7-Copy-3" mask="url(#mask-27)">
                                                <use fill="black" fill-opacity="1" filter="url(#filter-39)" xlink:href="#path-38"></use>
                                                <use fill="url(#linearGradient-6)" fill-rule="evenodd" xlink:href="#path-38"></use>
                                            </g>
                                            <g id="Path-5" mask="url(#mask-27)">
                                                <use fill="black" fill-opacity="1" filter="url(#filter-41)" xlink:href="#path-40"></use>
                                                <use fill="url(#linearGradient-13)" fill-rule="evenodd" xlink:href="#path-40"></use>
                                            </g>
                                        </g>
                                    </g>
                                    <g id="Group-18" transform="translate(71.479412, 6.073782)">
                                        <ellipse id="Oval" fill="#FFFFFF" fill-rule="nonzero" cx="18.2500626" cy="18.2213467" rx="18.2500626" ry="18.2213467"></ellipse>
                                        <path d="M28.9359271,45.5155278 L28.9359271,53.5063856 C28.9359271,55.1662129 27.5994014,56.5096805 25.938388,56.5096805 L25.8425141,56.5096805 C24.1861093,56.5096805 22.844975,55.1651412 22.844975,53.5063856 L22.844975,45.5155278 L20.5961076,45.5155278 C18.7707593,45.5155278 17.7488366,43.9618342 18.475124,42.2799054 L24.1781946,29.0727946 C24.9647065,27.2513985 26.813063,27.2441442 27.6027075,29.0727946 L33.3057781,42.2799054 C34.0293007,43.9554314 33.0111827,45.5155278 31.1847945,45.5155278 L28.9359271,45.5155278 Z" id="Combined-Shape" stroke="#FFFFFF" stroke-width="2" fill="#555555" transform="translate(25.890451, 41.937505) rotate(-21.000000) translate(-25.890451, -41.937505) "></path>
                                        <path d="M25.6470036,11.6650843 C23.7787142,10.0857656 21.0001452,10.3698401 19.2852737,12.1250143 L18.6136441,12.8115276 L17.9420145,12.1250143 C16.2305524,10.3698401 13.448574,10.0857656 11.5802846,11.6650843 C9.43925226,13.4777498 9.32674578,16.7310786 11.2427652,18.6959269 L17.8397359,25.4528405 C18.2658968,25.8890977 18.9579821,25.8890977 19.384143,25.4528405 L25.9811138,18.6959269 C27.9005425,16.7310786 27.788036,13.4777498 25.6470036,11.6650843 Z" id="Shape-Copy" fill="#B5007F" fill-rule="nonzero"></path>
                                    </g>
                                </g>
                            </g>
                        </g>
                        <path d="M0,150.473879 L300.034867,150.473879 L300.034867,154.57678 C300.034867,161.535568 294.393655,167.17678 287.434867,167.17678 L12.6,167.17678 C5.64121215,167.17678 -4.47686479e-15,161.535568 -5.32907052e-15,154.57678 L0,150.473879 Z" id="Rectangle-18" fill="#D8D8D8" fill-rule="nonzero"></path>
                    </g>
                    <path d="M326.573299,69.2767209 C336.16528,100.517708 333.046155,122.774147 317.215923,136.046038" id="Path-3" stroke="#009EC0" stroke-width="7.2" stroke-linecap="round" fill-rule="nonzero" transform="translate(324.608953, 102.661379) rotate(24.000000) translate(-324.608953, -102.661379) "></path>
                    <path d="M258.248446,49.090413 C260.192231,80.0583747 256.077939,101.2967 245.905571,112.805389" id="Path-3-Copy" stroke="#009EC0" stroke-width="7.2" stroke-linecap="round" fill-rule="nonzero" transform="translate(252.310888, 80.947901) rotate(86.000000) translate(-252.310888, -80.947901) "></path>
                    <g id="Group-6" transform="translate(84.693655, 100.992188) scale(-1, 1) translate(-84.693655, -100.992188) translate(59.719885, 76.015625)" fill-rule="nonzero">
                        <path d="M29.0792225,5.85967018 C26.3051525,5.1563266 24.1278797,2.97791522 23.4249038,0.202394443 C23.3577794,-0.0674648143 23.0099527,-0.0674648143 22.9428283,0.202394443 C22.2398524,2.97791522 20.0625796,5.1563266 17.2885096,5.85967018 C17.0187914,5.92682973 17.0187914,6.27361719 17.2885096,6.34199782 C20.0625796,7.0453414 22.2398524,9.22375274 22.9428283,11.9992735 C23.0099527,12.2691328 23.3577794,12.2691328 23.4249038,11.9992735 C24.1278797,9.22375274 26.3051525,7.0453414 29.0792225,6.34199782 C29.3489406,6.27361719 29.3489406,5.92682973 29.0792225,5.85967018" id="Fill-48" fill="#FFC44D"></path>
                        <path d="M49.2504216,17.6754761 C44.3564397,16.432414 40.5034969,12.5774561 39.2610846,7.6809149 C39.1353788,7.20835593 38.528818,7.20835593 38.4128758,7.6809149 C37.1802269,12.5774561 33.3272841,16.432414 28.4235388,17.6657074 C27.9524472,17.7914789 27.9524472,18.398357 28.4235388,18.5143598 C33.3175206,19.7574219 37.1704634,23.6123798 38.4128758,28.508921 C38.5385815,28.98148 39.1451424,28.98148 39.2610846,28.508921 C40.5034969,23.6123798 44.3564397,19.7574219 49.2504216,18.5143598 C49.7227336,18.398357 49.7227336,17.7914789 49.2504216,17.6754761" id="Fill-50" fill="#FFAA00"></path>
                        <path d="M31.6705309,32.5711576 C24.3490852,30.7212175 18.5885879,24.9479388 16.7298511,17.6226642 C16.5565481,16.9193207 15.6509784,16.9193207 15.4679117,17.6226642 C13.617718,24.9479388 7.84867763,30.7114488 0.52723196,32.5711576 C-0.175743987,32.7445513 -0.175743987,33.6505947 0.52723196,33.833757 C7.84867763,35.6836972 13.609175,41.4569757 15.4679117,48.7822503 C15.6412148,49.4855939 16.5467845,49.4855939 16.7298511,48.7822503 C18.5788243,41.4569757 24.3490852,35.6934658 31.6705309,33.833757 C32.3735069,33.6505947 32.3735069,32.7445513 31.6705309,32.5711576" id="Fill-52" fill="#FFC44D"></path>
                    </g>
                    <g id="Group-6-Copy" transform="translate(395.237055, 208.500000) scale(1, -1) translate(-395.237055, -208.500000) translate(370.263285, 183.523438)" fill-rule="nonzero">
                        <path d="M29.0792225,5.85967018 C26.3051525,5.1563266 24.1278797,2.97791522 23.4249038,0.202394443 C23.3577794,-0.0674648143 23.0099527,-0.0674648143 22.9428283,0.202394443 C22.2398524,2.97791522 20.0625796,5.1563266 17.2885096,5.85967018 C17.0187914,5.92682973 17.0187914,6.27361719 17.2885096,6.34199782 C20.0625796,7.0453414 22.2398524,9.22375274 22.9428283,11.9992735 C23.0099527,12.2691328 23.3577794,12.2691328 23.4249038,11.9992735 C24.1278797,9.22375274 26.3051525,7.0453414 29.0792225,6.34199782 C29.3489406,6.27361719 29.3489406,5.92682973 29.0792225,5.85967018" id="Fill-48" fill="#FFC44D"></path>
                        <path d="M49.2504216,17.6754761 C44.3564397,16.432414 40.5034969,12.5774561 39.2610846,7.6809149 C39.1353788,7.20835593 38.528818,7.20835593 38.4128758,7.6809149 C37.1802269,12.5774561 33.3272841,16.432414 28.4235388,17.6657074 C27.9524472,17.7914789 27.9524472,18.398357 28.4235388,18.5143598 C33.3175206,19.7574219 37.1704634,23.6123798 38.4128758,28.508921 C38.5385815,28.98148 39.1451424,28.98148 39.2610846,28.508921 C40.5034969,23.6123798 44.3564397,19.7574219 49.2504216,18.5143598 C49.7227336,18.398357 49.7227336,17.7914789 49.2504216,17.6754761" id="Fill-50" fill="#FFAA00"></path>
                        <path d="M31.6705309,32.5711576 C24.3490852,30.7212175 18.5885879,24.9479388 16.7298511,17.6226642 C16.5565481,16.9193207 15.6509784,16.9193207 15.4679117,17.6226642 C13.617718,24.9479388 7.84867763,30.7114488 0.52723196,32.5711576 C-0.175743987,32.7445513 -0.175743987,33.6505947 0.52723196,33.833757 C7.84867763,35.6836972 13.609175,41.4569757 15.4679117,48.7822503 C15.6412148,49.4855939 16.5467845,49.4855939 16.7298511,48.7822503 C18.5788243,41.4569757 24.3490852,35.6934658 31.6705309,33.833757 C32.3735069,33.6505947 32.3735069,32.7445513 31.6705309,32.5711576" id="Fill-52" fill="#FFC44D"></path>
                    </g>
                </g>
            </g>
        </g>
    </g>
</svg>