<svg xmlns="http://www.w3.org/2000/svg" xmlns:xlink="http://www.w3.org/1999/xlink" width="492" height="476" viewBox="0 0 492 476">
  <defs>
    <rect id="onboarding-home-a" width="290" height="174" y=".969"/>
    <linearGradient id="onboarding-home-c" x1="86.846%" x2="86.846%" y1="2.894%" y2="100%">
      <stop offset="0%" stop-color="#79BFEF"/>
      <stop offset="15.976%" stop-color="#89CBF9"/>
      <stop offset="77.242%" stop-color="#85C8F6"/>
      <stop offset="100%" stop-color="#BCD8EF"/>
    </linearGradient>
    <rect id="onboarding-home-d" width="114.063" height="76.682"/>
    <linearGradient id="onboarding-home-f" x1="50%" x2="50%" y1="50%" y2="100%">
      <stop offset="0%" stop-color="#F9FAF7"/>
      <stop offset="100%" stop-color="#F1F4EC"/>
    </linearGradient>
    <rect id="onboarding-home-g" width="114.063" height="76.682"/>
    <rect id="onboarding-home-i" width="114.063" height="76.682"/>
    <rect id="onboarding-home-k" width="114.063" height="76.682"/>
    <linearGradient id="onboarding-home-m" x1="54.882%" x2="54.882%" y1="194.923%" y2="13.706%">
      <stop offset="0%" stop-opacity="0"/>
      <stop offset="14.33%" stop-color="#9CD0F5"/>
      <stop offset="100%" stop-color="#FFF"/>
    </linearGradient>
    <rect id="onboarding-home-n" width="114.063" height="76.682"/>
    <rect id="onboarding-home-p" width="114.063" height="76.682"/>
    <rect id="onboarding-home-r" width="114.063" height="76.682"/>
    <rect id="onboarding-home-t" width="249" height="149"/>
    <rect id="onboarding-home-v" width="249" height="149"/>
    <rect id="onboarding-home-x" width="114.063" height="76.682"/>
    <rect id="onboarding-home-z" width="114.063" height="76.682"/>
    <rect id="onboarding-home-B" width="114.063" height="76.682"/>
    <rect id="onboarding-home-D" width="114.063" height="76.682"/>
    <rect id="onboarding-home-F" width="114.063" height="76.682"/>
    <rect id="onboarding-home-H" width="114.063" height="76.682"/>
    <rect id="onboarding-home-J" width="114.063" height="76.682"/>
  </defs>
  <g fill="none" fill-rule="evenodd">
    <circle cx="245" cy="238" r="238" fill="#A1F6FF" fill-rule="nonzero"/>
    <g transform="translate(0 94)">
      <g>
        <g transform="translate(0 8)">
          <rect width="300" height="162" x="5" y="5" fill="#CDE7FA" stroke="#3E3D40" stroke-width="10" rx="8"/>
          <g transform="translate(10 9)">
            <mask id="onboarding-home-b" fill="#fff">
              <use xlink:href="#onboarding-home-a"/>
            </mask>
            <g mask="url(#onboarding-home-b)">
              <g transform="translate(-36.74 -106.495)">
                <g fill-rule="nonzero" transform="translate(0 71.367)">
                  <rect width="114.063" height="112.365" fill="#80C4CC"/>
                  <rect width="114.063" height="34.924" y="77.441" fill="#90DCE5"/>
                </g>
                <g fill-rule="nonzero" transform="translate(258.543 71.367)">
                  <rect width="114.063" height="112.365" fill="#80C4CC"/>
                  <rect width="114.063" height="34.924" y="77.441" fill="#90DCE5"/>
                </g>
                <g fill-rule="nonzero" transform="translate(0 198.916)">
                  <rect width="114.063" height="112.365" fill="#80C4CC"/>
                  <rect width="114.063" height="34.924" y="77.441" fill="#5E5E5E"/>
                </g>
                <rect width="114.063" height="34.924" y=".441" fill="#5E5E5E" fill-rule="nonzero" transform="translate(258.543 275.916)"/>
                <g fill-rule="nonzero" transform="translate(129.271 255.099)">
                  <rect width="114.063" height="112.365" fill="#80C4CC"/>
                  <rect width="114.063" height="34.924" y="77.441" fill="#5E5E5E"/>
                </g>
                <g fill-rule="nonzero" transform="translate(129.271)">
                  <rect width="114.063" height="112.365" fill="#545454"/>
                  <rect width="114.063" height="34.924" y="77.441" fill="#90DCE5"/>
                </g>
                <g transform="translate(129.271 127.55)">
                  <rect width="114.063" height="40.239" fill="#FFF" fill-rule="nonzero" rx="1.68" transform="translate(0 72.126)"/>
                  <g fill="#3E3D40" fill-rule="nonzero" transform="translate(20.25 84.274)">
                    <path d="M7.39070583 11.2492023L7.39070583 1.17352941C7.39070583.525407014 7.97141885 8.8817842e-16 8.6877647 8.8817842e-16 9.4041105 8.8817842e-16 9.9848235.525407014 9.9848235 1.17352941L9.9848235 11.2492023 14.2558997 7.38489528C14.7624327 6.92660353 15.5836849 6.92660353 16.0902179 7.38489528 16.5967508 7.84318702 16.5967508 8.58622474 16.0902179 9.04451649L9.6049237 14.9121635C9.0983908 15.3704553 8.2771385 15.3704553 7.77060557 14.9121635L1.28531145 9.04451649C.77877847 8.58622474.77877847 7.84318702 1.28531145 7.38489528 1.79184443 6.92660353 2.61309665 6.92660353 3.11962963 7.38489528L7.39070583 11.2492023zM2.20247054 18.7764706C1.48612473 18.7764706.90541172 18.2510636.90541172 17.6029412.90541172 16.9548188 1.48612473 16.4294118 2.20247054 16.4294118L15.1730588 16.4294118C15.8894046 16.4294118 16.4701176 16.9548188 16.4701176 17.6029412 16.4701176 18.2510636 15.8894046 18.7764706 15.1730588 18.7764706L2.20247054 18.7764706zM57.3127036 11.5992369C57.3127036 10.9577991 57.8468438 10.4393132 58.5076482 10.4393132 59.1684525 10.4393132 59.7025927 10.9577991 59.7025927 11.5992369L59.7025927 15.079008C59.7025927 15.7204458 60.236733 16.2389317 60.8975373 16.2389317L70.4570939 16.2389317C71.1178983 16.2389317 71.6520385 15.7204458 71.6520385 15.079008L71.6520385 11.5992369C71.6520385 10.9577991 72.1861787 10.4393132 72.8469831 10.4393132 73.5077874 10.4393132 74.0419277 10.9577991 74.0419277 11.5992369L74.0419277 16.2389317C74.0419277 17.5194874 72.9712573 18.5587791 71.6520385 18.5587791L59.7025927 18.5587791C58.3833739 18.5587791 57.3127036 17.5194874 57.3127036 16.2389317L57.3127036 11.5992369zM66.8722602 3.96901117L66.8722602 12.7913908C66.8722602 13.4319989 66.3372653 13.9513145 65.6773156 13.9513145 65.017366 13.9513145 64.482371 13.4319989 64.482371 12.7913908L64.482371 3.96147167 61.7339985 6.62929616C61.2674141 7.08236625 60.5107976 7.08249606 60.0440482 6.6295861 59.5772988 6.17667614 59.577165 5.44223419 60.0437494 4.98916406L64.8336848.339609944C65.3003104-.113203315 66.0567107-.113203315 66.5233364.339609944 66.5346884.350629219 66.5406631.364548303 66.5514176.37614754L71.3216363 5.00656291C71.7883856 5.45963306 71.7883855 6.19420476 71.3216362 6.64727482 70.8548868 7.10034489 70.0981367 7.10034496 69.6313872 6.64727497L66.8722602 3.96901117z"/>
                  </g>
                  <rect width="114.063" height="76.682" fill="url(#onboarding-home-c)" fill-rule="nonzero"/>
                  <mask id="onboarding-home-e" fill="#fff">
                    <use xlink:href="#onboarding-home-d"/>
                  </mask>
                  <g mask="url(#onboarding-home-e)">
                    <g transform="translate(3 23)">
                      <path fill="#000" fill-rule="nonzero" d="M35.4229797,8.1975604 L0.7565623,8.1975604 C0.7565623,8.1975604 4.76891059,7.3561544 12.324895,5.8483948 C19.8808794,4.3406352 22.424413,-0.0079466 25.34497,0.5294104 C28.265527,1.0667673 32.8580946,3.4992292 35.4229797,8.1975604 Z"/>
                      <path fill="url(#onboarding-home-f)" d="M35.4229797,8.1975604 L0.7565623,8.1975604 C0.7565623,8.1975604 4.76891059,7.3561544 12.324895,5.8483948 C19.8808794,4.3406352 22.424413,-0.0079466 25.34497,0.5294104 C28.265527,1.0667673 32.8580946,3.4992292 35.4229797,8.1975604 Z"/>
                    </g>
                  </g>
                  <mask id="onboarding-home-h" fill="#fff">
                    <use xlink:href="#onboarding-home-g"/>
                  </mask>
                  <g mask="url(#onboarding-home-h)">
                    <g transform="translate(97 8)">
                      <path fill="#000" fill-rule="nonzero" d="M40.118116,9.4043888 L0.6706197,9.4043888 C0.6706197,9.4043888 5.236338,8.4469388 13.834419,6.7312339 C22.4325,5.0155291 25.32683,0.06720507 28.65018,0.6786725 C31.973531,1.29013994 37.199491,4.058079 40.118116,9.4043888 Z"/>
                      <path fill="url(#onboarding-home-f)" d="M40.118116,9.4043888 L0.6706197,9.4043888 C0.6706197,9.4043888 5.236338,8.4469388 13.834419,6.7312339 C22.4325,5.0155291 25.32683,0.06720507 28.65018,0.6786725 C31.973531,1.29013994 37.199491,4.058079 40.118116,9.4043888 Z"/>
                    </g>
                  </g>
                  <mask id="onboarding-home-j" fill="#fff">
                    <use xlink:href="#onboarding-home-i"/>
                  </mask>
                  <g mask="url(#onboarding-home-j)">
                    <g transform="translate(92 9)">
                      <path fill="#000" fill-rule="nonzero" d="M10.183631,2.6532763 L0.8895404,2.6532763 C0.8895404,2.6532763 1.9652537,2.4276947 3.9910183,2.0234634 C6.0167829,1.619232 6.698706,0.45337424 7.4817093,0.59744 C8.264713,0.74150576 9.495983,1.3936505 10.183631,2.6532763 Z"/>
                      <path fill="url(#onboarding-home-f)" d="M10.183631,2.6532763 L0.8895404,2.6532763 C0.8895404,2.6532763 1.9652537,2.4276947 3.9910183,2.0234634 C6.0167829,1.619232 6.698706,0.45337424 7.4817093,0.59744 C8.264713,0.74150576 9.495983,1.3936505 10.183631,2.6532763 Z"/>
                    </g>
                  </g>
                  <g>
                    <mask id="onboarding-home-l" fill="#fff">
                      <use xlink:href="#onboarding-home-k"/>
                    </mask>
                    <g mask="url(#onboarding-home-l)">
                      <g transform="translate(-7 35)">
                        <path fill="#000" fill-rule="nonzero" d="M77.008661,44.0777976 C67.5940727,34.6902055 47.8812726,14.6794465 36.7109927,6.2163067 C32.4839847,3.0137227 31.9299134,3.3407503 27.4903398,0.9444535 C19.1411091,-3.5621134 0.85289806,26.8244596 0.85289806,26.8244596 L2.56042638,48.8703911 C2.56042638,48.8703911 89.9858762,57.0178009 77.008661,44.0777976 Z"/>
                        <path fill="url(#onboarding-home-m)" fill-opacity=".54" d="M77.008661,44.0777976 C67.5940727,34.6902055 47.8812726,14.6794465 36.7109927,6.2163067 C32.4839847,3.0137227 31.9299134,3.3407503 27.4903398,0.9444535 C19.1411091,-3.5621134 0.85289806,26.8244596 0.85289806,26.8244596 L2.56042638,48.8703911 C2.56042638,48.8703911 89.9858762,57.0178009 77.008661,44.0777976 Z"/>
                      </g>
                    </g>
                  </g>
                  <g>
                    <mask id="onboarding-home-o" fill="#fff">
                      <use xlink:href="#onboarding-home-n"/>
                    </mask>
                    <g mask="url(#onboarding-home-o)">
                      <g transform="translate(8 44)">
                        <path fill="#000" fill-rule="nonzero" d="M48.0199502,11.3263668 L0.87914724,11.3263668 C0.87914724,11.3263668 19.9711986,8.2870427 26.8400887,6.0545136 C33.7089789,3.8219846 37.0262428,-0.4232429 43.5803773,0.7826605 C50.1345119,1.9885638 48.0199502,11.3263668 48.0199502,11.3263668 Z"/>
                        <path fill="url(#onboarding-home-f)" d="M48.0199502,11.3263668 L0.87914724,11.3263668 C0.87914724,11.3263668 19.9711986,8.2870427 26.8400887,6.0545136 C33.7089789,3.8219846 37.0262428,-0.4232429 43.5803773,0.7826605 C50.1345119,1.9885638 48.0199502,11.3263668 48.0199502,11.3263668 Z"/>
                      </g>
                    </g>
                  </g>
                  <g>
                    <mask id="onboarding-home-q" fill="#fff">
                      <use xlink:href="#onboarding-home-p"/>
                    </mask>
                    <g mask="url(#onboarding-home-q)">
                      <g transform="translate(24 40)">
                        <path fill="#000" fill-rule="nonzero" d="M9.882498,2.3258766 L0.5884077,2.3258766 C0.5884077,2.3258766 1.6641211,2.100295 3.6898857,1.6960637 C5.7156503,1.2918323 6.3975734,0.1259745 7.1805767,0.2700403 C7.96358,0.414106 9.1948505,1.0662507 9.882498,2.3258766 Z"/>
                        <path fill="url(#onboarding-home-f)" d="M9.882498,2.3258766 L0.5884077,2.3258766 C0.5884077,2.3258766 1.6641211,2.100295 3.6898857,1.6960637 C5.7156503,1.2918323 6.3975734,0.1259745 7.1805767,0.2700403 C7.96358,0.414106 9.1948505,1.0662507 9.882498,2.3258766 Z"/>
                      </g>
                    </g>
                  </g>
                  <g>
                    <mask id="onboarding-home-s" fill="#fff">
                      <use xlink:href="#onboarding-home-r"/>
                    </mask>
                    <g mask="url(#onboarding-home-s)">
                      <g transform="translate(19 12)">
                        <path fill="#000" fill-rule="nonzero" d="M52.788936,2.1071496 C54.258442,-1.3387267 62.9613592,3.5312438 71.1574951,7.82249 C79.353631,12.1137363 120.675816,64.6815007 120.675816,64.6815007 L0.4658228,64.6815007 C0.4658228,64.6815007 44.861559,20.6962274 52.788936,2.1071496 Z"/>
                        <path fill="url(#onboarding-home-m)" d="M52.788936,2.1071496 C54.258442,-1.3387267 62.9613592,3.5312438 71.1574951,7.82249 C79.353631,12.1137363 120.675816,64.6815007 120.675816,64.6815007 L0.4658228,64.6815007 C0.4658228,64.6815007 44.861559,20.6962274 52.788936,2.1071496 Z"/>
                      </g>
                    </g>
                  </g>
                  <g fill-rule="nonzero" transform="translate(71.48 6.074)">
                    <ellipse cx="18.25" cy="18.221" fill="#FFF" rx="18.25" ry="18.221"/>
                    <path fill="#B5007F" d="M25.6470036,11.6650843 C23.7787142,10.0857656 21.0001452,10.3698401 19.2852737,12.1250143 L18.6136441,12.8115276 L17.9420145,12.1250143 C16.2305524,10.3698401 13.448574,10.0857656 11.5802846,11.6650843 C9.43925226,13.4777498 9.32674578,16.7310786 11.2427652,18.6959269 L17.8397359,25.4528405 C18.2658968,25.8890977 18.9579821,25.8890977 19.384143,25.4528405 L25.9811138,18.6959269 C27.9005425,16.7310786 27.788036,13.4777498 25.6470036,11.6650843 Z"/>
                  </g>
                </g>
              </g>
            </g>
          </g>
          <path fill="#000" fill-opacity=".09" fill-rule="nonzero" d="M157.449511,257.322476 C203.209991,257.322476 240.306189,252.944187 240.306189,244.192182 C240.306189,235.440178 203.209991,225.628664 157.449511,225.628664 C111.689032,225.628664 74.5928339,235.440178 74.5928339,244.192182 C74.5928339,252.944187 111.689032,257.322476 157.449511,257.322476 Z"/>
          <path fill="#D8D8D8" fill-rule="nonzero" d="M132.760345,177 L178.23815,177 C180.60715,177 182.752226,178.405046 183.705666,180.581275 L206.493427,232.594445 C207.820985,235.624602 206.449293,239.16098 203.429668,240.493169 C202.672062,240.827407 201.853503,241 201.025912,241 L109.972584,241 C106.674017,241 104,238.316656 104,235.006585 C104,234.176107 104.171993,233.354692 104.50507,232.594445 L127.292831,180.581275 C128.24627,178.405046 130.391347,177 132.760345,177 Z"/>
          <path fill="#EBEBEB" fill-rule="nonzero" d="M0,172 L310,172 L310,198.361632 C310,202.027901 307.058671,205 303.430357,205 L6.56964337,205 C2.94132952,205 4.44340294e-16,202.027901 0,198.361632 L0,172 Z"/>
          <g fill-rule="nonzero" transform="matrix(-1 0 0 1 104 68)">
            <path fill="#FFC44D" d="M29.0792225,5.85967018 C26.3051525,5.1563266 24.1278797,2.97791522 23.4249038,0.202394443 C23.3577794,-0.0674648143 23.0099527,-0.0674648143 22.9428283,0.202394443 C22.2398524,2.97791522 20.0625796,5.1563266 17.2885096,5.85967018 C17.0187914,5.92682973 17.0187914,6.27361719 17.2885096,6.34199782 C20.0625796,7.0453414 22.2398524,9.22375274 22.9428283,11.9992735 C23.0099527,12.2691328 23.3577794,12.2691328 23.4249038,11.9992735 C24.1278797,9.22375274 26.3051525,7.0453414 29.0792225,6.34199782 C29.3489406,6.27361719 29.3489406,5.92682973 29.0792225,5.85967018"/>
            <path fill="#FA0" d="M49.2504216,17.6754761 C44.3564397,16.432414 40.5034969,12.5774561 39.2610846,7.6809149 C39.1353788,7.20835593 38.528818,7.20835593 38.4128758,7.6809149 C37.1802269,12.5774561 33.3272841,16.432414 28.4235388,17.6657074 C27.9524472,17.7914789 27.9524472,18.398357 28.4235388,18.5143598 C33.3175206,19.7574219 37.1704634,23.6123798 38.4128758,28.508921 C38.5385815,28.98148 39.1451424,28.98148 39.2610846,28.508921 C40.5034969,23.6123798 44.3564397,19.7574219 49.2504216,18.5143598 C49.7227336,18.398357 49.7227336,17.7914789 49.2504216,17.6754761"/>
            <path fill="#FFC44D" d="M31.6705309,32.5711576 C24.3490852,30.7212175 18.5885879,24.9479388 16.7298511,17.6226642 C16.5565481,16.9193207 15.6509784,16.9193207 15.4679117,17.6226642 C13.617718,24.9479388 7.84867763,30.7114488 0.52723196,32.5711576 C-0.175743987,32.7445513 -0.175743987,33.6505947 0.52723196,33.833757 C7.84867763,35.6836972 13.609175,41.4569757 15.4679117,48.7822503 C15.6412148,49.4855939 16.5467845,49.4855939 16.7298511,48.7822503 C18.5788243,41.4569757 24.3490852,35.6934658 31.6705309,33.833757 C32.3735069,33.6505947 32.3735069,32.7445513 31.6705309,32.5711576"/>
          </g>
          <rect width="310" height="10" y="162" fill="#3E3D40" fill-rule="nonzero"/>
        </g>
        <g fill-rule="nonzero" transform="scale(-1 1) rotate(17 -169.276 -1132.44)">
          <path fill="#009EC0" d="M29.1584618,33.5530164 C28.0306635,33.5530164 27.0438401,33.4141249 25.9160418,32.9974505 L10.4088162,26.7473349 C6.038598,24.9417459 4.0649511,20.0805448 5.75664845,15.9138011 C7.58932057,11.6081658 12.5234378,9.66368541 16.7526812,11.3303829 L32.2599069,17.5804986 C36.630125,19.3860875 38.603772,24.2472886 36.9120746,28.4140324 C35.6433016,31.608536 32.5418565,33.5530164 29.1584618,33.5530164 Z"/>
          <ellipse cx="40.918" cy="124.013" fill="#000" fill-opacity=".185" rx="40.883" ry="6.111"/>
          <path fill="#009EC0" d="M61.9165228,32.2879831 C59.0970272,32.2879831 56.2775316,30.8990685 54.726809,28.3990222 L44.8585745,12.8431788 C42.3210285,8.95421794 43.5898015,3.81523395 47.5370953,1.31518769 C51.4843891,-1.18485858 56.7004559,0.0651645548 59.238002,3.95412541 L69.1062365,19.5099688 C71.6437825,23.3989297 70.3750095,28.5379137 66.4277157,31.0379599 C65.0179679,31.8713087 63.4672453,32.2879831 61.9165228,32.2879831 Z"/>
          <path fill="#009EC0" d="M21.3545302,13.6774132 C19.2399086,14.510762 9.08972447,23.5387068 10.7814218,48.8169524 C12.4731192,73.5396321 -9.94187069,69.5117798 7.11607757,99.3734435 C10.7814218,105.901342 55.329452,116.17931 63.3650144,111.318109 C65.7615856,109.929194 93.6745919,59.7893777 81.6917357,26.4554275 C77.7444419,15.4830022 54.3426285,-0.211732669 21.3545302,13.6774132 Z"/>
          <path fill="#009EC0" d="M7.57290271 77.5573855C7.57290271 77.5573855 5.03535669 94.3632521 6.02218015 102.69674 7.0090036 111.030227 9.26460006 115.613645 10.8153226 114.780297 12.50702 113.946948 16.8772381 89.502051 16.8772381 89.502051L7.57290271 77.5573855zM71.079138 92.68651C71.079138 92.68651 65.8630711 108.936811 61.2109034 116.020275 56.6997105 123.10374 52.4704671 126.159352 51.3426689 124.770437 50.2148707 123.381522 57.4045844 99.4921915 57.4045844 99.4921915L71.079138 92.68651zM26.2690284 12.8766318C33.7406917 9.12656237 53.9000851 10.3765855 63.2044205 8.98767091 68.1385378 8.29321361 81.5311418 10.3765855 81.5311418 10.3765855L75.7511758 13.2933061 83.6457635 14.5433293 79.2755453 18.1545072 80.9672427 25.0990802 79.6984697 24.4046229 35.2914143 12.3210659 26.2690284 12.8766318z"/>
          <path fill="#00C6DB" d="M27.9249847,23.0338752 C19.8894223,28.3117507 24.8235395,91.6462561 30.4625307,98.590829 C39.6258913,109.702146 60.913083,107.340991 63.7325785,101.50755 C64.719402,99.2852863 88.6851144,55.9511511 77.4071321,26.0894873 C74.5876365,18.3115656 55.8379909,4.70020264 27.9249847,23.0338752 Z"/>
          <path fill="#363959" d="M41.7709771 36.6089932C42.6168258 36.7478847 43.0397501 37.5812334 42.8987753 38.4145822L42.0529267 41.7479772C41.9119519 42.581326 41.0661032 42.9980003 40.2202545 42.8591089 39.3744059 42.7202174 38.9514815 41.8868687 39.0924563 41.0535199L39.938305 37.7201249C40.2202545 36.8867761 41.0661032 36.4701018 41.7709771 36.6089932zM71.8432529 37.285313C72.6891016 37.4242044 73.1120259 38.2575532 72.9710511 39.0909019L72.1252025 42.424297C71.9842277 43.2576457 71.138379 43.6743201 70.2925303 43.5354286 69.4466817 43.3965372 69.0237573 42.5631884 69.1647321 41.7298397L70.0105808 38.3964446C70.1515555 37.5630959 70.9974042 37.0075301 71.8432529 37.285313z"/>
          <path fill="#009EC0" d="M40.596148 49.4373068C40.1732237 49.4373068 39.6093246 49.4373068 39.1864002 49.2984154 35.8030055 48.4650666 34.6752073 45.548346 34.6752073 45.4094545 34.3932577 44.7149972 34.8161821 43.8816485 35.521056 43.6038656 36.2259299 43.3260826 37.0717785 43.742757 37.3537281 44.4372143 37.3537281 44.5761058 38.058602 46.1039118 39.8912741 46.5205862 41.7239463 46.9372606 42.9927193 45.8261289 43.133694 45.6872374 43.6975932 45.1316716 44.5434418 45.1316716 45.1073409 45.6872374 45.6712401 46.2428033 45.6712401 47.076152 45.1073409 47.6317179 44.8253914 47.9095008 43.2746688 49.4373068 40.596148 49.4373068zM71.3082595 45.6550257C70.8853351 45.6550257 70.321436 45.6550257 69.8985117 45.5161343 66.515117 44.6827855 65.3873188 41.7660649 65.3873188 41.6271734 65.1053692 40.9327161 65.5282935 40.0993673 66.2331674 39.8215844 66.9380413 39.5438015 67.78389 39.9604759 68.0658396 40.6549332 68.0658396 40.7938246 68.7707135 42.3216307 70.6033856 42.7383051 72.4360577 43.1549794 73.8458055 42.0438478 73.8458055 42.0438478 74.4097046 41.4882819 75.2555533 41.4882819 75.8194524 42.0438478 76.3833515 42.5994136 76.3833515 43.4327624 75.8194524 43.9883282 75.5375028 44.1272197 73.8458055 45.6550257 71.3082595 45.6550257zM48.1535172 60.7182681C47.4486433 60.7182681 46.7437694 60.1627023 46.7437694 59.468245 46.7437694 58.6348962 47.3076685 58.0793304 48.0125424 57.9404389 56.4710291 57.2459816 64.5065915 55.5792841 65.3524402 54.329261 66.3392637 52.8014549 66.4802384 50.5791916 66.4802384 50.4403001 66.4802384 49.7458428 67.1851123 49.190277 67.8899862 49.190277 68.5948601 49.190277 69.299734 49.7458428 69.299734 50.4403001 69.4407088 51.6903233 69.8636331 53.6348037 70.4275323 54.329261 71.4143557 55.5792841 72.6831287 55.5792841 72.6831287 55.5792841 73.5289774 55.5792841 74.0928765 56.13485 74.2338513 56.8293073 74.2338513 57.662656 73.6699522 58.2182219 72.9650783 58.3571133 71.9782548 58.3571133 69.8636331 58.0793304 68.3129106 56.13485 68.1719358 55.9959585 68.030961 55.7181756 67.8899862 55.5792841 67.8899862 55.7181756 67.7490115 55.7181756 67.7490115 55.857067 65.7753645 58.9126791 53.5105588 60.3015937 48.1535172 60.7182681z"/>
          <g fill="#363959" transform="translate(61.46 44.778)">
            <path d="M1.69169735,3.39747213 C0.563899116,4.09192942 6.76678939,7.14754152 7.61263807,7.14754152 C8.88141108,7.14754152 15.0843014,4.5086038 14.8023518,2.42523191 C14.661377,1.31410024 5.92094072,0.619642944 1.69169735,3.39747213 Z"/>
            <path d="M7.61263807,8.53645612 C6.48483983,8.53645612 0.845848674,6.03640985 0.281949558,4.09192942 C0.140974779,3.39747213 0.281949558,2.70301483 0.986823453,2.28634045 C4.93411727,-0.35259727 12.6877301,-0.213705811 15.0843014,0.758534403 C16.0711248,1.17520878 16.2120996,1.73077462 16.3530744,2.28634045 C16.4940491,3.11968921 16.0711248,3.95303796 15.3662509,4.78638672 C13.5335788,6.59197569 9.16336064,8.53645612 7.61263807,8.53645612 Z M3.80631903,3.8141465 C5.07509204,4.5086038 7.04873895,5.48084401 7.61263807,5.61973547 C8.7404363,5.48084401 11.8418814,4.09192942 12.9696797,2.98079775 C11.1370075,2.70301483 6.90776417,2.56412337 3.80631903,3.8141465 Z"/>
          </g>
          <g transform="translate(48.663 58.016)">
            <path fill="#FF1AD9" d="M1.54132425,2.22226335 L0.413526018,5.69454983 C-0.573297435,8.61127047 1.11839991,11.805774 4.07887027,12.6391228 C7.03934063,13.611363 10.2817605,11.9446655 11.1276092,9.02794484 L13.9471048,0.277782918 L1.54132425,2.22226335 Z"/>
            <polygon fill="#E100BB" points="13.234 2.491 .807 4.482 1.541 2.222 13.947 .278"/>
          </g>
          <path fill="#E100BB" d="M53.8998654,67.5978548 L53.6179158,67.5978548 C53.1949915,67.4589633 53.0540167,67.0422889 53.1949915,66.764506 L55.3096132,60.3754989 C55.4505879,59.9588245 55.8735123,59.8199331 56.1554618,59.9588245 C56.5783862,60.097716 56.719361,60.5143903 56.5783862,60.7921733 L54.4637645,67.1811804 C54.4637645,67.4589633 54.1818149,67.5978548 53.8998654,67.5978548 Z"/>
          <path fill="#009EC0" d="M23.0771182,56.7548393 C23.0771182,56.7548393 23.7819921,62.3104976 27.3063616,65.3661097 C30.830731,68.4217218 22.7951686,73.00514 23.0771182,79.9497129 C23.5000425,87.0331774 23.0771182,56.7548393 23.0771182,56.7548393 Z"/>
        </g>
        <path stroke="#009EC0" stroke-linecap="round" stroke-width="7.2" d="M252.248446,49.0904134 C254.192231,80.0583751 250.077939,101.2967 239.905571,112.805389" transform="rotate(86 246.31 80.948)"/>
      </g>
      <g transform="translate(192 113)">
        <rect width="259" height="169" x="21" y="-5" fill="#E9FDFF" fill-rule="nonzero" stroke="#3E3D40" stroke-linecap="round" stroke-linejoin="round" stroke-width="10"/>
        <rect width="259" height="10" x="21" y="149" fill="#3E3D40" fill-rule="nonzero"/>
        <path fill="#DDD" fill-rule="nonzero" d="M0,159 L300,159 L300,162.93024 C300,169.596185 294.359444,175 287.401464,175 L12.5985358,175 C5.64055659,175 8.52106695e-16,169.596185 0,162.93024 L0,159 Z"/>
        <g transform="translate(26)">
          <mask id="onboarding-home-u" fill="#fff">
            <use xlink:href="#onboarding-home-t"/>
          </mask>
          <use fill="#CDE7FA" fill-rule="nonzero" xlink:href="#onboarding-home-t"/>
          <mask id="onboarding-home-w" fill="#fff">
            <use xlink:href="#onboarding-home-v"/>
          </mask>
          <g mask="url(#onboarding-home-w)">
            <g transform="translate(-57.74 -101.495)">
              <g fill-rule="nonzero" transform="translate(0 71.367)">
                <rect width="114.063" height="112.365" fill="#80C4CC"/>
                <rect width="114.063" height="34.924" y="77.441" fill="#90DCE5"/>
              </g>
              <g fill-rule="nonzero" transform="translate(258.543 71.367)">
                <rect width="114.063" height="112.365" fill="#80C4CC"/>
                <path fill="#3E3D40" d="M36.9897449,49.8492773 L34.1373019,49.8492773 C33.9621619,48.9989953 33.6245549,48.1905138 33.1430218,47.4681665 L35.166898,45.4442903 C35.6816553,44.9113181 35.6742797,44.0641426 35.1503402,43.5402031 C34.6264008,43.0162637 33.7792252,43.0088881 33.246253,43.5236454 L31.2223768,45.5475216 C30.4997172,45.0653772 29.6907494,44.7273084 28.8399077,44.5518831 L28.8399077,41.6994401 C28.8399077,40.9492748 28.2317737,40.341134 27.4816016,40.341134 C26.7314294,40.341134 26.1232954,40.9492748 26.1232954,41.6994401 L26.1232954,44.5518831 C25.2730256,44.7270639 24.4645441,45.0646573 23.7421846,45.5461633 L21.7183084,43.522287 C21.1874864,42.9923575 20.3276419,42.9928736 19.7974529,43.5234416 C19.2672653,44.053996 19.267359,44.9138446 19.7976634,45.4442903 L21.8215397,47.4681665 C21.3395271,48.1904051 21.0014623,48.9988988 20.8259012,49.8492773 L17.9734582,49.8492773 C17.2232864,49.8492773 16.615152,50.4574113 16.615152,51.2075835 C16.615152,51.9577556 17.2232865,52.5658897 17.9734582,52.5658897 L20.8259012,52.5658897 C21.0014895,53.4213794 21.3414681,54.2346517 21.8269729,54.9605835 C21.8079566,54.9782414 21.7835071,54.983676 21.7658491,55.0013326 L19.7963051,56.9708766 C19.4431985,57.3119106 19.3015829,57.8169357 19.4258883,58.291843 C19.5501936,58.7667516 19.9210751,59.1376331 20.3959824,59.2619385 C20.8708897,59.3862425 21.3759147,59.2446269 21.7169501,58.8915216 L23.6864941,56.9219776 C23.704152,56.9043196 23.7109436,56.8798701 23.7272433,56.8608538 C24.453482,57.3470011 25.2672351,57.6874483 26.1232954,57.8632851 L26.1232954,60.7157268 C26.1232954,61.4658992 26.7314294,62.074033 27.4816016,62.074033 C28.2317737,62.074033 28.8399077,61.4658978 28.8399077,60.7157268 L28.8399077,57.8632838 C29.6901789,57.6881058 30.4986577,57.3505069 31.2210185,56.8690023 L33.2448947,58.8928785 C33.7778669,59.4076236 34.6250425,59.4002534 35.1489819,58.8763153 C35.6729078,58.3523786 35.6802834,57.5052071 35.1655397,56.9722336 L33.1416634,54.9483587 C33.623835,54.2257113 33.9619038,53.4167422 34.1373019,52.5658897 L36.9897449,52.5658897 C37.7399102,52.5658897 38.3480511,51.9577556 38.3480511,51.2075835 C38.3480511,50.4574113 37.7399238,49.8492773 36.9897449,49.8492773 Z M23.406683,51.2075835 C23.406683,48.9570684 25.2310852,47.1326649 27.4816016,47.1326649 C29.732118,47.1326649 31.5565201,48.9570698 31.5565201,51.2075835 C31.5565201,53.4580999 29.7321166,55.282502 27.4816016,55.282502 C25.2310865,55.282502 23.406683,53.4580999 23.406683,51.2075835 Z"/>
                <rect width="114.063" height="112.365" y="128" fill="#80C4CC"/>
                <rect width="114.063" height="34.924" y="77.441" fill="#90DCE5"/>
              </g>
              <g fill-rule="nonzero" transform="translate(0 199)">
                <rect width="114.063" height="112.365" fill="#80C4CC"/>
                <rect width="114.063" height="34.924" y="77.441" fill="#5E5E5E"/>
              </g>
              <rect width="114.063" height="34.924" y=".441" fill="#5E5E5E" fill-rule="nonzero" transform="translate(258.543 275.916)"/>
              <g fill-rule="nonzero" transform="translate(129.271 255.099)">
                <rect width="114.063" height="112.365" fill="#80C4CC"/>
                <rect width="114.063" height="34.924" y="77.441" fill="#5E5E5E"/>
              </g>
              <g fill-rule="nonzero" transform="translate(129.271)">
                <rect width="114.063" height="112.365" fill="#545454"/>
                <rect width="114.063" height="34.924" y="77.441" fill="#90DCE5"/>
              </g>
              <g transform="translate(129.271 127.55)">
                <rect width="114.063" height="40.239" fill="#FFF" fill-rule="nonzero" rx="1.68" transform="translate(0 72.126)"/>
                <g fill="#3E3D40" fill-rule="nonzero" transform="translate(20.25 84.274)">
                  <path d="M7.39070583 11.2492023L7.39070583 1.17352941C7.39070583.525407014 7.97141885 8.8817842e-16 8.6877647 8.8817842e-16 9.4041105 8.8817842e-16 9.9848235.525407014 9.9848235 1.17352941L9.9848235 11.2492023 14.2558997 7.38489528C14.7624327 6.92660353 15.5836849 6.92660353 16.0902179 7.38489528 16.5967508 7.84318702 16.5967508 8.58622474 16.0902179 9.04451649L9.6049237 14.9121635C9.0983908 15.3704553 8.2771385 15.3704553 7.77060557 14.9121635L1.28531145 9.04451649C.77877847 8.58622474.77877847 7.84318702 1.28531145 7.38489528 1.79184443 6.92660353 2.61309665 6.92660353 3.11962963 7.38489528L7.39070583 11.2492023zM2.20247054 18.7764706C1.48612473 18.7764706.90541172 18.2510636.90541172 17.6029412.90541172 16.9548188 1.48612473 16.4294118 2.20247054 16.4294118L15.1730588 16.4294118C15.8894046 16.4294118 16.4701176 16.9548188 16.4701176 17.6029412 16.4701176 18.2510636 15.8894046 18.7764706 15.1730588 18.7764706L2.20247054 18.7764706zM57.3127036 11.5992369C57.3127036 10.9577991 57.8468438 10.4393132 58.5076482 10.4393132 59.1684525 10.4393132 59.7025927 10.9577991 59.7025927 11.5992369L59.7025927 15.079008C59.7025927 15.7204458 60.236733 16.2389317 60.8975373 16.2389317L70.4570939 16.2389317C71.1178983 16.2389317 71.6520385 15.7204458 71.6520385 15.079008L71.6520385 11.5992369C71.6520385 10.9577991 72.1861787 10.4393132 72.8469831 10.4393132 73.5077874 10.4393132 74.0419277 10.9577991 74.0419277 11.5992369L74.0419277 16.2389317C74.0419277 17.5194874 72.9712573 18.5587791 71.6520385 18.5587791L59.7025927 18.5587791C58.3833739 18.5587791 57.3127036 17.5194874 57.3127036 16.2389317L57.3127036 11.5992369zM66.8722602 3.96901117L66.8722602 12.7913908C66.8722602 13.4319989 66.3372653 13.9513145 65.6773156 13.9513145 65.017366 13.9513145 64.482371 13.4319989 64.482371 12.7913908L64.482371 3.96147167 61.7339985 6.62929616C61.2674141 7.08236625 60.5107976 7.08249606 60.0440482 6.6295861 59.5772988 6.17667614 59.577165 5.44223419 60.0437494 4.98916406L64.8336848.339609944C65.3003104-.113203315 66.0567107-.113203315 66.5233364.339609944 66.5346884.350629219 66.5406631.364548303 66.5514176.37614754L71.3216363 5.00656291C71.7883856 5.45963306 71.7883855 6.19420476 71.3216362 6.64727482 70.8548868 7.10034489 70.0981367 7.10034496 69.6313872 6.64727497L66.8722602 3.96901117z"/>
                </g>
                <rect width="114.063" height="76.682" fill="url(#onboarding-home-c)" fill-rule="nonzero"/>
                <mask id="onboarding-home-y" fill="#fff">
                  <use xlink:href="#onboarding-home-x"/>
                </mask>
                <g mask="url(#onboarding-home-y)">
                  <g transform="translate(3 23)">
                    <path fill="#000" fill-rule="nonzero" d="M35.4229797,8.1975604 L0.7565623,8.1975604 C0.7565623,8.1975604 4.76891059,7.3561544 12.324895,5.8483948 C19.8808794,4.3406352 22.424413,-0.0079466 25.34497,0.5294104 C28.265527,1.0667673 32.8580946,3.4992292 35.4229797,8.1975604 Z"/>
                    <path fill="url(#onboarding-home-f)" d="M35.4229797,8.1975604 L0.7565623,8.1975604 C0.7565623,8.1975604 4.76891059,7.3561544 12.324895,5.8483948 C19.8808794,4.3406352 22.424413,-0.0079466 25.34497,0.5294104 C28.265527,1.0667673 32.8580946,3.4992292 35.4229797,8.1975604 Z"/>
                  </g>
                </g>
                <mask id="onboarding-home-A" fill="#fff">
                  <use xlink:href="#onboarding-home-z"/>
                </mask>
                <g mask="url(#onboarding-home-A)">
                  <g transform="translate(97 8)">
                    <path fill="#000" fill-rule="nonzero" d="M40.118116,9.4043888 L0.6706197,9.4043888 C0.6706197,9.4043888 5.236338,8.4469388 13.834419,6.7312339 C22.4325,5.0155291 25.32683,0.06720507 28.65018,0.6786725 C31.973531,1.29013994 37.199491,4.058079 40.118116,9.4043888 Z"/>
                    <path fill="url(#onboarding-home-f)" d="M40.118116,9.4043888 L0.6706197,9.4043888 C0.6706197,9.4043888 5.236338,8.4469388 13.834419,6.7312339 C22.4325,5.0155291 25.32683,0.06720507 28.65018,0.6786725 C31.973531,1.29013994 37.199491,4.058079 40.118116,9.4043888 Z"/>
                  </g>
                </g>
                <mask id="onboarding-home-C" fill="#fff">
                  <use xlink:href="#onboarding-home-B"/>
                </mask>
                <g mask="url(#onboarding-home-C)">
                  <g transform="translate(92 9)">
                    <path fill="#000" fill-rule="nonzero" d="M10.183631,2.6532763 L0.8895404,2.6532763 C0.8895404,2.6532763 1.9652537,2.4276947 3.9910183,2.0234634 C6.0167829,1.619232 6.698706,0.45337424 7.4817093,0.59744 C8.264713,0.74150576 9.495983,1.3936505 10.183631,2.6532763 Z"/>
                    <path fill="url(#onboarding-home-f)" d="M10.183631,2.6532763 L0.8895404,2.6532763 C0.8895404,2.6532763 1.9652537,2.4276947 3.9910183,2.0234634 C6.0167829,1.619232 6.698706,0.45337424 7.4817093,0.59744 C8.264713,0.74150576 9.495983,1.3936505 10.183631,2.6532763 Z"/>
                  </g>
                </g>
                <g>
                  <mask id="onboarding-home-E" fill="#fff">
                    <use xlink:href="#onboarding-home-D"/>
                  </mask>
                  <g mask="url(#onboarding-home-E)">
                    <g transform="translate(-7 35)">
                      <path fill="#000" fill-rule="nonzero" d="M77.008661,44.0777976 C67.5940727,34.6902055 47.8812726,14.6794465 36.7109927,6.2163067 C32.4839847,3.0137227 31.9299134,3.3407503 27.4903398,0.9444535 C19.1411091,-3.5621134 0.85289806,26.8244596 0.85289806,26.8244596 L2.56042638,48.8703911 C2.56042638,48.8703911 89.9858762,57.0178009 77.008661,44.0777976 Z"/>
                      <path fill="url(#onboarding-home-m)" fill-opacity=".54" d="M77.008661,44.0777976 C67.5940727,34.6902055 47.8812726,14.6794465 36.7109927,6.2163067 C32.4839847,3.0137227 31.9299134,3.3407503 27.4903398,0.9444535 C19.1411091,-3.5621134 0.85289806,26.8244596 0.85289806,26.8244596 L2.56042638,48.8703911 C2.56042638,48.8703911 89.9858762,57.0178009 77.008661,44.0777976 Z"/>
                    </g>
                  </g>
                </g>
                <g>
                  <mask id="onboarding-home-G" fill="#fff">
                    <use xlink:href="#onboarding-home-F"/>
                  </mask>
                  <g mask="url(#onboarding-home-G)">
                    <g transform="translate(8 44)">
                      <path fill="#000" fill-rule="nonzero" d="M48.0199502,11.3263668 L0.87914724,11.3263668 C0.87914724,11.3263668 19.9711986,8.2870427 26.8400887,6.0545136 C33.7089789,3.8219846 37.0262428,-0.4232429 43.5803773,0.7826605 C50.1345119,1.9885638 48.0199502,11.3263668 48.0199502,11.3263668 Z"/>
                      <path fill="url(#onboarding-home-f)" d="M48.0199502,11.3263668 L0.87914724,11.3263668 C0.87914724,11.3263668 19.9711986,8.2870427 26.8400887,6.0545136 C33.7089789,3.8219846 37.0262428,-0.4232429 43.5803773,0.7826605 C50.1345119,1.9885638 48.0199502,11.3263668 48.0199502,11.3263668 Z"/>
                    </g>
                  </g>
                </g>
                <g>
                  <mask id="onboarding-home-I" fill="#fff">
                    <use xlink:href="#onboarding-home-H"/>
                  </mask>
                  <g mask="url(#onboarding-home-I)">
                    <g transform="translate(24 40)">
                      <path fill="#000" fill-rule="nonzero" d="M9.882498,2.3258766 L0.5884077,2.3258766 C0.5884077,2.3258766 1.6641211,2.100295 3.6898857,1.6960637 C5.7156503,1.2918323 6.3975734,0.1259745 7.1805767,0.2700403 C7.96358,0.414106 9.1948505,1.0662507 9.882498,2.3258766 Z"/>
                      <path fill="url(#onboarding-home-f)" d="M9.882498,2.3258766 L0.5884077,2.3258766 C0.5884077,2.3258766 1.6641211,2.100295 3.6898857,1.6960637 C5.7156503,1.2918323 6.3975734,0.1259745 7.1805767,0.2700403 C7.96358,0.414106 9.1948505,1.0662507 9.882498,2.3258766 Z"/>
                    </g>
                  </g>
                </g>
                <g>
                  <mask id="onboarding-home-K" fill="#fff">
                    <use xlink:href="#onboarding-home-J"/>
                  </mask>
                  <g mask="url(#onboarding-home-K)">
                    <g transform="translate(19 12)">
                      <path fill="#000" fill-rule="nonzero" d="M52.788936,2.1071496 C54.258442,-1.3387267 62.9613592,3.5312438 71.1574951,7.82249 C79.353631,12.1137363 120.675816,64.6815007 120.675816,64.6815007 L0.4658228,64.6815007 C0.4658228,64.6815007 44.861559,20.6962274 52.788936,2.1071496 Z"/>
                      <path fill="url(#onboarding-home-m)" d="M52.788936,2.1071496 C54.258442,-1.3387267 62.9613592,3.5312438 71.1574951,7.82249 C79.353631,12.1137363 120.675816,64.6815007 120.675816,64.6815007 L0.4658228,64.6815007 C0.4658228,64.6815007 44.861559,20.6962274 52.788936,2.1071496 Z"/>
                    </g>
                  </g>
                </g>
                <g fill-rule="nonzero" transform="translate(71.48 6.074)">
                  <ellipse cx="18.25" cy="18.221" fill="#FFF" rx="18.25" ry="18.221"/>
                  <path fill="#555" stroke="#FFF" stroke-width="2" d="M32.6114587,45.845195 L32.6114587,53.8360528 C32.6114587,55.4958801 31.274933,56.8393477 29.6139196,56.8393477 L29.5180457,56.8393477 C27.8616409,56.8393477 26.5205066,55.4948084 26.5205066,53.8360528 L26.5205066,45.845195 L24.2716392,45.845195 C22.4462909,45.845195 21.4243682,44.2915014 22.1506556,42.6095726 L27.8537262,29.4024618 C28.6402381,27.5810657 30.4885946,27.5738114 31.2782391,29.4024618 L36.9813097,42.6095726 C37.7048323,44.2850986 36.6867143,45.845195 34.8603261,45.845195 L32.6114587,45.845195 Z" transform="rotate(-21 29.565 42.437)"/>
                  <path fill="#B5007F" d="M25.6470036,11.6650843 C23.7787142,10.0857656 21.0001452,10.3698401 19.2852737,12.1250143 L18.6136441,12.8115276 L17.9420145,12.1250143 C16.2305524,10.3698401 13.448574,10.0857656 11.5802846,11.6650843 C9.43925226,13.4777498 9.32674578,16.7310786 11.2427652,18.6959269 L17.8397359,25.4528405 C18.2658968,25.8890977 18.9579821,25.8890977 19.384143,25.4528405 L25.9811138,18.6959269 C27.9005425,16.7310786 27.788036,13.4777498 25.6470036,11.6650843 Z"/>
                </g>
              </g>
              <g fill-rule="nonzero" transform="matrix(-1 0 0 1 281 193)">
                <path fill="#FFC44D" d="M29.0792225,5.85967018 C26.3051525,5.1563266 24.1278797,2.97791522 23.4249038,0.202394443 C23.3577794,-0.0674648143 23.0099527,-0.0674648143 22.9428283,0.202394443 C22.2398524,2.97791522 20.0625796,5.1563266 17.2885096,5.85967018 C17.0187914,5.92682973 17.0187914,6.27361719 17.2885096,6.34199782 C20.0625796,7.0453414 22.2398524,9.22375274 22.9428283,11.9992735 C23.0099527,12.2691328 23.3577794,12.2691328 23.4249038,11.9992735 C24.1278797,9.22375274 26.3051525,7.0453414 29.0792225,6.34199782 C29.3489406,6.27361719 29.3489406,5.92682973 29.0792225,5.85967018"/>
                <path fill="#FA0" d="M49.2504216,17.6754761 C44.3564397,16.432414 40.5034969,12.5774561 39.2610846,7.6809149 C39.1353788,7.20835593 38.528818,7.20835593 38.4128758,7.6809149 C37.1802269,12.5774561 33.3272841,16.432414 28.4235388,17.6657074 C27.9524472,17.7914789 27.9524472,18.398357 28.4235388,18.5143598 C33.3175206,19.7574219 37.1704634,23.6123798 38.4128758,28.508921 C38.5385815,28.98148 39.1451424,28.98148 39.2610846,28.508921 C40.5034969,23.6123798 44.3564397,19.7574219 49.2504216,18.5143598 C49.7227336,18.398357 49.7227336,17.7914789 49.2504216,17.6754761"/>
                <path fill="#FFC44D" d="M31.6705309,32.5711576 C24.3490852,30.7212175 18.5885879,24.9479388 16.7298511,17.6226642 C16.5565481,16.9193207 15.6509784,16.9193207 15.4679117,17.6226642 C13.617718,24.9479388 7.84867763,30.7114488 0.52723196,32.5711576 C-0.175743987,32.7445513 -0.175743987,33.6505947 0.52723196,33.833757 C7.84867763,35.6836972 13.609175,41.4569757 15.4679117,48.7822503 C15.6412148,49.4855939 16.5467845,49.4855939 16.7298511,48.7822503 C18.5788243,41.4569757 24.3490852,35.6934658 31.6705309,33.833757 C32.3735069,33.6505947 32.3735069,32.7445513 31.6705309,32.5711576"/>
              </g>
            </g>
          </g>
        </g>
      </g>
      <path stroke="#009EC0" stroke-linecap="round" stroke-width="7.2" d="M320.573299,69.2767208 C330.16528,100.517708 327.046155,122.774147 311.215923,136.046038" transform="rotate(24 318.609 102.661)"/>
    </g>
  </g>
</svg>
