<?xml version="1.0" encoding="UTF-8" standalone="no"?>
<svg width="446px" height="644px" viewBox="0 0 446 644" version="1.1" xmlns="http://www.w3.org/2000/svg" xmlns:xlink="http://www.w3.org/1999/xlink">
    <!-- Generator: Sketch 47.1 (45422) - http://www.bohemiancoding.com/sketch -->
    <title>bg_texture</title>
    <desc>Created with Sketch.</desc>
    <defs></defs>
    <g id="Final" stroke="none" stroke-width="1" fill="none" fill-rule="evenodd" opacity="0.250116604">
        <g id="Final_Main-view_tab1_Default" transform="translate(-754.000000, 0.000000)" fill="#FFFFFF">
            <g id="bg_texture" transform="translate(1124.000000, 274.500000) rotate(-45.000000) translate(-1124.000000, -274.500000) translate(783.000000, 93.000000)">
                <rect id="Rectangle-9" x="0" y="0" width="681.901374" height="5"></rect>
                <rect id="Rectangle-9-Copy" x="0" y="12.3448276" width="681.901374" height="5"></rect>
                <rect id="Rectangle-9-Copy-2" x="0" y="24.6896552" width="681.901374" height="5"></rect>
                <rect id="Rectangle-9-Copy-3" x="0" y="37.0344828" width="681.901374" height="5"></rect>
                <rect id="Rectangle-9-Copy-4" x="0" y="49.3793103" width="681.901374" height="5"></rect>
                <rect id="Rectangle-9-Copy-5" x="0" y="61.7241379" width="681.901374" height="5"></rect>
                <rect id="Rectangle-9-Copy-6" x="0" y="74.0689655" width="681.901374" height="5"></rect>
                <rect id="Rectangle-9-Copy-7" x="0" y="86.4137931" width="681.901374" height="5"></rect>
                <rect id="Rectangle-9-Copy-8" x="0" y="98.7586207" width="681.901374" height="5"></rect>
                <rect id="Rectangle-9-Copy-9" x="0" y="111.103448" width="681.901374" height="5"></rect>
                <rect id="Rectangle-9-Copy-10" x="0" y="123.448276" width="681.901374" height="5"></rect>
                <rect id="Rectangle-9-Copy-11" x="0" y="135.793103" width="681.901374" height="5"></rect>
                <rect id="Rectangle-9-Copy-12" x="0" y="148.137931" width="681.901374" height="5"></rect>
                <rect id="Rectangle-9-Copy-13" x="0" y="160.482759" width="681.901374" height="5"></rect>
                <rect id="Rectangle-9-Copy-14" x="0" y="172.827586" width="681.901374" height="5"></rect>
                <rect id="Rectangle-9-Copy-15" x="0" y="185.172414" width="681.901374" height="5"></rect>
                <rect id="Rectangle-9-Copy-16" x="0" y="197.517241" width="681.901374" height="5"></rect>
                <rect id="Rectangle-9-Copy-17" x="0" y="209.862069" width="681.901374" height="5"></rect>
                <rect id="Rectangle-9-Copy-18" x="0" y="222.206897" width="681.901374" height="5"></rect>
                <rect id="Rectangle-9-Copy-19" x="0" y="234.551724" width="681.901374" height="5"></rect>
                <rect id="Rectangle-9-Copy-20" x="0" y="246.896552" width="681.901374" height="5"></rect>
                <rect id="Rectangle-9-Copy-21" x="0" y="259.241379" width="681.901374" height="5"></rect>
                <rect id="Rectangle-9-Copy-22" x="0" y="271.586207" width="681.901374" height="5"></rect>
                <rect id="Rectangle-9-Copy-23" x="0" y="283.931034" width="681.901374" height="5"></rect>
                <rect id="Rectangle-9-Copy-24" x="0" y="296.275862" width="681.901374" height="5"></rect>
                <rect id="Rectangle-9-Copy-25" x="0" y="308.62069" width="681.901374" height="5"></rect>
                <rect id="Rectangle-9-Copy-26" x="0" y="320.965517" width="681.901374" height="5"></rect>
                <rect id="Rectangle-9-Copy-27" x="0" y="333.310345" width="681.901374" height="5"></rect>
                <rect id="Rectangle-9-Copy-28" x="0" y="345.655172" width="681.901374" height="5"></rect>
                <rect id="Rectangle-9-Copy-29" x="0" y="358" width="681.901374" height="5"></rect>
            </g>
        </g>
    </g>
</svg>