<?xml version="1.0" encoding="UTF-8" standalone="no"?>
<svg width="20px" height="21px" viewBox="0 0 20 21" version="1.1" xmlns="http://www.w3.org/2000/svg" xmlns:xlink="http://www.w3.org/1999/xlink">
    <!-- Generator: Sketch 47.1 (45422) - http://www.bohemiancoding.com/sketch -->
    <title>check</title>
    <desc>Created with Sketch.</desc>
    <defs>
        <circle id="path-1" cx="8" cy="8" r="8"></circle>
        <filter x="-34.4%" y="-28.1%" width="168.8%" height="168.8%" filterUnits="objectBoundingBox" id="filter-2">
            <feMorphology radius="2" operator="dilate" in="SourceAlpha" result="shadowSpreadOuter1"></feMorphology>
            <feOffset dx="0" dy="1" in="shadowSpreadOuter1" result="shadowOffsetOuter1"></feOffset>
            <feGaussianBlur stdDeviation="1" in="shadowOffsetOuter1" result="shadowBlurOuter1"></feGaussianBlur>
            <feComposite in="shadowBlurOuter1" in2="SourceAlpha" operator="out" result="shadowBlurOuter1"></feComposite>
            <feColorMatrix values="0 0 0 0 0   0 0 0 0 0   0 0 0 0 0  0 0 0 0.5 0" type="matrix" in="shadowBlurOuter1"></feColorMatrix>
        </filter>
    </defs>
    <g id="Final" stroke="none" stroke-width="1" fill="none" fill-rule="evenodd">
        <g id="Final_Main-view_toolbar-bg-pattern" transform="translate(-400.000000, -324.000000)">
            <g id="panel_left" transform="translate(0.000000, 200.000000)">
                <g id="TAB_single-line">
                    <g id="panel_bg-pattern" transform="translate(319.000000, 69.000000)">
                        <g id="check" transform="translate(83.000000, 57.000000)">
                            <g id="Oval-3-Copy">
                                <use fill="black" fill-opacity="1" filter="url(#filter-2)" xlink:href="#path-1"></use>
                                <use fill="#0088E7" fill-rule="evenodd" xlink:href="#path-1"></use>
                                <circle stroke="#FFFFFF" stroke-width="2" cx="8" cy="8" r="9"></circle>
                            </g>
                            <path d="M7.02171913,10.8563168 C6.84556017,10.85628 6.67657483,10.7865286 6.55167814,10.6622999 L4.20480685,8.32876306 C4.03107977,8.16184171 3.96091898,7.91418031 4.02128378,7.68094238 C4.08164851,7.44770444 4.26314754,7.26517566 4.49604024,7.20349228 C4.72893288,7.1418089 4.97698724,7.21056736 5.14488882,7.38334729 L7.01971895,9.25017673 L10.8693879,5.38783997 C11.1306352,5.13477457 11.5465009,5.1377881 11.8040533,5.39461289 C12.0616057,5.65143775 12.0657957,6.06729328 11.8134703,6.32925539 L7.49376029,10.6629666 C7.36826381,10.7874407 7.19847527,10.8569869 7.02171913,10.8563168 Z" id="Shape" fill="#FFFFFF" fill-rule="nonzero"></path>
                        </g>
                    </g>
                </g>
            </g>
        </g>
    </g>
</svg>