<?xml version="1.0" encoding="UTF-8" standalone="no"?>
<svg width="22px" height="14px" viewBox="0 0 22 14" version="1.1" xmlns="http://www.w3.org/2000/svg" xmlns:xlink="http://www.w3.org/1999/xlink">
    <!-- Generator: Sketch 47.1 (45422) - http://www.bohemiancoding.com/sketch -->
    <title>icon_undo</title>
    <desc>Created with Sketch.</desc>
    <defs></defs>
    <g id="Final" stroke="none" stroke-width="1" fill="none" fill-rule="evenodd">
        <g id="Final_Main-view_tab1_Default" transform="translate(-410.000000, -621.000000)" fill="#0C0C0D">
            <g id="panel+left" transform="translate(0.000000, 200.000000)">
                <g id="TAB_single-line">
                    <g id="Group-3" transform="translate(374.000000, 92.000000)">
                        <g id="options" transform="translate(29.000000, 318.000000)">
                            <g id="icon_undo">
                                <g id="Group-10">
                                    <path d="M29.0521183,22.2419763 L29.0718618,22.2395644 C28.3047799,17.1251291 23.8579427,13.201586 18.4870004,13.201586 C14.0464,13.201586 10.2374895,15.8835986 8.6176595,19.7032311 L11.2998094,20.266891 C12.6150599,17.6513581 15.3394502,15.8547163 18.4870004,15.8547163 C22.4541266,15.8547163 25.7490332,18.70881 26.3975793,22.4593331 C26.4202542,23.1721976 27.0082256,23.743165 27.7302339,23.743165 C28.4666136,23.743165 29.0635673,23.1492415 29.0635673,22.4165998 C29.0635673,22.3574065 29.0596705,22.2991186 29.0521183,22.2419763 Z" id="Combined-Shape" transform="translate(18.844761, 18.472376) rotate(7.000000) translate(-18.844761, -18.472376) "></path>
                                    <path d="M10.5963742,18.54875 L10.5963742,12.9226924 C10.5963742,12.3704077 10.148659,11.9226924 9.5963742,11.9226924 L9.5963742,11.9226924 L8.92970754,11.9226924 L8.92970754,11.9226924 C8.37742279,11.9226924 7.92970754,12.3704077 7.92970754,12.9226924 L7.92970754,12.9226924 L7.92970754,20.2086484 C7.92970754,20.6697685 8.24181471,21.057992 8.66630452,21.1735944 C8.75723886,21.2008012 8.85361073,21.2154166 8.9533962,21.2154166 L16.2393522,21.2154166 C16.791637,21.2154166 17.2393522,20.7677014 17.2393522,20.2154166 L17.2393522,19.54875 C17.2393522,18.9964652 16.791637,18.54875 16.2393522,18.54875 L10.5963742,18.54875 Z" id="Combined-Shape" transform="translate(12.584530, 16.569055) rotate(-347.000000) translate(-12.584530, -16.569055) "></path>
                                </g>
                            </g>
                        </g>
                    </g>
                </g>
            </g>
        </g>
    </g>
</svg>