<?xml version="1.0" encoding="UTF-8" standalone="no"?>
<svg width="107px" height="31px" viewBox="0 0 107 31" version="1.1" xmlns="http://www.w3.org/2000/svg" xmlns:xlink="http://www.w3.org/1999/xlink">
    <!-- Generator: Sketch 43.2 (39069) - http://www.bohemiancoding.com/sketch -->
    <title>Moz logo</title>
    <desc>Created with Sketch.</desc>
    <defs></defs>
    <g id="Landing-page" stroke="none" stroke-width="1" fill="none" fill-rule="evenodd">
        <g id="Landing-Page_Desktop" transform="translate(-222.000000, -3754.000000)" fill-rule="nonzero">
            <g id="Footer" transform="translate(0.000000, 3717.000000)">
                <g id="Group" transform="translate(222.000000, 35.000000)">
                    <g id="Moz-logo" transform="translate(0.000000, 2.000000)">
                        <rect id="Rectangle-path" fill="#000000" x="0" y="0.238461538" width="107" height="30.6721154"></rect>
                        <path d="M102.185,22.2663462 C101.976944,22.3259615 101.798611,22.3557692 101.620278,22.3557692 C100.996111,22.3557692 100.698889,22.0875 100.698889,21.3125 L100.698889,15.5 C100.698889,12.4298077 98.2616667,10.9394231 95.3786111,10.9394231 C93.1791667,10.9394231 91.9902778,11.2076923 89.6422222,12.1615385 L89.1666667,15.2615385 L92.2280556,15.5894231 L92.6738889,14.0692308 C93.2980556,13.7413462 93.9222222,13.6817308 94.7247222,13.6817308 C96.8944444,13.6817308 96.9241667,15.3211538 96.9241667,16.6923077 L96.9241667,17.1394231 C96.2405556,17.05 95.4677778,17.0201923 94.7247222,17.0201923 C91.6633333,17.0201923 88.4830556,17.7951923 88.4830556,21.1038462 C88.4830556,23.9057692 90.6825,24.9490385 92.6144444,24.9490385 C94.7841667,24.9490385 96.1513889,23.6375 96.9241667,22.2663462 C97.1025,23.9057692 98.0833333,24.9490385 99.8666667,24.9490385 C100.698889,24.9490385 101.560833,24.7105769 102.274167,24.3230769 L102.185,22.2663462 Z M93.9816667,22.1769231 C92.8225,22.1769231 92.4063889,21.4913462 92.4063889,20.6269231 C92.4063889,19.1663462 93.5952778,18.7788462 94.9625,18.7788462 C95.5866667,18.7788462 96.2702778,18.8682692 96.8944444,18.9576923 C96.8052778,21.1932692 95.3488889,22.1769231 93.9816667,22.1769231 Z M88.8397222,4.14326923 L83.0438889,24.6211538 L79.2691667,24.6211538 L85.065,4.14326923 L88.8397222,4.14326923 L88.8397222,4.14326923 Z M81.0525,4.14326923 L75.2566667,24.6211538 L71.4819444,24.6211538 L77.2777778,4.14326923 L81.0525,4.14326923 Z M65.0025,11.2076923 L69.015,11.2076923 L69.015,16.0365385 L65.0025,16.0365385 L65.0025,11.2076923 Z M65.0025,19.8221154 L69.015,19.8221154 L69.015,24.6509615 L65.0025,24.6509615 L65.0025,19.8221154 Z M59.1472222,19.6432692 L62.1788889,19.9413462 L61.3466667,24.6509615 L49.6658333,24.6509615 L49.2794444,22.6240385 L56.6505556,14.1288462 L52.4597222,14.1288462 L51.8652778,16.2153846 L49.1011111,15.9173077 L49.5766667,11.2076923 L61.3169444,11.2076923 L61.6141667,13.2346154 L54.1836111,21.7298077 L58.5230556,21.7298077 L59.1472222,19.6432692 Z M39.9763889,10.9394231 C35.1613889,10.9394231 32.7836111,14.1884615 32.7836111,18.1230769 C32.7836111,22.4153846 35.6369444,24.9490385 39.7683333,24.9490385 C44.0483333,24.9490385 47.1394444,22.2365385 47.1394444,17.9442308 C47.1394444,14.1884615 44.7913889,10.9394231 39.9763889,10.9394231 Z M39.8872222,21.9682692 C37.8066667,21.9682692 36.7366667,20.1798077 36.7366667,17.8548077 C36.7366667,15.3211538 37.9552778,13.8605769 39.9169444,13.8605769 C41.73,13.8605769 43.1863889,15.0826923 43.1863889,17.7951923 C43.1863889,20.3884615 41.8786111,21.9682692 39.8872222,21.9682692 Z M29.3358333,21.7 L31.1191667,21.7 L31.1191667,24.6211538 L25.5313889,24.6211538 L25.5313889,17.0798077 C25.5313889,14.7548077 24.7586111,13.8605769 23.2427778,13.8605769 C21.4,13.8605769 20.6569444,15.1721154 20.6569444,17.05 L20.6569444,21.7298077 L22.4402778,21.7298077 L22.4402778,24.6509615 L16.8227778,24.6509615 L16.8227778,17.0798077 C16.8227778,14.7548077 16.05,13.8605769 14.5341667,13.8605769 C12.6913889,13.8605769 11.9483333,15.1721154 11.9483333,17.05 L11.9483333,21.7298077 L14.5044444,21.7298077 L14.5044444,24.6509615 L6.36055556,24.6509615 L6.36055556,21.7298077 L8.14388889,21.7298077 L8.14388889,14.1288462 L6.36055556,14.1288462 L6.36055556,11.2076923 L11.9780556,11.2076923 L11.9780556,13.2346154 C12.7805556,11.8038462 14.1775,10.9394231 16.05,10.9394231 C17.9819444,10.9394231 19.7652778,11.8634615 20.4191667,13.8307692 C21.1622222,12.0423077 22.6780556,10.9394231 24.7883333,10.9394231 C27.1958333,10.9394231 29.3952778,12.4 29.3952778,15.5894231 L29.3952778,21.7 L29.3358333,21.7 Z" id="Shape" fill="#FFFFFF"></path>
                    </g>
                </g>
            </g>
        </g>
    </g>
</svg>