<?xml version="1.0" encoding="UTF-8"?>
<svg width="46px" height="46px" viewBox="0 0 46 46" version="1.1" xmlns="http://www.w3.org/2000/svg" xmlns:xlink="http://www.w3.org/1999/xlink">
    <!-- Generator: Sketch 51.2 (57519) - http://www.bohemiancoding.com/sketch -->
    <title>face</title>
    <desc>Created with Sketch.</desc>
    <defs></defs>
    <g id="Redesign-v1" stroke="none" stroke-width="1" fill="none" fill-rule="evenodd">
        <g id="Survey-Thanks" transform="translate(-587.000000, -561.000000)" fill-rule="nonzero">
            <g id="Group-5" transform="translate(566.000000, 540.000000)">
                <g id="Group-2" transform="translate(21.000000, 21.000000)">
                    <g id="Group-8">
                        <g id="Group-3" transform="translate(1.000000, 1.000000)" stroke="#FFFFFF" stroke-width="2">
                            <path d="M0,6.573136 L0,2 C-1.3527075e-16,0.8954305 0.8954305,-4.2429658e-14 2,-4.26325641e-14 L6.44494278,-4.26325641e-14" id="Path-2"></path>
                            <path d="M0,43.7286916 L0,39.1555556 C-1.3527075e-16,38.0509861 0.8954305,37.1555556 2,37.1555556 L6.44494278,37.1555556" id="Path-2-Copy-2" transform="translate(2.287944, 40.442124) scale(1, -1) translate(-2.287944, -40.442124) "></path>
                            <path d="M39.1111111,6.573136 L39.1111111,2 C39.1111111,0.8954305 40.0065416,-4.2429658e-14 41.1111111,-4.26325641e-14 L45.5560539,-4.26325641e-14" id="Path-2-Copy" transform="translate(41.399056, 3.286568) scale(-1, 1) translate(-41.399056, -3.286568) "></path>
                            <path d="M39.1111111,43.7286916 L39.1111111,39.1555556 C39.1111111,38.0509861 40.0065416,37.1555556 41.1111111,37.1555556 L45.5560539,37.1555556" id="Path-2-Copy-3" transform="translate(41.399056, 40.442124) scale(-1, -1) translate(-41.399056, -40.442124) "></path>
                        </g>
                        <g id="Group-4" transform="translate(10.777778, 12.733333)">
                            <g id="Group-7" transform="translate(0.186243, 0.232804)">
                                <g id="Group-6">
                                    <ellipse id="Oval-2" fill="#FFFFFF" cx="4.46984127" cy="5.21481481" rx="4.46984127" ry="5.21481481"></ellipse>
                                    <circle id="Oval-3" fill="#333333" cx="4.46984127" cy="5.21481481" r="2.23492063"></circle>
                                </g>
                                <g id="Group-6-Copy" transform="translate(14.899471, 0.000000)">
                                    <ellipse id="Oval-2" fill="#FFFFFF" cx="4.46984127" cy="5.21481481" rx="4.46984127" ry="5.21481481"></ellipse>
                                    <circle id="Oval-3" fill="#333333" cx="4.46984127" cy="5.21481481" r="2.23492063"></circle>
                                </g>
                            </g>
                            <path d="M7.50490298,17.6 L7.50490298,17.6 C9.77260805,20.320851 13.8166318,20.6881984 16.5374828,18.4204933 C16.8332038,18.1740234 17.1061323,17.9014276 17.3529629,17.6060075 L17.3579823,17.6" id="Path-3" stroke="#FFFFFF" stroke-width="3" stroke-linecap="round"></path>
                        </g>
                    </g>
                </g>
            </g>
        </g>
    </g>
</svg>