<?xml version="1.0" encoding="UTF-8"?>
<svg width="20px" height="20px" viewBox="0 0 20 20" version="1.1" xmlns="http://www.w3.org/2000/svg" xmlns:xlink="http://www.w3.org/1999/xlink">
    <!-- Generator: Sketch 49.3 (51167) - http://www.bohemiancoding.com/sketch -->
    <title>Glyph/tools/redo</title>
    <desc>Created with Sketch.</desc>
    <defs></defs>
    <g id="Glyph/tools/redo" stroke="none" stroke-width="1" fill="none" fill-rule="evenodd">
        <path d="M18.105,5.441 C17.43,5.453 16.885,5.997 16.874,6.671 L16.873,10.399 C15.549,7.232 12.418,5 8.774,5 C3.936,5 5.35393951e-12,8.931 5.35393951e-12,13.762 C5.35393951e-12,14.452 0.559,15.011 1.25,15.011 C1.94,15.011 2.5,14.452 2.5,13.762 C2.5,10.308 5.314,7.497 8.774,7.497 C11.802,7.497 14.335,9.651 14.92,12.505 L11.039,12.505 C10.346,12.493 9.776,13.045 9.764,13.736 C9.751,14.428 10.303,14.999 10.995,15.01 C11.009,15.011 11.024,15.011 11.039,15.01 L16.296,15.01 L16.297,15.011 L16.298,15.01 L18.126,15.01 C18.817,15.011 19.378,14.451 19.379,13.759 L19.379,6.671 C19.367,5.98 18.796,5.429 18.105,5.441" id="Fill-1" fill="#3E3D40"></path>
    </g>
</svg>