<?xml version="1.0" encoding="UTF-8"?>
<svg width="24px" height="26px" viewBox="0 0 24 26" version="1.1" xmlns="http://www.w3.org/2000/svg" xmlns:xlink="http://www.w3.org/1999/xlink">
    <!-- Generator: Sketch 49.3 (51167) - http://www.bohemiancoding.com/sketch -->
    <title>04a5706e6815a1b26f7bbe69c3d2c85c</title>
    <desc>Created with Sketch.</desc>
    <defs></defs>
    <g id="Symbols" stroke="none" stroke-width="1" fill="none" fill-rule="evenodd">
        <g id="Tools" transform="translate(-165.000000, -37.000000)" fill="#3E3D40" fill-rule="nonzero">
            <g id="Group-2" transform="translate(94.000000, 32.000000)">
                <g id="04a5706e6815a1b26f7bbe69c3d2c85c" transform="translate(71.000000, 5.000000)">
                    <g id="Group" transform="translate(11.960568, 13.040499) scale(-1, 1) rotate(-180.000000) translate(-11.960568, -13.040499) translate(0.023726, 0.093131)">
                        <path d="M19.0117995,25.8061907 C18.5148675,25.7194582 18.1563384,25.4998591 17.4340076,24.8526613 C17.0525431,24.511795 15.5440844,23.1304032 14.0817599,21.7951457 C12.6194355,20.4540885 10.544448,18.5586292 9.47545113,17.5758375 C8.4003909,16.5933094 7.52199447,15.7784465 7.52199447,15.7552475 C7.52199447,15.7378483 7.78219173,15.4605155 8.09985911,15.1425844 L8.67772375,14.5705195 L8.86278807,14.7439844 C8.9669197,14.8423163 10.5908459,16.2985774 12.4633699,17.9805009 C14.3416936,19.6624245 16.5263488,21.6216809 17.3182765,22.3326758 C18.1157402,23.0494705 18.8615336,23.7198673 18.9828008,23.8237353 C19.1504659,23.9740012 19.2487978,24.0143357 19.4393982,24.0143357 C19.6763966,24.0143357 19.7051316,23.9911368 20.8265897,22.8699423 C21.953584,21.7487478 21.9709832,21.7255489 21.9709832,21.4827508 C21.9709832,21.2918868 21.930385,21.1938185 21.7803827,21.0261534 C21.6704514,20.9048862 20.664988,19.7778919 19.5379938,18.5235671 C18.4107359,17.269506 16.43988,15.0732512 15.1568202,13.6399255 C13.8737603,12.2123995 12.7583655,10.9696741 12.6716331,10.8774056 L12.527167,10.72134 L13.0992319,10.1434753 C13.4171629,9.82554431 13.6944957,9.56561067 13.7118949,9.56561067 C13.7466934,9.56561067 14.82149,10.7274033 17.2953411,13.4379892 C17.6594064,13.8368529 19.0407982,15.3511113 20.3644562,16.8018363 C23.4971047,20.2292169 23.3929731,20.107686 23.5548385,20.448816 C23.7512386,20.8592792 23.8263716,21.3794101 23.7570384,21.8302077 C23.647107,22.5238035 23.5026408,22.7202037 22.1792464,24.0612609 C21.5088496,24.7374574 20.8384528,25.3733194 20.6881869,25.4658516 C20.2255261,25.7658561 19.5551293,25.8987228 19.0117995,25.8061907 Z" id="Shape"></path>
                        <path d="M5.82847144,14.2525885 C4.52801237,13.0562611 4.38354621,12.761529 4.62634426,11.7616018 C4.950075,10.455343 4.81720832,9.68661426 4.12941231,8.79081861 L3.86367893,8.4554884 L5.14093906,7.18402801 L6.41239945,5.90676788 L6.74772966,6.17250126 C7.64352531,6.86029727 8.37191947,6.98736422 9.68951413,6.67523295 C10.7181765,6.4324349 11.0073724,6.56530159 12.1747012,7.8370256 C12.6370983,8.3397573 13.0185628,8.7734194 13.0243625,8.79635472 C13.035962,8.82535341 11.6313713,10.2586792 9.90911324,11.9809372 L6.77620109,15.1138494 L5.82847144,14.2525885 Z" id="Shape"></path>
                        <path d="M1.64396164,6.25369757 C0.817499206,5.4214354 0.10650425,4.68170538 0.071969456,4.61237217 C-0.089895914,4.3002409 0.0429707741,3.79170947 0.33216672,3.58370984 C0.395700196,3.54311168 0.910031364,3.36411073 1.47076042,3.18484615 C3.16428345,2.65311577 3.21041771,2.66471524 4.70174084,4.17317395 L5.73040317,5.20183629 L4.44154357,6.49069589 L3.15822009,7.77375575 L1.64396164,6.25369757 Z" id="Shape"></path>
                        <path d="M3.96728331,1.76865597 C3.66095178,1.69352302 3.45875188,1.54905686 3.01955366,1.10405891 C2.64388892,0.728394165 2.58615518,0.641661744 2.58615518,0.462660789 C2.58615518,0.329794101 2.63228945,0.214062997 2.71322213,0.1275942 L2.84608882,0.000527248762 L11.7294396,0.000527248762 L20.6127904,0.000527248762 L20.8439889,0.1275942 C20.9713195,0.196927413 21.2718513,0.445525204 21.508586,0.688323259 C21.878451,1.063988 21.9364484,1.15072042 21.9364484,1.32972138 C21.9364484,1.46258807 21.8900505,1.57831917 21.8093814,1.66478797 L21.6765147,1.79185492 L12.9086314,1.80345439 C8.08825964,1.80319077 4.06561521,1.79159129 3.96728331,1.76865597 Z" id="Shape"></path>
                    </g>
                </g>
            </g>
        </g>
    </g>
</svg>