<?xml version="1.0" encoding="UTF-8"?>
<svg width="22px" height="21px" viewBox="0 0 22 21" version="1.1" xmlns="http://www.w3.org/2000/svg" xmlns:xlink="http://www.w3.org/1999/xlink">
    <!-- Generator: Sketch 49.3 (51167) - http://www.bohemiancoding.com/sketch -->
    <title>Icon / Refresh / Web</title>
    <desc>Created with Sketch.</desc>
    <defs></defs>
    <g id="Symbols" stroke="none" stroke-width="1" fill="none" fill-rule="evenodd" fill-opacity="0.8">
        <g id="Tools" transform="translate(-791.000000, -40.000000)" fill="#0C0C0D" fill-rule="nonzero">
            <g id="Group-2" transform="translate(94.000000, 32.000000)">
                <g id="Icon-/-Refresh-/-Web" transform="translate(707.500000, 18.500000) scale(-1, 1) translate(-707.500000, -18.500000) translate(696.000000, 7.000000)">
                    <path d="M20.125092,1.4375 C19.3312335,1.4375 18.6876841,2.08109067 18.6876841,2.875 L18.6876841,6.350875 C16.1946502,2.17682206 11.072434,0.384509063 6.52107362,2.09366031 C1.96971326,3.80281156 -0.706911112,8.52378698 0.163386875,13.3072184 C1.03368486,18.0906498 5.201581,21.566173 10.0632362,21.5625 C12.7333304,21.5700135 15.2954433,20.5088685 17.1784057,18.615625 C17.7231434,18.0515803 17.7153529,17.1550031 17.160896,16.6005108 C16.6064392,16.0460185 15.7099194,16.0382274 15.1459108,16.583 C12.9254851,18.8449518 9.48886969,19.3926351 6.67540869,17.932919 C3.86194769,16.4732028 2.33069019,13.3480236 2.90119534,10.2300387 C3.47170049,7.11205377 6.0103283,4.73164653 9.15835522,4.36285775 C12.3063821,3.99406896 15.3263875,5.72328686 16.6020051,8.625 L12.9380522,8.625 C12.1441937,8.625 11.5006442,9.26859067 11.5006442,10.0625 C11.5006442,10.8564093 12.1441937,11.5 12.9380522,11.5 L20.125092,11.5 C20.9189505,11.5 21.5625,10.8564093 21.5625,10.0625 L21.5625,2.875 C21.5625,2.08109067 20.9189505,1.4375 20.125092,1.4375 Z" id="Shape"></path>
                </g>
            </g>
        </g>
    </g>
</svg>