<?xml version="1.0" encoding="UTF-8" standalone="no"?>
<svg width="553px" height="115px" viewBox="0 0 553 115" version="1.1" xmlns="http://www.w3.org/2000/svg" xmlns:xlink="http://www.w3.org/1999/xlink">
    <!-- Generator: Sketch 47.1 (45422) - http://www.bohemiancoding.com/sketch -->
    <title>Group 8</title>
    <desc>Created with Sketch.</desc>
    <defs></defs>
    <g id="Final" stroke="none" stroke-width="1" fill="none" fill-rule="evenodd">
        <g id="Final_Receiver_with-extension02" transform="translate(-321.000000, -265.000000)" fill-rule="nonzero" fill="#45A1FF">
            <g id="pop-up" transform="translate(300.000000, 226.000000)">
                <g id="Group-8" transform="translate(21.000000, 39.000000)">
                    <path d="M20.8066298,44.7872928 C20.8066298,44.9047678 20.8932046,45 21,45 C21.1067954,45 21.1933702,44.9047678 21.1933702,44.7872928 C21.7720976,42.2952429 23.5411299,40.3493074 25.8066298,39.7127072 C25.9134252,39.7127072 26,39.6174749 26,39.5 C26,39.3825251 25.9134252,39.2872928 25.8066298,39.2872928 C23.5411299,38.6506926 21.7720976,36.7047571 21.1933702,34.2127072 C21.1933702,34.0952322 21.1067954,34 21,34 C20.8932046,34 20.8066298,34.0952322 20.8066298,34.2127072 C20.2279024,36.7047571 18.4588701,38.6506926 16.1933702,39.2872928 C16.0865748,39.2872928 16,39.3825251 16,39.5 C16,39.6174749 16.0865748,39.7127072 16.1933702,39.7127072 C18.4588701,40.3493074 20.2279024,42.2952429 20.8066298,44.7872928 L20.8066298,44.7872928 Z" id="Shape"></path>
                    <path d="M59.6416862,28.6487119 C59.6416862,28.842723 59.7989632,29 59.9929742,29 C60.1869853,29 60.3442623,28.842723 60.3442623,28.6487119 C61.3897991,24.5755345 64.5737697,21.3969513 68.6487119,20.3583138 C68.842723,20.3583138 69,20.2010368 69,20.0070258 C69,19.8130147 68.842723,19.6557377 68.6487119,19.6557377 C64.5755345,18.6102009 61.3969513,15.4262303 60.3583138,11.3512881 C60.3583138,11.157277 60.2010368,11 60.0070258,11 C59.8130147,11 59.6557377,11.157277 59.6557377,11.3512881 C58.6212355,15.4307546 55.4325007,18.6140939 51.3512881,19.6416862 C51.157277,19.6416862 51,19.7989632 51,19.9929742 C51,20.1869853 51.157277,20.3442623 51.3512881,20.3442623 C55.4244655,21.3897991 58.6030487,24.5737697 59.6416862,28.6487119 Z" id="Shape"></path>
                    <path d="M0.434844436,102.031576 C6.35407516,103.601692 10.9761486,108.401537 12.4881115,114.548431 C12.5291973,114.808839 12.7458931,115 13,115 C13.2541069,115 13.4708027,114.808839 13.5118885,114.548431 C15.0238514,108.401537 19.6459248,103.601692 25.5651556,102.031576 C25.8159189,101.988911 26,101.76388 26,101.5 C26,101.23612 25.8159189,101.011089 25.5651556,100.968424 C19.6459248,99.3983082 15.0238514,94.5984627 13.5118885,88.4515692 C13.4708027,88.1911611 13.2541069,88 13,88 C12.7458931,88 12.5291973,88.1911611 12.4881115,88.4515692 C10.9761486,94.5984627 6.35407516,99.3983082 0.434844436,100.968424 C0.184081095,101.011089 0,101.23612 0,101.5 C0,101.76388 0.184081095,101.988911 0.434844436,102.031576 L0.434844436,102.031576 Z" id="Shape" fill-opacity="0.8"></path>
                    <path d="M533.80663,10.7872928 C533.80663,10.9047678 533.893205,11 534,11 C534.106795,11 534.19337,10.9047678 534.19337,10.7872928 C534.772098,8.29524291 536.54113,6.34930736 538.80663,5.71270718 C538.913425,5.71270718 539,5.61747493 539,5.5 C539,5.38252507 538.913425,5.28729282 538.80663,5.28729282 C536.54113,4.65069264 534.772098,2.70475709 534.19337,0.212707182 C534.19337,0.0952322493 534.106795,0 534,0 C533.893205,0 533.80663,0.0952322493 533.80663,0.212707182 C533.227902,2.70475709 531.45887,4.65069264 529.19337,5.28729282 C529.086575,5.28729282 529,5.38252507 529,5.5 C529,5.61747493 529.086575,5.71270718 529.19337,5.71270718 C531.45887,6.34930736 533.227902,8.29524291 533.80663,10.7872928 L533.80663,10.7872928 Z" id="Shape-Copy-3"></path>
                    <path d="M543.12178,54.6291959 C543.12178,54.8339854 543.287794,55 543.492584,55 C543.697373,55 543.863388,54.8339854 543.863388,54.6291959 C544.96701,50.3297308 548.327868,46.9745597 552.629196,45.8782201 C552.833985,45.8782201 553,45.7122055 553,45.5074161 C553,45.3026267 552.833985,45.136612 552.629196,45.136612 C548.329731,44.0329899 544.97456,40.672132 543.87822,36.3708041 C543.87822,36.1660146 543.712206,36 543.507416,36 C543.302627,36 543.136612,36.1660146 543.136612,36.3708041 C542.044637,40.6769077 538.678751,44.0370992 534.370804,45.1217799 C534.166015,45.1217799 534,45.2877945 534,45.4925839 C534,45.6973733 534.166015,45.863388 534.370804,45.863388 C538.670269,46.9670101 542.02544,50.327868 543.12178,54.6291959 Z" id="Shape-Copy" fill-opacity="0.7"></path>
                    <path d="M484.468294,21.0709525 C490.84285,22.7573727 495.820468,27.9127623 497.448735,34.5149812 C497.492982,34.7946788 497.726346,35 498,35 C498.273654,35 498.507018,34.7946788 498.551265,34.5149812 C500.179532,27.9127623 505.15715,22.7573727 511.531706,21.0709525 C511.801759,21.0251261 512,20.7834269 512,20.5 C512,20.2165731 511.801759,19.9748739 511.531706,19.9290475 C505.15715,18.2426273 500.179532,13.0872377 498.551265,6.48501879 C498.507018,6.20532122 498.273654,6 498,6 C497.726346,6 497.492982,6.20532122 497.448735,6.48501879 C495.820468,13.0872377 490.84285,18.2426273 484.468294,19.9290475 C484.198241,19.9748739 484,20.2165731 484,20.5 C484,20.7834269 484.198241,21.0251261 484.468294,21.0709525 L484.468294,21.0709525 Z" id="Shape-Copy-2"></path>
                </g>
            </g>
        </g>
    </g>
</svg>