<svg xmlns="http://www.w3.org/2000/svg" width="236" height="411" viewBox="0 0 236 411">
  <g fill="#FFF" fill-rule="evenodd" opacity=".404" transform="rotate(90 117.5 118)">
    <polygon points="14.499 0 12 5 17 5"/>
    <polygon points="28.499 0 26 5 31 5"/>
    <polygon points="44.501 0 42 5 47 5"/>
    <polygon points="59.499 0 57 5 62 5"/>
    <polygon points="75.499 0 73 5 78 5"/>
    <polygon points="90.499 0 88 5 93 5"/>
    <polygon points="106.501 0 104 5 109 5"/>
    <polygon points="121.499 0 119 5 124 5"/>
    <polygon points="135.499 0 133 5 138 5"/>
    <polygon points="151.501 0 149 5 154 5"/>
    <polygon points="166.499 0 164 5 169 5"/>
    <polygon points="182.5 0 180 5 185 5"/>
    <polygon points="197.5 0 195 5 200 5"/>
    <polygon points="213.501 0 211 5 216 5"/>
    <polygon points="227.5 0 225 5 230 5"/>
    <polygon points="243.502 0 241 5 246 5"/>
    <polygon points="258.499 0 256 5 261 5"/>
    <polygon points="274.499 0 272 5 277 5"/>
    <polygon points="289.5 0 287 5 292 5"/>
    <polygon points="305.501 0 303 5 308 5"/>
    <polygon points="319.501 0 317 5 322 5"/>
    <polygon points="334.5 0 332 5 337 5"/>
    <polygon points="350.501 0 348 5 353 5"/>
    <polygon points="365.501 0 363 5 368 5"/>
    <polygon points="381.5 0 379 5 384 5"/>
    <polygon points="396.5 0 394 5 399 5"/>
    <polygon points="5 21 7.002 17 9 21"/>
    <polygon points="20 21 22.001 17 24 21"/>
    <polygon points="35 21 36.997 17 39 21"/>
    <polygon points="50 21 52 17 54 21"/>
    <polygon points="66 21 67.999 17 70 21"/>
    <polygon points="81 21 82.998 17 85 21"/>
    <polygon points="96 21 98.001 17 100 21"/>
    <polygon points="112 21 114.002 17 116 21"/>
    <polygon points="127 21 129 17 131 21"/>
    <polygon points="142 21 144 17 146 21"/>
    <polygon points="157 21 159.001 17 161 21"/>
    <polygon points="173 21 175.001 17 177 21"/>
    <polygon points="188 21 189.999 17 192 21"/>
    <polygon points="204 21 206 17 208 21"/>
    <polygon points="219 21 220.999 17 223 21"/>
    <polygon points="233 21 235 17 237 21"/>
    <polygon points="249 21 250.998 17 253 21"/>
    <polygon points="264 21 265.998 17 268 21"/>
    <polygon points="280 21 281.999 17 284 21"/>
    <polygon points="295 21 297.001 17 299 21"/>
    <polygon points="311 21 313 17 315 21"/>
    <polygon points="325 21 327 17 329 21"/>
    <polygon points="341 21 343.001 17 345 21"/>
    <polygon points="356 21 357.999 17 360 21"/>
    <polygon points="372 21 373.998 17 376 21"/>
    <polygon points="387 21 389 17 391 21"/>
    <polygon points="403 21 405.001 17 407 21"/>
    <polygon points="13 35 14.498 32 16 35"/>
    <polygon points="27 35 28.501 32 30 35"/>
    <polygon points="43 35 44.5 32 46 35"/>
    <polygon points="58 35 59.499 32 61 35"/>
    <polygon points="74 35 75.5 32 77 35"/>
    <polygon points="89 35 90.5 32 92 35"/>
    <polygon points="105 35 106.498 32 108 35"/>
    <polygon points="119 35 120.502 32 122 35"/>
    <polygon points="135 35 136.502 32 138 35"/>
    <polygon points="150 35 151.5 32 153 35"/>
    <polygon points="166 35 167.5 32 169 35"/>
    <polygon points="181 35 182.501 32 184 35"/>
    <polygon points="197 35 198.499 32 200 35"/>
    <polygon points="211 35 212.5 32 214 35"/>
    <polygon points="226 35 227.5 32 229 35"/>
    <polygon points="242 35 243.498 32 245 35"/>
    <polygon points="257 35 258.499 32 260 35"/>
    <polygon points="273 35 274.501 32 276 35"/>
    <polygon points="288 35 289.499 32 291 35"/>
    <polygon points="303 35 304.498 32 306 35"/>
    <polygon points="318 35 319.5 32 321 35"/>
    <polygon points="334 35 335.501 32 337 35"/>
    <polygon points="349 35 350.499 32 352 35"/>
    <polygon points="365 35 366.502 32 368 35"/>
    <polygon points="380 35 381.501 32 383 35"/>
    <polygon points="396 35 397.5 32 399 35"/>
    <polygon points="5 50 7.5 46 10 50"/>
    <polygon points="19 50 21.502 46 24 50"/>
    <polygon points="35 50 37.498 46 40 50"/>
    <polygon points="50 50 52.5 46 55 50"/>
    <polygon points="66 50 68.5 46 71 50"/>
    <polygon points="81 50 83.5 46 86 50"/>
    <polygon points="96 50 98.501 46 101 50"/>
    <polygon points="111 50 113.502 46 116 50"/>
    <polygon points="126 50 128.5 46 131 50"/>
    <polygon points="142 50 144.499 46 147 50"/>
    <polygon points="157 50 159.5 46 162 50"/>
    <polygon points="173 50 175.5 46 178 50"/>
    <polygon points="188 50 190.499 46 193 50"/>
    <polygon points="203 50 205.499 46 208 50"/>
    <polygon points="218 50 220.5 46 223 50"/>
    <polygon points="233 50 235.5 46 238 50"/>
    <polygon points="249 50 251.498 46 254 50"/>
    <polygon points="264 50 266.498 46 269 50"/>
    <polygon points="280 50 282.499 46 285 50"/>
    <polygon points="294 50 296.501 46 299 50"/>
    <polygon points="310 50 312.5 46 315 50"/>
    <polygon points="325 50 327.5 46 330 50"/>
    <polygon points="341 50 343.5 46 346 50"/>
    <polygon points="356 50 358.498 46 361 50"/>
    <polygon points="372 50 374.5 46 377 50"/>
    <polygon points="387 50 389.499 46 392 50"/>
    <polygon points="401 50 403.499 46 406 50"/>
    <polygon points="11 66 13.998 61 17 66"/>
    <polygon points="26 66 29 61 32 66"/>
    <polygon points="42 66 45.001 61 48 66"/>
    <polygon points="57 66 60 61 63 66"/>
    <polygon points="73 66 75.999 61 79 66"/>
    <polygon points="88 66 90.999 61 94 66"/>
    <polygon points="102 66 104.999 61 108 66"/>
    <polygon points="118 66 121.001 61 124 66"/>
    <polygon points="133 66 136.001 61 139 66"/>
    <polygon points="149 66 152.001 61 155 66"/>
    <polygon points="164 66 167 61 170 66"/>
    <polygon points="180 66 183 61 186 66"/>
    <polygon points="194 66 197 61 200 66"/>
    <polygon points="210 66 213.001 61 216 66"/>
    <polygon points="225 66 227.999 61 231 66"/>
    <polygon points="241 66 243.999 61 247 66"/>
    <polygon points="256 66 259 61 262 66"/>
    <polygon points="272 66 274.999 61 278 66"/>
    <polygon points="286 66 288.999 61 292 66"/>
    <polygon points="301 66 303.999 61 307 66"/>
    <polygon points="317 66 320 61 323 66"/>
    <polygon points="332 66 335 61 338 66"/>
    <polygon points="348 66 351 61 354 66"/>
    <polygon points="363 66 366.002 61 369 66"/>
    <polygon points="378 66 381 61 384 66"/>
    <polygon points="393 66 396.001 61 399 66"/>
    <polygon points="2 83 10 83 6.001 76"/>
    <polygon points="18 83 22.001 76 26 83"/>
    <polygon points="33 83 36.999 76 41 83"/>
    <polygon points="49 83 52.999 76 57 83"/>
    <polygon points="64 83 68 76 72 83"/>
    <polygon points="79 83 82.999 76 87 83"/>
    <polygon points="94 83 98.001 76 102 83"/>
    <polygon points="110 83 114.001 76 118 83"/>
    <polygon points="125 83 129.001 76 133 83"/>
    <polygon points="141 83 144.999 76 149 83"/>
    <polygon points="156 83 160.001 76 164 83"/>
    <polygon points="170 83 174.001 76 178 83"/>
    <polygon points="186 83 190 76 194 83"/>
    <polygon points="201 83 204.999 76 209 83"/>
    <polygon points="217 83 221 76 225 83"/>
    <polygon points="232 83 236.001 76 240 83"/>
    <polygon points="248 83 251.998 76 256 83"/>
    <polygon points="263 83 266.999 76 271 83"/>
    <polygon points="278 83 281.999 76 286 83"/>
    <polygon points="293 83 297.001 76 301 83"/>
    <polygon points="309 83 312.999 76 317 83"/>
    <polygon points="324 83 328.001 76 332 83"/>
    <polygon points="340 83 344 76 348 83"/>
    <polygon points="355 83 358.999 76 363 83"/>
    <polygon points="369 83 373 76 377 83"/>
    <polygon points="385 83 389 76 393 83"/>
    <polygon points="400 83 403.999 76 408 83"/>
    <polygon points="10 99 14.998 91 20 99"/>
    <polygon points="25 99 30 91 35 99"/>
    <polygon points="41 99 46.001 91 51 99"/>
    <polygon points="55 99 59.999 91 65 99"/>
    <polygon points="70 99 74.999 91 80 99"/>
    <polygon points="86 99 90.999 91 96 99"/>
    <polygon points="101 99 106.001 91 111 99"/>
    <polygon points="117 99 122.001 91 127 99"/>
    <polygon points="132 99 137.001 91 142 99"/>
    <polygon points="147 99 152.001 91 157 99"/>
    <polygon points="162 99 167 91 172 99"/>
    <polygon points="178 99 183 91 188 99"/>
    <polygon points="193 99 198 91 203 99"/>
    <polygon points="208 99 213 91 218 99"/>
    <polygon points="224 99 228.999 91 234 99"/>
    <polygon points="238 99 242.999 91 248 99"/>
    <polygon points="254 99 258.999 91 264 99"/>
    <polygon points="269 99 273.999 91 279 99"/>
    <polygon points="285 99 289.999 91 295 99"/>
    <polygon points="300 99 304.999 91 310 99"/>
    <polygon points="316 99 321 91 326 99"/>
    <polygon points="330 99 334.999 91 340 99"/>
    <polygon points="345 99 350 91 355 99"/>
    <polygon points="361 99 366.001 91 371 99"/>
    <polygon points="376 99 381 91 386 99"/>
    <polygon points="392 99 397.001 91 402 99"/>
    <polygon points="0 115 12 115 6.001 105"/>
    <polygon points="15 115 21.001 105 27 115"/>
    <polygon points="31 115 36.997 105 43 115"/>
    <polygon points="46 115 51.999 105 58 115"/>
    <polygon points="62 115 68.001 105 74 115"/>
    <polygon points="77 115 82.999 105 89 115"/>
    <polygon points="93 115 99.001 105 105 115"/>
    <polygon points="107 115 113.001 105 119 115"/>
    <polygon points="123 115 129.001 105 135 115"/>
    <polygon points="138 115 144 105 150 115"/>
    <polygon points="154 115 160.001 105 166 115"/>
    <polygon points="169 115 175.002 105 181 115"/>
    <polygon points="185 115 190.999 105 197 115"/>
    <polygon points="199 115 204.998 105 211 115"/>
    <polygon points="214 115 219.999 105 226 115"/>
    <polygon points="230 115 236 105 242 115"/>
    <polygon points="245 115 250.998 105 257 115"/>
    <polygon points="261 115 266.999 105 273 115"/>
    <polygon points="276 115 282 105 288 115"/>
    <polygon points="291 115 297.002 105 303 115"/>
    <polygon points="306 115 311.999 105 318 115"/>
    <polygon points="322 115 328 105 334 115"/>
    <polygon points="337 115 343.001 105 349 115"/>
    <polygon points="353 115 358.999 105 365 115"/>
    <polygon points="368 115 374 105 380 115"/>
    <polygon points="382 115 387.999 105 394 115"/>
    <polygon points="398 115 410 115 403.999 105"/>
    <polygon points="10 129 14.998 120 20 129"/>
    <polygon points="24 129 29 120 34 129"/>
    <polygon points="39 129 44.001 120 49 129"/>
    <polygon points="55 129 60 120 65 129"/>
    <polygon points="70 129 74.999 120 80 129"/>
    <polygon points="86 129 91.001 120 96 129"/>
    <polygon points="101 129 106.001 120 111 129"/>
    <polygon points="116 129 121.501 120 127 129"/>
    <polygon points="131 129 136 120 141 129"/>
    <polygon points="147 129 152.001 120 157 129"/>
    <polygon points="162 129 167.499 120 173 129"/>
    <polygon points="178 129 182.999 120 188 129"/>
    <polygon points="193 129 198 120 203 129"/>
    <polygon points="207 129 212.501 120 218 129"/>
    <polygon points="223 129 227.998 120 233 129"/>
    <polygon points="238 129 243 120 248 129"/>
    <polygon points="254 129 259 120 264 129"/>
    <polygon points="269 129 273.999 120 279 129"/>
    <polygon points="285 129 289.999 120 295 129"/>
    <polygon points="299 129 304 120 309 129"/>
    <polygon points="315 129 320.501 120 326 129"/>
    <polygon points="330 129 334.998 120 340 129"/>
    <polygon points="345 129 350 120 355 129"/>
    <polygon points="361 129 366.002 120 371 129"/>
    <polygon points="376 129 381 120 386 129"/>
    <polygon points="392 129 397.001 120 402 129"/>
    <polygon points="2 145 11 145 6.502 137"/>
    <polygon points="18 145 22.502 137 27 145"/>
    <polygon points="33 145 37.498 137 42 145"/>
    <polygon points="48 145 52.499 137 57 145"/>
    <polygon points="63 145 67.5 137 72 145"/>
    <polygon points="79 145 83.499 137 88 145"/>
    <polygon points="94 145 98.5 137 103 145"/>
    <polygon points="110 145 114.502 137 119 145"/>
    <polygon points="125 145 129.501 137 134 145"/>
    <polygon points="139 145 143.499 137 148 145"/>
    <polygon points="155 145 159.5 137 164 145"/>
    <polygon points="170 145 174.501 137 179 145"/>
    <polygon points="186 145 190.499 137 195 145"/>
    <polygon points="201 145 205.499 137 210 145"/>
    <polygon points="217 145 221.5 137 226 145"/>
    <polygon points="231 145 235.501 137 240 145"/>
    <polygon points="247 145 251.497 137 256 145"/>
    <polygon points="262 145 266.498 137 271 145"/>
    <polygon points="278 145 282.5 137 287 145"/>
    <polygon points="293 145 297.501 137 302 145"/>
    <polygon points="309 145 313.499 137 318 145"/>
    <polygon points="323 145 327.501 137 332 145"/>
    <polygon points="338 145 342.5 137 347 145"/>
    <polygon points="354 145 358.498 137 363 145"/>
    <polygon points="369 145 373.498 137 378 145"/>
    <polygon points="385 145 389.5 137 394 145"/>
    <polygon points="400 145 404.5 137 409 145"/>
    <polygon points="11 159 14.498 153 18 159"/>
    <polygon points="26 159 29.501 153 33 159"/>
    <polygon points="42 159 45.501 153 49 159"/>
    <polygon points="56 159 59.498 153 63 159"/>
    <polygon points="71 159 74.499 153 78 159"/>
    <polygon points="87 159 90.499 153 94 159"/>
    <polygon points="102 159 105.5 153 109 159"/>
    <polygon points="118 159 121.501 153 125 159"/>
    <polygon points="133 159 136.501 153 140 159"/>
    <polygon points="148 159 151.501 153 155 159"/>
    <polygon points="163 159 166.5 153 170 159"/>
    <polygon points="179 159 182.5 153 186 159"/>
    <polygon points="194 159 197.5 153 201 159"/>
    <polygon points="210 159 213.501 153 217 159"/>
    <polygon points="225 159 228.499 153 232 159"/>
    <polygon points="241 159 244.499 153 248 159"/>
    <polygon points="255 159 258.5 153 262 159"/>
    <polygon points="270 159 273.5 153 277 159"/>
    <polygon points="286 159 289.499 153 293 159"/>
    <polygon points="301 159 304.498 153 308 159"/>
    <polygon points="317 159 320.502 153 324 159"/>
    <polygon points="332 159 335.499 153 339 159"/>
    <polygon points="347 159 350.499 153 354 159"/>
    <polygon points="362 159 365.501 153 369 159"/>
    <polygon points="378 159 381.501 153 385 159"/>
    <polygon points="393 159 396.5 153 400 159"/>
    <polygon points="4 173 7.001 168 10 173"/>
    <polygon points="19 173 22.002 168 25 173"/>
    <polygon points="35 173 37.997 168 41 173"/>
    <polygon points="50 173 53 168 56 173"/>
    <polygon points="64 173 67 168 70 173"/>
    <polygon points="80 173 82.999 168 86 173"/>
    <polygon points="95 173 98.001 168 101 173"/>
    <polygon points="111 173 114.001 168 117 173"/>
    <polygon points="126 173 129 168 132 173"/>
    <polygon points="142 173 144.999 168 148 173"/>
    <polygon points="156 173 158.999 168 162 173"/>
    <polygon points="172 173 175.002 168 178 173"/>
    <polygon points="187 173 189.999 168 193 173"/>
    <polygon points="203 173 205.998 168 209 173"/>
    <polygon points="218 173 221 168 224 173"/>
    <polygon points="233 173 236.001 168 239 173"/>
    <polygon points="249 173 251.999 168 255 173"/>
    <polygon points="263 173 265.999 168 269 173"/>
    <polygon points="279 173 281.999 168 285 173"/>
    <polygon points="294 173 297.003 168 300 173"/>
    <polygon points="310 173 313 168 316 173"/>
    <polygon points="325 173 328 168 331 173"/>
    <polygon points="341 173 344.001 168 347 173"/>
    <polygon points="355 173 357.998 168 361 173"/>
    <polygon points="370 173 372.999 168 376 173"/>
    <polygon points="386 173 388.999 168 392 173"/>
    <polygon points="401 173 404 168 407 173"/>
    <polygon points="12 189 14.498 185 17 189"/>
    <polygon points="27 189 29 185 31 189"/>
    <polygon points="43 189 45 185 47 189"/>
    <polygon points="58 189 60.5 185 63 189"/>
    <polygon points="73 189 75.5 185 78 189"/>
    <polygon points="88 189 89.999 185 92 189"/>
    <polygon points="104 189 106.001 185 108 189"/>
    <polygon points="119 189 121.5 185 124 189"/>
    <polygon points="135 189 137.001 185 139 189"/>
    <polygon points="150 189 152.001 185 154 189"/>
    <polygon points="164 189 166.5 185 169 189"/>
    <polygon points="180 189 182 185 184 189"/>
    <polygon points="195 189 197 185 199 189"/>
    <polygon points="211 189 213.501 185 216 189"/>
    <polygon points="226 189 227.999 185 230 189"/>
    <polygon points="242 189 244 185 246 189"/>
    <polygon points="256 189 258.5 185 261 189"/>
    <polygon points="272 189 274.5 185 277 189"/>
    <polygon points="287 189 288.999 185 291 189"/>
    <polygon points="303 189 304.999 185 307 189"/>
    <polygon points="318 189 320.001 185 322 189"/>
    <polygon points="334 189 335.999 185 338 189"/>
    <polygon points="349 189 351.001 185 353 189"/>
    <polygon points="363 189 365.502 185 368 189"/>
    <polygon points="379 189 381.5 185 384 189"/>
    <polygon points="394 189 396.001 185 398 189"/>
    <polygon points="5 203 6.501 200 8 203"/>
    <polygon points="20 203 21.502 200 23 203"/>
    <polygon points="36 203 37.497 200 39 203"/>
    <polygon points="51 203 52.499 200 54 203"/>
    <polygon points="66 203 67.5 200 69 203"/>
    <polygon points="81 203 82.498 200 84 203"/>
    <polygon points="96 203 97.501 200 99 203"/>
    <polygon points="112 203 113.501 200 115 203"/>
    <polygon points="127 203 128.5 200 130 203"/>
    <polygon points="143 203 144.501 200 146 203"/>
    <polygon points="158 203 159.5 200 161 203"/>
    <polygon points="173 203 174.502 200 176 203"/>
    <polygon points="188 203 189.5 200 191 203"/>
    <polygon points="204 203 205.5 200 207 203"/>
    <polygon points="219 203 220.5 200 222 203"/>
    <polygon points="235 203 236.499 200 238 203"/>
    <polygon points="250 203 251.498 200 253 203"/>
    <polygon points="264 203 265.499 200 267 203"/>
    <polygon points="280 203 281.499 200 283 203"/>
    <polygon points="295 203 296.501 200 298 203"/>
    <polygon points="311 203 312.5 200 314 203"/>
    <polygon points="326 203 327.501 200 329 203"/>
    <polygon points="342 203 343.501 200 345 203"/>
    <polygon points="356 203 357.498 200 359 203"/>
    <polygon points="372 203 373.498 200 375 203"/>
    <polygon points="387 203 388.499 200 390 203"/>
    <polygon points="403 203 404.5 200 406 203"/>
    <polygon points="12 220 13.998 216 16 220"/>
    <polygon points="27 220 29 216 31 220"/>
    <polygon points="43 220 45.001 216 47 220"/>
    <polygon points="58 220 59.999 216 62 220"/>
    <polygon points="74 220 76 216 78 220"/>
    <polygon points="88 220 90 216 92 220"/>
    <polygon points="104 220 106.001 216 108 220"/>
    <polygon points="119 220 121.001 216 123 220"/>
    <polygon points="135 220 137 216 139 220"/>
    <polygon points="150 220 152.001 216 154 220"/>
    <polygon points="166 220 167.999 216 170 220"/>
    <polygon points="180 220 182 216 184 220"/>
    <polygon points="195 220 197.001 216 199 220"/>
    <polygon points="211 220 213.001 216 215 220"/>
    <polygon points="226 220 227.999 216 230 220"/>
    <polygon points="242 220 244 216 246 220"/>
    <polygon points="257 220 258.999 216 261 220"/>
    <polygon points="272 220 273.999 216 276 220"/>
    <polygon points="287 220 288.998 216 291 220"/>
    <polygon points="303 220 305 216 307 220"/>
    <polygon points="318 220 320.001 216 322 220"/>
    <polygon points="334 220 335.998 216 338 220"/>
    <polygon points="349 220 351 216 353 220"/>
    <polygon points="365 220 367.002 216 369 220"/>
    <polygon points="379 220 381 216 383 220"/>
    <polygon points="394 220 396.001 216 398 220"/>
    <polygon points="4 235 10 235 7 230"/>
    <polygon points="19 235 25 235 22.001 230"/>
    <polygon points="35 235 41 235 37.999 230"/>
    <polygon points="50 235 56 235 53 230"/>
    <polygon points="66 235 72 235 68.999 230"/>
    <polygon points="80 235 86 235 82.998 230"/>
    <polygon points="95 235 101 235 98.001 230"/>
    <polygon points="111 235 117 235 114.002 230"/>
    <polygon points="126 235 132 235 129 230"/>
    <polygon points="142 235 148 235 145 230"/>
    <polygon points="157 235 163 235 160 230"/>
    <polygon points="172 235 178 235 175 230"/>
    <polygon points="187 235 193 235 190.001 230"/>
    <polygon points="203 235 209 235 206 230"/>
    <polygon points="218 235 224 235 220.999 230"/>
    <polygon points="233 235 239 235 236 230"/>
    <polygon points="249 235 255 235 251.998 230"/>
    <polygon points="263 235 269 235 265.998 230"/>
    <polygon points="279 235 285 235 281.999 230"/>
    <polygon points="294 235 300 235 297.002 230"/>
    <polygon points="310 235 316 235 313 230"/>
    <polygon points="325 235 331 235 328 230"/>
    <polygon points="341 235 347 235 343.999 230"/>
    <polygon points="356 235 362 235 358.999 230"/>
    <polygon points="370 235 376 235 372.998 230"/>
    <polygon points="386 235 392 235 389 230"/>
    <polygon points="401 235 407 235 404.001 230"/>
  </g>
</svg>
