<?xml version="1.0" encoding="utf-8"?>
<!-- Generator: Adobe Illustrator 22.1.0, SVG Export Plug-In . SVG Version: 6.00 Build 0)  -->
<svg version="1.1"
	 id="Layer_1" xmlns:cc="http://creativecommons.org/ns#" xmlns:dc="http://purl.org/dc/elements/1.1/" xmlns:inkscape="http://www.inkscape.org/namespaces/inkscape" xmlns:rdf="http://www.w3.org/1999/02/22-rdf-syntax-ns#" xmlns:sodipodi="http://sodipodi.sourceforge.net/DTD/sodipodi-0.dtd" xmlns:svg="http://www.w3.org/2000/svg"
	 xmlns="http://www.w3.org/2000/svg" xmlns:xlink="http://www.w3.org/1999/xlink" x="0px" y="0px" viewBox="0 0 16 16"
	 style="enable-background:new 0 0 16 16;" xml:space="preserve">
<g transform="translate(0,-952.36218)">
	<path d="M4.5,953c-1.2,0-2.3,0.5-3.2,1.4c-1.7,1.8-1.7,4.8,0,6.6l6,6.4c0.4,0.4,1,0.4,1.4,0.1c0,0,0,0,0.1-0.1c2-2.1,4-4.3,6-6.4
		c1.7-1.8,1.7-4.8,0-6.6s-4.6-1.8-6.3,0L8,954.8l-0.4-0.4C6.8,953.4,5.6,953,4.5,953z M4.5,954.9c0.6,0,1.2,0.3,1.7,0.8l1.1,1.2
		c0.4,0.4,1,0.4,1.4,0.1c0,0,0,0,0.1-0.1l1.1-1.2c1-1.1,2.4-1.1,3.4,0c1,1.1,1,2.8,0,3.9c-1.7,1.9-3.5,3.8-5.3,5.7l-5.3-5.7
		c-1-1.1-1-2.8,0-3.9C3.2,955.2,3.9,954.9,4.5,954.9z"/>
</g>
</svg>
