<?xml version="1.0" encoding="utf-8"?>
<!-- Generator: Adobe Illustrator 22.1.0, SVG Export Plug-In . SVG Version: 6.00 Build 0)  -->
<svg version="1.1" id="Layer_1" xmlns="http://www.w3.org/2000/svg" xmlns:xlink="http://www.w3.org/1999/xlink" x="0px" y="0px"
	 viewBox="0 0 16 16" style="enable-background:new 0 0 16 16;" xml:space="preserve">
<style type="text/css">
	.st0{enable-background:new    ;}
</style>
<title>8</title>
<g>
	<path d="M12.8,6.9c0.3,0.3,0.8,0.3,1,0c0,0,0,0,0,0l1.9-2.1c0.3-0.3,0.3-0.7,0-1l-2-2.1c-0.3-0.3-0.7-0.3-1-0.1
		c-0.3,0.3-0.3,0.7-0.1,1c0,0,0,0,0,0l0.8,0.8h-3.3c-0.2,0-0.4,0.1-0.6,0.3l-2.6,3l-2.6-3C4.4,3.7,4.2,3.6,4,3.6H0.7
		C0.3,3.6,0,3.9,0,4.3c0,0.4,0.3,0.7,0.7,0.7h3l2.5,3l-2.5,3h-3C0.3,11,0,11.3,0,11.7s0.3,0.7,0.7,0.7H4c0.2,0,0.4-0.1,0.6-0.3
		l2.6-3l2.6,3c0.1,0.2,0.4,0.3,0.6,0.3h3.3l-0.8,0.8c-0.3,0.3-0.2,0.8,0.1,1c0.3,0.3,0.7,0.2,1,0l2-2.1c0.3-0.3,0.3-0.7,0-1l-2-2.1
		c-0.3-0.3-0.8-0.3-1,0c-0.3,0.3-0.3,0.7,0,1l0.8,0.8h-3L8.1,8l2.5-3h3l-0.8,0.8C12.5,6.2,12.5,6.6,12.8,6.9
		C12.8,6.9,12.8,6.9,12.8,6.9z"/>
</g>
<text transform="matrix(1 0 0 1 -9.5592 110.1373)" style="font-family:'HelveticaNeue-Bold'; font-size:5px;">Created by juli</text>
<text transform="matrix(1 0 0 1 -9.5592 115.1373)" style="font-family:'HelveticaNeue-Bold'; font-size:5px;">from the Noun Project</text>
</svg>
