<?xml version="1.0" encoding="UTF-8" standalone="no"?>
<svg width="22px" height="14px" viewBox="0 0 22 14" version="1.1" xmlns="http://www.w3.org/2000/svg" xmlns:xlink="http://www.w3.org/1999/xlink">
    <!-- Generator: Sketch 47.1 (45422) - http://www.bohemiancoding.com/sketch -->
    <title>icon_redo</title>
    <desc>Created with Sketch.</desc>
    <defs></defs>
    <g id="Final" stroke="none" stroke-width="1" fill="none" fill-rule="evenodd">
        <g id="Final_Main-view_tab1_Default" transform="translate(-473.000000, -622.000000)" fill="#0C0C0D">
            <g id="panel+left" transform="translate(0.000000, 200.000000)">
                <g id="TAB_single-line">
                    <g id="Group-3" transform="translate(374.000000, 92.000000)">
                        <g id="options" transform="translate(29.000000, 318.000000)">
                            <g id="icon_redo" transform="translate(64.000000, 0.000000)">
                                <g id="Group">
                                    <g transform="translate(18.000000, 18.000000) scale(-1, 1) translate(-18.000000, -18.000000) ">
                                        <path d="M29.6771221,22.6642295 L29.6968656,22.6618176 C28.9297837,17.5473823 24.4829466,13.6238392 19.1120042,13.6238392 C14.6714038,13.6238392 10.8624933,16.3058518 9.24266332,20.1254843 L11.9248132,20.6891442 C13.2400637,18.0736113 15.964454,16.2769695 19.1120042,16.2769695 C23.0791305,16.2769695 26.374037,19.1310632 27.0225831,22.8815863 C27.0452581,23.5944508 27.6332294,24.1654182 28.3552378,24.1654182 C29.0916174,24.1654182 29.6885711,23.5714947 29.6885711,22.838853 C29.6885711,22.7796596 29.6846743,22.7213718 29.6771221,22.6642295 Z" id="Combined-Shape" transform="translate(19.469764, 18.894629) rotate(7.000000) translate(-19.469764, -18.894629) "></path>
                                        <path d="M11.47589,19.4163523 L11.47589,13.7902947 C11.47589,13.23801 11.0281748,12.7902947 10.47589,12.7902947 L10.47589,12.7902947 L9.80922336,12.7902947 L9.80922336,12.7902947 C9.25693861,12.7902947 8.80922336,13.23801 8.80922336,13.7902947 L8.80922336,13.7902947 L8.80922336,21.0762508 C8.80922336,21.5373708 9.12133054,21.9255943 9.54582035,22.0411967 C9.63675469,22.0684036 9.73312656,22.0830189 9.83291203,22.0830189 L17.118868,22.0830189 C17.6711528,22.0830189 18.118868,21.6353037 18.118868,21.0830189 L18.118868,20.4163523 C18.118868,19.8640675 17.6711528,19.4163523 17.118868,19.4163523 L11.47589,19.4163523 Z" id="Combined-Shape" transform="translate(13.464046, 17.436657) rotate(-347.000000) translate(-13.464046, -17.436657) "></path>
                                    </g>
                                </g>
                            </g>
                        </g>
                    </g>
                </g>
            </g>
        </g>
    </g>
</svg>