<?xml version="1.0" encoding="UTF-8" standalone="no"?>
<svg width="20px" height="19px" viewBox="0 0 20 19" version="1.1" xmlns="http://www.w3.org/2000/svg" xmlns:xlink="http://www.w3.org/1999/xlink">
    <!-- Generator: Sketch 47.1 (45422) - http://www.bohemiancoding.com/sketch -->
    <title>icon_reset</title>
    <desc>Created with Sketch.</desc>
    <defs></defs>
    <g id="Final" stroke="none" stroke-width="1" fill="none" fill-rule="evenodd">
        <g id="Final_Main-view_tab1_Default" transform="translate(-539.000000, -619.000000)" fill-rule="nonzero" fill="#0C0C0D">
            <g id="panel+left" transform="translate(0.000000, 200.000000)">
                <g id="TAB_single-line">
                    <g id="Group-3" transform="translate(374.000000, 92.000000)">
                        <g id="options" transform="translate(29.000000, 318.000000)">
                            <g id="icon_reset" transform="translate(128.000000, 0.000000)">
                                <path d="M26.666752,9 C25.9304195,9 25.3335041,9.59388542 25.3335041,10.3264802 L25.3335041,13.5339094 C23.0211248,9.68222336 18.2700837,8.02833277 14.0485321,9.60548429 C9.82698041,11.1826358 7.34431433,15.5390049 8.15154725,19.9530064 C8.95878016,24.3670078 12.8246548,27.5741124 17.3340162,27.570723 C19.8106253,27.5776563 22.1870779,26.5984647 23.9335937,24.8514386 C24.4388576,24.3309557 24.4316316,23.5036222 23.9173528,22.991954 C23.403074,22.4802857 22.5715194,22.4730964 22.0483811,22.9757956 C19.9888558,25.0630542 16.8012704,25.5684393 14.1916834,24.2214587 C11.5820964,22.8744781 10.1617996,19.9906601 10.6909638,17.1134808 C11.220128,14.2363014 13.5747973,12.0397358 16.4947063,11.699429 C19.4146153,11.3591222 22.2157797,12.9547906 23.3989612,15.6324011 L20.0005122,15.6324011 C19.2641796,15.6324011 18.6672642,16.2262865 18.6672642,16.9588813 C18.6672642,17.6914761 19.2641796,18.2853615 20.0005122,18.2853615 L26.666752,18.2853615 C27.4030846,18.2853615 28,17.6914761 28,16.9588813 L28,10.3264802 C28,9.59388542 27.4030846,9 26.666752,9 Z" id="Shape" transform="translate(18.000000, 18.285380) scale(-1, 1) translate(-18.000000, -18.285380) "></path>
                            </g>
                        </g>
                    </g>
                </g>
            </g>
        </g>
    </g>
</svg>