<?xml version="1.0" encoding="UTF-8" standalone="no"?>
<svg width="37px" height="35px" viewBox="0 0 37 35" version="1.1" xmlns="http://www.w3.org/2000/svg" xmlns:xlink="http://www.w3.org/1999/xlink">
    <!-- Generator: Sketch 47.1 (45422) - http://www.bohemiancoding.com/sketch -->
    <title>Group Copy 2</title>
    <desc>Created with Sketch.</desc>
    <defs></defs>
    <g id="Final" stroke="none" stroke-width="1" fill="none" fill-rule="evenodd">
        <g id="app-icon" transform="translate(-221.000000, -158.000000)">
            <g id="Group-3" transform="translate(221.000000, 151.000000)">
                <g id="Group-Copy-2" transform="translate(0.000000, 7.000000)">
                    <path d="M36.8219178,16.2318841 C36.8219178,17.1923793 36.049149,17.9710145 35.0958904,17.9710145 C34.1426318,17.9710145 33.369863,17.1923793 33.369863,16.2318841 L33.369863,12.173913 L3.45205479,12.173913 L3.45205479,27.8348223 C3.45205479,28.4703281 3.96723399,28.9855072 4.60273973,28.9855072 L16.109589,28.9855072 C17.0628477,28.9855072 17.8356164,29.7641425 17.8356164,30.7246377 C17.8356164,31.6851329 17.0628477,32.4637681 16.109589,32.4637681 L2.30136986,32.4637681 C1.03035838,32.4637681 5.16713835e-16,31.4334097 -1.33226763e-15,30.1623983 L0,2.30136986 L0,2.30136986 C-1.55654014e-16,1.03035838 1.03035838,6.77570231e-16 2.30136986,4.4408921e-16 L2.30136986,0 L34.5205479,0 C35.7915594,4.28205885e-15 36.8219178,1.03035838 36.8219178,2.30136986 L36.8219178,16.2318841 Z M4.60273973,3.47826087 L4.60273973,3.47826087 C3.96723399,3.47826087 3.45205479,3.99344006 3.45205479,4.6289458 L3.45205479,4.6289458 L3.45205479,9.85507246 L33.369863,9.85507246 L33.369863,4.6289458 C33.369863,3.99344006 32.8546838,3.47826087 32.2191781,3.47826087 L32.2191781,3.47826087 L4.60273973,3.47826087 Z" id="Combined-Shape" fill="#3E3D40"></path>
                    <g id="Group-6-Copy" transform="translate(27.888586, 25.558333) rotate(-45.000000) translate(-27.888586, -25.558333) translate(19.388586, 14.058333)">
                        <rect id="Rectangle-15" stroke="#3E3D40" stroke-width="1.616572" x="1.616572" y="0.808286001" width="12.932576" height="7.2881899" rx="1.616572"></rect>
                        <path d="M9.89098169,14.9761905 C9.84450927,15.8784658 10.0253887,16.9139759 10.4336198,18.0827209 C10.715153,18.4644695 10.9043115,18.9173719 10.9684942,19.4091171 C10.9765149,19.4268192 10.98458,19.4445474 10.9926896,19.4623016 L10.9749303,19.4623016 C10.9866652,19.5675117 10.9926896,19.6744276 10.9926896,19.7827381 C10.9926896,21.3754879 9.68991452,22.6666667 8.08286001,22.6666667 C6.47580549,22.6666667 5.1730304,21.3754879 5.1730304,19.7827381 C5.1730304,19.6744276 5.17905482,19.5675117 5.19078967,19.4623016 L5.1730304,19.4623016 C5.18138172,19.4427766 5.18967902,19.4232824 5.19792232,19.403819 C5.25652114,18.9612989 5.41634734,18.5503643 5.6536024,18.1946017 C6.04893909,16.9846857 6.20405476,15.911882 6.1189494,14.9761905 L1.9398864,14.9761905 L1.9398864,14.9761905 C0.868516726,14.9761905 -3.53959318e-14,14.1076738 -3.55271368e-14,13.0363041 L-3.57491814e-14,9.22560069 L-3.57491814e-14,9.22560069 C-3.58803863e-14,8.15423101 0.868516726,7.28571429 1.9398864,7.28571429 L1.9398864,7.28571429 L14.2258336,7.28571429 C15.2972033,7.28571429 16.16572,8.15423101 16.16572,9.22560069 L16.16572,13.0363041 C16.16572,14.1076738 15.2972033,14.9761905 14.2258336,14.9761905 L9.89098169,14.9761905 Z M15.357434,4.81648977 L15.357434,1.616572 C15.357434,0.723763938 14.6336701,-1.64006181e-16 13.740862,0 L2.424858,0 L2.424858,-2.22044605e-16 C1.53204994,-5.80384244e-17 0.808286001,0.723763938 0.808286001,1.616572 L0.808286001,1.616572 L0.808286001,5.40542403 C0.845216219,5.40681346 0.883578335,5.40695315 0.923431235,5.40578497 C2.17078861,5.36922201 1.65312839,0.442016602 3.65440585,2.58826265 C5.65568331,4.7345087 5.76485915,2.91703288 7.28720347,2.91703288 C8.8095478,2.91703288 8.81527053,4.13961937 9.8513803,3.86954753 C10.8874901,3.59947568 10.5582359,2.10350691 12.6571451,2.10484096 C14.0131772,2.10570285 14.652959,3.79476311 15.357434,4.81648977 Z M8.08286001,20.2380952 C8.52926404,20.2380952 8.89114601,19.8756591 8.89114601,19.4285714 C8.89114601,18.9814838 8.52926404,18.6190476 8.08286001,18.6190476 C7.63645598,18.6190476 7.27457401,18.9814838 7.27457401,19.4285714 C7.27457401,19.8756591 7.63645598,20.2380952 8.08286001,20.2380952 Z" id="Combined-Shape" fill="#3E3D40"></path>
                        <path d="M9.89098169,14.9761905 C9.84450927,15.8784658 10.0253887,16.9139759 10.4336198,18.0827209 C10.715153,18.4644695 10.9043115,18.9173719 10.9684942,19.4091171 C10.9765149,19.4268192 10.98458,19.4445474 10.9926896,19.4623016 L10.9749303,19.4623016 C10.9866652,19.5675117 10.9926896,19.6744276 10.9926896,19.7827381 C10.9926896,21.3754879 9.68991452,22.6666667 8.08286001,22.6666667 C6.47580549,22.6666667 5.1730304,21.3754879 5.1730304,19.7827381 C5.1730304,19.6744276 5.17905482,19.5675117 5.19078967,19.4623016 L5.1730304,19.4623016 C5.18138172,19.4427766 5.18967902,19.4232824 5.19792232,19.403819 C5.25652114,18.9612989 5.41634734,18.5503643 5.6536024,18.1946017 C6.04893909,16.9846857 6.20405476,15.911882 6.1189494,14.9761905 L1.9398864,14.9761905 L1.9398864,14.9761905 C0.868516726,14.9761905 -3.69502441e-14,14.1076738 -3.7081449e-14,13.0363041 L-3.73034936e-14,9.22560069 L-3.73034936e-14,9.22560069 C-3.74346986e-14,8.15423101 0.868516726,7.28571429 1.9398864,7.28571429 L1.9398864,7.28571429 L14.2258336,7.28571429 C15.2972033,7.28571429 16.16572,8.15423101 16.16572,9.22560069 L16.16572,13.0363041 C16.16572,14.1076738 15.2972033,14.9761905 14.2258336,14.9761905 L9.89098169,14.9761905 Z M15.357434,4.81648977 L15.357434,1.616572 C15.357434,0.723763938 14.6336701,1.93759191e-14 13.740862,1.95399252e-14 L2.424858,1.95399252e-14 L2.424858,1.93178806e-14 C1.53204994,1.94818868e-14 0.808286001,0.723763938 0.808286001,1.616572 L0.808286001,1.616572 L0.808286001,5.40542403 C0.845216219,5.40681346 0.883578335,5.40695315 0.923431235,5.40578497 C2.17078861,5.36922201 1.65312839,0.442016602 3.65440585,2.58826265 C5.65568331,4.7345087 5.76485915,2.91703288 7.28720347,2.91703288 C8.8095478,2.91703288 8.81527053,4.13961937 9.8513803,3.86954753 C10.8874901,3.59947568 10.5582359,2.10350691 12.6571451,2.10484096 C14.0131772,2.10570285 14.652959,3.79476311 15.357434,4.81648977 Z M8.08286001,20.2380952 C8.52926404,20.2380952 8.89114601,19.8756591 8.89114601,19.4285714 C8.89114601,18.9814838 8.52926404,18.6190476 8.08286001,18.6190476 C7.63645598,18.6190476 7.27457401,18.9814838 7.27457401,19.4285714 C7.27457401,19.8756591 7.63645598,20.2380952 8.08286001,20.2380952 Z" id="Combined-Shape" fill="#3E3D40"></path>
                    </g>
                </g>
            </g>
        </g>
    </g>
</svg>