<?xml version="1.0" encoding="UTF-8" standalone="no"?>
<svg width="16px" height="15px" viewBox="0 0 16 15" version="1.1" xmlns="http://www.w3.org/2000/svg" xmlns:xlink="http://www.w3.org/1999/xlink">
    <!-- Generator: Sketch 47.1 (45422) - http://www.bohemiancoding.com/sketch -->
    <title>Group 6</title>
    <desc>Created with Sketch.</desc>
    <defs></defs>
    <g id="Final" stroke="none" stroke-width="1" fill="none" fill-rule="evenodd">
        <g id="app-icon" transform="translate(-223.000000, -84.000000)">
            <g id="Group-2" transform="translate(223.000000, 84.000000)">
                <g id="Group-6">
                    <g id="window-new-16" fill-rule="nonzero" fill="#000000">
                        <path d="M16,3 C16,1.34314575 14.6568542,2.22044605e-16 13,0 L3,0 C1.34314575,-2.22044605e-16 2.02906125e-16,1.34314575 0,3 L0,11 C2.02906125e-16,12.6568542 1.34314575,14 3,14 L7.03,14 L7.03,13.994 C7.56642825,13.9769791 7.9924762,13.5371982 7.9924762,13.0005 C7.9924762,12.4638018 7.56642825,12.0240209 7.03,12.007 L7.03,12 L3,12 C2.44771525,12 2,11.5522847 2,11 L2,5 L14,5 L14,6.952 L14.01,6.952 C14.01,6.969 14,6.983 14,7 C14,7.55228475 14.4477153,8 15,8 C15.5522847,8 16,7.55228475 16,7 C16,6.983 15.991,6.969 15.99,6.952 L16,6.952 L16,3 Z M2,4 L2,3 C2,2.44771525 2.44771525,2 3,2 L13,2 C13.5522847,2 14,2.44771525 14,3 L14,4 L2,4 Z" id="Shape"></path>
                    </g>
                    <g id="Group-6-Copy" transform="translate(12.363961, 10.674101) rotate(-45.000000) translate(-12.363961, -10.674101) translate(8.363961, 5.674101)">
                        <rect id="Rectangle-15" stroke="#000000" stroke-width="0.702439024" x="0.702439024" y="0.351219512" width="5.6195122" height="3.13773955" rx="0.702439024"></rect>
                        <path d="M6.67317073,2.07711121 L6.67317073,0.702439024 C6.67317073,0.314492664 6.35867807,-7.12645904e-17 5.97073171,0 L1.05365854,0 L1.05365854,1.11022302e-16 C0.665712176,1.82286893e-16 0.351219512,0.314492664 0.351219512,0.702439024 L0.351219512,0.702439024 L0.351219512,2.33108911 C0.367266571,2.33168831 0.383935824,2.33174855 0.401252858,2.33124477 C0.943259337,2.31547699 0.718323647,0.190619659 1.58792635,1.11618827 C2.45752906,2.04175688 2.50496856,1.25797043 3.16646341,1.25797043 C3.82795827,1.25797043 3.83044493,1.78521085 4.2806593,1.66874237 C4.73087367,1.55227389 4.58780488,0.907137353 5.49983089,0.907712664 C6.08905913,0.908084352 6.36705956,1.63649159 6.67317073,2.07711121 Z" id="Combined-Shape" fill="#000000"></path>
                        <path d="M4.29786704,6.45848214 C4.27767367,6.84758836 4.35627007,7.2941521 4.53365624,7.79817337 C4.65598912,7.96280249 4.73818297,8.15811663 4.7660719,8.37018175 C4.76955706,8.37781578 4.77306155,8.38546105 4.77658537,8.39311756 L4.76886854,8.39311756 C4.77396761,8.43848944 4.77658537,8.48459692 4.77658537,8.5313058 C4.77658537,9.21817914 4.21049857,9.775 3.51219512,9.775 C2.81389167,9.775 2.24780488,9.21817914 2.24780488,8.5313058 C2.24780488,8.48459692 2.25042263,8.43848944 2.2555217,8.39311756 L2.24780488,8.39311756 C2.25143372,8.3846974 2.2550391,8.37629053 2.25862101,8.36789696 C2.28408359,8.17706017 2.35353188,7.99984459 2.45662485,7.84642198 C2.62840806,7.32464573 2.69580951,6.86199912 2.6588292,6.45848214 L0.842926829,6.45848214 C0.377391196,6.45848214 1.68033975e-16,6.08109095 1.11022302e-16,5.61555531 L0,3.98489111 L1.11022302e-16,3.98489111 C5.40106302e-17,3.51935548 0.377391196,3.14196429 0.842926829,3.14196429 L6.18146341,3.14196429 C6.64699905,3.14196429 7.02439024,3.51935548 7.02439024,3.98489111 L7.02439024,5.61555531 C7.02439024,6.08109095 6.64699905,6.45848214 6.18146341,6.45848214 L4.29786704,6.45848214 Z M3.51219512,8.72767857 C3.7061683,8.72767857 3.86341463,8.57137798 3.86341463,8.37857143 C3.86341463,8.18576488 3.7061683,8.02946429 3.51219512,8.02946429 C3.31822194,8.02946429 3.16097561,8.18576488 3.16097561,8.37857143 C3.16097561,8.57137798 3.31822194,8.72767857 3.51219512,8.72767857 Z" id="Combined-Shape" fill="#000000"></path>
                    </g>
                </g>
            </g>
        </g>
    </g>
</svg>