<?xml version="1.0" encoding="UTF-8"?>
<svg width="99px" height="28px" viewBox="0 0 99 28" version="1.1" xmlns="http://www.w3.org/2000/svg" xmlns:xlink="http://www.w3.org/1999/xlink">
    <!-- Generator: Sketch 49.3 (51167) - http://www.bohemiancoding.com/sketch -->
    <title>moz-logo-one-color-black-rgb</title>
    <desc>Created with Sketch.</desc>
    <defs></defs>
    <g id="Annotation-Full" stroke="none" stroke-width="1" fill="none" fill-rule="evenodd">
        <g id="UX---1.0-Tutorial---annotate" transform="translate(-136.000000, -1031.000000)">
            <g id="Footer" transform="translate(0.000000, 999.000000)">
                <g transform="translate(136.000000, 32.000000)" id="moz-logo-one-color-black-rgb">
                    <g>
                        <g id="Layer_1">
                            <g id="Group">
                                <polygon id="Combined-Shape" fill="#000000" fill-rule="nonzero" points="0.0274699908 0 0.0274699908 28 98.9194367 28 98.9194367 0"></polygon>
                                <path d="M92.271699,22.4543689 C90.6234995,22.4543689 89.7169898,21.5029126 89.5521699,20.007767 C88.8379501,21.2582524 87.5743306,22.4543689 85.5690212,22.4543689 C83.7834718,22.4543689 81.7506925,21.5029126 81.7506925,18.9475728 C81.7506925,15.9300971 84.6899815,15.223301 87.5193906,15.223301 C88.2061404,15.223301 89.0027701,15.2504854 89.5521699,15.3320388 L89.5521699,14.9514563 C89.5521699,13.7009709 89.5246999,12.2058252 87.5193906,12.2058252 C86.7777008,12.2058252 86.200831,12.2601942 85.6239612,12.5592233 L85.2119114,13.9456311 L82.4099723,13.6466019 L82.9044321,10.8194175 C85.0745614,9.94951456 86.200831,9.70485437 88.2336103,9.70485437 C90.8981994,9.70485437 93.1782087,11.0640777 93.1782087,13.8640777 L93.1782087,19.192233 C93.1782087,19.8990291 93.4254386,20.1436893 94.0023084,20.1436893 C94.1671283,20.1436893 94.3044783,20.1165049 94.4967682,20.0621359 L94.5242382,21.9106796 C93.8374885,22.2368932 93.0408587,22.4543689 92.271699,22.4543689 Z M73.2624654,22.2912621 L78.6191136,3.53398058 L82.1078024,3.53398058 L76.7511542,22.2912621 L73.2624654,22.2912621 Z M66.0927978,22.2912621 L71.421976,3.53398058 L74.9106648,3.53398058 L69.5540166,22.2912621 L66.0927978,22.2912621 Z M63.7578486,14.407767 L60.1867498,14.407767 L60.1867498,10.0582524 L63.7578486,10.0582524 L63.7578486,14.407767 Z M63.7578486,22.2912621 L60.1867498,22.2912621 L60.1867498,17.6699029 L63.7578486,17.6699029 L63.7578486,22.2912621 Z M56.6980609,22.2912621 L45.9023546,22.2912621 L45.5452447,20.3339806 L52.3578024,12.5048544 L48.4845337,12.5048544 L47.9351339,14.4621359 L45.3804247,14.2718447 L45.8199446,10.0582524 L56.670591,10.0582524 L56.9452909,11.8796117 L50.0777932,19.5728155 L54.0884118,19.5728155 L54.6652816,17.6427184 L57.4672207,17.9417476 L56.6980609,22.2912621 Z M28.8709603,22.2912621 L23.651662,22.2912621 L23.651662,15.3048544 C23.651662,13.184466 22.8550323,12.368932 21.4540628,12.368932 C19.7509234,12.368932 18.9817636,13.5650485 18.9817636,15.2776699 L18.9817636,19.5728155 L20.6299631,19.5728155 L20.6299631,22.2912621 L15.6853647,22.2912621 L15.6853647,15.3048544 C15.6853647,13.184466 14.888735,12.368932 13.4877655,12.368932 C11.784626,12.368932 11.0154663,13.5650485 11.0154663,15.2776699 L11.0154663,19.5728155 L13.4877655,19.5728155 L13.4877655,22.2912621 L5.79616805,22.2912621 L5.79616805,19.5728155 L7.4443675,19.5728155 L7.4443675,12.5048544 L5.79616805,12.5048544 L5.79616805,10.0582524 L11.0154663,10.0582524 L11.0154663,11.7980583 C11.839566,10.4932039 13.0757156,9.70485437 14.806325,9.70485437 C16.5918744,9.70485437 18.2400739,10.5475728 18.8444137,12.3417476 C19.5311634,10.7106796 20.9870729,9.70485437 22.9374423,9.70485437 C25.1625115,9.70485437 27.2502308,11.0368932 27.2502308,13.9456311 L27.2502308,19.5728155 L28.8984303,19.5728155 L28.8984303,22.2912621 L28.8709603,22.2912621 Z M36.7548476,22.4543689 C32.9365189,22.4543689 30.2993998,20.1436893 30.2993998,16.2291262 C30.2993998,12.6407767 32.4969991,9.6776699 36.9471376,9.6776699 C41.3972761,9.6776699 43.5674054,12.6407767 43.5674054,16.0660194 C43.5674054,19.9805825 40.7105263,22.4543689 36.7548476,22.4543689 Z M36.8921976,12.3961165 C35.0791782,12.3961165 33.9529086,13.7281553 33.9529086,16.038835 C33.9529086,18.1592233 34.9418283,19.7902913 36.8647276,19.7902913 C38.705217,19.7902913 39.9138966,18.3223301 39.9138966,15.984466 C39.9138966,13.5106796 38.567867,12.3961165 36.8921976,12.3961165 Z M85.4042013,18.5669903 C85.4042013,19.3553398 85.7887812,19.9805825 86.8601108,19.9805825 C88.1237304,19.9805825 89.4697599,19.0834951 89.5521699,17.0446602 C88.9753001,16.9631068 88.3434903,16.8815534 87.7666205,16.8815534 C86.5030009,16.8815534 85.4042013,17.2349515 85.4042013,18.5669903 Z" id="Combined-Shape" fill="#E1E1E6"></path>
                            </g>
                        </g>
                    </g>
                </g>
            </g>
        </g>
    </g>
</svg>