<?xml version="1.0" encoding="UTF-8" standalone="no"?>
<svg width="40px" height="41px" viewBox="0 0 40 41" version="1.1" xmlns="http://www.w3.org/2000/svg" xmlns:xlink="http://www.w3.org/1999/xlink">
    <!-- Generator: Sketch 47.1 (45422) - http://www.bohemiancoding.com/sketch -->
    <title>Facebook</title>
    <desc>Created with Sketch.</desc>
    <defs>
        <circle id="path-1" cx="20" cy="20" r="20"></circle>
    </defs>
    <g id="Key-Screens" stroke="none" stroke-width="1" fill="none" fill-rule="evenodd">
        <g id="4.0-Share-panel" transform="translate(-758.000000, -278.000000)">
            <g id="Group-Copy" transform="translate(714.000000, 142.000000)">
                <g id="Group" transform="translate(20.000000, 28.000000)">
                    <g id="Social-media-icons" transform="translate(24.000000, 107.000000)">
                        <g id="Facebook" transform="translate(0.000000, 1.000000)">
                            <g id="Group-3" transform="translate(0.000000, 0.134586)">
                                <mask id="mask-2" fill="white">
                                    <use xlink:href="#path-1"></use>
                                </mask>
                                <use id="Oval-3" fill="#3C5A99" xlink:href="#path-1"></use>
                                <path d="M25.4363008,40.1503759 L25.4363008,24.6082707 L30.6532932,24.6082707 L31.4343459,18.5511278 L25.4363008,18.5511278 L25.4363008,14.6839098 C25.4363008,12.9302256 25.923218,11.735188 28.4381053,11.735188 L31.6456241,11.7336842 L31.6456241,6.3162406 C31.0907368,6.24255639 29.1868271,6.07759398 26.9717895,6.07759398 C22.3472782,6.07759398 19.1814135,8.90030075 19.1814135,14.0842105 L19.1814135,18.5511278 L13.951188,18.5511278 L13.951188,24.6082707 L19.1814135,24.6082707 L19.1814135,40.1503759 L25.4363008,40.1503759 Z" id="Fill-4" fill="#FEFEFE" mask="url(#mask-2)"></path>
                            </g>
                        </g>
                    </g>
                </g>
            </g>
        </g>
    </g>
</svg>