<?xml version="1.0" encoding="UTF-8" standalone="no"?>
<svg width="40px" height="41px" viewBox="0 0 40 41" version="1.1" xmlns="http://www.w3.org/2000/svg" xmlns:xlink="http://www.w3.org/1999/xlink">
    <!-- Generator: Sketch 47.1 (45422) - http://www.bohemiancoding.com/sketch -->
    <title>Pinterest</title>
    <desc>Created with Sketch.</desc>
    <defs></defs>
    <g id="Key-Screens" stroke="none" stroke-width="1" fill="none" fill-rule="evenodd">
        <g id="4.0-Share-panel" transform="translate(-886.000000, -277.000000)">
            <g id="Group-Copy" transform="translate(714.000000, 142.000000)">
                <g id="Group" transform="translate(20.000000, 28.000000)">
                    <g id="Social-media-icons" transform="translate(24.000000, 107.000000)">
                        <g id="Pinterest" transform="translate(128.000000, 0.000000)">
                            <path d="M39.997377,20.1625574 C39.997377,31.2076393 31.0436066,40.1612459 19.9986885,40.1612459 C8.95377049,40.1612459 0,31.2076393 0,20.1625574 C0,9.11747541 8.95377049,0.163868852 19.9986885,0.163868852 C31.0436066,0.163868852 39.997377,9.11747541 39.997377,20.1625574" id="Fill-1" fill="#FFFFFF"></path>
                            <path d="M19.9986721,0.163836066 C8.9537541,0.163836066 -1.63934426e-05,9.11760656 -1.63934426e-05,20.1625246 C-1.63934426e-05,28.6348197 5.27129508,35.8777705 12.7106393,38.7917049 C12.5358852,37.2094098 12.3780164,34.7759672 12.7801475,33.0485902 C13.1434262,31.4879344 15.1250656,23.1079344 15.1250656,23.1079344 C15.1250656,23.1079344 14.5268689,21.9099016 14.5268689,20.1387541 C14.5268689,17.3579344 16.1386721,15.2818689 18.1455574,15.2818689 C19.8517869,15.2818689 20.6758852,16.5630164 20.6758852,18.099082 C20.6758852,19.8148197 19.5834262,22.3802295 19.0196557,24.7576066 C18.5485082,26.7482623 20.0178525,28.371541 21.9811311,28.371541 C25.5355574,28.371541 28.2678525,24.6236721 28.2678525,19.2135082 C28.2678525,14.4253115 24.8271967,11.0772787 19.9142459,11.0772787 C14.224082,11.0772787 10.883918,15.3453115 10.883918,19.7562951 C10.883918,21.4749836 11.5460492,23.3182623 12.3722787,24.3200656 C12.5357213,24.5180984 12.5596557,24.6917049 12.5111311,24.8936721 C12.3591639,25.5254754 12.0217869,26.8838361 11.9555574,27.1617049 C11.8683443,27.5277705 11.6657213,27.6053115 11.2867049,27.4292459 C8.789,26.266459 7.22736066,22.6148197 7.22736066,19.681541 C7.22736066,13.3730164 11.8109672,7.57957377 20.4412951,7.57957377 C27.3788361,7.57957377 32.7701475,12.5230164 32.7701475,19.1297377 C32.7701475,26.0221967 28.4244098,31.569082 22.3926066,31.569082 C20.3662131,31.569082 18.4609672,30.5162951 17.8088361,29.2726885 C17.8088361,29.2726885 16.8060492,33.0910492 16.5629344,34.026623 C16.111459,35.7638361 14.8926066,37.9412131 14.0773607,39.2694098 C15.9485082,39.8487541 17.9370328,40.161377 19.9986721,40.161377 C31.0437541,40.161377 39.9975246,31.2076066 39.9975246,20.1625246 C39.9975246,9.11760656 31.0437541,0.163836066 19.9986721,0.163836066" id="Fill-4" fill="#BD081C"></path>
                        </g>
                    </g>
                </g>
            </g>
        </g>
    </g>
</svg>