<?xml version="1.0" encoding="UTF-8" standalone="no"?>
<svg width="40px" height="40px" viewBox="0 0 40 40" version="1.1" xmlns="http://www.w3.org/2000/svg" xmlns:xlink="http://www.w3.org/1999/xlink">
    <!-- Generator: Sketch 47.1 (45422) - http://www.bohemiancoding.com/sketch -->
    <title>Email</title>
    <desc>Created with Sketch.</desc>
    <defs></defs>
    <g id="Key-Screens" stroke="none" stroke-width="1" fill="none" fill-rule="evenodd">
        <g id="4.0-Share-panel" transform="translate(-950.000000, -278.000000)" fill-rule="nonzero">
            <g id="Group-Copy" transform="translate(714.000000, 142.000000)">
                <g id="Group" transform="translate(20.000000, 28.000000)">
                    <g id="Social-media-icons" transform="translate(24.000000, 107.000000)">
                        <g id="Email" transform="translate(192.000000, 1.000000)">
                            <g id="Dark_Blue" fill="#00C8D7">
                                <circle id="Oval" cx="20" cy="20" r="20"></circle>
                            </g>
                            <path d="M28.9375,10 L12.0625,10 C9.27155087,10.0118678 7.01201618,12.243507 7,15 L7,25 C7.01201618,27.756493 9.27155087,29.9881322 12.0625,30 L28.9375,30 C31.7284491,29.9881322 33.9879838,27.756493 34,25 L34,15 C33.9879838,12.243507 31.7284491,10.0118678 28.9375,10 L28.9375,10 Z M30.625,25 C30.625,25.9204746 29.8694805,26.6666667 28.9375,26.6666667 L12.0625,26.6666667 C11.1305195,26.6666667 10.375,25.9204746 10.375,25 L10.375,15 C10.375,14.0795254 11.1305195,13.3333333 12.0625,13.3333333 L28.9375,13.3333333 C29.8694805,13.3333333 30.625,14.0795254 30.625,15 L30.625,25 Z" id="Shape" fill="#FFFFFF"></path>
                            <path d="M20.0390208,20.9999149 C19.8628601,20.997875 19.6919476,20.9422322 19.5510216,20.8410404 L10.421785,14.4860604 C10.1429012,14.3352909 9.97955026,14.0443748 10.0020606,13.7385618 C10.024571,13.4327488 10.2289244,13.1666292 10.5271393,13.0547769 C10.8253543,12.9429246 11.1641969,13.0053063 11.3977834,13.2150644 L20.0390208,19.223698 L28.6819181,13.2150644 C29.0527297,12.9570971 29.5718166,13.0356964 29.8413311,13.3906207 C30.1108457,13.745545 30.0287281,14.2423918 29.6579165,14.5003591 L20.5286799,20.8553391 C20.385479,20.9517618 20.2140871,21.0023666 20.0390208,20.9999149 Z" id="Shape" fill="#FFFFFF"></path>
                        </g>
                    </g>
                </g>
            </g>
        </g>
    </g>
</svg>