<?xml version="1.0" encoding="utf-8"?>
<!-- Generator: Adobe Illustrator 21.1.0, SVG Export Plug-In . SVG Version: 6.00 Build 0)  -->
<svg version="1.1" id="Layer_1" xmlns="http://www.w3.org/2000/svg" xmlns:xlink="http://www.w3.org/1999/xlink" x="0px" y="0px"
	 viewBox="0 0 20 20" style="enable-background:new 0 0 20 20;" xml:space="preserve">
<style type="text/css">
	.st0{fill:#3E3D40;}
</style>
<g id="Key-Screens">
	<g id="_x32_.5-Save-fullpage" transform="translate(-699.000000, -206.000000)">
		<g id="Buttons" transform="translate(591.000000, 196.000000)">
			<g>
				<rect x="115.2" y="17.2" class="st0" width="5.6" height="5.6"/>
				<path class="st0" d="M113.6,10h-4.8c-0.4,0-0.8,0.4-0.8,0.8v8.8h5.6V10z"/>
				<rect x="115.2" y="10" class="st0" width="5.6" height="5.6"/>
				<path class="st0" d="M127.2,10h-4.8v9.6h5.6v-8.8C128,10.4,127.6,10,127.2,10z"/>
				<path class="st0" d="M122.4,30h4.8c0.4,0,0.8-0.4,0.8-0.8v-8h-5.6V30z"/>
				<path class="st0" d="M108,21.2v8c0,0.4,0.4,0.8,0.8,0.8h4.8v-8.8H108z"/>
				<rect x="115.2" y="24.4" class="st0" width="5.6" height="5.6"/>
			</g>
		</g>
	</g>
</g>
</svg>
