<?xml version="1.0" encoding="utf-8"?>
<!-- Generator: Adobe Illustrator 21.1.0, SVG Export Plug-In . SVG Version: 6.00 Build 0)  -->
<svg version="1.1" id="Layer_1" xmlns="http://www.w3.org/2000/svg" xmlns:xlink="http://www.w3.org/1999/xlink" x="0px" y="0px"
	 viewBox="0 0 20 20" style="enable-background:new 0 0 20 20;" xml:space="preserve">
<style type="text/css">
	.st0{fill:#3E3D40;}
</style>
<path class="st0" d="M16.6,2.6c-0.3-0.2-0.7-0.2-1,0c-0.1,0.1-0.2,0.1-0.3,0.2c-0.6,0.4-1.6,1.1-4.9,0C7.9,2,6.1,2.1,5,2.5V1
	c0-0.5-0.4-1-1-1h0C3.4,0,3,0.4,3,1v18c0,0.5,0.4,1,1,1h0c0.5,0,1-0.4,1-1v-6.8c0.6-0.3,2.2-0.9,4.2,0c1.1,0.5,2.2,0.6,3.2,0.6
	c2.3,0,4-0.9,4.1-0.9c0.3-0.2,0.5-0.5,0.5-0.9V3.5C17.1,3.1,16.9,2.8,16.6,2.6z M15.1,10.4c-1,0.3-3,0.9-5.1,0
	C8.9,10,7.9,9.8,7.1,9.8c-0.8,0-1.4,0.1-2,0.3V4.7c0.6-0.3,2-0.9,4.7,0c2.7,0.9,4.3,0.8,5.4,0.5V10.4z"/>
</svg>
