<?xml version="1.0" encoding="utf-8"?>
<!-- Generator: Adobe Illustrator 21.0.0, SVG Export Plug-In . SVG Version: 6.00 Build 0)  -->
<svg version="1.1" id="Layer_1" xmlns="http://www.w3.org/2000/svg" xmlns:xlink="http://www.w3.org/1999/xlink" x="0px" y="0px"
	 viewBox="0 0 20 20" style="enable-background:new 0 0 20 20;" xml:space="preserve">
<style type="text/css">
	.st0{fill:#3E3D40;}
</style>
<path id="Combined-Shape" class="st0" d="M3.8,17.5L3.8,17.5c-0.7,0-1.3-0.6-1.3-1.3V6.1H1.3C0.6,6.1,0,5.5,0,4.8v0
	c0-0.7,0.6-1.3,1.3-1.3h1.3V2.3C2.5,1.6,3.1,1,3.8,1h0c0.7,0,1.3,0.6,1.3,1.3v1.3h9.7h0.8l2.3-2.3c0.2-0.2,0.6-0.3,0.9,0
	c0.2,0.2,0.2,0.7,0,0.9l-2.3,2.3v10.5h1.3c0.7,0,1.2,0.6,1.2,1.3v0c0,0.7-0.6,1.3-1.2,1.3h-1.3v1.3c0,0.7-0.6,1.3-1.3,1.3h0
	c-0.7,0-1.3-0.6-1.3-1.3v-1.3H3.8z M5.1,14l8-8h-8V14z M13.9,6.9l-8,8h8V6.9z"/>
</svg>
