<?xml version="1.0" encoding="utf-8"?>
<!-- Generator: Adobe Illustrator 21.0.0, SVG Export Plug-In . SVG Version: 6.00 Build 0)  -->
<svg version="1.1" id="Layer_1" xmlns="http://www.w3.org/2000/svg" xmlns:xlink="http://www.w3.org/1999/xlink" x="0px" y="0px"
	 viewBox="0 0 468 372" style="enable-background:new 0 0 468 372;" xml:space="preserve">
<style type="text/css">
	.st0{opacity:0.1;clip-path:url(#SVGID_2_);fill:#C7C7CB;}
	.st1{opacity:0.3;fill:none;stroke:#C7C7CB;stroke-width:2;stroke-linecap:round;stroke-linejoin:round;stroke-miterlimit:10;}
	.st2{fill:#FF7200;stroke:#FF7200;stroke-width:2;stroke-linecap:round;stroke-linejoin:round;stroke-miterlimit:10;}
	.st3{fill:#FF9A49;}
	.st4{fill:#FF7200;}
	.st5{fill:#FF9A49;stroke:#FF7200;stroke-width:2;stroke-linecap:round;stroke-linejoin:round;stroke-miterlimit:10;}
	.st6{fill:none;stroke:#FF9A49;stroke-width:11;stroke-linecap:round;stroke-linejoin:round;stroke-miterlimit:10;}
	.st7{fill:#323B59;}
	.st8{fill:none;stroke:#FF7200;stroke-width:2;stroke-linecap:round;stroke-linejoin:round;stroke-miterlimit:10;}
	.st9{fill:#FF9A49;stroke:#FF9A49;stroke-linecap:round;stroke-linejoin:round;stroke-miterlimit:10;}
	.st10{fill:#FF7200;stroke:#FF9A49;stroke-width:2;stroke-linecap:round;stroke-linejoin:round;stroke-miterlimit:10;}
	.st11{fill:none;stroke:#FF9A49;stroke-width:2;stroke-linecap:round;stroke-linejoin:round;stroke-miterlimit:10;}
	.st12{fill:none;stroke:#FF9A49;stroke-linecap:round;stroke-linejoin:round;stroke-miterlimit:10;}
	.st13{fill:none;stroke:#FF7200;stroke-width:4;stroke-linecap:round;stroke-linejoin:round;stroke-miterlimit:10;}
	.st14{opacity:0.1;fill:#C7C7CB;}
	.st15{fill:#FFFFFF;}
	.st16{opacity:0.3;fill:none;stroke:#C7C7CB;stroke-linecap:round;stroke-linejoin:round;stroke-miterlimit:10;}
	.st17{fill:none;stroke:#FFFFFF;stroke-width:2;stroke-linecap:round;stroke-linejoin:round;stroke-miterlimit:10;}
</style>
<g>
	<defs>
		<circle id="SVGID_1_" cx="243.3" cy="224.4" r="223.4"/>
	</defs>
	<clipPath id="SVGID_2_">
		<use xlink:href="#SVGID_1_"  style="overflow:visible;"/>
	</clipPath>
	<rect x="-50.4" y="-20.5" class="st0" width="598.2" height="315.8"/>
	<rect x="-40.1" y="248.4" class="st0" width="598.2" height="7.9"/>
	<rect x="-3.5" y="207.1" class="st0" width="598.2" height="19.3"/>
	<rect x="-48" y="-115.9" class="st0" width="598.2" height="305.7"/>
</g>
<g>
	<g>
		<path class="st1" d="M308.7,219.9"/>
		<path class="st1" d="M295.9,204.8"/>
		<path class="st2" d="M200.5,210.8v-88.9l26.3,34.1l41.9-35.9l0.8,36.7l34.1-32.7v19.9l-23.8,23.8l48.7,48.7l-11.4,11.4H187.7
			L163.9,204v-35.2H192C192,168.8,199.8,210.1,200.5,210.8z"/>
		<path class="st3" d="M188.1,230.3h131l9.2-18.4l-6-6L305,189.5c0,0,9.4,10.9,9.2,19.6c-0.1,5.7-4.6,14.1-19,8.7
			c-4-1.5-14-2.9-14-2.9l-58.1-8.2C223.2,206.7,225.8,230.3,188.1,230.3z"/>
		<path class="st4" d="M234.6,307.5c-2.3-1.8-40.5-31-45.1-32.3c-4.6-1.2-18.8-2.5-20.5-2.2c-1.7,0.4,31.2,25.7,31.2,25.7
			s-43.2-22.3-46.8-22.8c-3.6-0.5-20.9,2.3-20.9,2.3s20.4,19.5,25.8,22.6c5.4,3.1,45.3,10,45.3,10l-28,1.2c0,0,4,5.2,7.8,7.9
			c3.8,2.7,52.3,0.7,52.3,0.7S243.9,314.5,234.6,307.5z"/>
		<path class="st4" d="M224,225.9c-3.2,3.2-6.8,16.8-7.2,27.6c-0.4,10.8-2.8,56.8-0.4,67.9c3.6,16.4,58.3,12.8,62.7,3.2
			c1.8-3.9,4-73.9-4.8-99.4C265.5,199.5,224,225.9,224,225.9z"/>
		<path class="st5" d="M233.2,241.4c-2.7,2.4-14.6,18.2-15,26.4c-0.3,8.2-2.4,43.1-0.3,51.4c3.1,12.4,47.9,5.7,51.7-1.5
			c1.5-3,6.8-48.6-2.8-67.1C258.6,235,233.2,241.4,233.2,241.4z"/>
		<g>
			<line class="st6" x1="224" y1="175.2" x2="224" y2="184.8"/>
			<g>
				<path class="st7" d="M224,186.9c-1.4,0-2.6-1.2-2.6-2.6v-5.8c0-1.4,1.2-2.6,2.6-2.6l0,0c1.4,0,2.6,1.2,2.6,2.6v5.8
					C226.6,185.8,225.5,186.9,224,186.9L224,186.9z"/>
			</g>
			<path class="st8" d="M231,172.5c0,0-2.3-3.6-7-3.6c-4.7,0-7,3.6-7,3.6"/>
		</g>
		<polygon class="st9" points="161.1,204 222.6,204 240.1,227.3 185.9,229.7 		"/>
		<polygon class="st2" points="323.4,210.3 317,221.9 319,228.3 335.4,215.9 		"/>
		<polyline class="st10" points="207.6,203.9 222,203.9 243.6,242.2 253.9,242.2 281.3,214.9 296.7,214.9 		"/>
		<g>
			<line class="st11" x1="158.6" y1="175.6" x2="186.6" y2="175.6"/>
			<line class="st11" x1="158.6" y1="184.9" x2="186.6" y2="184.9"/>
			<line class="st12" x1="158.6" y1="194.3" x2="186.6" y2="194.3"/>
		</g>
		<g>
			<line class="st11" x1="289.5" y1="148.7" x2="309.2" y2="128.9"/>
		</g>
		<line class="st12" x1="248.7" y1="229.9" x2="265.9" y2="229.9"/>
		<line class="st13" x1="214.4" y1="243.4" x2="219.6" y2="280.2"/>
		<ellipse class="st14" cx="248" cy="355.5" rx="75.7" ry="15.4"/>
		<line class="st13" x1="279.5" y1="240.5" x2="271.1" y2="283.1"/>
		<path class="st4" d="M277.1,265c0.5-1.1,12-19.2,15.6-19.2c3.6,0,13.2,8,13.2,9.2s-2.8,6-9.2,4.4c-6.4-1.6-6.4-1.6-6.4-1.6
			s-9.2,17.2-11.2,19.6S269.5,280.2,277.1,265z"/>
		<path class="st4" d="M217.1,269.4c-0.5-1.1-12-19.2-15.6-19.2s-13.2,8-13.2,9.2s2.8,6,9.2,4.4c6.4-1.6,6.4-1.6,6.4-1.6
			s9.2,17.2,11.2,19.6C217.1,284.2,224.7,284.6,217.1,269.4z"/>
		<path class="st4" d="M279.8,316.4c0,0-1.5,18.4-4.5,26.9c-3,8.6-6.5,12.9-8,11.6c-1.5-1.2,1-25.3,1-25.3L279.8,316.4z"/>
		<path class="st4" d="M215.6,309.7c0,0,1.6,21.5,4.7,31.6c3.1,10.1,6.8,15.1,8.3,13.6c1.6-1.4-1-29.7-1-29.7L215.6,309.7z"/>
		<g>
			<line class="st6" x1="288.8" y1="196.7" x2="288.8" y2="213.5"/>
			<g>
				<path class="st7" d="M288.8,208.4c-1.4,0-2.6-1.2-2.6-2.6V200c0-1.4,1.2-2.6,2.6-2.6l0,0c1.4,0,2.6,1.2,2.6,2.6v5.8
					C291.4,207.2,290.2,208.4,288.8,208.4L288.8,208.4z"/>
			</g>
			<path class="st8" d="M295.8,194c0,0-2.3-3.6-7-3.6s-7,3.6-7,3.6"/>
		</g>
	</g>
</g>
<g>
	<path class="st15" d="M256.1,94.2h46.3c0,0-14.5-32.4,16.3-36.6C346.1,53.8,357,82,357,82s3.3-16.3,19.6-13.2c16.1,3.1,28,29,28,29
		h40.3"/>
	<path class="st16" d="M256.9,87.8h46.3c0,0-14.5-32.4,16.3-36.6c27.4-3.7,38.3,24.5,38.3,24.5s3.3-16.3,19.6-13.2
		c16.1,3.1,28,26.6,28,26.6h40.3"/>
	<line class="st17" x1="256.1" y1="96.3" x2="447" y2="96.3"/>
</g>
<g>
	<path class="st15" d="M-19.6,191H6.2c0,0-8.1-18,9.1-20.3c15.3-2.1,21.3,13.6,21.3,13.6s1.8-9,10.9-7.3C56.3,178.6,63,193,63,193
		h22.4"/>
	<path class="st16" d="M-18.8,187H7c0,0-8.1-18,9.1-20.3c15.3-2.1,21.3,13.6,21.3,13.6s1.8-9,10.9-7.3c9,1.7,15.6,13.7,15.6,13.7
		h22.4"/>
	<line class="st17" x1="-19.1" y1="193.1" x2="87" y2="193.1"/>
</g>
</svg>
