<svg xmlns="http://www.w3.org/2000/svg" width="46" height="44" viewBox="0 0 46 44">
  <defs>
    <filter id="logo-a" width="113.3%" height="116.4%" x="-6.7%" y="-8.4%" filterUnits="objectBoundingBox">
      <feOffset dy="4" in="SourceAlpha" result="shadowOffsetOuter1"/>
      <feGaussianBlur in="shadowOffsetOuter1" result="shadowBlurOuter1" stdDeviation="4"/>
      <feColorMatrix in="shadowBlurOuter1" result="shadowMatrixOuter1" values="0 0 0 0 0   0 0 0 0 0   0 0 0 0 0  0 0 0 0.15 0"/>
      <feMerge>
        <feMergeNode in="shadowMatrixOuter1"/>
        <feMergeNode in="SourceGraphic"/>
      </feMerge>
    </filter>
  </defs>
  <path fill="#FFF" d="M22.5171817,16 C20.4476954,16 18.7700453,17.6787561 18.7700453,19.7496066 L22.5171817,19.7496066 L22.5171817,16 Z M33.7585908,16 L30.0114545,16 L30.0114545,19.7496066 L33.7585908,19.7496066 L33.7585908,16 Z M41.2528636,16 L41.2528636,19.7496066 L45,19.7496066 C45,17.6787561 43.3223499,16 41.2528636,16 Z M28.1378863,16 L24.3907499,16 L24.3907499,19.7496066 L28.1378863,19.7496066 L28.1378863,16 Z M39.3792954,16 L35.632159,16 L35.632159,19.7496066 L39.3792954,19.7496066 L39.3792954,16 Z M41.2528636,25.3740166 L45,25.3740166 L45,21.62441 L41.2528636,21.62441 L41.2528636,25.3740166 Z M41.2528636,36.6228365 C43.3223499,36.6228365 45,34.9440804 45,32.8732299 L41.2528636,32.8732299 L41.2528636,36.6228365 Z M41.2528636,30.9984265 L45,30.9984265 L45,27.2488199 L41.2528636,27.2488199 L41.2528636,30.9984265 Z M40.42662,26.9357277 C39.2401583,25.2393855 36.904211,24.8264434 35.2087326,26.0133245 L28.0235986,31.3208927 L24.3364164,28.7336641 C24.3654567,28.5527456 24.3832556,28.3699523 24.3907499,28.1862216 C24.3878031,26.7173719 23.6936105,25.3357126 22.5171817,24.4572378 L22.5171817,21.62441 L18.7700453,21.62441 L18.7700453,23.5929534 C16.8899471,23.9673014 15.4275674,25.4502462 15.0785139,27.336398 C14.7294604,29.2225498 15.5641945,31.1311619 17.1856597,32.154368 C18.8071249,33.1775741 20.8880052,33.1088254 22.4384918,31.9808235 L24.7654635,33.6100276 L22.1424681,35.4510844 C20.2509774,34.3029327 17.814066,34.639462 16.3040531,36.25735 C14.7940402,37.875238 14.6248068,40.331036 15.8985994,42.1410139 C17.1723921,43.9509919 19.5400755,44.619051 21.5711563,43.7415671 C23.602237,42.8640832 24.740014,40.6815668 24.2970715,38.5126382 L40.42662,26.9357277 Z M19.7068294,30.5297257 C18.4134005,30.5297257 17.3648692,29.4805032 17.3648692,28.1862216 C17.3648692,26.89194 18.4134005,25.8427174 19.7068294,25.8427174 C21.0002583,25.8427174 22.0487896,26.89194 22.0487896,28.1862216 C22.0487896,29.4805032 21.0002583,30.5297257 19.7068294,30.5297257 Z M19.7068294,41.7785456 C18.4134005,41.7785456 17.3648692,40.7293231 17.3648692,39.4350415 C17.3648692,38.1407599 18.4134005,37.0915373 19.7068294,37.0915373 C21.0002583,37.0915373 22.0487896,38.1407599 22.0487896,39.4350415 C22.0487896,40.7293231 21.0002583,41.7785456 19.7068294,41.7785456 Z M29.8240976,37.2246484 L35.4766529,41.536696 C37.1721313,42.7235771 39.5080785,42.310635 40.6945403,40.6142927 L33.0841063,34.9355135 L29.8240976,37.2246484 Z" filter="url(#logo-a)" transform="translate(-7 -12)"/>
</svg>
