<?xml version="1.0" encoding="utf-8"?>
<!-- Generator: Adobe Illustrator 21.0.0, SVG Export Plug-In . SVG Version: 6.00 Build 0)  -->
<svg version="1.1" id="Layer_1" xmlns="http://www.w3.org/2000/svg" xmlns:xlink="http://www.w3.org/1999/xlink" x="0px" y="0px"
	 viewBox="0 0 99 28" style="enable-background:new 0 0 99 28;" xml:space="preserve">
<style type="text/css">
	.st0{fill:#E1E1E6;}
</style>
<polygon id="Combined-Shape" points="0,0 0,28 98.9,28 98.9,0 "/>
<path id="Combined-Shape_1_" class="st0" d="M92.3,22.5c-1.6,0-2.6-1-2.7-2.4c-0.7,1.3-2,2.4-4,2.4c-1.8,0-3.8-1-3.8-3.5
	c0-3,2.9-3.7,5.8-3.7c0.7,0,1.5,0,2,0.1V15c0-1.3,0-2.7-2-2.7c-0.7,0-1.3,0.1-1.9,0.4l-0.4,1.4l-2.8-0.3l0.5-2.8
	c2.2-0.9,3.3-1.1,5.3-1.1c2.7,0,4.9,1.4,4.9,4.2v5.3c0,0.7,0.2,1,0.8,1c0.2,0,0.3,0,0.5-0.1l0,1.8C93.8,22.2,93,22.5,92.3,22.5z
	 M73.3,22.3l5.4-18.8h3.5l-5.4,18.8H73.3z M66.1,22.3l5.3-18.8h3.5l-5.4,18.8H66.1z M63.8,14.4h-3.6v-4.3h3.6V14.4z M63.8,22.3h-3.6
	v-4.6h3.6V22.3z M56.7,22.3H45.9l-0.4-2l6.8-7.8h-3.9l-0.5,2l-2.6-0.2l0.4-4.2h10.9l0.3,1.8l-6.9,7.7h4l0.6-1.9l2.8,0.3L56.7,22.3z
	 M28.9,22.3h-5.2v-7c0-2.1-0.8-2.9-2.2-2.9c-1.7,0-2.5,1.2-2.5,2.9v4.3h1.6v2.7h-4.9v-7c0-2.1-0.8-2.9-2.2-2.9
	c-1.7,0-2.5,1.2-2.5,2.9v4.3h2.5v2.7H5.8v-2.7h1.6v-7.1H5.8v-2.4H11v1.7c0.8-1.3,2.1-2.1,3.8-2.1c1.8,0,3.4,0.8,4,2.6
	c0.7-1.6,2.1-2.6,4.1-2.6c2.2,0,4.3,1.3,4.3,4.2v5.6h1.6L28.9,22.3L28.9,22.3z M36.8,22.5c-3.8,0-6.5-2.3-6.5-6.2
	c0-3.6,2.2-6.6,6.6-6.6s6.6,3,6.6,6.4C43.6,20,40.7,22.5,36.8,22.5z M36.9,12.4c-1.8,0-2.9,1.3-2.9,3.6c0,2.1,1,3.8,2.9,3.8
	c1.8,0,3-1.5,3-3.8C39.9,13.5,38.6,12.4,36.9,12.4z M85.4,18.6c0,0.8,0.4,1.4,1.5,1.4c1.3,0,2.6-0.9,2.7-2.9
	c-0.6-0.1-1.2-0.2-1.8-0.2C86.5,16.9,85.4,17.2,85.4,18.6z"/>
</svg>
