<svg xmlns="http://www.w3.org/2000/svg" width="30" height="30" viewBox="0 0 30 30">
  <path fill="#FFF" d="M7.5171817,1 C5.44769542,1 3.77004531,2.67875607 3.77004531,4.74960663 L7.5171817,4.74960663 L7.5171817,1 Z M18.7585908,1 L15.0114545,1 L15.0114545,4.74960663 L18.7585908,4.74960663 L18.7585908,1 Z M26.2528636,1 L26.2528636,4.74960663 L30,4.74960663 C30,2.67875607 28.3223499,1 26.2528636,1 Z M13.1378863,1 L9.39074989,1 L9.39074989,4.74960663 L13.1378863,4.74960663 L13.1378863,1 Z M24.3792954,1 L20.632159,1 L20.632159,4.74960663 L24.3792954,4.74960663 L24.3792954,1 Z M26.2528636,10.3740166 L30,10.3740166 L30,6.62440995 L26.2528636,6.62440995 L26.2528636,10.3740166 Z M26.2528636,21.6228365 C28.3223499,21.6228365 30,19.9440804 30,17.8732299 L26.2528636,17.8732299 L26.2528636,21.6228365 Z M26.2528636,15.9984265 L30,15.9984265 L30,12.2488199 L26.2528636,12.2488199 L26.2528636,15.9984265 Z M25.42662,11.9357277 C24.2401583,10.2393855 21.904211,9.82644343 20.2087326,11.0133245 L13.0235986,16.3208927 L9.33641641,13.7336641 C9.36545672,13.5527456 9.38325562,13.3699523 9.39074989,13.1862216 C9.38780308,11.7173719 8.69361047,10.3357126 7.5171817,9.45723776 L7.5171817,6.62440995 L3.77004531,6.62440995 L3.77004531,8.59295343 C1.88994713,8.96730137 0.427567397,10.4502462 0.0785138977,12.336398 C-0.270539602,14.2225498 0.564194549,16.1311619 2.18565972,17.154368 C3.80712489,18.1775741 5.88800525,18.1088254 7.43849183,16.9808235 L9.76546353,18.6100276 L7.14246806,20.4510844 C5.25097742,19.3029327 2.81406603,19.639462 1.30405309,21.25735 C-0.205959843,22.875238 -0.375193216,25.331036 0.898599428,27.1410139 C2.17239207,28.9509919 4.5400755,29.619051 6.57115627,28.7415671 C8.60223703,27.8640832 9.74001395,25.6815668 9.29707148,23.5126382 L25.42662,11.9357277 Z M4.70682941,15.5297257 C3.41340048,15.5297257 2.36486917,14.4805032 2.36486917,13.1862216 C2.36486917,11.89194 3.41340048,10.8427174 4.70682941,10.8427174 C6.00025833,10.8427174 7.04878965,11.89194 7.04878965,13.1862216 C7.04878965,14.4805032 6.00025833,15.5297257 4.70682941,15.5297257 Z M4.70682941,26.7785456 C3.41340048,26.7785456 2.36486917,25.7293231 2.36486917,24.4350415 C2.36486917,23.1407599 3.41340048,22.0915373 4.70682941,22.0915373 C6.00025833,22.0915373 7.04878965,23.1407599 7.04878965,24.4350415 C7.04878965,25.7293231 6.00025833,26.7785456 4.70682941,26.7785456 Z M14.8240976,22.2246484 L20.4766529,26.536696 C22.1721313,27.7235771 24.5080785,27.310635 25.6945403,25.6142927 L18.0841063,19.9355135 L14.8240976,22.2246484 Z"/>
</svg>
