<?xml version="1.0" encoding="utf-8"?>
<!-- Generator: Adobe Illustrator 21.0.0, SVG Export Plug-In . SVG Version: 6.00 Build 0)  -->
<svg version="1.1" id="Layer_1" xmlns="http://www.w3.org/2000/svg" xmlns:xlink="http://www.w3.org/1999/xlink" x="0px" y="0px"
	 viewBox="0 0 40 40" style="enable-background:new 0 0 40 40;" xml:space="preserve">
<style type="text/css">
	.st0{fill:#3E3D40;}
</style>
<g id="Page-1">
	<path id="Fill-1" class="st0" d="M36,34c0,1.1-0.9,2-2,2H18c-1.1,0-2-0.9-2-2V14c0-1.1,0.9-2,2-2h8.2l9.8,9.8V34z M31.8,12l-4-4H16
		c-2.2,0-4,1.8-4,4v24c0,2.2,1.8,4,4,4h20c2.2,0,4-1.8,4-4V20.2L31.8,12z"/>
	<path id="Fill-4" class="st0" d="M28,13.8L26.2,12H26v8c0,1.1,0.9,2,2,2h8v-0.2L34.2,20H28V13.8z"/>
	<path id="Fill-6" class="st0" d="M6,28c-1.1,0-2-0.9-2-2V6c0-1.1,0.9-2,2-2h8.2l2,2h5.7l-2-2l-4-4H4C1.8,0,0,1.8,0,4v24
		c0,2.2,1.8,4,4,4h6v-4H6z"/>
</g>
</svg>
