<?xml version="1.0" encoding="utf-8"?>
<!-- Generator: Adobe Illustrator 21.1.0, SVG Export Plug-In . SVG Version: 6.00 Build 0)  -->
<svg version="1.1" id="Layer_1" xmlns="http://www.w3.org/2000/svg" xmlns:xlink="http://www.w3.org/1999/xlink" x="0px" y="0px"
	 viewBox="0 0 20 20" style="enable-background:new 0 0 20 20;" xml:space="preserve">
<style type="text/css">
	.st0{fill:#3E3D40;}
</style>
<path class="st0" d="M15,8h-0.3c-0.2-2.3-1.8-4.2-4-4.9v2.1c1.1,0.5,1.9,1.6,2,2.9l0.1,1.8h1.8H15c1.7,0,3,1.3,3,3s-1.3,3-3,3H5
	c-1.7,0-3-1.3-3-3c0-1.3,0.9-2.5,2.2-2.9l1.4-0.4l0.1-1.4c0.1-1.3,0.8-2.5,2-3v-2c-2.2,0.7-3.9,2.6-4,5.1C1.6,8.9,0,10.8,0,13
	c0,2.8,2.2,5,5,5h10c2.8,0,5-2.2,5-5S17.7,8,15,8z"/>
<path class="st0" d="M6.9,8.1c-0.2,0.2-0.2,0.5,0,0.7l2,2c0.2,0.2,0.5,0.2,0.7,0l2-2c0.2-0.2,0.2-0.5,0-0.7s-0.5-0.2-0.7,0l0,0
	L9.7,9.3V2.5C9.7,2.2,9.5,2,9.2,2S8.7,2.2,8.7,2.5v6.8L7.6,8.1C7.4,7.9,7.1,7.9,6.9,8.1L6.9,8.1z"/>
</svg>
