<svg xmlns="http://www.w3.org/2000/svg" xmlns:xlink="http://www.w3.org/1999/xlink" width="409" height="295" viewBox="0 0 409 295">
  <defs>
    <rect id="sync-a" width="27.373" height="25.57"/>
    <rect id="sync-c" width="27.373" height="25.57"/>
    <rect id="sync-e" width="34.109" height="32.053"/>
    <rect id="sync-g" width="34.109" height="32.053"/>
    <rect id="sync-i" width="34.109" height="32.053"/>
  </defs>
  <g fill="none" fill-rule="evenodd" transform="translate(1 -5)">
    <g transform="translate(0 20.888)">
      <path stroke="#C8C8CC" stroke-dasharray="3.6 7.2" stroke-linecap="round" stroke-linejoin="round" stroke-width="1.8" d="M231.773894,248.4994 C143.353838,248.4994 71.6752212,192.870914 71.6752212,124.2497 C71.6752212,55.6284855 143.353838,-5.13283266e-15 231.773894,1.02656653e-14 C320.193949,2.56641633e-14 391.872566,55.6284855 391.872566,124.2497 C391.872566,192.870914 320.193949,248.4994 231.773894,248.4994 Z" opacity=".6"/>
      <g transform="translate(355.495 80.672)">
        <rect width="51.304" height="94.052" fill="#E1E1E6" stroke="#C8C8CC" stroke-width="1.8" rx="3.6"/>
        <path fill="#FFF" d="M7.56282675,6.48259027 L43.6831556,6.48259027 C44.6772681,6.48259027 45.4831556,7.28847772 45.4831556,8.28259027 L45.4831556,81.2204109 C45.4831556,82.2145235 44.6772681,83.0204109 43.6831556,83.0204109 L7.56282675,83.0204109 C6.5687142,83.0204109 5.76282675,82.2145235 5.76282675,81.2204109 L5.76282675,8.28259027 C5.76282675,7.28847772 6.5687142,6.48259027 7.56282675,6.48259027 Z" transform="rotate(-.08 25.623 44.752)"/>
        <g transform="translate(11.886 13.325)">
          <mask id="sync-b" fill="#fff">
            <use xlink:href="#sync-a"/>
          </mask>
          <rect width="28.41" height="26.607" x="-.518" y="-.518" stroke="#C8C8CC" stroke-width="1.037"/>
          <g fill-rule="nonzero" mask="url(#sync-b)">
            <g transform="translate(-2.772 -1.037)">
              <polygon fill="#E1E1E6" points=".266 .276 .266 24.084 33.173 24.084 33.173 .276"/>
              <path fill="#FFF" d="M3.11849446,18.3897356 L8.61359525,6.87799087 C8.78626492,6.51626334 9.21947946,6.36300167 9.58120699,6.53567134 C9.67202851,6.57902475 9.75284098,6.64079298 9.8185111,6.71705242 L15.4813839,13.2930651 L18.5573058,9.81304976 C18.8227591,9.51272301 19.2814145,9.4844525 19.5817412,9.74990582 C19.6084376,9.77350224 19.6333601,9.79903252 19.6563065,9.82628958 L26.8654675,18.3897356 L3.11849446,18.3897356 Z"/>
              <circle cx="24.082" cy="6.393" r="3.629" fill="#FFF"/>
            </g>
          </g>
          <rect width="27.373" height="6.911" y="18.659" fill="#FFF" fill-rule="nonzero" mask="url(#sync-b)"/>
          <rect width="19.057" height="1.382" x="2.772" y="21.424" fill="#C8C8CC" fill-rule="nonzero" rx=".691"/>
        </g>
        <g transform="translate(11.886 44.658)">
          <mask id="sync-d" fill="#fff">
            <use xlink:href="#sync-c"/>
          </mask>
          <rect width="28.41" height="26.607" x="-.518" y="-.518" stroke="#C8C8CC" stroke-width="1.037"/>
          <g fill-rule="nonzero" mask="url(#sync-d)">
            <g transform="translate(-2.772 -1.037)">
              <polygon fill="#E1E1E6" points=".266 .276 .266 24.084 33.173 24.084 33.173 .276"/>
              <path fill="#FFF" d="M3.11849446,18.3897356 L8.61359525,6.87799087 C8.78626492,6.51626334 9.21947946,6.36300167 9.58120699,6.53567134 C9.67202851,6.57902475 9.75284098,6.64079298 9.8185111,6.71705242 L15.4813839,13.2930651 L18.5573058,9.81304976 C18.8227591,9.51272301 19.2814145,9.4844525 19.5817412,9.74990582 C19.6084376,9.77350224 19.6333601,9.79903252 19.6563065,9.82628958 L26.8654675,18.3897356 L3.11849446,18.3897356 Z"/>
              <circle cx="24.082" cy="6.393" r="3.629" fill="#FFF"/>
            </g>
          </g>
          <rect width="27.373" height="6.911" y="18.659" fill="#FFF" fill-rule="nonzero" mask="url(#sync-d)"/>
          <rect width="19.057" height="1.382" x="2.772" y="21.424" fill="#C8C8CC" fill-rule="nonzero" rx=".691"/>
        </g>
        <ellipse cx="25.497" cy="88.239" fill="#C8C8CC" rx="3.166" ry="3.245" transform="rotate(-.08 25.497 88.239)"/>
        <g fill="#C8C8CC" transform="translate(18.73 2.521)">
          <circle cx=".846" cy=".846" r="1" transform="rotate(-.08 .846 .846)"/>
          <path d="M2.88123888,0.360143477 L11.9796637,0.36014473 C12.1784861,0.360144756 12.3396636,0.52132221 12.3396636,0.720144684 L12.3396638,0.97253364 C12.3396638,1.17135615 12.1784864,1.33253366 11.9796639,1.33253369 C11.9796638,1.33253369 11.9796638,1.33253369 11.9796638,1.33253369 L2.881239,1.33253234 C2.68241653,1.33253232 2.52123907,1.17135486 2.52123905,0.972532387 L2.52123883,0.720143431 C2.52123881,0.521320921 2.68241627,0.36014341 2.88123878,0.360143385 C2.88123882,0.360143385 2.88123885,0.360143385 2.88123888,0.360143385 Z" transform="rotate(-.08 7.43 .846)"/>
        </g>
      </g>
      <g transform="translate(0 37.455)">
        <path fill="#E1E1E6" d="M124.430345,121.055222 C124.430345,121.055222 129.472823,155.697479 159.07577,167.204082 L99.1783363,167.286915 L39.2809027,167.369748 C68.8370265,155.780312 73.8038673,121.123649 73.8038673,121.123649 L124.430345,121.055222 Z"/>
        <polygon fill="#F5F5F5" points="39.293 167.281 159.088 167.281 159.088 172.928 39.293 172.928" transform="rotate(-.08 99.19 170.105)"/>
        <path stroke="#C8C8CC" stroke-linecap="round" stroke-linejoin="round" stroke-width="1.8" d="M159.059217,167.197644 L159.084031,167.19761 L159.091916,172.844678 L39.2971574,173.011943 L39.2892794,167.369736 L39.2809027,167.369748 L39.2892726,167.364875 C68.83842,155.770589 73.8038673,121.123649 73.8038673,121.123649 L124.430345,121.055222 C124.430345,121.055222 129.470943,155.684565 159.059217,167.197644 Z"/>
        <path fill="#E1E1E6" d="M3.87550442,0.205282113 L193.865265,0.205282113 C196.003658,0.205282113 197.737168,1.93863347 197.737168,4.07683073 L197.737168,112.235294 L0,112.235294 L0,4.07683073 C-4.44572004e-07,3.0494079 0.408425368,2.06411818 1.13532715,1.33795836 C1.86222894,0.611798539 2.84798809,0.204326371 3.87550442,0.205282113 Z"/>
        <path fill="#F5F5F5" d="M184.198115,130.213685 L14.0649115,130.447779 C10.4043973,130.452558 6.89190989,129.003139 4.30015812,126.418378 C1.70840635,123.833617 0.249693483,120.325246 0.244920354,116.665066 L0.244920354,111.983193 L197.982105,111.709484 L197.982088,116.391357 C197.987824,120.05216 196.538695,123.565251 193.953594,126.157545 C191.368493,128.749839 187.859254,130.208913 184.198115,130.213685 Z"/>
        <path stroke="#C8C8CC" stroke-width="1.8" d="M-2.84217094e-13,112.235294 L-2.84217094e-13,112.123648 L197.737185,111.849938 L197.737168,116.531811 C197.742904,120.192614 196.293774,123.705706 193.708674,126.298 C191.123573,128.890294 187.614334,130.349368 183.953195,130.35414 L13.8199912,130.588234 C10.1594769,130.593013 6.64698953,129.143593 4.05523777,126.558833 C1.463486,123.974072 0.00477312909,120.4657 -2.84217094e-13,116.805521 L-2.84217094e-13,112.235294 L-2.84217094e-13,4.07683073 C-4.44572288e-07,3.0494079 0.408425368,2.06411818 1.13532715,1.33795836 C1.86222894,0.611798539 2.84798809,0.204326371 3.87550442,0.205282113 L193.865265,0.205282113 C196.003658,0.205282113 197.737168,1.93863347 197.737168,4.07683073 L197.737168,112.235294 L-2.84217094e-13,112.235294 Z"/>
        <rect width="178.94" height="90.439" x="9.725" y="9.364" fill="#FFF"/>
        <g transform="translate(30.615 38.896)">
          <mask id="sync-f" fill="#fff">
            <use xlink:href="#sync-e"/>
          </mask>
          <rect width="35.405" height="33.349" x="-.648" y="-.648" stroke="#C8C8CC" stroke-width="1.296"/>
          <g fill-rule="nonzero" mask="url(#sync-f)">
            <g transform="translate(-3.454 -1.3)">
              <polygon fill="#E1E1E6" points=".332 .347 .332 30.19 41.336 30.19 41.336 .347"/>
              <path fill="#FFF" d="M3.88582117,23.0519221 L10.7306037,8.62681762 C10.9453923,8.17415921 11.4864651,7.98132765 11.9391235,8.19611627 C12.054231,8.25073538 12.156543,8.32898794 12.2393965,8.42577792 L19.2906835,16.6631379 L23.1194402,12.3054366 C23.4501432,11.9290468 24.0233553,11.8920103 24.3997451,12.2227134 C24.4345458,12.2532899 24.4669533,12.2864871 24.4966833,12.3220136 L33.475898,23.0519221 L3.88582117,23.0519221 Z"/>
              <circle cx="30.007" cy="8.013" r="4.536" fill="#FFF"/>
            </g>
          </g>
          <rect width="34.109" height="8.663" y="23.39" fill="#FFF" fill-rule="nonzero" mask="url(#sync-f)"/>
          <rect width="23.747" height="1.733" x="3.454" y="26.855" fill="#C8C8CC" fill-rule="nonzero" rx=".866"/>
          <g transform="translate(51.38)">
            <mask id="sync-h" fill="#fff">
              <use xlink:href="#sync-g"/>
            </mask>
            <rect width="35.405" height="33.349" x="-.648" y="-.648" stroke="#C8C8CC" stroke-width="1.296"/>
            <g fill-rule="nonzero" mask="url(#sync-h)">
              <g transform="translate(-3.454 -1.3)">
                <polygon fill="#E1E1E6" points=".332 .347 .332 30.19 41.336 30.19 41.336 .347"/>
                <path fill="#FFF" d="M3.88582117,23.0519221 L10.7306037,8.62681762 C10.9453923,8.17415921 11.4864651,7.98132765 11.9391235,8.19611627 C12.054231,8.25073538 12.156543,8.32898794 12.2393965,8.42577792 L19.2906835,16.6631379 L23.1194402,12.3054366 C23.4501432,11.9290468 24.0233553,11.8920103 24.3997451,12.2227134 C24.4345458,12.2532899 24.4669533,12.2864871 24.4966833,12.3220136 L33.475898,23.0519221 L3.88582117,23.0519221 Z"/>
                <circle cx="30.007" cy="8.013" r="4.536" fill="#FFF"/>
              </g>
            </g>
            <rect width="34.109" height="8.663" y="23.39" fill="#FFF" fill-rule="nonzero" mask="url(#sync-h)"/>
            <rect width="23.747" height="1.733" x="3.454" y="26.855" fill="#C8C8CC" fill-rule="nonzero" rx=".866"/>
          </g>
          <g transform="translate(102.758)">
            <mask id="sync-j" fill="#fff">
              <use xlink:href="#sync-i"/>
            </mask>
            <rect width="35.405" height="33.349" x="-.648" y="-.648" stroke="#C8C8CC" stroke-width="1.296"/>
            <g fill-rule="nonzero" mask="url(#sync-j)">
              <g transform="translate(-3.454 -1.3)">
                <polygon fill="#E1E1E6" points=".332 .347 .332 30.19 41.336 30.19 41.336 .347"/>
                <path fill="#FFF" d="M3.88582117,23.0519221 L10.7306037,8.62681762 C10.9453923,8.17415921 11.4864651,7.98132765 11.9391235,8.19611627 C12.054231,8.25073538 12.156543,8.32898794 12.2393965,8.42577792 L19.2906835,16.6631379 L23.1194402,12.3054366 C23.4501432,11.9290468 24.0233553,11.8920103 24.3997451,12.2227134 C24.4345458,12.2532899 24.4669533,12.2864871 24.4966833,12.3220136 L33.475898,23.0519221 L3.88582117,23.0519221 Z"/>
                <circle cx="30.007" cy="8.013" r="4.536" fill="#FFF"/>
              </g>
            </g>
            <rect width="34.109" height="8.663" y="23.39" fill="#FFF" fill-rule="nonzero" mask="url(#sync-j)"/>
            <rect width="23.747" height="1.733" x="3.454" y="26.855" fill="#C8C8CC" fill-rule="nonzero" rx=".866"/>
          </g>
        </g>
      </g>
    </g>
    <g fill-rule="nonzero" transform="translate(135.427 141.537)">
      <ellipse cx="101.75" cy="148.199" fill="#EDEDF2" rx="68.073" ry="10.264"/>
      <g transform="translate(.18)">
        <path fill="#00EAE8" stroke="#00B3D0" stroke-width="1.8" d="M58.8171444,72.7035812 C50.3717735,67.9404089 19.6732997,48.080709 19.6732997,48.080709 L15.0026596,52.6749754 C11.3127551,56.3728109 7.40344215,55.2033939 5.82391851,54.1115542 L3.49546437,54.9692851 C2.3609735,55.3531879 0.842963472,54.6030363 0.459444323,53.4689819 C0.0759251749,52.3349275 0.826896902,50.8169704 1.96138778,50.4330677 L3.01628204,50.044477 C2.1079123,49.819336 1.33220107,49.0957656 1.1968894,48.155489 C1.01679084,46.9039897 1.88515051,45.5893545 3.13702933,45.4087736 L8.11720932,44.5795679 C9.31778438,42.1414157 10.6949192,39.9806828 11.8870845,39.2923858 C14.6494667,29.0413814 55.5215541,61.8041794 56.397947,62.3825771 C57.1864705,62.902983 57.9095978,63.4037089 58.571656,63.8851487 C58.3028493,49.5713941 58.6921245,36.4546229 59.6442332,28.9153729 L55.1213351,24.401934 C51.180045,20.4688868 51.180045,13.9708088 55.1213351,9.86675952 C59.0626253,5.93371229 65.574322,5.93371229 69.6869726,9.86675952 L73.1479477,13.3204962 C79.7652945,11.3806084 91.8146143,7.95878252 96.0764805,7.47273077 C102.074096,6.78872256 114.926129,0.290644538 114.926129,0.290644538 L111.841641,7.13072667 L119.03878,5.07870203 L119.03878,8.8407472 L133.290696,12.7448556 L135.489382,10.5507677 C139.430672,6.61772051 145.942369,6.61772051 150.055019,10.5507677 C153.99631,14.483815 153.99631,20.981893 150.055019,25.0859423 L147.01861,28.1160013 C148.189409,38.0287989 148.437162,48.7823347 148.105068,59.4347898 C148.962554,58.8795884 149.924074,58.2988607 150.999317,57.692403 C151.913922,57.1765484 198.317818,24.5273203 200.358397,34.9460477 C201.499645,35.7158293 202.7227,37.9673629 203.750274,40.4833237 L208.66048,41.6579093 C209.896713,41.9253769 210.671253,43.2973835 210.404293,44.5332712 C210.20372,45.4618184 209.379425,46.1295154 208.457563,46.2907433 L209.482781,46.751973 C210.587728,47.2140787 211.230983,48.7807233 210.769291,49.8852623 C210.307598,50.9898012 208.740958,51.6322344 207.636011,51.1701288 L205.373061,50.1520624 C203.721222,51.1310605 199.739857,52.024929 196.316889,48.0787064 L191.978106,43.1698241 C191.978106,43.1698241 156.663444,63.4604395 147.72585,67.8549192 C146.50911,88.6933667 143.378358,108.160429 140.991191,118.963004 C140.170457,124.340513 139.079083,129.969624 137.717068,133.843248 C134.289859,143.590365 130.348569,148.378423 128.634964,147.010406 C127.815407,146.356132 127.779781,139.01327 127.965696,131.52931 C114.269999,133.990482 91.5635884,133.575428 78.2393048,131.548787 C78.4246736,139.026005 78.3883987,146.3567 77.5695529,147.010406 C75.8559485,148.378423 71.9146583,143.590365 68.4874495,133.843248 C67.7749654,131.816915 67.1365407,129.310204 66.5721752,126.61042 C62.1206301,118.795454 59.6540864,95.3781628 58.8171444,72.7035812 Z"/>
        <path fill="#72FFFF" d="M71.9146583,21.8369032 C59.5767066,30.0450018 67.2879264,107.166928 75.1705067,116.743043 C88.0225398,132.475232 127.264081,131.278217 134.80394,113.665006 C136.003463,110.757971 147.827334,55.5243077 138.916591,25.0859423 C136.003463,15.3388252 101.560015,2.34266918 71.9146583,21.8369032 Z"/>
        <path fill="#525A83" d="M77.226832 31.7550223C78.2549947 31.7550223 79.1117969 32.6100326 79.1117969 33.6360449L79.1117969 37.7400942C79.1117969 38.7661065 78.2549947 39.6211168 77.226832 39.6211168L77.226832 39.6211168C76.1986694 39.6211168 75.3418672 38.7661065 75.3418672 37.7400942L75.3418672 33.6360449C75.3418672 32.6100326 76.1986694 31.7550223 77.226832 31.7550223L77.226832 31.7550223zM123.322791 31.7550223C124.350953 31.7550223 125.207756 32.6100326 125.207756 33.6360449L125.207756 37.7400942C125.207756 38.7661065 124.350953 39.6211168 123.322791 39.6211168L123.322791 39.6211168C122.294628 39.6211168 121.437826 38.7661065 121.437826 37.7400942L121.437826 33.6360449C121.437826 32.6100326 122.294628 31.7550223 123.322791 31.7550223L123.322791 31.7550223z"/>
        <path fill="#00DCDB" d="M77.2780423,44.7616881 C72.9940312,44.7616881 70.9377059,41.5126491 70.7663455,41.3416471 C70.2522642,40.4866368 70.4236246,39.4606245 71.2804268,38.9476183 C72.137229,38.4346122 73.1653917,38.6056142 73.679473,39.4606245 C73.679473,39.6316265 74.8789961,41.3416471 77.2780423,41.3416471 C79.6770884,41.3416471 80.8766115,39.6316265 80.8766115,39.6316265 C81.3906929,38.7766163 82.4188555,38.6056142 83.2756577,39.1186204 C84.1324599,39.6316265 84.3038203,40.6576389 83.789739,41.5126491 C83.6183786,41.5126491 81.5620533,44.7616881 77.2780423,44.7616881 Z" transform="rotate(-180 77.278 41.71)"/>
        <path fill="#00DCDB" d="M123.900619,44.6628539 C119.616608,44.6628539 117.560283,41.4138149 117.388923,41.2428128 C116.874841,40.3878025 117.046202,39.3617902 117.903004,38.8487841 C118.759806,38.3357779 119.787969,38.50678 120.30205,39.3617902 C120.30205,39.5327923 121.501573,41.2428128 123.900619,41.2428128 C126.299666,41.2428128 127.499189,39.5327923 127.499189,39.5327923 C128.01327,38.677782 129.041433,38.50678 129.898235,39.0197861 C130.755037,39.5327923 130.926397,40.5588046 130.412316,41.4138149 C130.240956,41.4138149 128.01327,44.6628539 123.900619,44.6628539 Z" transform="rotate(-180 123.9 41.612)"/>
        <path fill="#00DCDB" d="M93.5297901,55.6051659 C93.1876797,54.75025 93.7023544,53.7237478 94.7304741,53.5520498 C94.9018088,53.5519381 104.557294,53.35993 105.244533,50.4520097 C105.75999,48.2283124 105.136566,46.8225733 105.136566,46.8225733 C104.96579,45.9675457 105.480353,45.1120713 106.165915,44.7695689 C107.022812,44.4269547 107.87915,44.9394799 108.221372,45.6233679 C108.905817,46.9911441 110.103706,49.2137245 110.960044,49.7262496 C112.67272,50.7512999 115.90133,48.3607777 118.966207,46.8258846 C118.966207,46.8258846 120.671618,46.1970347 121.192886,47.8505998 C121.595968,48.7077649 120.83185,49.7286682 120.163425,50.0746321 C117.00984,52.231408 111.642476,54.1725273 109.073462,52.6349518 C108.902239,52.4640356 108.388459,52.122315 108.388459,52.122315 C106.308881,57.0871947 96.2391333,56.6500076 95.896464,56.6502309 C95.5537947,56.6504543 94.1738427,56.8257826 93.5297901,55.6051659 Z" transform="rotate(13 107.365 50.66)"/>
        <g fill="#525A83" transform="translate(96.798 35.725)">
          <path d="M2.0199835,7.31643193 C0.991820852,8.51344631 9.04576158,10.3944689 10.0739242,10.2234668 C11.6161682,9.88146273 18.2992254,4.92240319 17.2710628,2.52837444 C16.9283419,1.16035802 6.13263408,2.87037855 2.0199835,7.31643193 Z"/>
          <path d="M9.90256379,11.7624853 C7.8462385,11.7624853 1.50590218,10.3944689 0.306379088,8.51344631 C-0.207702235,7.65843604 -0.0363417939,6.80342577 0.64909997,6.11941756 L0.64909997,6.11941756 C4.59039011,1.84436623 13.8438539,-0.207658408 16.9283419,0.476349804 C18.127865,0.647351858 18.6419463,1.33136007 18.8133067,1.84436623 C19.1560276,2.87037855 18.9846672,3.89639087 18.2992254,5.09340524 C16.7569814,7.82943809 11.9588891,11.4204812 10.2452847,11.7624853 C10.2452847,11.7624853 10.2452847,11.7624853 9.90256379,11.7624853 Z M4.59039011,7.31643193 C6.30399453,7.82943809 9.04576158,8.51344631 9.73120335,8.51344631 C10.759366,8.1714422 14.1865748,5.43540935 15.2147375,3.89639087 C12.9870517,3.89639087 7.8462385,4.92240319 4.59039011,7.31643193 Z"/>
        </g>
      </g>
    </g>
    <g fill-rule="nonzero" transform="rotate(13 128.908 1137.808)">
      <ellipse cx="22.685" cy="22.685" fill="#00EAE8" rx="22.331" ry="22.329"/>
      <path fill="#FFF" d="M29.1239933,18.2036354 L26.0469613,18.2036354 C25.4280982,18.2036354 24.9264106,18.7052769 24.9264106,19.3240831 C24.9264106,19.9428892 25.4280982,20.4445307 26.0469613,20.4445307 L31.3695768,20.4445307 C32.1427567,20.4445307 32.7702651,19.8170801 32.7702651,19.0439712 L32.7702651,13.7218448 C32.7702651,13.1030387 32.2685775,12.6013972 31.6497145,12.6013972 C31.0308514,12.6013972 30.5291638,13.1030387 30.5291638,13.7218448 L30.5291638,16.3470537 C28.6163244,13.9757141 25.7321489,12.5984408 22.6853094,12.6013972 C17.6025296,12.6016335 13.314069,16.3835832 12.6787921,21.4260429 C12.6188177,21.8282163 12.7814572,22.2313137 13.103747,22.4792815 C13.4260369,22.7272494 13.8573856,22.7811631 14.2308027,22.6201506 C14.6042198,22.459138 14.8610881,22.1084743 14.9019646,21.7039139 C15.3081394,18.4824792 17.6572101,15.8442224 20.8103331,15.0681862 C23.9634561,14.29215 27.2688315,15.5387534 29.1239933,18.2036354 Z M32.6918266,23.9448092 C32.751801,23.5426358 32.5891615,23.1395384 32.2668717,22.8915706 C31.9445818,22.6436027 31.5132331,22.589689 31.139816,22.7507015 C30.7663989,22.911714 30.5095306,23.2623778 30.4686541,23.6669382 C30.0624793,26.8883729 27.7134086,29.5266297 24.5602856,30.3026659 C21.4071626,31.078702 18.1017872,29.8320987 16.2466254,27.1672167 L19.3236574,27.1672167 C19.9425205,27.1672167 20.4442081,26.6655752 20.4442081,26.046769 C20.4442081,25.4279628 19.9425205,24.9263213 19.3236574,24.9263213 L14.0010419,24.9263213 C13.227862,24.9263213 12.6003536,25.553772 12.6003536,26.3268809 L12.6003536,31.6490073 C12.6003536,32.2678134 13.1020412,32.7694549 13.7209042,32.7694549 C14.3397673,32.7694549 14.8414549,32.2678134 14.8414549,31.6490073 L14.8414549,29.0237984 C16.7542943,31.395138 19.6384698,32.7724113 22.6853094,32.7694549 C27.7680891,32.7692186 32.0565497,28.9872688 32.6918266,23.9448092 Z"/>
    </g>
  </g>
</svg>
