<?xml version="1.0" encoding="utf-8"?>
<!-- Generator: Adobe Illustrator 21.1.0, SVG Export Plug-In . SVG Version: 6.00 Build 0)  -->
<svg version="1.1" id="Layer_1" xmlns="http://www.w3.org/2000/svg" xmlns:xlink="http://www.w3.org/1999/xlink" x="0px" y="0px"
	 viewBox="0 0 20 20" style="enable-background:new 0 0 20 20;" xml:space="preserve">
<style type="text/css">
	.st0{fill:#3E3D40;}
</style>
<path class="st0" d="M15,6.6h-0.3C14.5,3.7,12,1.5,9.2,1.5c-3,0-5.4,2.4-5.5,5.3C1.5,7.4,0,9.3,0,11.6c0,2.8,2.2,5,5,5h2.4v-2.1H5
	c-1.7,0-3-1.3-3-3C2,10.2,2.8,9,4.2,8.6l1.4-0.4l0.1-1.4c0.1-1.9,1.6-3.3,3.5-3.3c1.8,0,3.4,1.4,3.5,3.2l0.1,1.8h1.8h0.3
	c1.7,0,3,1.3,3,3c0,1.7-1.3,3-3,3h-4.4v2.1H15c2.8,0,5-2.2,5-5S17.8,6.6,15,6.6z"/>
<path class="st0" d="M11.3,12.4c0.2-0.2,0.2-0.5,0-0.7l-2-2c-0.2-0.2-0.5-0.2-0.7,0l-2,2c-0.2,0.2-0.2,0.5,0,0.7s0.5,0.2,0.7,0l0,0
	l1.1-1.1V18c0,0.3,0.2,0.5,0.5,0.5s0.5-0.2,0.5-0.5v-6.8l1.1,1.1C10.8,12.5,11.1,12.5,11.3,12.4L11.3,12.4z"/>
</svg>
