<?xml version="1.0" encoding="UTF-8" standalone="no"?>
<svg width="40px" height="40px" viewBox="0 0 40 40" version="1.1" xmlns="http://www.w3.org/2000/svg" xmlns:xlink="http://www.w3.org/1999/xlink">
    <!-- Generator: Sketch 47.1 (45422) - http://www.bohemiancoding.com/sketch -->
    <title>Twitter</title>
    <desc>Created with Sketch.</desc>
    <defs></defs>
    <g id="Key-Screens" stroke="none" stroke-width="1" fill="none" fill-rule="evenodd">
        <g id="4.0-Share-panel" transform="translate(-822.000000, -278.000000)" fill-rule="nonzero">
            <g id="Group-Copy" transform="translate(714.000000, 142.000000)">
                <g id="Group" transform="translate(20.000000, 28.000000)">
                    <g id="Social-media-icons" transform="translate(24.000000, 107.000000)">
                        <g id="Twitter" transform="translate(64.000000, 1.000000)">
                            <g id="Dark_Blue" fill="#1DA1F2">
                                <circle id="Oval" cx="20" cy="20" r="20"></circle>
                            </g>
                            <g id="Logo__x2014__FIXED" transform="translate(8.900000, 11.400000)" fill="#FFFFFF">
                                <path d="M7.44,19.15 C16.31,19.15 21.16,11.8 21.16,5.43 C21.16,5.22 21.16,5.01 21.15,4.81 C22.09,4.13 22.91,3.28 23.56,2.31 C22.7,2.69 21.77,2.95 20.79,3.07 C21.79,2.47 22.55,1.53 22.91,0.4 C21.98,0.95 20.95,1.35 19.85,1.57 C18.97,0.63 17.72,0.05 16.33,0.05 C13.67,0.05 11.51,2.21 11.51,4.87 C11.51,5.25 11.55,5.62 11.64,5.97 C7.63,5.77 4.08,3.85 1.7,0.93 C1.29,1.64 1.05,2.47 1.05,3.35 C1.05,5.02 1.9,6.5 3.2,7.36 C2.41,7.34 1.67,7.12 1.02,6.76 C1.02,6.78 1.02,6.8 1.02,6.82 C1.02,9.16 2.68,11.1 4.89,11.55 C4.49,11.66 4.06,11.72 3.62,11.72 C3.31,11.72 3.01,11.69 2.71,11.63 C3.32,13.55 5.1,14.94 7.21,14.98 C5.56,16.27 3.48,17.04 1.22,17.04 C0.83,17.04 0.45,17.02 0.07,16.97 C2.18,18.35 4.72,19.15 7.44,19.15" id="Shape"></path>
                            </g>
                        </g>
                    </g>
                </g>
            </g>
        </g>
    </g>
</svg>