<?xml version="1.0" encoding="UTF-8" standalone="no"?>
<svg width="9px" height="9px" viewBox="0 0 9 9" version="1.1" xmlns="http://www.w3.org/2000/svg" xmlns:xlink="http://www.w3.org/1999/xlink">
    <!-- Generator: Sketch 46.2 (44496) - http://www.bohemiancoding.com/sketch -->
    <title>Shape</title>
    <desc>Created with Sketch.</desc>
    <defs></defs>
    <g id="Visual" stroke="none" stroke-width="1" fill="none" fill-rule="evenodd">
        <g id="Desktop-promotion" transform="translate(-1181.000000, -195.000000)" fill-rule="nonzero" fill="#4A4A4A">
            <path d="M1186.20511,199.257793 L1189.30333,196.159579 C1189.55698,195.896706 1189.55316,195.479045 1189.29473,195.220862 C1189.03631,194.962679 1188.61864,194.959248 1188.35601,195.21315 L1185.25779,198.310472 L1182.15958,195.21315 C1181.99264,195.033996 1181.74123,194.960249 1181.50396,195.020842 C1181.2667,195.081434 1181.08143,195.266702 1181.02084,195.503964 C1180.96025,195.741226 1181.034,195.992641 1181.21315,196.159579 L1184.31047,199.257793 L1181.21315,202.356008 C1181.034,202.522946 1180.96025,202.774361 1181.02084,203.011623 C1181.08143,203.248885 1181.2667,203.434152 1181.50396,203.494745 C1181.74123,203.555337 1181.99264,203.481591 1182.15958,203.302436 L1185.25779,200.205115 L1188.35601,203.303329 C1188.61888,203.556984 1189.03654,203.553159 1189.29472,203.294732 C1189.55291,203.036305 1189.55634,202.618641 1189.30244,202.356008 L1186.20511,199.257793 Z" id="Shape"></path>
        </g>
    </g>
</svg>