<?xml version="1.0" encoding="UTF-8"?>
<svg width="24px" height="24px" viewBox="0 0 24 24" version="1.1" xmlns="http://www.w3.org/2000/svg" xmlns:xlink="http://www.w3.org/1999/xlink">
    <!-- Generator: Sketch 52.1 (67048) - http://www.bohemiancoding.com/sketch -->
    <title>~Parts / Icon / Lock</title>
    <desc>Created with Sketch.</desc>
    <g id="~Parts-/-Icon-/-Lock" stroke="none" stroke-width="1" fill="none" fill-rule="evenodd">
        <circle id="Oval" fill="#0A84FF" fill-rule="nonzero" cx="12" cy="12" r="12"></circle>
        <g id="Group" transform="translate(6.000000, 4.000000)" fill="#FFFFFF">
            <path d="M3.87692308,3.80769231 C3.87692308,2.58416917 4.86878455,1.59230769 6.09230769,1.59230769 C7.31583083,1.59230769 8.30769231,2.58416917 8.30769231,3.80769231 L8.30769231,6.02307692 L3.87692308,6.02307692 L3.87692308,3.80769231 Z M2.4,6.02307692 L2.4,3.80769231 C2.4,1.76848708 4.05310246,0.115384615 6.09230769,0.115384615 C8.13151292,0.115384615 9.78461538,1.76848708 9.78461538,3.80769231 L9.78461538,6.02307692 L10.5230769,6.02307692 C11.338759,6.02307692 12,6.68431791 12,7.5 L12,13.4076923 C12,14.2233744 11.338759,14.8846154 10.5230769,14.8846154 L1.66153846,14.8846154 C0.845856369,14.8846154 0.184615385,14.2233744 0.184615385,13.4076923 L0.184615385,7.5 C0.184615385,6.68431791 0.845856369,6.02307692 1.66153846,6.02307692 L2.4,6.02307692 Z" id="Shape"></path>
        </g>
    </g>
</svg>