<?xml version="1.0" encoding="UTF-8"?>
<svg width="24px" height="24px" viewBox="0 0 24 24" version="1.1" xmlns="http://www.w3.org/2000/svg" xmlns:xlink="http://www.w3.org/1999/xlink">
    <!-- Generator: Sketch 52.2 (67145) - http://www.bohemiancoding.com/sketch -->
    <title>~Parts / Icon / Lock</title>
    <desc>Created with Sketch.</desc>
    <g id="~Parts-/-Icon-/-Lock" stroke="none" stroke-width="1" fill="none" fill-rule="evenodd">
        <circle id="Oval" fill="#0A84FF" fill-rule="nonzero" cx="12" cy="12" r="12"></circle>
        <g id="Group" transform="translate(7.000000, 5.000000)" fill="#FFFFFF">
            <path d="M3.125,3.25 C3.125,2.17304474 3.96446609,1.3 5,1.3 C6.03553391,1.3 6.875,2.17304474 6.875,3.25 L6.875,5.2 L3.125,5.2 L3.125,3.25 Z M1.875,5.2 L1.875,3.25 C1.875,1.45507456 3.27411016,2.88657986e-16 5,0 C6.72588984,-5.77315973e-16 8.125,1.45507456 8.125,3.25 L8.125,5.2 L8.75,5.2 C9.44035594,5.2 10,5.78202983 10,6.5 L10,11.7 C10,12.4179702 9.44035594,13 8.75,13 L1.25,13 C0.559644063,13 0,12.4179702 0,11.7 L0,6.5 C0,5.78202983 0.559644063,5.2 1.25,5.2 L1.875,5.2 Z" id="Shape"></path>
        </g>
    </g>
</svg>