<?xml version="1.0" encoding="UTF-8"?>
<svg width="20px" height="20px" viewBox="0 0 20 20" version="1.1" xmlns="http://www.w3.org/2000/svg" xmlns:xlink="http://www.w3.org/1999/xlink">
    <!-- Generator: Sketch 49.3 (51167) - http://www.bohemiancoding.com/sketch -->
    <title>Glyph / Basic / Trash - Dark gray Copy 1</title>
    <desc>Created with Sketch.</desc>
    <defs></defs>
    <g id="Glyph-/-Basic-/-Trash---Dark-gray-Copy-1" stroke="none" stroke-width="1" fill="none" fill-rule="evenodd">
        <path d="M11.2603973,2.52079451 L18.7489104,2.52079451 C19.4398681,2.52079451 20,3.08024052 20,3.78119177 C20,4.47728995 19.4442114,5.04158902 18.7489104,5.04158902 L17.8834951,5.04158902 L16.4184608,17.6419922 C16.2649132,18.9626177 15.1018865,20.0060628 13.7783311,19.9999735 L6.26311172,19.9653979 C4.95415347,19.9593758 3.78993982,18.9268825 3.62296516,17.6132564 L2.02498384,5.04158902 L1.25108957,5.04158902 C0.560131881,5.04158902 0,4.48214302 0,3.78119177 C0,3.08509358 0.555788577,2.52079451 1.25108957,2.52079451 L8.73960274,2.52079451 L8.73960274,1.29029512 C8.73960274,0.589169292 9.29904875,0.0207945118 10,0.0207945118 C10.6960982,0.0207945118 11.2603973,0.594358088 11.2603973,1.28250563 L11.2603973,2.52079451 Z M15.3663734,5.04158902 L4.54543368,5.04158902 L6.10268124,17.2927951 C6.1099552,17.3500209 6.21633182,17.444362 6.27451856,17.4446297 L13.789738,17.4792052 C13.8382871,17.4794286 13.9297846,17.3973388 13.935466,17.3484747 L15.3663734,5.04158902 Z" id="Combined-Shape" fill="#3E3D40" fill-rule="nonzero"></path>
    </g>
</svg>